<svg height="18.1" width="21.95" xmlns="http://www.w3.org/2000/svg"><g fill-rule="evenodd"><path d="M0 18.1V5q-.05-.55.45-1 .35-.4.95-.35h4.1V3.4q-.05-1.25 1.4-1.8L11 0l4.1 1.6h-.05q.5.15.8.5h4.65q.6-.05 1 .45.45.3.45.95v14.6H0" fill="#081a15" fill-opacity=".2"/><path d="M5.55 9H2v.3l2.95.75.6-1.05M17.5 5.3H2.25l-.3.3v2.7h5.6v-.65q0-.7.5-1.2.45-.4 1.1-.4.7 0 1.1.4.5.5.5 1.2v.65h7.05V5.6l-.3-.3m3.1 11.85H1.3V5.6l.3-.7q.25-.3.65-.3H6.3v-.5q0-.95 1.1-1.35l3.6-1.4 3.55 1.4.75.45h4.35q.4 0 .65.3l.3.7v12.95M11 2.1L7.6 3.4q-.6.25-.6.7v.5h7.95v-.5q0-.45-.6-.7L11 2.1M6.45 9l-4.3 7.35H4.8L7.4 9h-.95m.05 7.35h2.3L9.2 9h-1l-1.7 7.35M12.55 9l.5 7.35h2.3L13.55 9h-1m1.85 0l2.65 7.35h2.7L15.3 9h-.9m1.95 0l.6 1.05 2.95-.75V9h-3.55m3.3-5.1h-4v.7h1.85l.7.3.3.7v2.7h1.45V4.2l-.3-.3M11.75 9h-1.7L10 16.35h1.9L11.75 9m5.75 2l.75 1.25 1.65-1.95v-.65L17.5 11m2.4-.25l-1.1 2.55 1.1 1.95v-4.5m-17.9 0v4.5l1.1-1.95L2 10.75m2.4.25L2 9.65v.65l1.65 1.95L4.4 11"/><path d="M12.55 9h1l1.8 7.35h-2.3L12.55 9m1.85 0h.9l4.45 7.35h-2.7L14.4 9m5.25-5.1l.3.3v4.1H18.5V5.6l-.3-.7-.7-.3h-1.85v-.7h4M11 2.1l3.35 1.3q.6.25.6.7v.5H7v-.5q0-.45.6-.7L11 2.1m6.5 3.2l.3.3v2.7h-7.05v-.65q0-.7-.5-1.2-.4-.4-1.1-.4-.65 0-1.1.4-.5.5-.5 1.2v.65h-5.6V5.6l.3-.3H17.5M16.35 9h3.55v.3l-2.95.75-.6-1.05m3.55 1.75v4.5l-1.1-1.95 1.1-2.55m-2.4.25l2.4-1.35v.65l-1.65 1.95L17.5 11M4.4 11l-.75 1.25L2 10.3v-.65L4.4 11M2 10.75l1.1 2.55L2 15.25v-4.5m4.5 5.6L8.2 9h1l-.4 7.35H6.5M6.45 9h.95l-2.6 7.35H2.15L6.45 9m-.9 0l-.6 1.05L2 9.3V9h3.55m6.2 0l.15 7.35H10L10.05 9h1.7" fill="#8cb5e6"/></g></svg>