<svg height="25.05" width="25.1" xmlns="http://www.w3.org/2000/svg"><g fill-rule="evenodd"><path d="M19.9 1.2l.25-.05Q21.1.4 22.55.1h.05l1.3-.1.8.35.4.5v.45l-.15 1.05v.45L24 5.05l-.2.25-2.95 3.25.65 13.25v.2l-.05.3-.3.35v.05l-2.3 2.15-.05.05-.65.15-.65-.15q-.4-.3-.45-.65l-2.7-9.2-.15-.3-.15.15-4.15 3.8.05 2.45v.25l-.15.4-.2.15-1.7 1.65q-.35.35-.75.35l-.5-.05-.15-.05-.45-.65v.1l-.55-1.45-2.05.05-.2-.25q-.7-.5.05-2.05l-1.4-.5-.05-.1q-.4-.15-.5-.45l-.25-.7q0-.55.45-.8l1.55-1.6q.35-.35.9-.35l2.5.05 3.8-4.25-4.75-1.4h-.2l-2.9-.9L.8 8.15.7 8.1l-.4-.35-.05-.05L0 6.95l.35-.75 2.1-2.25.5-.3.4-.1 13.15.75 3.4-3.1m-9.3 9.55l.05.05v-.05h-.05" fill="#081a15" fill-opacity=".498"/><path d="M22.45 6.05l-.05.05-2.6 2.95.6 11.45-.05.4-.2.4-2.05 1.85-.6.25q-.4 0-.65-.2l.05.05-.45-.55-2.35-8-.1-.25-3.7 3.35.05 2.2-.05.35v.05l-.25.35v-.05l-1.5 1.45-.55.3h-.05l-.6-.15-.4-.45-.05-.05-.45-1.2-1.8.05-.2-.2q-.55-.45.1-1.8l-1.25-.5-.5-.45v.05l-.15-.65v-.05q.05-.35.3-.55l1.5-1.5.7-.25 2.15.05 3.35-3.7L6.5 9.85l-.15-.05-2.55-.75-1.4-.4-.5-.4h-.05L1.7 7.6 2 7l1.85-2v.05l.35-.25v-.05l.4-.05 11.45.65L19 2.65l.15-.05q.9-.65 2.15-.9h.05l1.1-.1q.4 0 .7.3l.05.05.25.35v.05l.05.4-.1.9v.15l-.05.25V4l-.85 2-.05.05"/><path d="M22.4 3.75l-.75 1.7-2.9 3.15.65 11.95-2 1.85-2.35-8-.2-.5q-.25-.6-.65-.6-.3-.1-.8.35l-4.1 3.7.05 2.65-1.5 1.45-.9-2.4-.2.15q-1.2.85-1.45.65l-.05-.1.3-.85.5-.75-2.4-.95 1.45-1.45 2.65.05 3.7-4.15.3-.4.05-.4q0-.3-.6-.6l-4.55-1.4-2.6-.75-1.35-.4 1.85-2 11.9.65q1.9-2 3.15-2.9.8-.55 1.9-.75l.95-.1-.05 1.15" fill="#8cb5e6"/></g></svg>