<svg height="23.55" width="24.55" xmlns="http://www.w3.org/2000/svg"><g fill-rule="evenodd"><path d="M16.4 9.9l.25.05h.25l.05.05q.55.05 1.35 1.2l.95 1.65v.05l.1.3.05.05-.15.35q-.55 1-1.1 1.2l-.4.15h-.1l-.5-.05-.05.25.45 2.2 3.15-.05-1.25 1.7-1.05 1.4h2.4l.3.15v-.05l3.45 3.05H0l3.45-3.05.15-.05.1-.05h2.55L5.1 19.15l-1.2-1.8 3.45.05.45-.9-.3-.95v-.05h-.1l-2.65.25H4.6l-.3-.4v.05q-.2-.25 0-1.2.05-.85.7-1.6h.05q.85-1 2-1.05 1.45-.1 2.25.75l.05.05.25.15.05.1.6.1h-.05l.4.05v-2.7L6 9.25q-3.05-.8-4.75-1.85L.5 6.95l.55-1.25v-.15h.15L7.8 2.6Q9.9 1.5 12 .1l.15-.1L17 2.75h-.05q3.1 1.5 6.55 2.7h.15l.3 1.6-.55.3q-1.35.85-4.55 1.7L13.8 10v1.2l.15-.15Q15.4 9.9 16.4 9.9" fill="#081a15" fill-opacity=".498"/><path d="M15.85 10.1l.2.05h.2l.05.05q.5.05 1.2 1.05l.8 1.45v.05l.1.25.05.05-.15.3-.95 1.05-.35.1h-.1l-.4-.05-.05.25.4 1.9 2.7-.05-1.05 1.5-.95 1.2h2.1l.25.15v-.05l3 2.65H1.55l3-2.65.15-.05.1-.05H7l-1-1.1-1.05-1.55 3 .05.4-.8-.25-.8V15H8l-2.3.2h-.15l-.25-.35v.05-1.05q.05-.75.6-1.4h.05q.75-.85 1.75-.9 1.25-.1 1.95.65l.05.05.2.15.05.05.55.1h-.05l.35.05v-2.35l-4-.7q-2.65-.7-4.15-1.6L2 7.55l.5-1.1v-.1h.1q3.05-1.3 5.75-2.6Q10.2 2.8 12 1.6l.15-.1 4.2 2.4h-.05Q19 5.2 22 6.25h.15l.25 1.4-.5.25q-1.15.75-3.95 1.5l-4.4.8v1.05l.15-.15q1.25-1 2.15-1"/><path d="M8.85 18.25q1.65 1.1 3.6 1.1 1.85 0 3.3-1.15l-1.2-2.15-2.7.3-1.1-.1-1.9 2M17 13.5l-.1.05h-.05l-.3-.15q-.05-.5-.45-.5H16l-.4.25-.1.25.05.45-.1.9.75 3.05.25-.25 1.25-.05q-.8 1.25-2.1 2l-.15.05-1.5.6-1.5.15-1.55-.15q-.8-.2-1.65-.6l-.15-.05q-1.5-.75-2.3-1.95l1.25.05.35.3 1-2.1h-.05q-.5-.85-.35-1.5l.45-.7.3-.2 1.8.2h.2l.85-.05.5-.15.2-.45 1-1.1.7-.5.85-.3h.05l.3.2.6.6.6 1.2-.4.45M12.2 2.8q.2 1.05.9 2.3 1.15 2.05 3.1 3.15l-4 .4-4.05-.4q2.9-1.55 4.05-5.45m3.15 1.7q2.75 1.4 5.7 2.35-.9.6-2.9 1-3.85-1.5-5.6-5.05 1.2.9 2.8 1.7m-6.5 15.65q1.8.85 3.6.85 1.75 0 3.35-.8l.15-.05h3.35l1.1.95H3.95l1.1-.95h3.8m3.75-7.35l-.85.1V10h.85v2.8M3.45 6.95Q6.3 5.9 9 4.5l2.85-1.7Q10 6.35 6.25 7.85q-2.05-.4-2.8-.9m2.7 7.3l.05-.3q0-.5.4-.95v.05q.5-.6 1.15-.6l1 .2-.4.4H8.1q-.45.1-.65.4H7.4l-.3.7-.95.1" fill="#8cb5e6"/></g></svg>