<svg height="23.75" width="23.5" xmlns="http://www.w3.org/2000/svg"><g fill-rule="evenodd"><path d="M19.55 1.8q.65-.55 1.55-.55.85-.15 1.65.55l.2.1V2q.55.7.55 1.55 0 1-.7 1.75h-.05q-.8.7-1.65.7-1-.05-1.55-.55H18V7.6l.75.05.5-.1.25.6q.5 1 1.55 1.3l1.25.35-1.5 1.5q-1.05.95-1.05 2.25 0 1.25.85 2.75.95 1.85 0 3.35l-1.1 1.15h-.15q-2 1.6-5.65 2.7l-.1.05h-.05l-1.25.2h-.25l-1.3-.2h-.05l-.05-.05q-3.75-1.1-5.8-2.85l-1.05-1v-.15q-1-1.45.05-3.2H3.8q.75-1.5.85-2.7-.05-1.35-1.05-2.3h-.05L2.2 9.8l1.25-.35H3.4q.95-.3 1.45-1.3v-.1l.2-.5.7.1h.55V7.6l.2-.05v-2.1H4V7.2H0V0h4v1.8h15.55" fill="#081a15" fill-opacity=".498"/><path d="M19.85 2.55q.75-.1 1.45.5l.15.1v.05q.5.65.5 1.35 0 .9-.6 1.55h-.05q-.7.6-1.45.6-.85-.05-1.35-.5h-1.35v1.9l.65.05.45-.1.2.5q.45.9 1.35 1.15l1.1.3-1.3 1.3q-.9.85-.9 1.95t.7 2.4q.85 1.6 0 2.9l-.1.1-.85.9h-.1q-1.75 1.4-4.95 2.35l-.05.05h-.05l-1.1.2H12l-1.15-.2h-.05l-.05-.05q-3.25-.95-5.05-2.45l-.9-.9v-.1q-.85-1.25.05-2.8H4.8q.65-1.3.75-2.35-.05-1.15-.9-2H4.6L3.4 10l1.1-.3h-.05q.85-.25 1.25-1.15V8.5l.2-.45.6.1H7V8.1l.15-.05V6.2H5v1.55H1.5V1.5H5v1.55h13.5q.55-.5 1.35-.5"/><path d="M19 3.85q.3-.4.85-.35l.75.3h.05l.3.75-.3.8-.05.05-.75.3q-.55 0-.85-.4l-.1-.1H4v1.55H2.45v-4.3H4V4h14.9l.1-.15m-.1 6.75q-1.15 1.1-1.2 2.65-.05 1.25.85 2.85.5 1 0 1.85l-.75.8.05-.05q-1.65 1.35-4.75 2.25h.05l-1.05.2-1.1-.2h.05q-3.1-.9-4.75-2.25l.05.05-.75-.8q-.5-.85.05-1.85.85-1.6.85-2.85-.1-1.5-1.2-2.65l-.1-.15q.85-.4 1.3-1.3.55.05 1.1-.25t1.05-.95L8.6 8l.8-.95V7l.3-.05h4.75l.3.05.8.95q.5.7 1.15 1l.95.15q.5 1 1.35 1.35l-.1.15m-3.75 2.7l-.55.7-1.1-1-.65-.7-.1-.75.45-.5.35-.1q.9 0 1.4 1.05.35.7.2 1.3m.45-1.6q-.75-1.4-2.05-1.4l-.65.15-.15.05.4-1.05.1-.35H10.2l.1.35q.7 1.2.3 2.85l-.65.7-1.5 1.7q-.35.95.1 1.85.5 1.1 2 2.2l1.2.15 1.15-.15q1.5-1.1 2-2.2.5-.85.1-1.85l-.05-.1q.7-.35.85-1.2.2-.85-.2-1.7" fill="#8cb5e6"/></g></svg>