<svg height="19.3" width="23.95" xmlns="http://www.w3.org/2000/svg"><g fill-rule="evenodd"><path d="M5.3 4.3h.15L5.5 4l.25.25L7.1 4l-.5-.7 1.05-.45-.05-.5v-.1q-.05-.65.45-.9.8-.55 1.5-.5h.05l1.65.35L14.3.25h.05l2.15-.2 1.95.45v.05h.05l.85.65 1.35-.1h.05l.45-.25h.1L22.7.6q.65.1.85.85.4.9.4 2.15v.05l-.6 3.15-.15.4-1-.45-.15.1-.8.55-.05.45.45-.45.35-.25.2.35.55 1.4-.2.85v.05l-.35.75-.05.05-.75 1-.15.05-1.6.05-1.35 2-.3-.15-2.1 5.75-3.25-5v.7h-.05q-.25.45-12.15-6.3L0 8.4l1.1-.85-.25-.1.2-.35L2.2 5.85q.65-.55 2.9-1.2l.3-.15.05-.1-.15-.1m2.25-.4l-.15-.2-.05.05-.05.2.25-.05" fill="#081a15" fill-opacity=".329"/><path d="M6.4 4.7h.15l.05-.25.2.2 1.2-.2-.2-.3-.25-.3.9-.4L8.4 3v-.05q-.05-.6.4-.8l1.3-.45h.05l1.45.3 2.65-.8h.05l1.85-.2 1.7.4v.05h.05l.75.55 1.15-.05h.05l.4-.25h.1l1.2-.2q.55.1.75.75.35.75.35 1.85v.05L22.1 6.9l-.1.35-.9-.4-.1.1-.7.45-.05.4.4-.4.3-.2.15.3.5 1.2-.2.75v.05l-.3.65-.05.05-.65.85-.1.05-1.4.05-1.2 1.75-.25-.15-1.8 5-2.85-4.35v.6h-.05q-.2.4-10.55-5.45l-.4-.25.95-.75-.2-.1.15-.3 1-1.1L6.25 5l.25-.1.05-.1-.15-.1m1.95-.35l-.1-.15-.05.05-.05.15.2-.05"/><path d="M15.55 12.7l.1.95-.3 2-2.45-3.75-2.55-3 1.6 4-8.3-5 .8-.9-.3-.05 2.95-1.2-.15 1.5 1.25.1.7.8-.35-1.6H7.8l.25-.9L7.6 5l3.1-.55-1.6-.35 1.75-.9q.1-.2-.05-.2l-.3-.1-1.15-.1.55-.15 1.05.1.35.1h.4l2.75-.75 1.3-.1.95.15.65.2.35.2-.1.5 1-.3 1.25-.1 1.35.15.4.45.1.95-.7-.55-1.4-.25-1.25.15-1.05.85-.5 1.1-.05 1.1.35.6.45.35.65-.4-.05.9.45-.05v.35l.75-.7-.25 1.3.4-.35.4.2.2.25.55-.55-.15.7-.45.95-.5.15-1.05-.3-1.6-.15v.05l1.05.3-2.2.75-2.95-2.7-.65-.3-2.35-.6 2 1.15L13 9.7l1.3 2 .8 2.35.4-1.35h.05m-.5-6.9l-1.45.8-.85.1-1.25-.75-.2-.2v.05q0 .6.35.95l.6.5.8.1q.5 0 1-.35l1-1.2m6.45-1v.4l-.25.7-.05.05h-.05l-.25-.5q-.1-.25.05-.3l.1-.05.25-.05.1-.15-.1.05h-.15l-.8-.4h-.25l-.4.5-.1.1v-.1l-.15-.65-.1-.1-.7.05-.15.2-.1.4h-.05V4.9l-.15-.25-.2-.05-.6.35h-.05V4.9l.15-.3.4-.4.65-.3 2 .1.65.3.3.5m-4.8-1v-.05q-1.65.15-2.8-.65l.15.35q.25.55.65.85v.25l.05.15h.15l.8-.25.9-.55.1-.1m.05-.2l-.05-.3.1-.65-.1-.05h-.2l-1.2.3-.15.1.15.05.65.15.55.25.25.15" fill="#8cb5e6"/></g></svg>