<?xml version="1.0" encoding="UTF-8" standalone="no"?>
<svg xmlns:xlink="http://www.w3.org/1999/xlink" height="26.2px" width="36.55px" xmlns="http://www.w3.org/2000/svg">
  <g transform="matrix(1.0, 0.0, 0.0, 1.0, 16.75, 12.0)">
    <use height="26.2" transform="matrix(1.0, 0.0, 0.0, 1.0, -16.75, -12.0)" width="36.55" xlink:href="#shape0"/>
  </g>
  <defs>
    <g id="shape0" transform="matrix(1.0, 0.0, 0.0, 1.0, 16.75, 12.0)">
      <path d="M8.8 -5.8 Q9.45 -5.8 14.55 -7.85 L16.4 -8.2 18.25 -8.6 Q19.35 -8.6 19.8 -7.65 19.45 -6.1 18.45 -4.95 17.5 -3.85 15.7 -2.85 L16.35 -2.05 16.6 -0.95 Q16.6 -0.2 16.2 0.45 15.6 1.45 14.45 1.45 L12.85 1.1 11.75 0.25 Q11.9 1.1 11.5 1.5 L11.0 1.05 Q10.75 0.65 10.2 0.65 9.45 0.65 9.55 3.7 9.7 6.7 7.25 6.7 6.4 6.7 6.1 6.05 L5.7 4.8 Q5.2 5.0 5.0 5.2 L4.85 5.4 Q5.65 7.75 5.65 9.65 5.65 10.8 2.0 14.2 L1.05 13.6 0.05 12.95 Q-1.15 12.95 -1.5 12.5 -1.95 11.75 -1.4 9.3 -0.8 6.7 -2.6 4.85 -3.95 3.45 -4.65 3.45 L-8.05 3.85 Q-8.95 3.75 -10.05 1.25 L-8.9 0.2 -13.1 -2.65 Q-14.85 -4.05 -14.85 -5.1 -14.85 -5.6 -14.3 -5.6 -13.8 -5.6 -13.8 -6.1 -13.8 -7.1 -14.4 -8.1 L-15.05 -9.5 Q-15.05 -10.15 -14.7 -10.35 L-14.05 -10.5 -12.4 -8.8 Q-10.85 -7.0 -9.2 -6.4 -5.85 -5.15 -5.65 -5.25 L-5.1 -5.2 Q-2.95 -4.4 -1.7 -4.7 -1.45 -4.75 0.45 -2.5 0.4 -4.95 1.35 -6.0 1.9 -6.55 2.45 -6.55 L3.15 -6.5 3.3 -6.3 4.05 -4.2 4.45 -2.6 5.3 -4.35 7.0 -5.25 Q8.2 -5.8 8.8 -5.8" fill="#081a15" fill-rule="evenodd" stroke="none"/>
      <path d="M7.2 -7.3 Q7.85 -7.3 12.95 -9.35 L14.8 -9.7 16.65 -10.1 Q17.75 -10.1 18.2 -9.15 17.85 -7.6 16.85 -6.45 15.9 -5.35 14.1 -4.35 L14.75 -3.55 15.0 -2.45 Q15.0 -1.7 14.6 -1.05 14.0 -0.05 12.85 -0.05 10.9 -0.05 10.35 -0.9 L10.2 -0.3 9.9 0.0 8.6 -0.15 Q7.85 -0.15 7.95 2.55 8.1 5.2 5.65 5.2 4.8 5.2 4.5 4.7 L4.05 3.65 3.25 3.9 Q4.05 6.25 4.05 8.15 4.05 9.3 0.4 12.7 L-0.75 12.25 -1.65 12.05 Q-3.85 11.45 -3.0 7.8 -2.4 5.2 -4.2 3.55 L-6.2 2.35 -9.65 2.55 Q-10.5 2.35 -11.65 -0.25 L-10.5 -1.3 -14.7 -4.15 Q-16.45 -5.55 -16.45 -6.6 -16.45 -7.1 -15.95 -6.8 -15.5 -6.5 -15.5 -7.0 L-16.05 -7.7 Q-16.6 -8.4 -16.75 -10.4 -16.75 -11.05 -16.35 -11.55 L-15.65 -12.0 -14.0 -10.3 Q-12.45 -8.5 -10.8 -7.9 -7.45 -6.65 -7.25 -6.75 L-6.7 -6.7 Q-4.55 -5.9 -3.3 -6.2 -3.05 -6.25 -1.15 -4.0 -1.2 -6.45 -0.25 -7.5 0.3 -8.05 0.85 -8.05 L1.55 -8.0 1.7 -7.8 2.45 -5.7 2.85 -4.1 3.7 -5.85 5.4 -6.75 7.2 -7.3" fill="#000000" fill-rule="evenodd" stroke="none"/>
      <path d="M15.65 -7.55 L16.65 -8.3 17.55 -9.05 17.6 -9.05 17.0 -8.35 16.65 -7.9 16.65 -7.85 16.75 -7.9 16.6 -7.7 16.15 -6.9 Q14.85 -5.7 13.95 -5.7 L13.95 -5.65 14.0 -5.65 14.15 -5.6 14.2 -5.5 13.6 -5.3 13.1 -5.05 12.4 -4.85 12.25 -4.65 12.05 -4.55 11.95 -4.5 12.15 -4.4 12.2 -4.3 Q12.2 -4.35 12.35 -4.4 L12.5 -4.5 12.5 -4.4 12.5 -4.3 12.35 -4.1 12.15 -3.75 12.2 -3.65 12.25 -3.6 Q12.25 -3.35 12.45 -3.25 L13.0 -3.2 12.9 -3.1 13.95 -3.0 14.0 -3.0 13.8 -2.9 13.65 -2.85 12.9 -2.9 Q13.05 -2.75 13.3 -2.7 L13.8 -2.8 13.95 -2.7 13.85 -2.5 13.5 -2.3 13.35 -2.3 13.4 -2.25 13.45 -2.25 13.65 -2.3 14.0 -2.4 14.15 -2.45 13.75 -2.15 13.4 -2.05 13.0 -2.1 12.65 -2.25 12.6 -2.2 12.55 -2.1 12.6 -1.9 12.65 -1.85 12.65 -1.8 12.6 -1.75 12.8 -1.75 13.2 -1.75 13.55 -1.85 13.7 -1.9 13.5 -1.7 13.5 -1.55 13.4 -1.55 13.3 -1.6 13.1 -1.5 12.95 -1.5 12.0 -1.75 11.1 -2.25 11.0 -2.2 11.7 -1.55 Q12.2 -1.2 12.75 -1.2 L13.2 -1.3 13.65 -1.5 13.65 -1.45 13.25 -1.2 12.4 -1.05 11.75 -1.3 Q11.1 -1.5 11.05 -1.75 L11.15 -1.75 11.0 -1.85 10.75 -2.05 11.05 -1.6 11.05 -1.55 10.5 -2.0 10.45 -2.0 10.35 -1.95 10.15 -1.9 10.05 -1.85 10.1 -1.65 10.15 -1.45 9.7 -1.75 9.75 -1.45 9.75 -1.25 9.7 -1.0 9.55 -0.95 9.55 -1.05 9.55 -1.1 Q9.35 -1.2 9.3 -1.45 L9.2 -1.75 8.95 -1.45 9.0 -1.35 9.0 -1.3 9.1 -1.05 9.25 -0.85 9.25 -0.8 9.15 -0.8 8.85 -1.1 8.7 -1.4 8.55 -1.25 8.35 -1.0 8.25 -1.15 8.3 -1.3 8.3 -1.35 8.25 -1.45 7.7 -1.3 7.45 -1.15 Q7.5 -1.05 7.85 -1.0 L8.1 -1.1 7.95 -0.9 7.65 -0.85 7.5 -0.85 7.0 -1.0 7.15 -0.85 6.9 -0.65 6.9 -0.45 6.8 -0.45 6.65 -0.55 6.55 -0.7 6.55 -0.65 6.55 -0.55 6.65 -0.45 6.75 -0.25 6.7 0.15 6.75 0.25 6.8 0.35 6.7 0.6 6.6 0.85 6.6 1.0 6.85 0.95 6.7 1.15 6.55 1.4 6.55 1.5 6.6 1.6 6.5 1.65 6.95 2.65 6.9 2.7 6.85 2.8 6.85 2.95 6.95 3.1 6.85 3.2 6.55 2.65 6.2 2.55 6.2 2.65 6.5 2.75 6.4 2.9 6.35 3.15 6.3 3.25 5.85 2.9 5.4 2.6 5.5 2.85 5.65 3.1 5.5 3.1 5.7 3.65 5.8 4.2 5.8 4.25 5.2 3.6 4.8 3.2 4.9 2.9 5.05 2.65 4.9 2.45 4.95 2.15 4.95 1.95 4.7 1.6 Q4.35 1.25 4.0 1.25 L3.85 1.35 3.65 1.4 3.75 1.65 3.7 1.65 3.85 1.85 4.15 2.15 Q2.4 2.9 1.6 2.9 L1.4 2.9 1.15 2.95 0.75 2.9 0.8 1.15 1.9 1.3 4.25 0.85 4.3 0.85 4.8 -0.05 4.75 -0.45 4.65 -0.65 4.55 -0.75 4.3 -0.75 3.15 -0.15 2.5 0.0 2.05 -0.15 1.6 -0.35 1.6 -0.3 1.15 -0.3 1.0 -0.65 0.85 -2.2 0.8 -2.35 0.8 -1.95 0.65 -2.2 0.7 -2.9 0.65 -3.2 0.6 -3.55 0.65 -3.65 0.65 -3.8 0.65 -4.65 0.55 -4.95 0.6 -4.95 0.65 -5.0 0.65 -5.2 0.55 -5.4 0.5 -4.85 0.45 -4.45 0.4 -4.4 0.4 -3.25 Q0.4 -1.9 0.0 -1.65 L-0.4 -0.8 -0.6 -0.1 -1.25 0.0 -2.85 0.15 -3.9 -0.1 -4.15 -0.35 -4.25 -0.85 -4.4 -0.55 -4.5 -0.15 -4.1 0.4 -3.7 0.65 -3.6 0.75 -3.5 0.85 -3.25 1.0 -2.5 1.1 -2.1 1.1 -1.1 1.05 -0.45 1.05 -0.35 1.45 -0.25 2.35 -0.45 2.6 Q-0.65 2.8 -0.95 2.8 L-2.1 2.6 -2.65 2.3 -2.85 2.45 -3.05 2.45 -3.1 2.35 -3.15 2.3 -3.1 2.2 -3.0 2.1 -3.05 2.0 -3.15 1.95 -3.15 1.6 -3.3 1.75 -3.4 1.9 -3.5 1.85 -3.6 2.2 -3.85 2.4 -4.1 2.35 -4.3 2.3 -3.7 1.75 -3.5 1.6 -3.55 1.45 -3.7 1.35 -4.0 1.45 -4.4 1.85 -4.3 1.9 -4.25 1.95 -4.4 2.15 -4.55 2.45 -4.6 2.45 -4.7 2.3 -4.55 2.3 -4.55 2.05 -4.6 1.9 -4.7 1.8 -4.55 1.6 -4.75 1.0 -5.3 1.4 -5.45 1.35 -5.45 1.3 -5.3 0.95 -5.45 0.85 -5.25 0.75 -5.5 0.7 -5.7 0.7 -5.75 0.45 -5.95 0.4 -6.9 0.7 -7.8 1.05 -8.75 0.95 -9.7 0.75 -9.55 0.65 -10.4 0.4 -10.7 0.2 -10.35 0.2 -10.4 0.1 -10.35 0.05 -9.55 0.15 -8.8 0.3 -8.2 0.35 -7.8 0.25 -7.5 0.2 -8.6 0.05 -8.85 0.0 -8.95 0.05 -9.05 0.1 -9.35 0.05 -9.7 0.0 -9.9 -0.25 -10.35 -0.25 -10.5 -0.4 -10.35 -0.5 -9.95 -0.5 -9.95 -0.85 -9.65 -0.85 -9.5 -0.9 -9.4 -1.0 -9.25 -1.0 -9.1 -0.95 -8.9 -0.9 -8.75 -1.0 -8.9 -1.05 -9.05 -1.2 -8.95 -1.25 -8.55 -1.2 -8.5 -1.2 -9.65 -1.85 -10.8 -2.35 -10.3 -2.2 -9.8 -2.0 Q-10.6 -2.35 -11.6 -3.05 L-12.65 -3.8 -13.2 -4.1 -13.5 -4.4 -14.0 -4.7 -14.7 -5.5 -14.75 -5.5 -14.75 -5.45 -15.2 -6.05 -15.4 -6.45 -15.5 -6.6 -14.25 -5.3 -13.35 -4.55 -13.35 -4.7 -14.95 -6.3 -14.3 -5.65 Q-13.75 -5.15 -13.45 -5.15 L-14.2 -5.95 -14.95 -6.75 -15.05 -6.95 -15.1 -7.1 -15.0 -7.1 -14.85 -7.05 -14.85 -6.9 Q-14.85 -6.65 -14.45 -6.65 L-14.45 -6.75 -13.5 -6.05 -12.65 -5.4 -12.7 -5.5 -12.75 -5.6 -12.7 -5.7 -12.65 -5.8 -13.0 -6.45 -13.8 -7.35 -15.65 -9.7 -15.6 -9.75 -14.75 -8.5 -14.6 -8.65 -15.35 -9.55 -15.6 -10.2 -15.6 -10.25 -15.55 -10.35 -14.45 -8.75 -13.25 -7.6 -13.25 -7.65 -14.65 -9.2 -15.05 -9.75 -15.65 -11.0 -15.0 -10.25 -14.6 -9.8 -14.6 -9.95 Q-13.75 -8.6 -12.1 -7.55 L-10.6 -6.7 -9.75 -6.25 -8.3 -5.55 -8.85 -5.85 -9.5 -6.3 -7.8 -5.85 -6.85 -5.55 -7.65 -5.9 -8.45 -6.2 -8.5 -6.15 -8.6 -6.15 Q-8.85 -6.15 -9.55 -6.6 L-10.25 -7.1 -8.35 -6.3 -6.2 -5.5 -3.6 -5.05 -3.35 -4.7 -3.0 -4.3 -3.0 -4.25 -3.05 -4.25 -2.7 -3.95 -2.4 -3.5 -2.5 -3.55 -2.6 -3.7 -3.0 -3.45 -3.05 -3.15 -3.0 -2.85 Q-2.85 -2.65 -2.6 -2.7 L-2.55 -2.65 -2.65 -2.5 -2.35 -2.45 -1.95 -2.5 Q-1.25 -2.5 -1.2 -2.2 L-1.15 -2.05 -0.8 -2.0 Q-0.5 -2.3 -0.5 -2.6 L-0.5 -2.8 -0.45 -2.85 -0.35 -3.05 -0.35 -3.2 -0.3 -3.35 -0.3 -3.45 0.0 -4.7 0.5 -5.9 0.6 -6.6 0.95 -7.1 1.0 -7.0 1.0 -6.8 0.95 -6.9 0.9 -6.85 0.85 -6.75 0.95 -6.45 1.0 -6.0 1.05 -6.1 1.2 -6.4 1.25 -6.3 1.1 -4.95 1.15 -4.65 1.3 -4.4 Q1.6 -3.9 1.7 -2.05 L2.1 -2.05 3.25 -2.7 4.2 -3.2 4.1 -3.25 4.2 -3.5 4.25 -3.65 4.1 -3.8 4.0 -3.9 3.85 -3.8 3.75 -3.6 3.8 -3.55 3.85 -3.55 3.8 -3.5 3.65 -3.5 3.65 -3.6 4.05 -4.7 4.6 -5.55 4.65 -5.55 4.7 -5.6 4.85 -5.7 4.95 -5.85 5.05 -5.85 5.15 -5.8 5.8 -6.3 5.8 -6.1 6.7 -6.55 Q7.15 -6.85 7.35 -6.85 L7.5 -6.8 7.55 -6.75 7.5 -6.6 7.1 -6.3 7.4 -6.25 7.55 -6.25 7.75 -6.1 8.05 -6.35 8.3 -6.45 8.4 -6.45 8.45 -6.4 Q8.75 -6.4 9.2 -6.8 L10.0 -7.15 10.05 -7.15 10.1 -7.1 10.35 -7.4 11.45 -8.05 11.2 -7.55 12.1 -8.2 12.1 -8.15 12.75 -8.3 12.9 -8.35 12.9 -8.3 12.95 -8.15 12.65 -8.05 12.45 -7.9 12.6 -7.8 12.5 -7.75 12.3 -7.6 12.85 -7.8 13.05 -7.7 15.15 -8.3 Q15.6 -8.45 16.05 -8.75 L16.5 -9.1 16.55 -9.05 16.55 -9.0 17.15 -9.05 16.6 -8.45 15.65 -7.55 M1.85 7.35 L1.4 7.3 1.15 7.2 0.8 7.0 0.7 6.75 0.7 6.0 0.75 6.15 1.5 6.2 1.95 6.15 2.15 6.1 2.2 6.15 2.35 6.1 2.45 6.0 2.45 6.1 2.5 6.05 2.6 6.0 2.75 6.1 2.75 6.4 2.5 7.25 1.85 7.35 M0.85 3.75 L2.05 3.75 2.05 4.95 0.85 4.95 0.85 3.75 M0.9 8.25 L0.75 8.15 1.35 8.2 1.7 8.25 1.85 8.2 2.0 8.15 2.15 8.15 2.6 8.25 3.0 7.95 3.05 7.9 3.05 8.05 2.75 8.8 2.1 9.5 1.8 9.0 1.6 8.85 1.5 9.1 1.4 9.15 1.3 9.05 1.3 9.2 1.35 9.6 1.2 9.6 1.2 9.65 1.25 9.75 1.3 9.75 1.3 9.8 1.2 9.95 1.25 10.05 1.3 10.35 0.9 10.3 0.9 10.15 0.7 9.3 Q0.6 8.45 0.9 8.25 M-1.75 7.55 L-1.5 7.55 -1.45 7.45 -1.2 7.55 -1.05 7.45 -0.9 7.5 -0.65 7.5 -0.55 7.5 -0.5 7.55 -0.4 7.75 -0.2 8.05 -0.2 8.0 -0.2 7.85 -0.05 8.4 -0.1 8.65 -0.15 8.85 0.0 9.8 -0.05 9.85 -0.05 9.95 -0.15 9.6 Q-0.2 9.25 -0.35 9.25 L-0.45 9.3 -0.55 9.3 -0.35 9.4 -0.3 9.5 -0.35 9.65 -0.35 9.75 -0.3 10.05 -0.15 10.6 0.4 11.7 0.25 11.75 -0.4 11.25 -0.9 10.6 -0.9 10.45 -0.85 10.35 -1.05 10.45 -1.1 10.35 -1.1 10.2 -1.2 10.1 -1.25 9.9 -1.35 10.05 -1.95 10.2 -2.05 10.4 -2.25 10.75 -2.5 10.6 -2.65 10.35 -2.4 10.05 -2.2 9.5 -2.25 9.45 -2.3 9.35 -2.3 9.45 -2.35 9.5 -2.5 9.5 -2.55 9.5 -2.35 9.2 -2.1 9.0 -2.2 8.9 -2.2 8.85 -2.4 9.05 -2.5 9.1 -2.55 9.05 -2.55 9.0 -2.25 8.6 -2.05 8.2 -2.1 8.2 -2.1 8.15 -1.95 7.85 -1.65 7.65 -1.8 7.65 -1.75 7.55 M-13.3 -4.55 L-13.45 -4.5 -13.2 -4.4 -13.3 -4.55 M-0.8 4.7 L-1.4 4.75 -1.9 4.8 -2.0 4.55 -2.1 4.65 -2.35 4.65 -2.35 4.55 -2.35 4.5 -2.4 4.5 -2.55 4.55 -2.65 4.55 -2.75 4.45 -2.55 4.1 -2.4 4.4 -2.25 4.0 -2.25 3.85 -2.2 3.65 -2.05 3.65 -1.95 3.6 -1.95 3.45 -0.45 3.9 Q-0.2 4.65 -0.8 4.7 M-0.5 5.85 L-0.55 5.95 -0.45 5.95 -0.3 5.85 -0.2 5.85 -0.15 6.2 -0.15 6.4 -0.2 6.5 -0.2 6.3 -0.25 6.1 -0.6 6.25 -1.4 6.4 -1.6 6.4 -1.6 6.15 -1.8 6.35 -2.15 6.45 -1.95 6.25 -1.8 6.0 -2.05 5.85 -2.3 5.65 -2.55 5.75 -2.75 5.8 -2.8 5.8 -2.75 5.75 -2.75 5.7 -2.7 5.6 -2.65 5.55 -1.9 5.6 -1.15 5.65 -1.1 5.65 -1.1 5.6 -0.9 5.7 -0.5 5.85" fill="#7fa4cf" fill-rule="evenodd" stroke="none"/>
    </g>
  </defs>
</svg>
