<svg height="26.2" width="36.55" xmlns="http://www.w3.org/2000/svg"><g fill-rule="evenodd"><path d="M25.55 6.2q.65 0 5.75-2.05l1.85-.35L35 3.4q1.1 0 1.55.95-.35 1.55-1.35 2.7-.95 1.1-2.75 2.1l.65.8.25 1.1q0 .75-.4 1.4-.6 1-1.75 1l-1.6-.35-1.1-.85q.15.85-.25 1.25l-.5-.45q-.25-.4-.8-.4-.75 0-.65 3.05.15 3-2.3 3-.85 0-1.15-.65l-.4-1.25q-.5.2-.7.4l-.15.2q.8 2.35.8 4.25 0 1.15-3.65 4.55l-.95-.6-1-.65q-1.2 0-1.55-.45-.45-.75.1-3.2.6-2.6-1.2-4.45-1.35-1.4-2.05-1.4l-3.4.4q-.9-.1-2-2.6l1.15-1.05-4.2-2.85Q1.9 7.95 1.9 6.9q0-.5.55-.5.5 0 .5-.5 0-1-.6-2L1.7 2.5q0-.65.35-.85l.65-.15 1.65 1.7Q5.9 5 7.55 5.6q3.35 1.25 3.55 1.15l.55.05q2.15.8 3.4.5.25-.05 2.15 2.2-.05-2.45.9-3.5.55-.55 1.1-.55l.7.05.15.2.75 2.1.4 1.6.85-1.75 1.7-.9q1.2-.55 1.8-.55" fill="#081a15"/><path d="M23.95 4.7q.65 0 5.75-2.05l1.85-.35 1.85-.4q1.1 0 1.55.95-.35 1.55-1.35 2.7-.95 1.1-2.75 2.1l.65.8.25 1.1q0 .75-.4 1.4-.6 1-1.75 1-1.95 0-2.5-.85l-.15.6-.3.3-1.3-.15q-.75 0-.65 2.7.15 2.65-2.3 2.65-.85 0-1.15-.5l-.45-1.05-.8.25q.8 2.35.8 4.25 0 1.15-3.65 4.55L16 24.25l-.9-.2q-2.2-.6-1.35-4.25.6-2.6-1.2-4.25l-2-1.2-3.45.2q-.85-.2-2-2.8l1.15-1.05-4.2-2.85Q.3 6.45.3 5.4q0-.5.5-.2.45.3.45-.2L.7 4.3Q.15 3.6 0 1.6 0 .95.4.45L1.1 0l1.65 1.7q1.55 1.8 3.2 2.4Q9.3 5.35 9.5 5.25l.55.05q2.15.8 3.4.5.25-.05 2.15 2.2-.05-2.45.9-3.5.55-.55 1.1-.55l.7.05.15.2.75 2.1.4 1.6.85-1.75 1.7-.9 1.8-.55"/><path d="M32.4 4.45l1-.75.9-.75h.05l-.6.7-.35.45v.05l.1-.05-.15.2-.45.8q-1.3 1.2-2.2 1.2v.05h.05l.15.05.05.1-.6.2-.5.25-.7.2-.15.2-.2.1-.1.05.2.1.05.1q0-.05.15-.1l.15-.1v.2l-.15.2-.2.35.05.1.05.05q0 .25.2.35l.55.05-.1.1 1.05.1h.05l-.2.1-.15.05-.75-.05q.15.15.4.2l.5-.1.15.1-.1.2-.35.2h-.15l.05.05h.05l.2-.05.35-.1.15-.05-.4.3-.35.1-.4-.05-.35-.15-.05.05-.05.1.05.2.05.05v.05l-.05.05h.6l.35-.1.15-.05-.2.2v.15h-.1l-.1-.05-.2.1h-.15l-.95-.25-.9-.5-.1.05.7.65q.5.35 1.05.35l.45-.1.45-.2v.05l-.4.25-.85.15-.65-.25q-.65-.2-.7-.45h.1l-.15-.1-.25-.2.3.45v.05l-.55-.45h-.05l-.1.05-.2.05-.1.05.05.2.05.2-.45-.3.05.3v.2l-.05.25-.15.05v-.15q-.2-.1-.25-.35l-.1-.3-.25.3.05.1v.05l.1.25.15.2v.05h-.1l-.3-.3-.15-.3-.15.15-.2.25-.1-.15.05-.15v-.05l-.05-.1-.55.15-.25.15q.05.1.4.15l.25-.1-.15.2-.3.05h-.15l-.5-.15.15.15-.25.2v.2h-.1l-.15-.1-.1-.15v.15l.1.1.1.2-.05.4.05.1.05.1-.1.25-.1.25V13l.25-.05-.15.2-.15.25v.1l.05.1-.1.05.45 1-.05.05-.05.1v.15l.1.15-.1.1-.3-.55-.35-.1v.1l.3.1-.1.15-.05.25-.05.1-.45-.35-.45-.3.1.25.15.25h-.15l.2.55.1.55v.05l-.6-.65-.4-.4.1-.3.15-.25-.15-.2.05-.3v-.2l-.25-.35q-.35-.35-.7-.35l-.15.1-.2.05.1.25h-.05l.15.2.3.3q-1.75.75-2.55.75h-.2l-.25.05-.4-.05.05-1.75 1.1.15 2.35-.45h.05l.5-.9-.05-.4-.1-.2-.1-.1h-.25l-1.15.6-.65.15-.45-.15-.45-.2v.05h-.45l-.15-.35-.15-1.55-.05-.15v.4l-.15-.25.05-.7-.05-.3-.05-.35.05-.1v-1l-.1-.3h.05L17.4 7v-.2l-.1-.2-.05.55-.05.4-.05.05v1.15q0 1.35-.4 1.6l-.4.85-.2.7-.65.1-1.6.15-1.05-.25-.25-.25-.1-.5-.15.3-.1.4.4.55.4.25.1.1.1.1.25.15.75.1h.4l1-.05h.65l.1.4.1.9-.2.25q-.2.2-.5.2l-1.15-.2-.55-.3-.2.15h-.2l-.05-.1-.05-.05.05-.1.1-.1-.05-.1-.1-.05v-.35l-.15.15-.1.15-.1-.05-.1.35-.25.2-.25-.05-.2-.05.6-.55.2-.15-.05-.15-.15-.1-.3.1-.4.4.1.05.05.05-.15.2-.15.3h-.05l-.1-.15h.15v-.25l-.05-.15-.1-.1.15-.2-.2-.6-.55.4-.15-.05v-.05l.15-.35-.15-.1.2-.1-.25-.05h-.2l-.05-.25-.2-.05-.95.3-.9.35-.95-.1-.95-.2.15-.1-.85-.25-.3-.2h.35l-.05-.1.05-.05.8.1.75.15.6.05.4-.1.3-.05-1.1-.15L7.9 12l-.1.05-.1.05-.3-.05-.35-.05-.2-.25H6.4l-.15-.15.15-.1h.4v-.35h.3l.15-.05.1-.1h.15l.15.05.2.05L8 11l-.15-.05-.15-.15.1-.05.4.05h.05l-1.15-.65-1.15-.5.5.15.5.2q-.8-.35-1.8-1.05L4.1 8.2l-.55-.3-.3-.3-.5-.3-.7-.8H2v.05l-.45-.6-.2-.4-.1-.15L2.5 6.7l.9.75V7.3L1.8 5.7l.65.65q.55.5.85.5l-.75-.8-.75-.8-.1-.2-.05-.15h.1l.15.05v.15q0 .25.4.25v-.1l.95.7.85.65-.05-.1L4 6.4l.05-.1.05-.1-.35-.65-.8-.9L1.1 2.3l.05-.05L2 3.5l.15-.15-.75-.9-.25-.65v-.05l.05-.1 1.1 1.6L3.5 4.4v-.05L2.1 2.8l-.4-.55L1.1 1l.65.75.4.45v-.15Q3 3.4 4.65 4.45l1.5.85.85.45 1.45.7-.55-.3-.65-.45 1.7.45.95.3-.8-.35-.8-.3-.05.05h-.1q-.25 0-.95-.45l-.7-.5 1.9.8 2.15.8 2.6.45.25.35.35.4v.05h-.05l.35.3.3.45-.1-.05-.1-.15-.4.25-.05.3.05.3q.15.2.4.15l.05.05-.1.15.3.05.4-.05q.7 0 .75.3l.05.15.35.05q.3-.3.3-.6v-.2l.05-.05.1-.2V8.8l.05-.15v-.1l.3-1.25.5-1.2.1-.7.35-.5.05.1v.2l-.05-.1-.05.05-.05.1.1.3.05.45.05-.1.15-.3.05.1-.15 1.35.05.3.15.25q.3.5.4 2.35h.4L20 9.3l.95-.5-.1-.05.1-.25.05-.15-.15-.15-.1-.1-.15.1-.1.2.05.05h.05l-.05.05h-.15v-.1l.4-1.1.55-.85h.05l.05-.05.15-.1.1-.15h.1l.1.05.65-.5v.2l.9-.45q.45-.3.65-.3l.15.05.05.05-.05.15-.4.3.3.05h.15l.2.15.3-.25.25-.1h.1l.05.05q.3 0 .75-.4l.8-.35h.05l.05.05.25-.3 1.1-.65-.25.5.9-.65v.05l.65-.15.15-.05v.05l.05.15-.3.1-.2.15.15.1-.1.05-.2.15.55-.2.2.1 2.1-.6q.45-.15.9-.45l.45-.35.05.05V3l.6-.05-.55.6-.95.9m-13.8 14.9l-.45-.05-.25-.1-.35-.2-.1-.25V18l.05.15.75.05.45-.05.2-.05.05.05.15-.05.1-.1v.1l.05-.05.1-.05.15.1v.3l-.25.85-.65.1m-1-3.6h1.2v1.2h-1.2v-1.2m.05 4.5l-.15-.1.6.05.35.05.15-.05.15-.05h.15l.45.1.4-.3.05-.05v.15l-.3.75-.65.7-.3-.5-.2-.15-.1.25-.1.05-.1-.1v.15l.05.4h-.15v.05l.05.1h.05v.05l-.1.15.05.1.05.3-.4-.05v-.15l-.2-.85q-.1-.85.2-1.05m-2.65-.7h.25l.05-.1.25.1.15-.1.15.05h.35l.05.05.1.2.2.3v-.2l.15.55-.05.25-.05.2.15.95-.05.05v.1l-.1-.35q-.05-.35-.2-.35l-.1.05h-.1l.2.1.05.1-.05.15v.1l.05.3.15.55.55 1.1-.15.05-.65-.5-.5-.65v-.15l.05-.1-.2.1-.05-.1v-.15l-.1-.1-.05-.2-.1.15-.6.15-.1.2-.2.35-.25-.15-.15-.25.25-.3.2-.55-.05-.05-.05-.1v.1l-.05.05h-.2l.2-.3.25-.2-.1-.1v-.05l-.2.2-.1.05-.05-.05V21l.3-.4.2-.4h-.05v-.05l.15-.3.3-.2h-.15l.05-.1M3.45 7.45l-.15.05.25.1-.1-.15m12.5 9.25l-.6.05-.5.05-.1-.25-.1.1h-.25v-.15h-.05l-.15.05h-.1l-.1-.1.2-.35.15.3.15-.4v-.15l.05-.2h.15l.1-.05v-.15l1.5.45q.25.75-.35.8m.3 1.15l-.05.1h.1l.15-.1h.1l.05.35v.2l-.05.1v-.2l-.05-.2-.35.15-.8.15h-.2v-.25l-.2.2-.35.1.2-.2.15-.25-.25-.15-.25-.2-.25.1-.2.05h-.05l.05-.05v-.05l.05-.1.05-.05.75.05.75.05h.05v-.05l.2.1.4.15" fill="#7fa4cf"/></g></svg>