<svg height="26.25" width="23.75" xmlns="http://www.w3.org/2000/svg"><g fill-rule="evenodd"><path d="M5.3 4q1.1-1.3 2.6-2.1 1.35-.75 3-.9l.95-1 1.1 1.05q2.25.3 4 1.6L18.7 4.3l.2.25 1.35 1.05q3.5 3.15 3.5 7.6 0 4.45-3.5 7.65l-1.3 1.05q-1.25 1-2.85 1.65v.05l-3.15.75v.4l.25.55q0 .35-.4.7l-.85.25-.9-.25-.35-.7.25-.65v-.25l-2.5-.55-.75-.25q-1.7-.7-3.1-1.8l-.05-.05-1.1-.9Q0 17.65 0 13.2t3.45-7.6l1.2-1L5.3 4" fill="#37403d"/><path d="M5.65 4.5Q6.7 3.3 8.1 2.55q1.3-.7 2.85-.85l.9-.95 1.05 1q2.1.25 3.75 1.5L18.3 4.8l.2.25 1.25 1q3.3 2.95 3.3 7.15t-3.3 7.2l-1.2 1q-1.2.95-2.7 1.55V23l-2.95.7v.4l.2.5-.35.65-.8.25-.85-.25-.35-.65.25-.6v-.25l-2.35-.5-.7-.25q-1.6-.65-2.95-1.7l-.05-.05-1.05-.85q-3.25-3-3.25-7.2T3.9 6.05l1.15-.95.6-.6"/><path d="M12.5 23.05v-2.5l.2.05.1.1h.1l.05.05q.3.2.45 0l.4-.3v-.1q.05-.45-.25-.7l-.1-.05v-.05l-.25-.1-.25.05-.25.2v-2.3q2.1-.35 3.6-1.4 1.55-1.05 2.45-2.9.9-1.85.8-3.75-.1-1.85-1.15-3.65l.6.5.65.75 1 2 .3 2-.3 2 .7-.7.3-1.5.05.1q.35 1.25-.1 2.65-.3 1.15-1.15 2.25l-.15.1h.2l.1-.05.55-.25.45-.5.25-.25v.4l-.1.4-.3.8-.6.6-1.15.7-1.15.5-.15.05 1 .05 1-.1-.2.25-.15.15-1.2.75-1.25.65-1.65.4h-.15l.5.2.75.1h1.2q-1.15 1-2.65 1.65-1.45.55-3.1.7M11.9 1.4l.5.75v17.7l.1.1.2.05.15-.05.25-.2h.2l.1.15.15.1.05.15-.05.2-.25.2-.1.05-.1-.05-.25-.1-.2-.1-.35.05-.05 3.5.2.3.2.4-.45.45-.4.1-.35-.15-.3-.5.2-.35.25-.25v-3.5h-.45l-.35.1-.1.05-.1.05-.2-.15-.15-.25.1-.25.25-.25h.1q.1.05.25.2l.35.05.15-17.9.45-.65m.8 15.7v-.25q1.25-.15 2.4-.7l2-1.45q.85-.95 1.3-2.05.55-1.15.6-2.35.1-1.1-.2-2.25l-.75-2-1.4-1.65-1.85-1.15q-1-.5-2.1-.6V2.4q2 .25 3.55 1.4l1.95 2.05q.75 1.15.95 2.6.3 1.7-.1 3.2-.4 1.45-1.35 2.65-.9 1.2-2.2 1.9-1.3.8-2.8.9m.65-12.75h1.1V5.4l.35.05.05.05.5.2.25.15.7-.8.8.7-.65.8L17 7.6l.05.05 1-.2.15 1.05-1 .2v.45l-.2.65.85.55-.55.9-.8-.5-1 .85.3.9-1 .35-.3-.9h-1.35l-.35.95-.1-.05v-2.8l.4.25 1.35.1.85-.65.2-.25q.3-.7.1-1.4-.25-.7-.9-1.05l-.25-.1-.1-.05-1.05.05-.6.35V5.55h.1l.6-.15-.05-1.05M5.7 5.55l.45-.6q1-1.1 2.25-1.8 1.3-.65 2.75-.75v.25q-3 .3-4.85 2.6l-.6.85q-.9 1.5-.95 3.3-.15 2.25.95 4.05l.7.95q1.85 2.15 4.75 2.45v.25l-2.2-.5-2.05-1.3-1.2-1.35-.4-.65q-.6-1.25-.8-2.75-.2-1.55.3-3.1l.9-1.9v.55-.55m5 .1l.45-.3v.8l-.45-.5m-5 14.15l-.1-.05-1.45-.7-.4-.35-.3-.4-.05-.05-.05-.05 1 .1h1L5 18.15l-.25-.05-1.05-.5-.9-.65-.6-.7-.3-.85-.05-.6.65.7.85.35-1-1.65-.5-1.85.15-1.6.05.65.15.65.35.5.5.4q-.55-2.15 0-4Q3.6 7.15 5.3 5.7h.05l-.05.1L4.7 7l-.4 1.4-.05 2.35Q4.5 12.7 5.7 14.3l.05.05q1.8 2.4 4.7 2.9l.3.05.25.1h.1l.05.05v2.25l-.3-.15-.25-.1-.25.15-.05.05-.3.3v.4l.05.1.3.25.25.15.25-.1.25-.1.15-.05h.05v2.5l-3.1-.7-2.5-1.45-.3-.25h1.1l1.05-.15.35-.15-.4-.05-.35-.05-1.45-.5v-5.5 5.5m0-11.25l.35.2.15-.15.25-.2.1-.05-.2-.55.55-.15.2.5.3-.05.3.05.2-.55.5.2-.15.5.15.1.05.05.2.15.1.15.45-.3.3.5-.45.25.1.65.55.1-.1.55-.55-.1-.3.55.35.35-.45.4-.3-.4-.65.25v.5h-.55v-.5q-.35-.05-.65-.25l-.35.45-.45-.4.35-.4-.3-.6H5.7l-.5.1-.1-.5.6-.1V9.8l.1-.55-.1-.05-.4-.25.3-.45.1.05v.65-.65m0 1.8v-.5.5m4.55.8l-.5-.85 1-.55-.2-1.15-1-.2.2-1.05 1 .2.15-.35.25-.35v3.9l-.9.4m-1.9-1.3q0-.4-.25-.65l-.15-.15-.55-.15-.5.15h-.05l-.1.15-.3.65.3.65q.25.3.65.3t.7-.3q.25-.3.25-.65m2 1.8l.5.2-.15.5.15.1h.05l.2.2.05.05v3l-.05.05-.3-.4-.65.25v.45l-.55.05v-.5l-.65-.25-.35.4-.45-.35.35-.4-.3-.6-.55.05-.1-.5.6-.05.1-.6-.5-.3.3-.5.45.3.15-.15.25-.2.1-.05-.2-.55.55-.15.2.45h.6l.2-.5m.45 2.25q0-.4-.25-.7l-.15-.1-.55-.2-.5.2H9.3l-.1.1-.3.7.3.65.65.25.7-.25.25-.65m-5.1 7.05v-.25.25m0-7v-.5.5" fill="#8cb5e6"/></g></svg>