<?xml version="1.0" encoding="UTF-8" standalone="no"?>
<svg xmlns:xlink="http://www.w3.org/1999/xlink" height="26.25px" width="23.75px" xmlns="http://www.w3.org/2000/svg">
  <g transform="matrix(1.0, 0.0, 0.0, 1.0, 11.75, 13.15)">
    <use height="26.25" transform="matrix(1.0, 0.0, 0.0, 1.0, -11.75, -13.15)" width="23.75" xlink:href="#shape0"/>
  </g>
  <defs>
    <g id="shape0" transform="matrix(1.0, 0.0, 0.0, 1.0, 11.75, 13.15)">
      <path d="M-6.45 -9.15 Q-5.35 -10.45 -3.85 -11.25 -2.5 -12.0 -0.85 -12.15 L0.1 -13.15 1.2 -12.1 Q3.45 -11.8 5.2 -10.5 L6.95 -8.85 7.15 -8.6 8.5 -7.55 Q12.0 -4.4 12.0 0.05 12.0 4.5 8.5 7.7 L7.2 8.75 Q5.95 9.75 4.35 10.4 L4.35 10.45 1.2 11.2 1.2 11.6 1.45 12.15 Q1.45 12.5 1.05 12.85 L0.2 13.1 -0.7 12.85 -1.05 12.15 -0.8 11.5 -0.8 11.25 -3.3 10.7 -4.05 10.45 Q-5.75 9.75 -7.15 8.65 L-7.2 8.6 -8.3 7.7 Q-11.75 4.5 -11.75 0.05 -11.75 -4.4 -8.3 -7.55 L-7.1 -8.55 -6.45 -9.15" fill="#37403d" fill-rule="evenodd" stroke="none"/>
      <path d="M-6.1 -8.65 Q-5.05 -9.85 -3.65 -10.6 -2.35 -11.3 -0.8 -11.45 L0.1 -12.4 1.15 -11.4 Q3.25 -11.15 4.9 -9.9 L6.55 -8.35 6.75 -8.1 8.0 -7.1 Q11.3 -4.15 11.3 0.05 11.3 4.25 8.0 7.25 L6.8 8.25 Q5.6 9.2 4.1 9.8 L4.1 9.85 1.15 10.55 1.15 10.95 1.35 11.45 1.0 12.1 0.2 12.35 -0.65 12.1 -1.0 11.45 -0.75 10.85 -0.75 10.6 -3.1 10.1 -3.8 9.85 Q-5.4 9.2 -6.75 8.15 L-6.8 8.1 -7.85 7.25 Q-11.1 4.25 -11.1 0.05 -11.1 -4.15 -7.85 -7.1 L-6.7 -8.05 -6.1 -8.65" fill="#000000" fill-rule="evenodd" stroke="none"/>
      <path d="M0.75 9.9 L0.75 7.4 0.95 7.45 1.05 7.55 1.15 7.55 1.2 7.6 Q1.5 7.8 1.65 7.6 L2.05 7.3 2.05 7.2 Q2.1 6.75 1.8 6.5 L1.7 6.45 1.7 6.4 1.45 6.3 1.2 6.35 0.95 6.55 0.95 4.25 Q3.05 3.9 4.55 2.85 6.1 1.8 7.0 -0.05 7.9 -1.9 7.8 -3.8 7.7 -5.65 6.65 -7.45 L7.25 -6.95 7.9 -6.2 8.9 -4.2 9.2 -2.2 8.9 -0.2 9.6 -0.9 9.9 -2.4 9.95 -2.3 Q10.3 -1.05 9.85 0.35 9.55 1.5 8.7 2.6 L8.55 2.7 8.75 2.7 8.85 2.65 9.4 2.4 9.85 1.9 10.1 1.65 10.1 2.05 10.0 2.45 9.7 3.25 9.1 3.85 7.95 4.55 6.8 5.05 6.65 5.1 7.65 5.15 8.65 5.05 8.45 5.3 8.3 5.45 7.1 6.2 5.85 6.85 4.2 7.25 4.05 7.25 4.55 7.45 5.3 7.55 5.9 7.55 6.5 7.55 Q5.35 8.55 3.85 9.2 2.4 9.75 0.75 9.9 M0.15 -11.75 L0.65 -11.0 0.65 6.7 0.75 6.8 0.95 6.85 1.1 6.8 1.35 6.6 1.55 6.6 1.65 6.75 1.8 6.85 1.85 7.0 1.8 7.2 1.55 7.4 1.45 7.45 1.35 7.4 1.1 7.3 0.9 7.2 0.55 7.25 0.5 10.75 0.7 11.05 0.9 11.45 0.45 11.9 0.05 12.0 -0.3 11.85 -0.6 11.35 -0.4 11.0 -0.15 10.75 -0.15 7.25 -0.3 7.25 -0.6 7.25 -0.95 7.35 -1.05 7.4 -1.15 7.45 -1.35 7.3 -1.5 7.05 -1.4 6.8 -1.15 6.55 -1.05 6.55 Q-0.95 6.6 -0.8 6.75 L-0.45 6.8 -0.3 -11.1 0.15 -11.75 M0.95 3.95 L0.95 3.7 Q2.2 3.55 3.35 3.0 L5.35 1.55 Q6.2 0.6 6.65 -0.5 7.2 -1.65 7.25 -2.85 7.35 -3.95 7.05 -5.1 L6.3 -7.1 4.9 -8.75 3.05 -9.9 Q2.05 -10.4 0.95 -10.5 L0.95 -10.75 Q2.95 -10.5 4.5 -9.35 L6.45 -7.3 Q7.2 -6.15 7.4 -4.7 7.7 -3.0 7.3 -1.5 6.9 -0.05 5.95 1.15 5.05 2.35 3.75 3.05 2.45 3.85 0.95 3.95 M1.6 -8.8 L2.7 -8.8 2.7 -7.75 3.05 -7.7 3.1 -7.65 3.6 -7.45 3.85 -7.3 4.55 -8.1 5.35 -7.4 4.7 -6.6 5.25 -5.55 5.3 -5.5 6.3 -5.7 6.45 -4.65 5.45 -4.45 5.45 -4.0 5.25 -3.35 6.1 -2.8 5.55 -1.9 4.75 -2.4 3.75 -1.55 4.05 -0.65 3.05 -0.3 2.75 -1.2 1.4 -1.2 1.05 -0.25 0.95 -0.3 0.95 -3.1 1.35 -2.85 2.7 -2.75 3.55 -3.4 3.75 -3.65 Q4.05 -4.35 3.85 -5.05 3.6 -5.75 2.95 -6.1 L2.7 -6.2 2.6 -6.25 1.55 -6.2 0.95 -5.85 0.95 -7.6 1.05 -7.6 1.65 -7.75 1.6 -8.8 M-6.05 -7.6 L-5.6 -8.2 Q-4.6 -9.3 -3.35 -10.0 -2.05 -10.65 -0.6 -10.75 L-0.6 -10.5 Q-3.6 -10.2 -5.45 -7.9 L-6.05 -7.05 Q-6.95 -5.55 -7.0 -3.75 -7.15 -1.5 -6.05 0.3 L-5.35 1.25 Q-3.5 3.4 -0.6 3.7 L-0.6 3.95 -2.8 3.45 -4.85 2.15 -6.05 0.8 -6.45 0.15 Q-7.05 -1.1 -7.25 -2.6 -7.45 -4.15 -6.95 -5.7 L-6.05 -7.6 -6.05 -7.05 -6.05 -7.6 M-1.05 -7.5 L-0.6 -7.8 -0.6 -7.0 -1.05 -7.5 M-6.05 6.65 L-6.15 6.6 -7.6 5.9 -8.0 5.55 -8.3 5.15 -8.35 5.1 -8.4 5.05 -7.4 5.15 -6.4 5.15 -6.75 5.0 -7.0 4.95 -8.05 4.45 -8.95 3.8 -9.55 3.1 -9.85 2.25 -9.9 1.65 -9.25 2.35 -8.4 2.7 -9.4 1.05 -9.9 -0.8 -9.75 -2.4 -9.7 -1.75 -9.55 -1.1 -9.2 -0.6 -8.7 -0.2 Q-9.25 -2.35 -8.7 -4.2 -8.15 -6.0 -6.45 -7.45 L-6.4 -7.45 -6.45 -7.35 -7.05 -6.15 -7.45 -4.75 -7.5 -2.4 Q-7.25 -0.45 -6.05 1.15 L-6.0 1.2 Q-4.2 3.6 -1.3 4.1 L-1.0 4.15 -0.75 4.25 -0.65 4.25 -0.6 4.3 -0.6 6.5 -0.6 6.55 -0.9 6.4 -1.15 6.3 -1.4 6.45 -1.45 6.5 -1.75 6.8 -1.75 7.2 -1.7 7.3 -1.4 7.55 -1.15 7.7 -0.9 7.6 -0.65 7.5 -0.5 7.45 -0.45 7.45 -0.45 9.95 -3.55 9.25 -6.05 7.8 -6.35 7.55 -6.05 7.55 -5.25 7.55 -4.2 7.4 -3.85 7.25 -4.25 7.2 -4.6 7.15 -6.05 6.65 -6.05 1.15 -6.05 6.65 M-6.05 -4.6 L-5.7 -4.4 -5.55 -4.55 -5.3 -4.75 -5.2 -4.8 -5.4 -5.35 -4.85 -5.5 -4.65 -5.0 -4.35 -5.05 -4.05 -5.0 -3.85 -5.55 -3.35 -5.35 -3.5 -4.85 -3.35 -4.75 -3.3 -4.7 -3.1 -4.55 -3.0 -4.4 -2.55 -4.7 -2.25 -4.2 -2.7 -3.95 -2.6 -3.3 -2.05 -3.2 -2.15 -2.65 -2.7 -2.75 -3.0 -2.2 -2.65 -1.85 -3.1 -1.45 -3.4 -1.85 -4.05 -1.6 -4.05 -1.1 -4.6 -1.1 -4.6 -1.6 Q-4.95 -1.65 -5.25 -1.85 L-5.6 -1.4 -6.05 -1.8 -5.7 -2.2 -6.0 -2.8 -6.05 -2.8 -6.55 -2.7 -6.65 -3.2 -6.05 -3.3 -6.05 -3.35 -5.95 -3.9 -6.05 -3.95 -6.45 -4.2 -6.15 -4.65 -6.05 -4.6 -6.05 -3.95 -6.05 -4.6 M-6.05 -2.8 L-6.05 -3.3 -6.05 -2.8 M-1.5 -2.0 L-2.0 -2.85 -1.0 -3.4 -1.2 -4.55 -2.2 -4.75 -2.0 -5.8 -1.0 -5.6 -0.85 -5.95 -0.6 -6.3 -0.6 -2.4 -1.5 -2.0 M-3.4 -3.3 Q-3.4 -3.7 -3.65 -3.95 L-3.8 -4.1 -4.35 -4.25 -4.85 -4.1 -4.9 -4.1 -5.0 -3.95 -5.3 -3.3 -5.0 -2.65 Q-4.75 -2.35 -4.35 -2.35 -3.95 -2.35 -3.65 -2.65 -3.4 -2.95 -3.4 -3.3 M-1.4 -1.5 L-0.9 -1.3 -1.05 -0.8 -0.9 -0.7 -0.85 -0.7 -0.65 -0.5 -0.6 -0.45 -0.6 2.55 -0.65 2.6 -0.95 2.2 -1.6 2.45 -1.6 2.9 -2.15 2.95 -2.15 2.45 -2.8 2.2 -3.15 2.6 -3.6 2.25 -3.25 1.85 -3.55 1.25 -4.1 1.3 -4.2 0.8 -3.6 0.75 -3.5 0.15 -4.0 -0.15 -3.7 -0.65 -3.25 -0.35 -3.1 -0.5 -2.85 -0.7 -2.75 -0.75 -2.95 -1.3 -2.4 -1.45 -2.2 -1.0 -1.9 -1.0 -1.6 -1.0 -1.4 -1.5 M-0.95 0.75 Q-0.95 0.35 -1.2 0.05 L-1.35 -0.05 -1.9 -0.25 -2.4 -0.05 -2.45 -0.05 -2.55 0.05 -2.85 0.75 -2.55 1.4 -1.9 1.65 -1.2 1.4 -0.95 0.75 M-6.05 7.8 L-6.05 7.55 -6.05 7.8 M-6.05 0.8 L-6.05 0.3 -6.05 0.8" fill="#8cb5e6" fill-rule="evenodd" stroke="none"/>
    </g>
  </defs>
</svg>
