<svg height="24.05" width="20" xmlns="http://www.w3.org/2000/svg"><g fill-rule="evenodd"><path d="M9.1.65l.65-.6.9.05.05.1.4.5.35.7.05.15.35.65q3.25.65 5.6 3.4l1.05 1.3Q20 9.3 20 12.5q0 3.95-2.55 7-2.3 2.55-5.45 3.2l-.35.7h-.05l-.1.1v.1l-1.45.45H9.9l-.7-.2-.25-.05-.35-.3-.05-.05L8 22.7q-3.1-.65-5.3-3.15l-.05-.05Q0 16.45 0 12.5q0-4.1 2.7-6.95v.05q2.25-2.75 5.55-3.4l.3-.7.25-.35.3-.5" fill="#081a15" fill-opacity=".498"/><path d="M10.45 1.65l.5.55-.05-.05.25.55.05.05v.05l.35.65q2.9.55 4.85 2.9l.9 1.15q1.35 2.15 1.35 4.9 0 3.4-2.25 6.05-1.95 2.25-4.65 2.8l-.35.65-.15.15h-.05q-.5.4-1.2.4h-.15l-.75-.2h-.05v-.05l-.3-.2-.05-.05-.5-.65q-2.7-.6-4.6-2.75l-.1-.1Q1.25 15.8 1.25 12.4q0-3.55 2.3-6.05 2-2.35 4.9-2.9l.3-.7.05-.05.35-.65L9.2 2l.55-.4.7.05m.95 1.9l-.05.05h.1l-.05-.05"/><path d="M8.8 8.95q-1 .55-1 1.7 0 1.05.85 1.7l.3.15V8.85l-.15.1m-3.95-.7Q4.1 9.5 4.1 11.1q0 2.1 1.4 3.7l.15.15q1.3 1.5 3.3 1.8V14.7l-.15.25-.8-.3.25-1v-.05l-.05-.05-.75-.55-.1-.1-.05-.05-1 .45-.4-.7.8-.6.05-.05-.05-.05-.1-.35-.1-.8v-.05h-.15l-.85-.25.1-.85 1.05.05V9.6l.55-1 .05-.05-.05-.1-.5-.55-.05-.1.65-.55.75.7V7.9l.9-.35V5.3q-2.1.45-3.45 2.05l-.65.9m7.2 1.8q-.25-.8-1.1-1.2v3.65l.75-.6q.4-.5.4-1.25l-.05-.6m.8-1.3l.4.85v.05l1.05-.05.1.85-.4.15-.55.1h-.05v.05l-.25 1.15v.05l.05.05.8.6-.45.7-.95-.45-.05.05-.85.65-.05.05v.05l.25 1-.8.3-.15-.25v2.05l.75-.15q1.6-.45 2.75-1.8 1.35-1.6 1.35-3.7 0-1.65-.75-2.9l-.6-.85q-1.4-1.6-3.5-2.05v2.25l.75.3.1.05.1.05V7.9l.7-.65.65.55-.55.65-.05.1.05.05.15.15m-2.25-4.9l.15.5.4.05q2.7.45 4.5 2.6l.8 1.05q1.2 1.9 1.2 4.35 0 3.05-2 5.4-1.95 2.25-4.85 2.6v.25l-.2.6-.6.2h-.15l-.3-.1-.15-.1-.3-.6v-.25q-2.9-.35-4.8-2.55l-.05-.05q-2-2.35-2-5.4 0-3.15 2.05-5.4 1.95-2.3 4.9-2.65l.45-1.15.35-.65.3.65.3.65" fill="#8cb5e6"/></g></svg>