<svg height="22.35" width="24.1" xmlns="http://www.w3.org/2000/svg"><g fill-rule="evenodd"><path d="M16.65 0l.7.2h-.05l6.25 3.85h.05l.45.7V4.7q.15.35-.1.85l-.6 1.15-.45.45h-.05l-.15.05v13.95l-.35.8q-.35.35-.8.35l-.3.05H3.5l-.25-.05h-.6l-.85-.35-.3-.8V8.8l-.55-.45L.2 7.3 0 6.65l.1-.5.45-.5 6.35-4 .55-.25.7.25 2.75 1.7L16 .2l.65-.2" fill="#081a15" fill-opacity=".498"/><path d="M16 1.4l.55.15L22 4.9v.05l.4.55-.05.7v.05l-.55 1-.4.35h.05l-.2.1v12.1l-.3.7-.7.3-.25.05H4.55l-.2-.05H3.8l-.7-.3-.3-.7V9.05l-.5-.4-.65-.95-.15-.45V7.2l.1-.5.35-.4 5.5-3.5h.05l.5-.15.55.15 2.4 1.55 4.55-2.8.5-.15"/><path d="M11.15 10.2V7.5H8.5v2.7h2.65m-3.6 0V7.5H4.8v2.7h2.75m10.05 9.6v-5.05h-3.2v5.05H9.65v-5.05h-3.3v5.05H3.8V7.7l-.65.4-.65-.95L8 3.65l2.9 1.9L16 2.4l5.45 3.35-.55 1-.65-.4V19.8H17.6m1.6-9.6V7.5h-2.7v2.7h2.7m-3.7 0V7.5h-2.7v2.7h2.7" fill="#8cb5e6"/></g></svg>