<svg height="14.55" width="24.05" xmlns="http://www.w3.org/2000/svg"><g fill-rule="evenodd"><path d="M23.35 1.75l.1 1 .6 10.65-.05.45-.05.1-.45.45h-.05l-.55.15H1.15l-.5-.15H.6l-.5-.45v-.1L0 13.4.55 2.75q0-1.05.7-1.85L1.4.85Q2.1 0 3.3 0h17.4q1.1 0 1.95.8l.65.9.05.05" fill="#081a15" fill-opacity=".2"/><path d="M19.55.9q.9 0 1.65.65l.05.05.55.8.15.85.5 9.25-.1.5v.05l-.4.35H22l-.55.15H2.55l-.5-.15-.35-.35-.05-.05-.1-.5L2 3.25q0-.9.75-1.6V1.6Q3.35.9 4.4.9h15.15"/><path d="M10.85 3.75h-5.8v1.9h5.8v-1.9m9.7-1.45l.3.45.1.55.5 9.25H18.4V10h-1.65v2.55H2.55L3 3.3l.45-1q.35-.4.95-.4h15.15q.55 0 1 .4M18.7 3.75h-5.8v1.9h5.8v-1.9" fill="#8cb5e6"/></g></svg>