<svg xmlns="http://www.w3.org/2000/svg" width="25.05" height="18.05" viewBox="0 0 25.05 18.05"><g fill-rule="evenodd"><path fill="#081a15" fill-opacity=".5" d="M4.9-8.95q1.55 0 2.65 1.1l.6.7.05.15q.45.85.45 1.85v6.6h3.1q.45 0 .8.35.35.35.35.8v1.65l-.35.85-.8.3H1.4Q1.25 6.75.25 7.8l-.1.2q-1.25 1.1-3 1.1-1.25 0-2.25-.55l-.75-.65q-1-1.1-1.15-2.5h-4l-.8-.3q-.35-.35-.35-.85v-9.4q0-1.55 1.1-2.7 1.15-1.1 2.7-1.1H4.9" transform="translate(12.15 8.95)"/><path d="M6.7-6.35l.1.15q.4.75.4 1.65V1.2h2.7q.4 0 .7.3l.3.7v1.45l-.3.7-.7.3h-9Q.75 5.8-.1 6.7l-.1.15q-1.1 1-2.6 1-1.1 0-1.95-.55l-.55-.4-.15-.1q-.85-.95-.95-2.15h-3.5l-.7-.3-.3-.7v-8.2q0-1.35.9-2.35h.05v-.05q1-.9 2.35-.9H3.95q1.35 0 2.3.95l.45.6v-.05" transform="translate(12.15 8.95)"/><path fill="#8cb5e6" d="M-3.65 3.35Q-4 3.7-4 4.2t.35.85l.45.3.4.05q.5 0 .9-.35.35-.35.35-.85l-.05-.4-.3-.45q-.4-.4-.9-.4t-.85.4M-4.7 2.3q.7-.65 1.6-.7l.3-.05q1.1 0 1.9.75l.4.45q.4.65.4 1.45 0 1.1-.8 1.9-.8.75-1.9.75-.8 0-1.45-.4l-.45-.35q-.75-.8-.75-1.9v-.05q0-1.05.75-1.85m-2.4-6.9l-.55.2-.2.55v1.75l.2.55.55.2h6.15V-4.6H-7.1M5.55-6.2l.3.4q.35.55.35 1.25V2.2h3.7v1.45H.65l-.6-1.5-.55-.6q-1-.9-2.3-.9-1.3 0-2.25.9-1 .8-1.2 2.1H-9.9v-8.2q0-.95.65-1.65.7-.65 1.65-.65H3.95q.95 0 1.6.65m-1.1 4.1v-1.75l-.2-.55-.55-.2H.95v3.25H3.7l.55-.2.2-.55" transform="translate(12.15 8.95)"/></g></svg>
