<svg height="23.05" width="18.5" xmlns="http://www.w3.org/2000/svg"><g fill-rule="evenodd"><path d="M4.95 5.9Q5.35 3.95 7.2 3v-.95h.65l.1-.2V0h2.7v1.85l.05.2h.65V3q1.9.95 2.25 2.9.75.55.75 1.4v.05l.6.4q.55.55.55 1.3-.1 1.2-1 1.65v2.05l1.7 1.1h.5q.8-.05 1.3.5t.5 1.25q0 .65-.4 1.2v.05q-.4.4-.8.5v2.2q1.1.35 1.15 1.65 0 .8-.5 1.3-.5.55-1.3.55H1.75q-.65 0-1.15-.45l-.15-.1L0 21.2q0-.95.65-1.35l.5-.3v-2.3L.6 17q-.6-.4-.55-1.4 0-.75.5-1.25l.05-.05v-.05q.55-.45 1.2-.4h.35l1.9-1.15v-2q-1-.45-1-1.65-.05-.75.55-1.3l.55-.35.1.3-.05-.4q0-1.05.75-1.4" fill="#081a15" fill-opacity=".329"/><path d="M5.55 6.8Q5.9 5.1 7.5 4.25v-.8h.55l.1-.2v-1.6h2.35v1.6l.05.2h.55v.8q1.65.85 1.95 2.55.65.45.65 1.2v.05l.55.35q.45.45.45 1.1-.05 1.05-.85 1.45v1.8l1.5.95h.4q.7-.05 1.15.45.45.45.45 1.05L17 16.25v.05l-.7.45v1.9q.95.3 1 1.45 0 .7-.45 1.1l-1.15.5H2.75q-.55 0-1-.4l-.1-.1q-.4-.4-.4-1.1 0-.85.55-1.2.15-.15.45-.25v-2l-.5-.2q-.5-.35-.45-1.25 0-.65.4-1.05l.05-.05v-.05q.5-.4 1.05-.35h.3l1.65-1v-1.75q-.85-.4-.85-1.45-.05-.65.45-1.1l.5-.3.1.25L4.9 8q0-.9.65-1.2"/><path d="M12.4 8.25H6.15L5.85 8l.3-.35h.3q0-1 .6-1.75l1.45-1v-.5h.3l.3-1v-.8h.4v.8l.25 1h.3v.5q.95.25 1.5 1 .6.75.6 1.75h.2l.35.35q0 .25-.3.25M9.8 15.8v3.7h.7v-3.7h-.7m4.35 3.7v-3.7h-.7v3.7h.7m-2.5-3.7v3.7h.65v-3.7h-.65m4.05 3.7q.6 0 .6.6l-.2.4-.4.2H2.75q-.55 0-.55-.6t.55-.6h.45v-3.7h-.4q-.55 0-.55-.6 0-.4.3-.5H16l.15.15.2.35q0 .6-.6.6h-.45v3.7h.4M8 15.8v3.7h.65v-3.7H8m-1.15 3.7v-3.7h-.7v3.7h.7m-2.5-3.7v3.7h.7v-3.7h-.7m4.4-3.9v-1.85h-.5v2.15l.5-.3M6.7 10.05v2.75l.55-.25v-2.5H6.7m5.15 2.8v-2.8h-.55v2.55l.55.25m1.25-3.9q.6 0 .6.55t-.6.55h-.3v3.25l1.2.7H4.45l1.25-.75v-3.2h-.25q-.6 0-.6-.55t.6-.55h7.65m-3.35 1.1v1.9l.55.25v-2.15h-.55" fill="#8cb5e6"/></g></svg>