<svg xmlns="http://www.w3.org/2000/svg" width="25.1" height="15.85" viewBox="0 0 25.1 15.85"><g fill-rule="evenodd"><path fill="#081a15" fill-opacity=".5" d="M.05-7.9h.1l4.15.45h.05l.25.05.4.05.2.15.5.15q1.4.5 2.4 1.45l.05.05.65.7.1.2.75 1.5q.8.2 1.5.9l.65.7.05.25.25 1.4.5 3.8V4q0 .85-.65 1.35h-.05q-.5.4-1.1.4h-.45l-.3.1v.65q.05.7-.35 1.1l-1.15.35h-2.4Q4.7 7.95 4.7 6.5v-.65h-9.3v.65q.05.7-.35 1.1-.4.35-1.15.35h-2.35q-.75 0-1.1-.35-.45-.4-.4-1.1v-.65H-10l-.05-.1h-.65q-.6 0-1.1-.4-.7-.5-.7-1.35v-.1l.5-3.8q0-1.4.95-2.35.7-.7 1.6-.9.55-1.5 1.3-2.25Q-7-6.55-5.05-7.15l.45-.2L.05-7.9" transform="translate(12.5 7.9)"/><path d="M7.65-4.2H7.6l.7 1.4q.7.15 1.35.8l.45.6.1.1.3 1.35.4 3.25v.2q0 .7-.55 1.15h-.05L9.35 5H8.9l-.2.05v.6q.05.6-.3.95l-1 .3H5.3l-.9-.3q-.35-.35-.35-.95v-.6h-8.1v.6q.05.6-.3.95-.35.3-1 .3H-7.4l-.95-.3q-.4-.35-.35-.95v-.6h-.05L-8.8 5h-.55l-.95-.35q-.6-.45-.6-1.15v-.2l.4-3.25q0-1.2.85-2.05.6-.6 1.35-.75l.8-1.55.35-.4Q-5.05-6.9 0-6.9q4.95 0 7 2l.6.65.05.05m1.6 9h.05l-.15-.2.1.2" transform="translate(12.5 7.9)"/><path fill="#8cb5e6" d="M-6.2 2q.4-.4.4-.95l-.1-.5-.3-.45q-.4-.4-.95-.4-.6 0-1 .4t-.4.95q0 .55.4.95l.5.35.5.1q.55 0 .95-.45m14.85-.95l-.1-.5-.3-.45q-.4-.4-.95-.4-.6 0-.95.4-.45.4-.45.95 0 .55.45.95l.45.35.5.1q.55 0 .95-.45.4-.4.4-.95M6.4-4.1l.35.4.8 1.85h.05l.5.05.85.5.35.45.2.9.4 3.4-.2.4-.35.15h-.6l-.15.05h-.9v1.6l-.3.25H5.3l-.25-.25v-1.6h-10.1v1.6q0 .25-.3.25H-7.4l-.3-.25v-1.6h-.9L-8.75 4h-.6l-.35-.15-.2-.4.4-3.4q0-.8.55-1.35t1.35-.55h.05q.45-1.5 1.1-2.15Q-4.55-5.9 0-5.9q4.55 0 6.4 1.8m-5.35-.65l.35.3v.15l-.35.2h-2.1q-.2 0-.25-.1l-.1-.25.35-.3h.7v-.35h-.2l-.15.05h-.15q-3.1.1-4.7 1.6-.95.8-1.15 1.85l.05.05.2.15.8-.2L-1-2.45h2q2.65.15 5.4 1.05l.3-.2-.5-1.1-.75-.75Q3.65-5 .25-5.1v.35h.8M3.65-.1L0-.25l-3.65.15q-1.5.25-1.5.9 0 .45.75.85l.75.3 3.65.5 3.65-.5q1.45-.5 1.5-1.1V.8q0-.65-1.5-.9" transform="translate(12.5 7.9)"/></g></svg>
