<svg height="17.45" width="24.1" xmlns="http://www.w3.org/2000/svg"><g fill-rule="evenodd"><path d="M23.2 1.4v.15l.65 1.4.25.9-.05.5q0 .6-.35.9-.3.35-1.1.35h-.05l-1.6 1.1v.05l-2.3 1.35v3.65l-.35.8-.3.25v.35q-.1 1.65-1.2 2.9h-.05Q15.7 17.1 14.4 17.4l-.95.05q-1.5 0-2.5-.65l-.15-.1-.05-.05-.8-.75-.1-.3-2.6 1.55-.55.1H1.15l-.8-.35Q0 16.6 0 16.1v-.95l.1-.45q.55-1.4 1.9-1.4h.1q.8-.05 1.35.55l1.05-.3-.2-.25-.1-.1-.9-.95h.05q-.45-.7-.25-1.4-.25-.75-.1-1.25.15-.85 1-1.05 3.95-2.3 10.1-5L20.15.8h.05l.05-.05.25-.4q.3-.35.7-.35l.9.25.5.3.6.85" fill="#081a15" fill-opacity=".329"/><path d="M19 1.95l.25-.35h.05l.55-.3.8.2.45.25.45.7.05.15.5 1.15.05.05.25.9-.05.35q0 .6-.35.8-.25.3-.85.3H21l-1.4.95-1.95 1.2v3.2l-.3.7-.25.2v.35q-.15 1.4-1.05 2.45l-.05.05q-.95.95-2.1 1.15l-.75.05q-1.35 0-2.25-.6l-.05-.05-.05-.05-.7-.65-.05-.05L10 15l-.1-.1-2.15 1.25h.05l-.55.15h-4.8l-.7-.3-.3-.7v-.85l.05-.3q.45-1.3 1.75-1.3.7-.05 1.2.45l.9-.3-.15-.15-.05-.1-.8-.8-.05-.05q-.4-.6-.15-1.2v-.05q-.25-.55-.1-1.05.15-.7.85-.9 3.5-1.95 8.8-4.35L18.95 2l.05-.1v.05"/><path d="M13.8 11.5l-.4.2q.55.2.55.7l-.25.5-.55.25h-.2l-.35-.25-.25-.5.05-.15-1.4.8.8 1.2.25.15 1.1.25q.9 0 1.6-.7.65-.65.65-1.55v-.15l-.2-.75h-1.4m6.05-9.05l.1-.15.25.15v.05h.05l.35.3.7 1.55q.2.3 0 .4v.35l-.2.05-.15-.1V5l-1.9 1.25-2.4 1.5v3.75H16l.1.9v.25q-.1 1.1-.8 1.9-.7.7-1.55.85l-.6.05q-1 0-1.7-.45l-.05-.05-.6-.55-.5-.9-3.05 1.8h-4.8v-.85q.2-.6.8-.6.5 0 .8.6h.05l2.05-.65 1.15-1.55-.65.25q-.35.15-.65-.25l-.15-.35-.05-.1q-.4.05-.6-.35-.25-.35.05-.75l-.2-.45-.05-.4.25-.25q3.5-1.95 8.85-4.35l5.7-2.5V2.7l.05-.25" fill="#8cb5e6"/></g></svg>