<svg height="23.95" width="23.9" xmlns="http://www.w3.org/2000/svg"><g fill-rule="evenodd"><path d="M17.8 6.1h.05q.95-.25 1.9 1.6.9 1.8 2.35 7.15l1.8 7.75v.1l-.05.55-.35.5-.25.15-.5.05H1.1l-.55-.15-.45-.45v-.1q-.2-.35 0-.7l-.1.05q.65-3.05 1.8-6.15Q4 9.55 6.2 9.6h.05q.45-.15 1 .3Q9.7.05 12.15.05q1-.3 2 1.5v.05l1.95 5.45q.85-1.05 1.7-.95" fill="#081a15" fill-opacity=".498"/><path d="M17 7.4h.05q.85-.2 1.65 1.35.8 1.6 2 6.2l1.6 6.8v.05l-.05.55-.05.05-.35.4-.55.15H2.5l-.55-.15-.35-.45-.05-.05v-.6.05l1.5-5.35q1.95-6.05 3.9-5.95l.9.25q2.1-8.6 4.25-8.55.85-.25 1.7 1.3.75 1.35 1.75 4.8.7-.9 1.45-.85"/><path d="M15.25 11l.5-1.2q.7-1.4 1.3-1.4.35 0 .75.8.8 1.55 1.95 6l1.55 6.75h-6.6q-.2-2-.9-3.25l-.3-.5q-.65-.8-1.35-.8-.9 0-1.6 1.3-.7 1.25-.95 3.25H2.5L4 16.7q1.7-5.25 3-5.25.35 0 .85.8l.4.65.15-.5q2.15-9.25 3.75-9.25l.8.8q.95 1.7 2.3 7.05" fill="#8cb5e6"/></g></svg>