<svg height="23.3" width="23.4" xmlns="http://www.w3.org/2000/svg"><g fill-rule="evenodd"><path d="M17.85 1.7l.4.5 1.85 5.55v4.6l.25.05.3.25 2.55 2.85q.2.15.2.65l-.3.65-.55.3v5.2l-.3.7-.7.3H4.7L4 23l-.3-.7v-5.25l-.4-.25-.3-.7.3-.7 2.55-2.75.3-.2.4-.1h7.3V8.1l.1-.4 1.8-5.35.4-.6.5-.2.55-.05h.05l.6.2" fill="#081a15" fill-opacity=".498"/><path d="M12.75.7l.4-.45h-.05l.55-.2.55-.05h.05l.6.2.35.5 1.85 5.55.05.3v4.3l.25.05h-.05l.35.25 2.5 2.8.25.7-.3.7v-.05l-.55.3v5.2l-.3.7-.7.3H1.7l-.7-.3-.3-.7v-5.25l-.4-.25-.3-.7.3-.7 2.55-2.75.3-.2h.05l.35-.1h7.3V6.6l.05-.3L12.75.75V.7"/><path d="M5.2 18.9v-2.95H3.55v2.95H5.2m3.75-2.95H7.3v2.95h1.65v-2.95m7.55 2.95v-2.95h-1.7v2.95h1.7m-3.75-2.95h-1.7v2.95h1.7v-2.95m.4-8.8v3.3h1.45v-3.3h-1.45m-1.3-.55l1.85-5.55.55-.05 1.85 5.55v5.25h.8l2.5 2.8h-.85v6.2H1.7v-6.2H1l2.55-2.75h8.3V6.6" fill="#8cb5e6"/></g></svg>