<svg height="21.9" width="22.3" xmlns="http://www.w3.org/2000/svg"><g fill-rule="evenodd"><path d="M15 9.85V7q0-.4.3-.7L16 6h5.3l.7.3.3.7v13.9l-.3.7-.7.3H4q-.4 0-.7-.3l-.3-.7V5.2l.3-.7.5-.25V2.5l.3-.7.7-.3h1.75q.4 0 .7.3.3.3.3.7v1.7h3.65l.7.3.3.7v4.65H15" fill="#081a15" fill-opacity=".498"/><path d="M12 5.5q0-.4.3-.7.3-.3.7-.3h5.3l.7.3.3.7v13.9l-.3.7-.7.3H1l-.7-.3-.3-.7V3.7L.3 3l.5-.25V1l.3-.7.7-.3h1.75l.7.3q.3.3.3.7v1.7H8.2l.7.3q.3.3.3.7v4.65H12V5.5"/><path d="M8.2 9.35H13V5.5h5.3v13.9H1V3.7h.8V1h1.75v2.7H8.2v5.65m9.2.75V8.75H14v1.35h3.4m0 4.6v-1.3H14v1.3h3.4m0-2.3v-1.35H14v1.35h3.4m-7.85-.1h1.05v-.8H9.55v.8m2.55 0v-.8H11v.8h1.1m0 2.75V13.9H11v1.15h1.1m-2.55 0h1.05V13.9H9.55v1.15m2.55 3V16.4H11v1.65h1.1m-1.5 0V16.4H9.55v1.65h1.05M14 17h3.4v-1.3H14V17M5.25 7.9V5.2h-1.1v2.7h1.1M3.3 11.3V8.55H2.2v2.75h1.1m0-3.4V5.2H2.2v2.7h1.1m3.85.65H6.1v2.75h1.05V8.55m0-.65V5.2H6.1v2.7h1.05m-1.9 3.4V8.55h-1.1v2.75h1.1m3.95 1v-.8H8.1v.8h1.1m-1.1 2.75h1.1V13.9H8.1v1.15m-.95.3H6.1v2.7h1.05v-2.7m0-.7v-2.7H6.1v2.7h1.05m-1.9 0v-2.7h-1.1v2.7h1.1m-1.95 3.4v-2.7H2.2v2.7h1.1m0-3.4v-2.7H2.2v2.7h1.1m5.9 3.4V16.4H8.1v1.65h1.1m-3.95 0v-2.7h-1.1v2.7h1.1" fill="#8cb5e6"/></g></svg>