<svg height="24.45" width="24.55" xmlns="http://www.w3.org/2000/svg"><g fill-rule="evenodd"><path d="M2.8 7.65v-.7l-.35-.2-.1-.15-.25-.15-.3-.65v-.4l.2-.45.45-.35 5.4-2.15q.3-.25.65 0l5.45 2.2.4.3.1.35v.5l-.2.65-.3.15-.05.15-.65.2h-.15v1l.55.3.25.55v1.9l-.2.5-.35.35h-.5l-4.6-.6-3.9.4h-.1l-.7.15H3l-.45-.35-.15-.5V8.8l.25-.55L2.9 8l-.1-.35M13.7 3.8l-.45-.35q-.15-.2-.15-.5l.15-.5q.15-.3.45-.3L20.25 0v.05l.4-.05.55.3.15.5v16.65q.05-.1.2-.1h.05l.1.1q1.15.25 1.8.75l.2.2.55.65.05.1q.6 1.1-.25 2.75v-.05q-.5 1.05-2.6 1.85h-.05l-3.95.7h-.05q-3.8.15-6.35-.05-3.2-.3-6.2-1.4H4.8L1.85 21.4q-1.3-1-1.65-2.15h.05q-1.3-3.1 3.9-5.2L4.3 14q4.55-1.9 8.8-.4h.05l.1.05q2.35.85 3.95 2.35l.1.05.55.4q.5.35 1.15.45V5.6l-5.3-1.8" fill="#081a15" fill-opacity=".329"/><path d="M20.1 1.45l.2.6V16.2l.2.05q1.05.3 1.65.75v.05l.05.05.5.65.1.1q.65 1.1-.2 2.65l-.05.1q-.5.85-2.35 1.55l-.1.05-3.5.6q-3.35.15-5.55-.05-2.85-.25-5.5-1.25-1.65-.6-2.6-1.35-1.15-.9-1.55-2-1.25-2.95 3.65-4.9l.1-.05q4-1.6 7.85-.3h.05q2.15.8 3.6 2.15h-.05l.55.4.05.05.55.25v-9.4l-4.45-1.5q-.3-.1-.5-.35l-.2-.6.2-.6.5-.35L19 1.1h.6l.5.35M14 7.1l-.2.2-.1.05q-.25.25-.6.3v.4l.4.25.3.7v1.7l-.2.55h.05q-.2.25-.5.35h-.6l-3.9-.5H8.6l-3.3.3h.05l-.1.05h-.1l-.6.1h.05-.65l-.45-.35-.2-.6V9l.3-.7.4-.25v-.4q-.35-.05-.6-.3l-.05-.05-.25-.2-.3-.7v-.35l.15-.55H3l.45-.35L8.2 3.2l.05-.05.75.05h-.05l4.75 1.95.45.35.15.55v.35l-.3.7"/><path d="M9.2 6.65H8V9h1.2V6.65m2 0h-1.05V9h1.05V6.65m-4.2 0H5.9V9H7V6.65m11.75 11.2h-.3L16.3 18q-1.2.3-1.2 1.3 0 .65.8.95l2.55.1 1.3-.25.3-.1q.7-.35.7-.9v-.2l-.4-.55q-.4-.3-1.05-.45v1.45h-.55v-1.5M13 6.4v.25h-.9V9h.7v1.65l-4.15-.55-3.6.35-.75.15V9H5V6.65h-.9V6.4h-.3v-.35L8.55 4.1l4.75 1.95v.35H13m.6-2.5l5.7-1.85v14.9l.2.05.55.15q.95.25 1.45.65l.4.5q.35.7-.2 1.7-.35.65-1.85 1.2l-3.3.6q-3.25.15-5.4-.05-2.7-.25-5.25-1.2l-2.35-1.2q-.9-.7-1.2-1.55-.75-2.1 3.15-3.65 3.7-1.5 7.2-.3 2 .75 3.3 2l.55.4q.65.45 1.4.55l.8.05V5.65L13.6 3.9" fill="#8cb5e6"/></g></svg>