<svg height="19.95" width="13.9" xmlns="http://www.w3.org/2000/svg"><g fill-rule="evenodd"><path d="M12.95 4.85l-.05.6.1.1.7.8h.05v.6l-.05.2-.3.8.1.15q.4.55.4 1.3t-.5 1.35l-1 .7-4.15 8.45-4.2-8.45q-.65-.2-1-.7-.55-.6-.5-1.35 0-.8.6-1.4l-.3-.45v.05l-.1-.65V6.8l.1-.6.75-.75-.05-.6q0-2.05 1.4-3.45Q6.25 0 8.25 0q1.9 0 3.3 1.4 1.3 1.35 1.4 3.25v.2" fill="#081a15" fill-opacity=".498"/><path d="M0 9.4Q0 8.55.55 8 .15 7.6.2 6.95V6.8q-.05-.95.8-1.4v-.55Q1 2.8 2.4 1.4 3.7 0 5.7 0q1.95 0 3.35 1.4 1.35 1.4 1.35 3.45l-.05.55q.85.45.85 1.4v.15q0 .65-.35 1.05.5.55.55 1.4 0 .8-.55 1.4v-.05l-.95.7-4.2 8.5-4.2-8.5q-.65-.2-1-.7v.05q-.55-.6-.5-1.4"/><path d="M9.45 7.85H7.6v1.9q0 .65-.65.65-.6 0-.6-.65V6.6H6.2q-.45 0-.8-.3l-.3-.8h-.6q0 .6.35 1.05.4.45.95.6v.7H2.05q-.85 0-.85-.7V7q0-.6.85-.6h.1L2 5.05q0-1.6 1.1-2.8 1.1-1.1 2.65-1.1 1.55 0 2.6 1.1 1.1 1.15 1.1 2.8L9.3 6.4h.1q.85 0 .85.6v.15q0 .7-.8.7m-7.4.65H5.7v1.25q0 .6.4.95.35.4.85.4.6 0 .95-.4.4-.35.4-.95V8.5h1.15q.4 0 .7.3l.3.8-.3.75-.75.35h-.15l-.9 1.85h-3.2v.6H8.1l-2.35 4.8-1.3-2.65h1.5v-.6h-1.8L2.5 11.3h2.4v-.6H2.1q-.5 0-.75-.35Q1 10.1 1 9.6l.35-.8q.25-.3.7-.3" fill="#8cb5e6"/></g></svg>