<svg height="19.9" width="26.5" xmlns="http://www.w3.org/2000/svg"><g fill-rule="evenodd"><path d="M7.45 15l1.05 1.3q2.1-1 4-1.55l-.65-.45-4.45.65.05.05m10-1.05l3.05.5.45-1.45-4.5.65-.25.3h1.25M14.9 6.1l.3-.9-.4-.05-.35-.05.75-3.1.3.05q3.75.55 6.25 3.3 2.5 2.7 2.5 6.4-.05 2.2-1 4.2l.95.75v.05q1.4 1.3 2.05 2.65l.25.5H2l.95-.6 2.6-1.55q-2.15-2.55-2.15-6Q3.35 8.9 5 6.5q1.55-2.35 4.15-3.6l.25-.1 1.9 2.65-.35.15-.85.4 2.4 2.8 1.3-.3.45.05.1-.5 2.4.85-.3 1 .55 1.15 3.95-.55q-.35-1.75-1.65-3.15L17.55 6l-.25.9-2.4-.8m-4.3 5.65l.15-1.05-2.6-3.1-.35.45h-.05q-1.25 1.65-1.2 3.7l.05.75 4-.55v-.2" fill="#081a15"/><path d="M6.2 15.15l-1.6.8-.6.3-1.75 1H23.4l-1.65-2.05-.85-.7-.5-.35-1.6-.9-.65-.2-2.7-.45-2.45.2-1 .2q-2.25.55-4.95 1.8l-.7.3-.15.05m5.6-7.95l-.85.15-.6.35-.3.25-.45.65-.25.8-.05.35v.1l.15.7.6 1 .05.05.85.55.85.15h.25l.55-.1.7-.35.3-.3.45-.5.3-1.2v-.1l-.05-.6-.1-.35-.5-.75-.1-.1-.9-.6-.65-.15h-.25m7.45-3.4Q17.05 1.3 13.7.75l-.45 1.8h.1l.7.15 1.05.35.65.3 2 1.55q1.45 1.55 1.85 3.5l.1.7.05.65-.05.45-.05.7-.55 1.8 1.6.85q.9-1.8.9-3.8-.05-3.4-2.35-5.95m-4.4.2l.1-.3-1.1-.35-.1.3 1.1.35m-1.95.1l.3-.9-.4-.05-.35-.05.75-3.1.3.05q3.75.55 6.25 3.3 2.5 2.7 2.5 6.4-.05 2.2-1 4.2l.95.75v.05q1.4 1.3 2.05 2.65l.25.5H0l.95-.6 2.6-1.55q-2.15-2.55-2.15-6Q1.35 6.9 3 4.5 4.55 2.15 7.15.9L7.4.8l1.9 2.65-.35.15-.85.4 2.4 2.8 1.3-.3.45.05.1-.5 2.4.85-.3 1L15 9.05l3.95-.55q-.35-1.75-1.65-3.15L15.55 4l-.25.9-2.4-.8m2.15 5.65l-.2 1.15 4.2-.6.05-.55-.05-.55-4 .55m.4 2.2l3.05.5.45-1.45-4.5.65-.25.3h1.25M11.8 8.5q.55 0 .9.35.35.4.35.9l-.35.85-.9.35q-.5 0-.85-.35l-.35-.85q0-.5.35-.9.35-.35.85-.35M5.25 5.65l.45-.6.5-.5.9-.7.6-.35.6-.3-1.1-1.55q-2.25 1.1-3.65 3.2-1.5 2.25-1.5 4.9-.05 3.3 2.05 5.7l1.75-.85-.95-1.25-.2-.3-.3-.65-.35-1.1-.1-.7-.05-.85q0-2.25 1.35-4.1m3.35 4.1l.15-1.05-2.6-3.1-.35.45h-.05Q4.5 7.7 4.55 9.75l.05.75 4-.55v-.2m.95-2.3l.35-.25-2.35-2.85-.9.7L9.1 8l.45-.55m-.3 4.25l-.55-1.05-4 .55.4 1.1 4.15-.6M5.45 13l1.05 1.3q2.1-1 4-1.55l-.65-.45-4.45.65.05.05"/><path d="M14.85 4l-1.1-.35.1-.3 1.1.35-.1.3m4.4-.2q2.3 2.55 2.35 5.95 0 2-.9 3.8l-1.6-.85.55-1.8.05-.7.05-.45-.05-.65-.1-.7q-.4-1.95-1.85-3.5l-2-1.55-.65-.3-1.05-.35-.7-.15h-.1l.45-1.8q3.35.55 5.55 3.05M11.8 7.2h.25l.65.15.9.6.1.1.5.75.1.35.05.6v.1l-.3 1.2-.45.5-.3.3-.7.35-.55.1h-.25l-.85-.15-.85-.55-.05-.05-.6-1-.15-.7v-.1l.05-.35.25-.8.45-.65.3-.25.6-.35.85-.15m-5.6 7.95l.15-.05.7-.3Q9.75 13.55 12 13l1-.2 2.45-.2 2.7.45.65.2 1.6.9.5.35.85.7 1.65 2.05H2.25l1.75-1 .6-.3 1.6-.8m5.6-6.65q-.5 0-.85.35-.35.4-.35.9l.35.85q.35.35.85.35l.9-.35.35-.85q0-.5-.35-.9-.35-.35-.9-.35m3.25 1.25l4-.55.05.55-.05.55-4.2.6.2-1.15m-9.8-4.1Q3.9 7.5 3.9 9.75l.05.85.1.7.35 1.1.3.65.2.3.95 1.25-1.75.85q-2.1-2.4-2.05-5.7 0-2.65 1.5-4.9 1.4-2.1 3.65-3.2L8.3 3.2l-.6.3-.6.35-.9.7-.5.5-.45.6m4.3 1.8L9.1 8 6.65 5.05l.9-.7L9.9 7.2l-.35.25m-.3 4.25l-4.15.6-.4-1.1 4-.55.55 1.05" fill="#8cb5e6"/></g></svg>