<svg height="26.8" width="25.15" xmlns="http://www.w3.org/2000/svg"><g fill-rule="evenodd"><path d="M1.3 7.15L2.45 5.3q0-.4 3.15-2.05 3.05-1.6 4-1.8.5-.45.5.55 0 .4-2.35 2.15-2.4 1.7-2.4 2.55l.25 1.6.45 1.1.4.3Q7 10 7.6 10q1.05-4.7 6.15-4.45 3.4.15 4.4 1.25l1.35 2 1.15-1.05q.75-.6 1.65-.75-.3-1.65-1.55-1.8-1.1-.15-1.1-2.45l.1-.45.35.2q1.25 1.05 2.15.65.85 1 2 1.9l.8.85-.65 1.65q-.4 1 .75 2.5l-2.65.9q-1.35.7-1.35 1.65l-.35 2.95-1.15 4.25q-.2.5.05 1.2l.3.8q0 1.1-1.6 2.8-2 2.2-4.7 2.2-4.15-.2-5.7-3.5l-.55-3.65-.5-2.3-.55-2.15q.05-1.95-.35-2.5l-1.35-.85-1.4.1-1.25-.65-.15-.65-.05-.7-.1-.8q-.45-.95-.45-2" fill="#081a15"/><path d="M0 5.85L1.15 4q0-.4 3.15-2.05 3.05-1.6 4-1.8.5-.45.5.55 0 .4-2.35 2.15-2.4 1.7-2.4 2.55L4.3 7l.45 1.1.4.3 1.15.3Q7.35 4 12.45 4.25q3.4.15 4.4 1.25l1.35 2 1.15-1.05q.75-.6 1.65-.75-.3-1.65-1.55-1.8-1.1-.15-1.1-2.45l.1-.45q.2.25.35.2 1.25 1.05 2.15.65l2 1.9.8.85-.65 1.65q-.4 1 .75 2.5l-2.65.9q-1.35.7-1.35 1.65l-.35 2.95-1.15 4.25q-.2.5.05 1.2l.3.8q0 1.1-1.6 2.8-2 2.2-4.7 2.2-4.15-.2-5.7-3.5l-.55-3.65-.5-2.3-.55-2.15q.05-1.95-.35-2.5l-1.35-.85-1.4.1L.75 10 .6 9.35l-.05-.7-.1-.8Q0 6.9 0 5.85"/><path d="M18.3 9.55l-.15-.6.3-.8 2.15-1.8.55-.1-.85.95v.05l.95-.45.3-1.15-.2-.75-1.15-1.5-.65-.05q-.25-.15-.6-.9l-.25-.75.25.3.6.45 1.2.05.35.45q.4.85 1.15 1.3l.45.25.4.5-.25.4-.55 1.15-.05.85.75.95q-.05.2-.4.1l-1.25.1q-1.75 1.05-1.9 1.5l-.3.2-.2.05-.2-.1-.45-.65m-5.45-4.2l-1.5.1-1.05.35-.65.55-.35.45 1 .3.7.05q0 .1-.75.4L7.45 8.8l-.25.1-.25-.05L7.1 8l.4-.85L9 5.65l.9-.4 3-.45 1.4.2 1.2.5.85.6.75.85.35.65.3 1.6-.7-1.3-.5-.85-.7-.75-1.15-.7-.8-.2-1-.05h-.05l.8.1L15.8 6.6l1.4 2.2-1.25-1.05-3.4-2.2.1-.15.2-.05M13.9 7.8L9.95 6.65l1-.8 1.45-.05 3.4 2.15h-1l-.9-.15m-.9 2.4l-1.9.15-1.9.35-1.85.7-1.4.8-.05-.25.15-.35-.3.1-.2-.05 1-.9 1-.8.1-.4.4-.15.6-.3 1.5-.4 1.7-.2.05-.05-1.85.05-.9.2-1.4.65-.45.25-.45.15h-.3l.2-.3.4-.3 2.6-1.2 1.1-.3.8-.2 1.05.45.75.2 1.5.05 1.6.5.95.65.9.8.45.7.1 2.3-.35-.7-.75-1-1.15-.6-.6-.1-1.4-.35-1.7-.15m-4.1 1.1l2.7-.75 2.4.05.2.2.3.15.1.4-1.8-.1-1.75.15-2.35.65.2-.75m6.8-.95l.15.15.05-.05-.2-.1m.35.85H16l.05-.05v.05h.05l.05.05-.1-.05m-.05 0l.3.15.05 1.25.3.2.05.4q0 1-.35 1.35l-.35.25-.3.15-.5-.65-.4-.1-.4.25-.2.65-.2.4.1.1.1.35v.2h-.45l-.05-.2v-.15h-.2v.15l-.1.25-.15.15-.2-.15-.05-.25.05-.15h-.5l.15.1.1.35-.1.3v.05h-.3l-.05-.05-.05-.3.05-.35.2-.1h-.35v.05l.05.3-.05.25-.15.15-.15-.15-.05-.25.05-.3.05-.05h-.45q.1 0 .15.1l.05.25-.05.25-.15.1-.15-.1-.05-.25.05-.25.15-.1H11v.05l.05.35-.05.3-.05.1h-.2l-.05-.1-.05-.3.05-.35.05-.05h-.15v-.05l-.25.05.05.05.05.3v.2h-.35l-.05-.2.05-.3.1-.05-.3-.1-.55-.6-.15-.2-.9-.45-.75-.05-.55-.7-.1-1.5.4-.35 1.35-.5-.2.35.1.85.6.3.7.05q.3 0 .7-.4l.25-.35.05-.4 2.65-.2v.25l.6.8.3.15h.3l.55.05.4-.75.1-.85H16m-5.7 7.95l1.95.4 1.3-.25 1.1-.8.05.25q.5-1.35 1.85-3.6 1.1-1.9.35-3.6l.15-.25.45-.05q.25.05.25.7 0 1.9-1.35 4.2l.6-.3-2.25 5.1q-.9.95-4.25.95L9.25 20 7.7 16.85q-.65-.9-.65-1.9 0-1 .15-.55l.6.55.65.6.45 1.65.55 1.9v-.35l.85.7v-.3m1.1 4.05q0-.1 2.1-.85.9-.35 2-1.45l.5-1.2 1.2-2.9.35.6.2.75q-.3.95-.25 1.3l.5.75q.4.3.25.6l-2.25.95-2.2 1.05-.85.35-1.55.05m6.65-6.55l-.6-1.65.55-1.65.1-1.2.55 1.15-.1 1.65-.5 1.7M11.1 14.2l.1.15.45-.05.95-.05.05-.75-.05-.7-.45-.55-.2-.25-.35.15-.5 1.4v.65m1.4 4.15l.5.2.1-.3.15-.05.35.45-.05.1-.55-.15v.4l-.25.15q-.25-.25-.25-.8m1.2-.35h.55v.4h-.55V18m-1.85.85V19l-.2.2-.25-.15-.05-.35.45-.15.5.1.05.65-.05.05q-.35 0-.45-.5m2.3 4.35l2.25-1.25.8-.3.6-.1-1 1-1.1 1.05-.85.55-.4.2-2.25.35-1.45-.05-.6-.35.85-.25 1.3-.25 1.85-.6M5.7 10.9q-.15.2-.4.1l-.75-.6-.05-.05-1.3-.4-1.5-.05-.5-.25-.05-.45-.2-1.8L.6 5.95 1.65 4.9l.3-.25q-.3-.3-.2-.45L3 3.5l.95-.2-.1-.65.35-.25 1.85-.75.45-.1.65-.45.75-.1.15.05-1.25.85-2.55 1.7-.95.85L1.95 5.7l-.15.35L2 7l.4.65 1.1.4-.2-.3Q3 7 3.15 6.2l.15-.35q.1-.1.3 1.5l.8 1.4 1.6.5.15.3q.05.35-.45 1.35m1.1.35l2.4-1 .7-.15-.15-.2-.4-.05-.2-.1-.65.4-1 .5-1.15.8.45-.2m-.6 4.2l-.55-1.75.1-1 .7-.3.1 1.15-.05 1.55.3 1.1-.6-.75m3.35 8.4l-.5-.15-.4-.25-1.3-1.65-.25-1.1-.25-2.6-.15-1.05.2.1.2.2.7 2.1 2.15 2.85 1.25 1.3-1.65.25m1.6-5.05l-.1.3-.35.1-.3-.1-.15-.3.15-.25q.1-.15.3-.15l.35.15.1.25" fill="#7fa4cf"/></g></svg>