<svg xmlns="http://www.w3.org/2000/svg" width="16.15" height="22.8" viewBox="0 0 16.15 22.8"><g fill-rule="evenodd"><path fill="#081a15" fill-opacity=".5" d="M3.35-9.4l3.4 5.45v.05l.1.45v3.3l.6.8.05.05.15.55V9.2h.7q.4 0 .7.3l.3.7v.7l-.3.7-.7.3H-3.3q-.4 0-.7-.3l-.3-.7v-.7l.3-.7q.3-.3.7-.3h.65V1.25l.3-.65.55-.75V-3.4l.2-.55L1.6-9.3l.45-.45.85-.05.45.4m.7 18.6h.1V5.65h-.1V9.2" transform="translate(6.8 10.9)"/><path d="M.3-10.85l.5.45v-.05L4.2-5v.05l.15.5v3.3l.6.8.2.6V8.2h.7q.4 0 .7.3l.3.7v.7l-.3.7q-.3.3-.7.3H-5.8l-.7-.3-.3-.7v-.7l.3-.7q.3-.3.7-.3h.65V.25l.25-.6V-.4l.6-.8v-3.2l.15-.5 3.25-5.5q.15-.3.5-.4l.05-.05H.3" transform="translate(6.8 10.9)"/><path fill="#8cb5e6" d="M-.8 9.2V3.65h-1.7V9.2h1.7m3.3-7V1.15h-4.8V2.2h4.8M.65 3.65V9.2h1.9V3.65H.65m.25-7Q.55-3.7.05-3.7q-.55 0-.9.35l-.35.8.35.8.45.3.45.05q.5 0 .85-.35.35-.3.35-.8l-.05-.3-.3-.5m2.45-1.1v3.6l.8 1.1V9.2h1.7v.7H-5.8v-.7h1.65V.25l.85-1.1V-4.4l3.25-5.5 3.4 5.45" transform="translate(6.8 10.9)"/></g></svg>
