<?xml version="1.0" encoding="UTF-8" standalone="no"?>
<svg xmlns:xlink="http://www.w3.org/1999/xlink" height="20.4px" width="21.25px" xmlns="http://www.w3.org/2000/svg">
  <g transform="matrix(1.0, 0.0, 0.0, 1.0, 9.45, 11.85)">
    <use height="20.4" transform="matrix(1.0, 0.0, 0.0, 1.0, -9.45, -11.85)" width="21.25" xlink:href="#shape0"/>
  </g>
  <defs>
    <g id="shape0" transform="matrix(1.0, 0.0, 0.0, 1.0, 9.45, 11.85)">
      <path d="M9.05 -6.2 L9.75 -5.9 10.05 -5.2 10.05 4.75 10.8 4.75 Q11.2 4.75 11.5 5.05 L11.8 5.75 11.8 7.55 11.5 8.25 10.8 8.55 -7.2 8.55 -7.9 8.25 -8.2 7.55 -8.2 5.75 -7.9 5.05 Q-7.6 4.75 -7.2 4.75 L-6.45 4.75 -6.45 -5.2 -6.15 -5.9 -5.45 -6.2 -4.7 -6.2 -4.7 -9.1 -4.4 -9.8 -4.1 -10.0 -4.1 -10.1 -3.8 -10.8 -3.1 -11.1 -1.85 -11.1 Q-1.45 -11.1 -1.15 -10.8 -0.85 -10.5 -0.85 -10.1 L-0.85 -10.0 -0.55 -9.8 -0.4 -9.65 -0.3 -9.8 0.0 -10.0 0.0 -10.1 Q0.0 -10.5 0.3 -10.8 0.6 -11.1 1.0 -11.1 L2.25 -11.1 Q2.65 -11.1 2.95 -10.8 L3.25 -10.1 3.25 -10.0 3.6 -9.8 3.7 -9.7 3.75 -9.8 4.1 -10.0 4.1 -10.1 Q4.1 -10.5 4.4 -10.8 4.7 -11.1 5.1 -11.1 L6.35 -11.1 7.05 -10.8 7.35 -10.1 7.35 -10.0 7.7 -9.8 8.0 -9.1 8.0 -6.2 9.05 -6.2" fill="#081a15" fill-opacity="0.49803922" fill-rule="evenodd" stroke="none"/>
      <path d="M7.55 -6.95 L8.1 -6.7 8.3 -6.2 8.3 4.0 9.3 4.0 9.85 4.25 10.05 4.75 10.05 6.55 9.85 7.1 9.3 7.3 -8.7 7.3 -9.2 7.1 -9.45 6.55 -9.45 4.75 -9.2 4.25 Q-9.0 4.0 -8.7 4.0 L-7.7 4.0 -7.7 -6.2 -7.45 -6.7 -6.95 -6.95 -5.9 -6.95 -5.95 -7.2 -5.95 -10.1 -5.7 -10.6 -5.35 -10.8 -5.35 -11.1 -5.1 -11.6 -4.6 -11.85 -3.35 -11.85 -2.8 -11.6 -2.6 -11.1 -2.6 -10.8 -2.2 -10.6 -2.0 -10.1 -2.0 -7.2 -2.05 -6.95 -2.2 -6.7 -1.65 -6.7 -1.8 -6.95 -1.85 -7.2 -1.85 -10.1 -1.6 -10.6 -1.25 -10.8 -1.25 -11.1 -1.0 -11.6 -0.5 -11.85 0.75 -11.85 1.3 -11.6 1.5 -11.1 1.5 -10.85 1.95 -10.6 2.15 -10.1 2.15 -7.2 2.1 -6.95 1.95 -6.7 2.4 -6.7 2.25 -6.95 2.2 -7.2 2.2 -10.1 2.45 -10.6 Q2.6 -10.8 2.85 -10.85 L2.85 -11.1 3.1 -11.6 3.6 -11.85 4.85 -11.85 5.4 -11.6 5.6 -11.1 5.6 -10.85 6.05 -10.6 6.25 -10.1 6.25 -7.2 6.2 -6.95 7.55 -6.95" fill="#000000" fill-rule="evenodd" stroke="none"/>
      <path d="M2.35 -5.4 L-2.75 0.5 -2.75 0.6 -2.6 0.7 -0.2 0.7 -2.05 5.05 -2.0 5.25 -1.85 5.25 3.3 -0.7 3.3 -0.85 3.2 -0.95 0.7 -0.9 2.65 -5.3 2.7 -5.4 2.6 -5.5 2.4 -5.5 2.35 -5.4 M7.55 -6.2 L7.55 4.75 9.3 4.75 9.3 6.55 -8.7 6.55 -8.7 4.75 -6.95 4.75 -6.95 -6.2 -4.6 -6.2 -4.6 -7.2 -5.2 -7.2 -5.2 -10.1 -4.6 -10.1 -4.6 -11.1 -3.35 -11.1 -3.35 -10.1 -2.75 -10.1 -2.75 -7.2 -3.35 -7.2 -3.35 -6.2 -0.5 -6.2 -0.5 -7.2 -1.1 -7.2 -1.1 -10.1 -0.5 -10.1 -0.5 -11.1 0.75 -11.1 0.75 -10.1 1.4 -10.1 1.4 -7.2 0.75 -7.2 0.75 -6.2 3.6 -6.2 3.6 -7.2 2.95 -7.2 2.95 -10.1 3.6 -10.1 3.6 -11.1 4.85 -11.1 4.85 -10.1 5.5 -10.1 5.5 -7.2 4.85 -7.2 4.85 -6.2 7.55 -6.2" fill="#8cb5e6" fill-rule="evenodd" stroke="none"/>
    </g>
  </defs>
</svg>
