<svg height="20.4" width="21.25" xmlns="http://www.w3.org/2000/svg"><g fill-rule="evenodd"><path d="M18.5 5.65l.7.3.3.7v9.95h.75q.4 0 .7.3l.3.7v1.8l-.3.7-.7.3h-18l-.7-.3-.3-.7v-1.8l.3-.7q.3-.3.7-.3H3V6.65l.3-.7.7-.3h.75v-2.9l.3-.7.3-.2v-.1l.3-.7.7-.3H7.6q.4 0 .7.3.3.3.3.7v.1l.3.2.15.15.1-.15.3-.2v-.1q0-.4.3-.7.3-.3.7-.3h1.25q.4 0 .7.3l.3.7v.1l.35.2.1.1.05-.1.35-.2v-.1q0-.4.3-.7.3-.3.7-.3h1.25l.7.3.3.7v.1l.35.2.3.7v2.9h1.05" fill="#081a15" fill-opacity=".498"/><path d="M17 4.9l.55.25.2.5v10.2h1l.55.25.2.5v1.8l-.2.55-.55.2h-18l-.5-.2L0 18.4v-1.8l.25-.5q.2-.25.5-.25h1V5.65l.25-.5.5-.25h1.05l-.05-.25v-2.9l.25-.5.35-.2v-.3l.25-.5.5-.25H6.1l.55.25.2.5v.3l.4.2.2.5v2.9l-.05.25-.15.25h.55l-.15-.25-.05-.25v-2.9l.25-.5.35-.2v-.3l.25-.5.5-.25h1.25l.55.25.2.5V1l.45.25.2.5v2.9l-.05.25-.15.25h.45l-.15-.25-.05-.25v-2.9l.25-.5q.15-.2.4-.25V.75l.25-.5.5-.25h1.25l.55.25.2.5V1l.45.25.2.5v2.9l-.05.25H17"/><path d="M11.8 6.45l-5.1 5.9v.1l.15.1h2.4L7.4 16.9l.05.2h.15l5.15-5.95V11l-.1-.1-2.5.05 1.95-4.4.05-.1-.1-.1h-.2l-.05.1m5.2-.8V16.6h1.75v1.8h-18v-1.8H2.5V5.65h2.35v-1h-.6v-2.9h.6v-1H6.1v1h.6v2.9h-.6v1h2.85v-1h-.6v-2.9h.6v-1h1.25v1h.65v2.9h-.65v1h2.85v-1h-.65v-2.9h.65v-1h1.25v1h.65v2.9h-.65v1H17" fill="#8cb5e6"/></g></svg>