<svg height="18.5" width="25.4" xmlns="http://www.w3.org/2000/svg"><g fill-rule="evenodd"><path d="M7.25 6.7H4.6l2.65 3.15V6.7m3.55 0H7.85v3.35L10.8 6.7m-2.4 3.6h2.7V7.2l-2.7 3.1m3.3 0h2.8l-2.8-3.1v3.1m6.95-3.6h-3v3.25l3-3.25m-3.6 0H12l3.05 3.3V6.7m.2-4.65h.1V5.2h6.2v1.5H19.5l-3.35 3.6h5.4v.85h-2.4l.3 5.15h.75v.95h-3.25v-.95h.65l.3-5.15h-5.7l.3 5.15h.7v.95H9.95v-.95h.7l.3-5.15H5l.3 5.15h.8v.95H2.8v-.95h.65l.3-5.15h-2v-.85H6.9L3.8 6.7H1.75V5.2h5.6V2.75l-.5.05-.7-.1-.3-.3.3-.3.7-.1q.75 0 .95.3h.1v2.9h6.85V2.55l-.45.05-.75-.1-.3-.3.3-.3.75-.15q.7 0 .95.3"/><path d="M6.5 5.95H3.85L6.5 9.1V5.95m1.15 3.6h2.7v-3.1l-2.7 3.1m2.4-3.6H7.1V9.3l2.95-3.35m7.85 0h-3V9.2l3-3.25m-6.95 3.6h2.8l-2.8-3.1v3.1m3.35-3.6h-3.05l3.05 3.3v-3.3m.2-4.65h.1v3.15h6.2v1.5h-2.05l-3.35 3.6h5.4v.85h-2.4l.3 5.15h.75v.95H16.2v-.95h.65l.3-5.15h-5.7l.3 5.15h.7v.95H9.2v-.95h.7l.3-5.15H4.25l.3 5.15h.8v.95h-3.3v-.95h.65L3 10.4H1v-.85h5.15l-3.1-3.6H1v-1.5h5.6V2l-.5.05-.7-.1-.3-.3.3-.3.7-.1q.75 0 .95.3h.1v2.9H14V1.8l-.45.05-.75-.1-.3-.3.3-.3.75-.15.95.3" fill="#f8c95d"/><path d="M18.95 1.75l.15.6.1.45v1.65h5.2l.7.3.3.7v1.5l-.3.7q-.3.3-.7.3h-1.5l-.1.1-1.35 1.4-.1.1h3.05q.4 0 .7.3l.3.7v.85l-.3.7-.7.3h-1.3l.2 3.2.45.25.3.7v.95l-.3.7q-.3.3-.7.3H19.8q-.4 0-.7-.3-.3-.3-.3-.7v-.95q0-.4.3-.7.2-.2.45-.25l.05-.45h-3.25v.45q.2.05.4.25l.3.7v.95l-.3.7-.7.3H12.8l-.7-.3q-.3-.3-.3-.7v-.95q0-.4.3-.7.2-.2.5-.25l.05-.45h-3.5v.45l.5.25q.3.3.3.7v.95q0 .4-.3.7-.3.3-.7.3h-3.3l-.7-.3-.3-.7v-.95l.3-.7q.2-.2.45-.25l.05-.45h-1V12.4l-.55-.3-.3-.7v-.85l.3-.7q.3-.3.7-.3h3l-1.3-1.5-.1-.1H4.6q-.4 0-.7-.3l-.3-.7v-1l.05-.25-.05-.25.3-.7.7-.3h4.6v-.4l-.45-.1-.2-.1q-1-.55-.85-1.2-.15-.65.9-1.2l.2-.05.9-.15 1 .2h.05l.15.1.55.3.3.7v1.9h4.85v-.6l-.45-.1-.2-.1q-1.05-.55-.85-1.2-.1-.85.9-1.15l.05-.05 1.1-.25q1.3 0 1.75.75h.05" fill="#081a15" fill-opacity=".498"/><path d="M12.35 2.65Q11.3 2.1 11.5 1.4q-.1-.8.85-1.15h.05L13.55 0l1 .15V.2l.25.15.5.25.3.7v2.15h4.7l.25.05.25-.05.7.3.3.7v1.5l-.3.7q-.3.3-.7.3h-1.55l-.05.1-1.45 1.5h3.05l.7.3.3.7v.85l-.3.7-.7.3h-1.3l.15 3.2.5.25.3.7v.95l-.3.7q-.3.3-.7.3H16.2l-.7-.3q-.3-.3-.3-.7v-.95q0-.4.3-.7l.4-.25.25-3.2h-3.6l.15 3.2q.25.05.45.25l.3.7v.95l-.3.7-.7.3H9.2l-.7-.3-.3-.7v-.95l.3-.7.45-.25.25-3.2H5.35l.15 3.15q.3.05.55.3.3.3.3.7v.95l-.3.7q-.3.3-.7.3h-3.3l-.7-.3-.3-.7v-.95l.3-.7.4-.25.25-3.2H1l-.7-.3-.3-.7v-.35l.05-.25L0 9.55l.3-.7.7-.3h3L2.65 7l-.05-.05H1q-.4 0-.7-.3l-.3-.7v-1l.05-.25L0 4.45l.3-.7.7-.3h4.6v-.4l-.5-.15h.05H5l-.05-.05q-1.05-.5-.85-1.2-.2-.7.85-1.2H5L5.15.4H5.1l1-.15q1.45 0 1.8.75l.05.05.15.6.05.4v1.4H13v-.6l-.5-.15h.05-.15l-.05-.05"/><path d="M7.8 9.7h2.7V6.6L7.8 9.7M6.65 6.1H4l2.65 3.15V6.1m3.55 0H7.25v3.35L10.2 6.1m.9 3.6h2.8l-2.8-3.1v3.1m6.95-3.6h-3v3.25l3-3.25m-3.6 0H11.4l3.05 3.3V6.1m.2-4.65h.1V4.6h6.2v1.5H18.9l-3.35 3.6h5.4v.85h-2.4l.3 5.15h.75v.95h-3.25v-.95H17l.3-5.15h-5.7l.3 5.15h.7v.95H9.35v-.95h.7l.3-5.15H4.4l.3 5.15h.8v.95H2.2v-.95h.65l.3-5.15h-2V9.7H6.3L3.2 6.1H1.15V4.6h5.6V2.15l-.5.05-.7-.1-.3-.3.3-.3.7-.1.95.3h.1v2.9h6.85V1.95L13.7 2l-.75-.1-.3-.3.3-.3.75-.15.95.3" fill="#8cb5e6"/></g></svg>