<svg height="17.7" width="23.55" xmlns="http://www.w3.org/2000/svg"><g fill-rule="evenodd"><path d="M3 17.7q-.3 0-.5-.2l-.25-.55V8l.15-.45.4-.25q2.75-.9 4.75-2.05l3.25-2.1 1.7-1.25.45-.15.5.2L15 3.2l.05.05q1.7 1.3 3 2.05H18q1.9.95 4.5 1.8h-.1l.75.25.3.25.1.4v8.95l-.2.55-.55.2H3" fill="#081a15" fill-opacity=".498"/><path d="M1 16.45l-.7-.3-.3-.7V6.5l.2-.6.5-.35q2.75-.85 4.7-2l3.25-2.1L10.35.2 11 0l.6.25 1.6 1.3V1.5l2.9 2.05.05.05q1.85.9 4.3 1.75h.1l.7.25.4.4.15.5v8.95l-.3.7-.7.3h-7.9q-.4 0-.7-.3-.3-.3-.3-.7V10.2h-2v5.25q0 .4-.3.7-.3.3-.7.3H1"/><path d="M8.9 15.45H1V6.5q2.85-.9 4.9-2.1l3.3-2.15L10.95 1l1.6 1.3q1.8 1.4 3.1 2.15 1.95 1 4.6 1.85l.55.2v8.95h-7.9V9.2h-4v6.25" fill="#8cb5e6"/></g></svg>