<svg height="21.85" width="22.4" xmlns="http://www.w3.org/2000/svg"><g fill-rule="evenodd"><path d="M10.9 9.45l.6-.2.7.3.1.1.15.6v.95l1.75-1.35V2.5q0-.4.3-.7l.7-.3h6.2l.7.3.3.7v18.35l-.3.7-.7.3H3.5q-.4 0-.7-.3l-.3-.7V13.3l.1-.4.35-.45 3.95-3h.05l.6-.2q.4 0 .7.3l.1.1.15.6v.95l2.35-1.75h.05" fill="#081a15" fill-opacity=".498"/><path d="M11.7 8.35V1q0-.4.3-.7.3-.3.7-.3h6.2l.7.3.3.7v18.35l-.3.7-.7.3H1l-.7-.3-.3-.7V11.8l.1-.45.3-.35 4-3.05.7-.2q.35 0 .65.3v.05l.25.65v.95l2.35-1.75.7-.2.65.3v.05l.25.65v.95l1.75-1.35"/><path d="M15.15 10.9h1.3V1h2.45v18.35H1V11.8l4-3.05v2.95l3.95-2.95v2.95l3.75-2.85V1h2.45v9.9m-3.5 6.2v-1.2h-2.4v1.2h2.4m0-1.95v-1.2h-2.4v1.2h2.4m-3.3 1.95v-1.2h-2.4v1.2h2.4m0-1.95v-1.2h-2.4v1.2h2.4m-3.3 0v-1.2H2.7v1.2h2.35M2.7 17.1h2.35v-1.2H2.7v1.2" fill="#8cb5e6"/></g></svg>