<svg height="22.75" width="22.55" xmlns="http://www.w3.org/2000/svg"><g fill-rule="evenodd"><path d="M1.9 22.75l.05-10.65 3.4-.65.2-.05 2.6-.55Q7.7 10.1 7.7 9.2q0-1.45.95-2.35l-.1-.4v-4.3l.25-.5.5-.25h5.2l.45.15.25.3 1.25 2.85 2.05.2V3.4l.25-.5.5-.25h.7l.55.25.2.5v1.8h.4l.4.2.25.4.8 3.3-.25 13.65H1.9" fill="#081a15" fill-opacity=".498"/><path d="M.05 21.25L0 10.6l7-1.4.9-8.55h4.5l1.8 3.1 6.25 3.8-.1 13.7H.05"/><path d="M20.15 20.45l-.2.45-.45.2h-3.65l-.35-.1-.25-.35v-.35l1.45-4.75q1.05-3.25 2.25-5.1l.35-.25h.4l.35.2.1.4v9.65M16.55 8.8v.15l.15.35.1.15.05.05.1.1.35.1h.15q.25 0 .5-.25l.25-.6V8.8l-.25-.5-.2-.15-.35-.1-.6.25-.25.5m-6.35-2q-.4-.4-.95-.4-.55 0-.95.4-.35.35-.35.9t.35.95l.5.3.45.05q.55 0 .95-.35.35-.4.35-.95l-.05-.45-.3-.45m1.65 3.1l-.8-.1-1.05.55 1.1.1.25-.1.5-.45h.05l.8.1.4.2.15.4 2.05-.45.45.1.25.3.05.4.3-.2-.45-.4q-.55-.55-.65-1.35v-.15h-2.8l-.55.95-.05.1m-1.2-8.6v2.6h2.45l-.25-.9-.7-1.7h-1.5m6 .6l.2-.45.45-.2h.7l.45.2.2.45v1.85l.5.05.35.15.2.35.8 3.3-.1.5-.35.45-.2.25-.3.05-.05.55v.05l-.6.9-.85.6-.05.25-1.45 2.95q-1.7 3.6-2.65 6.5l-.25.35-.4.1h-4.7l-.4-.15-.25-.4.1-.45q2.55-4.05 5.15-6.65l-.85.65h.05q-4 3.45-6.55 6.75l-.25.2-.3.05H.75l-.45-.2-.2-.45v-1.9l.1-.25.15-.25 5.3-4.1L1.8 15.9l-.7.4-.45.05-.4-.2-.15-.45v-4.15l.15-.35q.1-.2.3-.25l2.85-.9h.05l3.1-.35-.05-.05q-.65-.85-.65-1.95 0-1.4.95-2.3l.05-.05-.15-.4V.65L6.9.2l.45-.2h5.2l.35.1.25.3 1.25 2.9 2.25.2V1.9"/><path d="M15.4 10.8l-3.5 2.8q-4.05 3.5-6.65 6.85H.75v-1.9q4.45-3.6 5.7-4.35l1.45-.85q2.4-1.35 5-2l2.5-.55m4.1 9.65h-3.65l1.45-4.7q1.05-3.15 2.2-4.95v9.65m-3.55-6.6q-1.7 3.65-2.7 6.6h-4.7q4.35-6.9 8.8-9.6l.05-.05v.1l-1.45 2.95m.4-3.95q-.4-.4-.45-.95v-.1q0-.6.45-1.05.45-.45 1.05-.45l.65.15.4.3.35.45.1.6-.05.4-.4.65-.75.45h-.3l-.6-.1-.45-.35m1.05-1.85l-.6.25-.25.55q0 .25.15.45l.1.15q.2.2.5.25h.1l.55-.25.25-.6V8.8l-.25-.5-.2-.15-.35-.1M11.15 5.8l.35.4q.5.65.5 1.5 0 .95-.6 1.7t-1.5.95l1.9.2.8.1-1.55.5-1.9.65Q5.3 13.25 1.5 15.3l-.75.4v-4.15l2.8-.9L8 10.3h.3l-.5-.25-.75-.75q-.55-.7-.55-1.6 0-1.15.8-1.9l.8-.6 1.15-.25.9.15 1 .7m-.95 1q-.4-.4-.95-.4-.55 0-.95.4-.35.35-.35.9t.35.95l.5.3.45.05q.55 0 .95-.35.35-.4.35-.95l-.05-.45-.3-.45m2.15-5.65h-1.7V3.9h2.45l-.75-2.75m4.95.75h.7v2.45h.05l1 .1.8 3.3-.35.45h-.15l-.15-.4-.6-.65q-.55-.4-1.2-.4-.7 0-1.25.4T15.4 8.2h-2.85l.05-.5v-.1q-.05-1.05-.65-1.85l-.35-.4q-.95-1-2.35-1l-1.15.2-.75.4V.65h5.2l1.4 3.25 3.35.3V1.9" fill="#8cb5e6"/></g></svg>