<svg height="22.7" width="23.85" xmlns="http://www.w3.org/2000/svg"><g fill-rule="evenodd"><path d="M23.5 1.25l.05.05q.7.5-.25 2.3l-1.7 2.55q-2.5 3.55-4.55 5.5l-2 1.65-.1.15q-1.9 1.75-1.9 3.6.7-.5 1.45-.8.4-.2.85 0l.45.45v.05l.1.7v.05l-1.2 2.05-.15.2-.8.8-1 1-.2.15q-.95.6-1.7.85l-.6.15-.7-.3-.3-.7v-.05l.1-.25q.15-.8 1.35-2.2l-1.15-2.55q-.45-.05-.8-.4l-.25-.2-.35-.75-2.6-1.2-.15.1-.1.05q-1.35 1.1-2 1.25h-.15l-.5-.05-.05-.05-.5-.55v-.6Q2.45 12.7 4.15 11q1.6-1.5 3-2l.05-.05h.05q.3-.2.75 0l.5.5.05.1-.05.7-.05.05-.75 1.45q1.75 0 3.6-1.8l.1-.1 1.75-2.1v.05q1.85-2.15 5.5-4.65 4.05-2.9 4.85-1.9" fill="#081a15" fill-opacity=".498"/><path d="M21.55.3q.75.45-.3 2.3h.05l-1.7 2.55-.1.1q-2.35 3.4-4.35 5.25l-.1.1-2.1 1.75v.05q-1.95 1.8-1.9 3.7.7-.5 1.45-.85l.75-.05.55.5q.2.35.05.75l-1.25 2.2-.05.05v.05l-.8.8-1 1h-.05l-.05.05-1.75.95-.65.15-.7-.3-.3-.7v-.05l.05-.3v.05q.15-.75 1.35-2.15l-1.1-2.6-.75-.35-.1-.05h.05l-.2-.15-.05-.05-.35-.75-2.65-1.2-.05.05.05-.05-.05.05-2.2 1.35v-.05L.6 14.4H.55l-.45-.5v.05l-.05-.7q.4-1.5 2.05-3.15l.05-.15Q3.8 8.45 5.2 7.9l.75.05H6l.5.5v.05q.15.35-.05.75h.05l-.8 1.5q1.8-.05 3.7-1.9V8.8l1.7-2.05q1.9-2.1 5.5-4.6Q20.65-.7 21.45.2l.1.1"/><path d="M20.4 2.1l-1.6 2.45Q16.4 8 14.35 9.85l-2.1 1.8q-3.2 3.05-1.85 6.25l.4-.4.35-.3 1.75-1.05-1.1 1.9-.75.8-1 .95q-.9.65-1.7.85l-.1.05v-.05q.2-.7 1.55-2.25l-1.75-3.95-.05.05q-.35.25-.6 0l-.2-.15-.05-.3v-.15l.1-.2-3.95-1.8-.5.45L1 13.5q.35-1.3 1.85-2.8 1.45-1.35 2.7-1.85-.35.85-1 1.75l-.05.1-.65.65 1.2.35q2.5.4 5.05-2.2l1.75-2.1q1.85-2.05 5.3-4.45 3.3-2.3 3.65-2 .15.2-.4 1.15" fill="#8cb5e6"/></g></svg>