<svg height="34.6" width="34.6" xmlns="http://www.w3.org/2000/svg"><g fill-rule="evenodd"><path d="M3.5 16.8q2.55 2.15 6 2.15 3.95 0 6.65-2.8 2.8-2.8 2.8-6.7 0-3.45-2.05-5.9l.7.65q2.8 2.75 2.8 6.65 0 3.95-2.8 6.75-2.75 2.8-6.65 2.8-3.95 0-6.75-2.8l-.7-.8" fill-opacity=".698"/><path d="M16.9 3.55q2.05 2.45 2.05 5.9 0 3.9-2.8 6.7-2.7 2.8-6.65 2.8-3.45 0-6-2.15l-.7-.65Q0 13.45 0 9.45 0 5.5 2.8 2.8 5.55 0 9.5 0t6.65 2.8l.75.75M1.15 9.5q0 3.45 2.4 5.95Q6 17.9 9.45 17.9q3.3 0 5.8-2.3l-4.05-1.85-3.65.85L10.6 13l-1.3-.9H11l.95-1.25L10.8 10l-6.45-.4 5.5-.95 1.3-1.6-2-.7-1 .2.55 1.3-1.35-1.2-3 .2-1-.55 1 .15L5.8 4.3l-1.9-1Q1.15 5.7 1.15 9.5m14.5 5.6q2.15-2.35 2.15-5.6 0-3.5-2.4-5.95-2.45-2.4-5.95-2.4-2.9 0-5.1 1.75l2.8.8 2.65-.9-2.35 1.35L7 5l.7.3 1.9-.6 3.85 1.5 3.15.5-2.75.1-2.05 2.15.7.35.6 1.3 2.85-1.1-3.35 2.8.2.8 2.85 2"/><path d="M15.65 15.1l-2.85-2-.2-.8 3.35-2.8-2.85 1.1-.6-1.3-.7-.35 2.05-2.15 2.75-.1-3.15-.5L9.6 4.7l-1.9.6L7 5l.45-.85L9.8 2.8l-2.65.9-2.8-.8q2.2-1.75 5.1-1.75 3.5 0 5.95 2.4Q17.8 6 17.8 9.5q0 3.25-2.15 5.6M1.15 9.5q0-3.8 2.75-6.2l1.9 1-1.45 2.15-1-.15 1 .55 3-.2 1.35 1.2-.55-1.3 1-.2 2 .7-1.3 1.6-5.5.95 6.45.4 1.15.85L11 12.1H9.3l1.3.9-3.05 1.6 3.65-.85 4.05 1.85q-2.5 2.3-5.8 2.3-3.45 0-5.9-2.45-2.4-2.5-2.4-5.95" fill="#8cb5e6"/></g></svg>