<svg height="22.3" width="20.5" xmlns="http://www.w3.org/2000/svg"><g fill-rule="evenodd"><path d="M11.5.5q.4 0 .7.3l4 4 .3.7-.3.7-.7.3h-.3l3.35 3.35.3.7-.3.7-.7.3H15.9l4.3 4.25.3.7-.3.7-.7.3h-6v.7h.15q1.45.15 2.75.7 1.45.45 2.15 1.4l-.05-.05.05.05.35.4.05.05.15.6v.15l-.2.5-.15.15-.65.15H4.95l-.65-.25-.3-.55-.05-.15.2-.6q.7-1.1 2.4-1.8 1.3-.55 3-.75v-.7H3.5l-.7-.3-.3-.7.3-.7 4.3-4.25H5.15l-.7-.3-.3-.7.3-.7L7.8 6.5h-.3q-.4 0-.7-.3l-.3-.7.3-.7 4-4 .7-.3" fill="#081a15" fill-opacity=".498"/><path d="M9 0l.7.3 4 4 .3.7-.3.7q-.3.3-.7.3h-.3l3.35 3.35.3.7-.3.7-.7.3H13.4l4.3 4.25.3.7-.3.7-.7.3h-6v.7h.1q1.5.15 2.75.65 1.45.55 2.15 1.4l.05.05.35.4.2.7v.05l-.35.6h.05l-.7.25H2.45l-.65-.25-.35-.6v-.05l.2-.7v.05q.7-1.1 2.4-1.8 1.3-.6 3-.75V17H1l-.7-.3L0 16l.3-.7 4.3-4.25H2.65l-.7-.3-.3-.7.3-.7L5.3 6H5q-.4 0-.7-.3L4 5l.3-.7 4-4L9 0"/><path d="M13 5h-2.7l5.05 5.05H11L17 16h-7v2.6l1 .1 2.5.6q1.2.45 1.8 1.15l.3.35H2.45q.6-.85 2-1.45t3.3-.75h.3V16H1l6-5.95H2.65L7.7 5H5l4-4 4 4" fill="#8cb5e6"/></g></svg>