<svg height="21.55" width="23.8" xmlns="http://www.w3.org/2000/svg"><g fill-rule="evenodd"><path d="M13.85 1.3l.3.7v.5l.6.6.05.1.1.45v1l.4.25.3.7v1.25l.2.15.3.7v.5h4.75v-.5q0-.4.3-.7l.7-.3h.95l.7.3.3.7v12.85l-.3.7-.7.3H3l-.7-.3-.05-.05-.05-.05-.2-.6V7.7l.2-.6.05-.05L2.3 7l.7-.3h1l.7.3q.3.3.3.7v.5h4.7v-.5L10 7l.25-.2V5.6l.3-.7.4-.25v-1l.15-.45.3-.4v-.05l.25-.25V2q0-.4.3-.7.3-.3.7-.3h.5q.4 0 .7.3" fill="#081a15" fill-opacity=".498"/><path d="M12.15 1v.45l.6.65.15.55v1l.4.25.3.7v1.25l.2.15.3.7v.5h4.75v-.5q0-.4.3-.7.3-.3.7-.3h.95l.7.3.3.7v12.85l-.3.7-.7.3H1l-.7-.3-.3-.7V6.7L.3 6l.7-.3h1q.4 0 .7.3.3.3.3.7v.5h4.7v-.5L8 6l.25-.2V4.6l.3-.7.4-.25v-1l.15-.55h.05l.3-.35V1.7l.2-.2V1l.3-.7.7-.3h.5l.7.3.3.7"/><path d="M7.5 18.05V13.6H5.75v4.45H7.5m-3.3-7.7l-.8-.6-.85.6v1.35H4.2v-1.35m-.25 7.7V13.6h-1.7v4.45h1.7m5.4-7.7l-.8-.6-.85.6v1.35h1.65v-1.35m2.8 8.6V16.6l-1.4-.9-1.3.9v2.35h2.7m2.3-8.6l-.8-.6-.85.6v1.35h1.65v-1.35m1.15 7.7V13.6h-1.75v4.45h1.75m4.05-7.7l-.85-.6-.8.6v1.35h1.65v-1.35m-.55 7.7V13.6h-1.75v4.45h1.75m-7.7-15.9l.5.5V4.6h.7v2.1h.5v1.5h6.75V6.7h.95v12.85H1V6.7h1v1.5h6.7V6.7h.55V4.6h.7V2.65l.2-.25.5-.4V1h.5v1l.25.15" fill="#8cb5e6"/></g></svg>