<svg height="21" width="18.6" xmlns="http://www.w3.org/2000/svg"><g fill-rule="evenodd"><path d="M14.85 2.9v.05l.05.05.3.3q1.1 1.5 1.1 3.45v8.05h1.3q.4 0 .7.3l.3.7V20l-.3.7-.7.3H3.5l-.7-.3-.3-.7v-4.2l.3-.7q.3-.3.7-.3h1.3V6.75q0-2.35 1.7-4.05Q8.2 1 10.55 1q2.3 0 4 1.6l.3.3" fill="#081a15" fill-opacity=".498"/><path d="M12.25 1.8l.25.3.05.05.05.05q1.2 1.5 1.2 3.55v8.05h1.3q.4 0 .7.3l.3.7V19l-.3.7q-.3.3-.7.3H1q-.4 0-.7-.3L0 19v-4.2l.3-.7q.3-.3.7-.3h1.3V5.75Q2.3 3.4 4 1.7 5.7 0 8.05 0q2.4 0 4.1 1.7l.1.1"/><path d="M10.85 5.9H5v1.65h5.85V5.9m.95-3.1q1 1.25 1 2.95v9.05h2.3V19H1v-4.2h2.3V5.75q0-1.95 1.4-3.35Q6.1 1 8.05 1q2 0 3.4 1.4l.35.4M9.1 9.9V8.3H6.8v1.6h2.3" fill="#8cb5e6"/></g></svg>