<svg height="21.9" width="17.9" xmlns="http://www.w3.org/2000/svg"><g fill-rule="evenodd"><path d="M2.5 21.9l4.65-5.75v-8.6L5.4 4.7H4.25V1H14.6v17.85l3.3 3.05H2.5" fill="#081a15" fill-opacity=".498"/><path d="M0 20.9l2.05-2.5H2l2.65-3.25v-8.6L2.9 3.7H1.75V0H12.1v17.85l3.3 3.05H0"/><path d="M9.95 1.4H8.6v.85h1.35V1.4m1.3 1.45h-8.7v-2h8.7v2m0 3.8v2.6H5.5v-2.6h5.75m-1.35.8H8.65v.95H9.9v-.95m1.35-1.35h-5.9L3.7 3.4h7.55v2.7M8.2 4.15H6.6v1.2h1.6v-1.2m.1 6.3H6.5v1.3h1.8v-1.3m1.6 3.1H8.65v1H9.9v-1m1.35-.55v2.1H5.5V13h5.75m-9.6 7.05l1.2-1.65h8.5l1.85 1.65H1.65M8.4 16.1H6.6v1.3h1.8v-1.3m2.85-.4v2.15H3.3l2-2.15h5.95m0-5.85v2.55H5.5V9.85h5.75" fill="#8cb5e6"/></g></svg>