<svg height="22.8" width="24.3" xmlns="http://www.w3.org/2000/svg"><g fill-rule="evenodd"><path d="M21.1 4.2l.4.4.1.1q2.7 2.95 2.7 7.2 0 4.5-3.2 7.7t-7.7 3.2q-4.25 0-7.2-2.7l-.1-.1-.4-.4q-3.2-3.2-3.2-7.7t3.2-7.7Q8.9 1 13.4 1t7.7 3.2" fill="#081a15" fill-opacity=".498"/><path d="M10.9 0q4.5 0 7.7 3.2l.4.4.05.05q2.75 3 2.75 7.25 0 4.5-3.2 7.7t-7.7 3.2q-4.25 0-7.25-2.75L3.6 19l-.4-.4Q0 15.4 0 10.9t3.2-7.7Q6.4 0 10.9 0"/><path d="M17.75 8.7v4.4H13.1v4.65H8.7V13.1H4.05V8.7H8.7V4.05h4.4V8.7h4.65M5.5 17.1q2.25 2.05 5.4 2.05 3.4 0 5.85-2.4 2.4-2.45 2.4-5.85 0-3.15-2.05-5.5l-.35-.35Q14.3 2.6 10.9 2.6q-3.4 0-5.8 2.45Q2.65 7.5 2.65 10.9q0 3.4 2.45 5.85l.4.35M18.3 4.3q2.5 2.75 2.5 6.6 0 4.1-2.9 7-2.9 2.9-7 2.9-3.85 0-6.6-2.5l-.4-.4Q1 15 1 10.9t2.9-7Q6.8 1 10.9 1t7 2.9l.4.4" fill="#8cb5e6"/></g></svg>