<svg height="15.55" width="27.7" xmlns="http://www.w3.org/2000/svg"><g fill-rule="evenodd"><path d="M12.35 12.2l-.05.1v.05l-.15.15v.05h.15v-.2l.15-.15v.1l.05.1v.15h.1v-.1l.05-.05-.15-.2h-.15M22.75 0q.85-.05.85.8v1.25h.45Q25.4 2 26.4 3.2l.45.55.3.45.4 1.1q.3 1.25 0 6.95l-.05.3h-.9v2.1q0 .85-.85.85H24.3q-.8 0-.8-.85v-2.1h-6.2l.05.45q-.05 1.05-.75 1.8l-.8.55h-.05l-.05.05-.8.15h-.15q-1.1-.05-1.8-.75H13l-.6-.9-.6.9q-.75.7-1.8.75-1.1-.05-1.8-.75-.75-.75-.75-1.8l.05-.45H2.25v-.3q-.5-5 0-6.95Q3 2 5.65 2.05h.75V.8q-.05-.8.8-.8h3.35q.85-.05.85.8v1.25h2.75V.8q-.05-.8.8-.8h7.8" fill="#081a15" fill-opacity=".498"/><path d="M10.3 12.35l.15-.15v.1l.05.1v.15h.1v-.1l.05-.05-.15-.2h-.15l-.05.1v.05l-.15.15v.05h.15v-.2M20.75 0q.85-.05.85.8v1.25h.45Q23.4 2 24.4 3.2l.45.55.3.45.4 1.1q.3 1.25 0 6.95l-.05.3h-.9v2.1q0 .85-.85.85H22.3q-.8 0-.8-.85v-2.1h-6.2l.05.45q-.05 1.05-.75 1.8l-.8.55h-.05l-.05.05-.8.15h-.15q-1.1-.05-1.8-.75H11l-.6-.9-.6.9q-.75.7-1.8.75-1.1-.05-1.8-.75-.75-.75-.75-1.8l.05-.45H.25v-.3q-.5-5 0-6.95Q1 2 3.65 2.05h.75V.8q-.05-.8.8-.8h3.35q.85-.05.85.8v1.25h2.75V.8q-.05-.8.8-.8h7.8"/><path d="M12.95.3h7.8q.5 0 .5.5v1.55h.8q1.2 0 2.1 1.05l.45.55.2.3v.05l.4 1.05q.3 1.2.05 6.5l-.05.35h-.95v2.45q0 .5-.5.5H22.3q-.5 0-.5-.5V12.2h-6.9l.1.8q0 .9-.65 1.55l-.7.5-.8.15h-.1q-.95 0-1.55-.65-.5-.5-.6-1.15h-.4q-.15.65-.65 1.15-.65.65-1.55.65-.95 0-1.6-.65-.65-.65-.65-1.55l.05-.5.1-.3H.55Q.1 7.3.55 5.35q.7-3 3.1-3H4.7V.8q0-.5.5-.5h3.35q.5 0 .5.5v1.55h3.4V.8l.3-.45.2-.05m-.05 7.5h-1.5q-.5 0-.5-.5V4.4q0-.5.5-.5h1.5q.5 0 .5.5v2.9q0 .5-.5.5m3.65 0h-1.5q-.5 0-.5-.5V4.4q0-.5.5-.5h1.5q.5 0 .5.5v2.9q0 .5-.5.5M8 11.75q-.5 0-.9.35-.35.4-.35.9l.35.85q.4.35.9.35t.85-.35q.35-.35.35-.85t-.35-.9q-.35-.35-.85-.35M8.35 1H5.4v1.35h2.95V1m-3.8 2.9q.5 0 .5.5v2.9q0 .5-.5.5h-.7q-.5 0-.5-.5V4.4q0-.5.5-.5h.7m2.65 0q.5 0 .5.5v2.9q0 .5-.5.5h-.65q-.5 0-.5-.5V4.4q0-.5.5-.5h.65m5.55 7.85q-.5 0-.85.35-.35.4-.35.9t.35.85q.35.35.85.35l.9-.35Q14 13.5 14 13l-.35-.9q-.35-.35-.9-.35m10.8 2.7v-2H22.5v2h1.05M20.55 1H13.2v1.35h7.35V1M3.65 3.05q-1.85 0-2.4 2.45-.45 1.65-.05 6h4.05v-.9q0-.5.5-.5h9.15q.5 0 .5.5v.9h2.85V4.4q0-.5.5-.5h1.5q.5 0 .5.5v7.1h3.75l.15-3.75-.2.05H22.8q-.5 0-.5-.5V4.4q0-.5.5-.5h.85q-.7-.85-1.6-.85H3.65m6.95 9.4l.1-.25h-.1v.25"/><path d="M12.9 7.8q.5 0 .5-.5V4.4q0-.5-.5-.5h-1.5q-.5 0-.5.5v2.9q0 .5.5.5h1.5m3.65 0q.5 0 .5-.5V4.4q0-.5-.5-.5h-1.5q-.5 0-.5.5v2.9q0 .5.5.5h1.5M3.65 3.05h18.4q.9 0 1.6.85h-.85q-.5 0-.5.5v2.9q0 .5.5.5h1.65l.2-.05-.15 3.75h-3.75V4.4q0-.5-.5-.5h-1.5q-.5 0-.5.5v7.1H15.4v-.9q0-.5-.5-.5H5.75q-.5 0-.5.5v.9H1.2q-.4-4.35.05-6 .55-2.45 2.4-2.45M20.55 1v1.35H13.2V1h7.35m3 13.45H22.5v-2h1.05v2m-10.8-2.7q.55 0 .9.35l.35.9q0 .5-.35.85l-.9.35q-.5 0-.85-.35t-.35-.85q0-.5.35-.9.35-.35.85-.35M7.2 3.9h-.65q-.5 0-.5.5v2.9q0 .5.5.5h.65q.5 0 .5-.5V4.4q0-.5-.5-.5m-2.65 0h-.7q-.5 0-.5.5v2.9q0 .5.5.5h.7q.5 0 .5-.5V4.4q0-.5-.5-.5M8.35 1v1.35H5.4V1h2.95M8 11.75q.5 0 .85.35.35.4.35.9t-.35.85q-.35.35-.85.35t-.9-.35L6.75 13q0-.5.35-.9.4-.35.9-.35" fill="#8cb5e6"/></g></svg>