<svg xmlns="http://www.w3.org/2000/svg" width="23.8" height="23.3" viewBox="0 0 23.8 23.3"><g fill-rule="evenodd"><path fill="#081a15" d="M5.45-9.4h6.7q.4 0 .7.3l.3.7v19.8l-.3.7q-.3.3-.7.3h-19.3l-.7-.3-.3-.7V3.2l.1-.45.3-.35 4.3-3.25.7-.2.65.3v.05q.25.25.25.65v1.2l2.65-2 .7-.2h.05l.6.35.25.65v1.2l2.05-1.6V-8.4q0-.4.3-.7.3-.3.7-.3" transform="translate(10.65 10.9)"/><path d="M10.35-10.6l.3.7V9.9l-.3.7-.7.3h-19.3l-.7-.3-.3-.7V1.7l.1-.45.3-.35 4.3-3.25.7-.2.65.3v.05l.25.65v1.2l2.65-2 .7-.2h.05l.6.35.25.65v1.2l2.05-1.6V-9.9q0-.4.3-.7l.7-.3h6.7l.7.3" transform="translate(10.65 10.9)"/><path fill="#8cb5e6" d="M5.6.8H7V-9.9h2.65V9.9h-19.3V1.7l4.3-3.25v3.2l4.25-3.2v3.2l4.05-3.1V-9.9H5.6V.8M-.75 7.45h2.6V6.2h-2.6v1.25m0-2.1h2.6V4.1h-2.6v1.25m-.95 0V4.1h-2.6v1.25h2.6m-3.55 0V4.1h-2.6v1.25h2.6m-2.6 2.1h2.6V6.2h-2.6v1.25m6.15 0V6.2h-2.6v1.25h2.6" transform="translate(10.65 10.9)"/></g></svg>
