<svg height="22.8" width="22.5" xmlns="http://www.w3.org/2000/svg"><g fill-rule="evenodd"><path d="M12.75 1q2.9 0 5.1 1.9l.05.05-.05-.05 1.05 1h-.05l.05.05q1.25 1.45 1.65 3.4l.15.35v10.6h.8l.7.3.3.7v2.5l-.3.7-.7.3H4l-.7-.3-.3-.7v-2.5l.3-.7q.3-.3.7-.3h.8V7.7l.15-.3q.55-2.75 2.7-4.5Q9.85 1 12.75 1" fill="#081a15"/><path d="M15.9 2.95q1.25 1.45 1.65 3.4l.15.35v10.6h.8q.4 0 .7.3l.3.7v2.5l-.3.7-.7.3H1l-.7-.3-.3-.7v-2.5l.3-.7q.3-.3.7-.3h.8V6.7l.15-.3q.55-2.75 2.7-4.5Q6.85 0 9.75 0q2.9 0 5.1 1.9l.05.05-.05-.05 1.05 1h-.05l.05.05"/><path d="M5.3 13.35l-.15-.15-.75-.8v5.9h4.55v-3.4q-2.1-.25-3.65-1.55m9.8 4.95v-5.9q-1.8 2.2-4.55 2.5v3.4h4.55m1.6 0h1.8v2.5H1v-2.5h1.8V7.85h13.9V18.3M15.1 3.55q1.15 1.35 1.5 3.2H2.9q.45-2.5 2.4-4.1Q7.2 1 9.75 1q2.55 0 4.45 1.65l.9.9" fill="#8cb5e6"/></g></svg>