<svg xmlns="http://www.w3.org/2000/svg" width="23.05" height="22.05" viewBox="0 0 23.05 22.05"><g fill-rule="evenodd"><path fill="#081a15" d="M-6.95-6.4l.05-.05.1-.1q1.5-1.75 3.6-2.8Q-1-10.4 1.5-10.4t4.7 1.05q1.95.95 3.45 2.55l.1.15.05.15.1.05.1.1q2.4 3 2.4 6.85 0 4.5-3.2 7.7t-7.7 3.2q-4.25 0-7.25-2.75l-.05-.05-.4-.4Q-9.4 5-9.4.5q0-3.85 2.4-6.85l.05-.05" transform="translate(10.65 10.65)"/><path d="M8.25-6.75l.05.05v.05q2.35 2.9 2.35 6.65 0 4.4-3.1 7.55-3.15 3.1-7.55 3.1-4.15 0-7.1-2.7l-.4-.4Q-10.65 4.4-10.65 0q0-3.75 2.35-6.7h.05l.05-.05.1-.1Q-6.65-8.6-4.55-9.6-2.4-10.65 0-10.65T4.6-9.6q1.9.95 3.35 2.5l.05.05.25.3m-15.2 1.6v-.05L-7-5.4l-.05-.05.05-.15.1-.1h.15l.05-.2.15-.3v-.2l.05-.15.2-.35Q-3.65-9.35 0-9.35h1.05l2.8.5-.15.45h.2l.1-.1v-.2l-.1-.15q-1.85-.8-3.9-.8-2.2 0-4.1.95-1.95.9-3.3 2.5l-.1.1Q-9.65-3.4-9.65 0q0 4 2.85 6.85l.35.35.05.05q2.65 2.4 6.4 2.4l1.8-.15-1.05.05-2.15-.25-1.1-.3h.05l-.75-.15-.05-.05-.95-.4h-.05l-1.8-1.2v-.05L-7.6 5.4v-.05l-.15-.4V4.9l1.3 1.6.35.35.05-.05.15-.05h.05l-.1.25.1.1.05-.05.1-.25.05.1-.05-.1-1.5-1.7-.05-.15V4.3l-.05-.15-.15-.1-.2.05h-.15l-.1-.1q-.95-2-.95-4t.95-3.95l.1-.1.15-.05.1.05.15.1.15-.05.1-.1.3-.5.05-.15-.1-.15-.05-.25.1.1.2.05.15-.1.1-.15.05-.15v-.05l-.15.05h-.1l-.1.05V-5.2l-.15-.05-.05.05-.05.05m1.3 12.05l.05.05-.05.1-.05.1v.05h-.05q1.9 1.5 4.35 1.85l1.4.1L1.7 9l-.95.05-3.1-.5V8.5l-.7-.15h-.05.05-.1.05l-.95-.4-.05-.05.05.05-.1-.05h.05q-.85-.4-1.55-1M-7.3-5.5l.15-.2-.15.2m.05.95l-.1-.15.1-.15v.3m-.35.2l.15-.2.2.1.05.05h-.05l-.35.05m-.45-.15l.15-.05Q-9.15-2.5-9.15 0q0 2.55 1.2 4.6l-.1-.05H-8l-.35-.35q-1-2.1-1-4.2t1-4.15L-8-4.5h-.05m.5 9.1l-.2.05V4.3l.4.2-.15.1h-.05" transform="translate(10.65 10.65)"/><path fill="#8cb5e6" d="M-7.7-3.85q-.9 1.9-.9 3.85 0 1.95.9 3.85v-7.7m13.5-2.5Q3.35-8.6 0-8.6q-3.35 0-5.8 2.25H5.8M7.7 3.8l.15-.25.6-1.95L8.6 0l-.15-1.6-.65-2-.1-.2v7.6M3.6 6.55h-.1v.1l.1-.1.35.3h.55l.55-.3.1.15-.15.2-.6.35H4l-.3.15-.2.3-.15-.1.1-.45-.2-.35.05-.05-.1-.1h-.05l-.6-.8-.25-.25q-.45-.5-.4-.75L2 4.7l-.15-.3-.1-.05-.2-.2H1.5v.1h-.05l-.45-1-.05.7L.9 4l-.1-.05v.2l.15.3-.1.35.1-.05-.05.1-.25 1.8v.65H.6l.05.1.2.3.05.05.5.15.45.05v.2l-.35.15h-.05L1 8.35.65 8.2l-.2.1-.1.05H.2V8.3L.25 8v-.5l.05-.05-.2-.65v-.05Q-.2 5.5.1 5.2l.15-.05v-.4l-.1-.3-.05-.2H.05V4.2L0 3.15l-.1-.65-.1.35-.15.55.05.4-.05.3v.15l-.1.15v.15l-.05.15v.05l-.05.05-.1.4.1.3.05.6-.05.25.05.15v.05l.1.85.15.25v.2l.1.15.25.2.05.15v.05h1.7l2.2-.75.4-.25Q6 6.5 7.1 4.9l-.05-7.8-.7-.05v.05l.5.05-.05.1h-1v.1h-.2v-.15l-.9.05-.1.1-.35.05-.4-.1v-.1H3.8l-.25.15-.1-.05H3.4l-1.7.1-.25.1-.2 1.1-.1.2L1-.2.85-.25.9.2l.1.2v.4h.05V.75L1.1.8l.2.3.35.9.4 1.2-.1.2.1.25.25.25.15-.05.25.75.5 1.15.4.8m1.9-9.8h.05v.05h.05v-.25l.15-.05v.1L6-3.5l.4-.1.45.2v.1l.2.05V-4.9l-.25-.35-.55.2.45-.1V-5l-.85.25.05.05-.15.1-.1-.15-.95.5-.1.1-.3.2-.3.1h-.15V-4l-.05.05-.3.2h-.05l-1.35.5 1.35.1.1-.05.15.05.1.1.05-.05v-.1l.6-.1 1.05.05M5-4.95l.3-.2h.05l.05.1h.05l-.15-.2.05-.1.15.05.2-.2.35-.2H.35l.2.1.15.7h.1v.2l-.1.15-.05.1-.1.3-.1.15.25.4Q1-4 1.5-4h.05l.35.1 1.4-.25.05-.05v-.05h.35l-.05-.1v-.05l.05-.1.7-.25.6-.2m-11.35 2.1h-.25l-.3-.1.2-.05H-7v7.95l1.45 1.65q.7.65 1.6 1.1l.95.4 1.15.3h.9v-.1L-1 8l.1-.1v-.35l-.4-.75-.05-.3-.05-.15-.05-1.15.15-.35V4.2l.05-.35v-.2l-.15-.6-.15.3v.05l-.2.2v.05l-.1.05-.05.1-.45.5-.25.45-.1.25-.55.9-.25.35-.15.4-.1.35-.05.4-.05.05v.05l-.45-.15-.5-.35v-.05h.05l.25-.05.2-.1.15-.3.45-1.7.65-.95.3-.25v-.1l.3-.3.1-.3v-.1l.2-.6.1-.3.05-.3.2-.3.35-.6.2-.8v-.4l.15-.35-.2-.6-.1-.25v-.25l-.2-.25v-.2q-.1-.2-.25-.2l-.15.05h-.5l-.3-.1-.2.05h-.25l-.3-.05-.2.05h-.2l-.35.05h-.05l-.4-.1L-5-2.7l-.15-.05h-.3l-.2-.1q-.05.1-.3.1l-.4-.1m.1-.7h.2l.45.2h.25l.15.05.35-.05h.65l.3-.05.25.1.6-.05h.35L-3-3.4l-.8-.3-.15-.1-.2-.05-.9-.5-.5-.3-.3-.05-.15-.15h-.1l-.1-.05h-.1l-.1-.05-.25-.2h.2-.1q-.15 0-.25-.1l-.2.35v1.55l.35-.05.25-.05h-.15l-.2-.05-.1-.1.45-.05.15.1M-4.8-4.9l.8.15.05.05.45.25.35.2H-3l.2.1.65.2.75.1.4.15.3-.05.2-.3v-.1l-.1-.3h-.05L-.8-4.7v-.25h.1l.2-.65.15-.1H-6l.2.15.1.05.35.35.15.1.4.15M-6.6 7.4L-7 7q-2.9-2.9-2.9-7 0-3.5 2.2-6.25l.1-.1Q-6.2-8-4.25-8.95q2-.95 4.25-.95t4.25.95q1.8.9 3.15 2.35l.2.25.1.15Q9.9-3.5 9.9 0q0 4.1-2.9 7-2.9 2.9-7 2.9-3.85 0-6.6-2.5" transform="translate(10.65 10.65)"/></g></svg>
