<svg xmlns="http://www.w3.org/2000/svg" width="24.35" height="22.5" viewBox="0 0 24.35 22.5"><g fill-rule="evenodd"><path d="M3-3.2l-.45.5L1.3-1.4q-.05-.15.45-1.35l.9-2.4q.4-1.25.1-2.45l-.35-.9q.8.5 1.1 1.65.3 1.2-.1 2.45L3-3.2m-6.75.4l-.95-.95.7.65.25.3M-8.8 3.25l.05.05q1.15.6 2.8-.95Q-4.3.9-3 .75l1.15.05-1.35.95q-.9.4-2 1.35-1.65 1.55-2.8.95l-.8-.8m1.85 5.85l.95.4q-.05-2.9 2.15-5.8l1.35-1.15.95-.65L-2 3.1l-.15.3-.95 1q-2.2 2.95-2.15 5.85l-1.85-.8.15-.35m5.15-7.6l.15-.2.05.2h-.2M-1.9 9l.1.05L.05 8.9Q.65 8.55 2 7.85q.5-.15 1.55 0 .85.15 1.8-.45 1.1-.7.55-1.95l-.5-.75 1.25 1.5q.55 1.25-.55 1.95-.95.6-1.8.45-1.05-.15-1.55 0L.8 9.65l-1.85.15-.85-.8m4.15-7.05q-1-.9-.85-1l2.1.65q2.4.85 4.25.65 1.4-.1 1.95-1Q10.2.4 9.55-.5L8.8-1.9l-.15-2.15-.1-.9q.85.25.85 1.65l.15 2.15.75 1.4q.65.9.15 1.75-.55.9-1.95 1-1.85.2-4.25-.65l-2.1-.65.1.25" transform="translate(10.9 10.5)"/><path fill="#f8c95d" d="M2.4-8.5l.35.9q.3 1.2-.1 2.45l-.9 2.4q-.5 1.2-.45 1.35l1.25-1.3.45-.5Q4.15-4.5 5.05-5q1.6-.9 2.55-.75.65.15.95.8l.1.9.15 2.15.75 1.4q.65.9.15 1.75-.55.9-1.95 1-1.85.2-4.25-.65L1.4.95q-.15.1.85 1l2.1 1.75 1.05 1 .5.75q.55 1.25-.55 1.95-.95.6-1.8.45Q2.5 7.7 2 7.85.65 8.55.05 8.9l-1.85.15-.1-.05q-1.3-.8-1.05-2.8.15-1.45.8-2.8l.15-.3.45-1.2v-.2l-.05-.2-.05-.2-.15.2-2.05 2.15v.05Q-6.05 6.6-6 9.5l-.95-.4-.9-.4.6-1.8q.75-2 1.6-2.95l2.4-2.15.05-.05L-1.85.8-3 .75q-1.3.15-2.95 1.6-1.65 1.55-2.8.95l-.05-.05q-.75-.4-1.05-1.4-.15-.55.1-1.5l.35-1.6.1-1.95q.15-1.25.85-1.65l1.95-.2q1.05.3 1.75 1.2l.05.1.95.95q1 .9 1.95 1.15-1.25-2.15-2.45-3.3Q-5.4-6.05-5.5-7q-.1-.9.65-1.5l1.55-.25 1.6.15 1.5-.65 1.7-.1.9.85" transform="translate(10.9 10.5)"/><path fill="#081a15" d="M5.8-7.45l.45 1.1v.05q.25 1.2 0 2.55l.85-.6-.05.05q2-1.2 3.25-.95l.2.1q.95.2 1.45 1.3l.05.05.05.15.1 1.1.15 1.85v.05l.6 1.1V.5q1 1.4.2 2.75v.05q-.85 1.3-2.75 1.45l-2.65-.1 1 .95.6.95q.95 2.05-.85 3.25H8.4q-1.3.8-2.45.55H4.9l-1.85.95-2.85.15-.1-.05q-1.9-1.1-1.55-3.8l.1-.55Q-2.55 9-2.5 11q0 .3-.15.6l-.55.4h-.15l-.5-.05-.05-.05-1.8-.75-.5-.45q-.3-.4-.05-.85l.6-1.75.95-2.15-1.9-.2-.45-.25q-.9-.6-1.2-1.85-.25-.65 0-1.75v-.25l.35-1.6.1-1.8v-.05q.25-1.85 1.35-2.35l.1-.1 2.6-.2-.25-.9v-.05q-.2-1.4 1.05-2.35v-.05q.8-.7 2.25-.45h.05l1.4.15.95-.45.25-.15 2.3-.1.6.3.9.95.05.1" transform="translate(10.9 10.5)"/><path d="M2.65-3.5H2.6v.05l.05-.05M-5 9.5l-.15.6-.55.4h-.15l-.5-.05-.05-.05-1.8-.75-.5-.45q-.3-.4-.05-.85l.6-1.75.95-2.15-1.9-.2-.45-.25q-.9-.6-1.2-1.85-.25-.7 0-1.75l.05-.25.3-1.5.1-1.9v-.05q.25-1.9 1.4-2.4l.2-.05.05-.05-.2.05 2.6-.2-.25-.9v-.05q-.2-1.4 1.05-2.35v-.05q.8-.7 2.25-.45h.05l1.4.15.95-.45.25-.15 2.3-.1.6.3.9.95.05.1.45 1.1v.05q.25 1.2 0 2.55l.85-.6-.05.05q2-1.2 3.25-.95l.2.1q.95.2 1.45 1.3l.05.05.05.15.1 1.1.15 1.85v.05l.6 1.1V-1q1 1.4.2 2.75v.05q-.85 1.3-2.75 1.45l-2.65-.1 1 .95.6.95q.95 2.05-.85 3.25H5.9q-1.3.8-2.45.55H2.4q-1.25.6-1.85.95l-2.85.15-.1-.05q-1.9-1.1-1.55-3.8l.1-.55Q-5.05 7.5-5 9.5" transform="translate(10.9 10.5)"/><path fill="#8cb5e6" d="M2.4-8.5l.35.9q.3 1.2-.1 2.45l-.9 2.4q-.5 1.2-.45 1.35l1.25-1.3.45-.5Q4.15-4.5 5.05-5q1.6-.9 2.55-.75.65.15.95.8l.1.9.15 2.15.75 1.4q.65.9.15 1.75-.55.9-1.95 1-1.85.2-4.25-.65L1.4.95q-.15.1.85 1l2.1 1.75 1.05 1 .5.75q.55 1.25-.55 1.95-.95.6-1.8.45Q2.5 7.7 2 7.85.65 8.55.05 8.9l-1.85.15-.1-.05q-1.3-.8-1.05-2.8.15-1.45.8-2.8l.15-.3.45-1.2v-.2l-.1-.4-2.2 2.35v.05Q-6.05 6.6-6 9.5l-1.85-.8.6-1.8q.75-2 1.6-2.95l2.4-2.15.05-.05L-1.85.8-3 .75q-1.3.15-2.95 1.6-1.65 1.55-2.8.95l-.05-.05q-.75-.4-1.05-1.4-.15-.55.1-1.5l.35-1.6.1-1.95q.15-1.25.85-1.65l1.95-.2q1.05.3 1.75 1.2l.05.1.95.95q1 .9 1.95 1.15-1.25-2.15-2.45-3.3Q-5.4-6.05-5.5-7q-.1-.9.65-1.5l1.55-.25 1.6.15 1.5-.65 1.7-.1.9.85" transform="translate(10.9 10.5)"/></g></svg>
