<svg xmlns="http://www.w3.org/2000/svg" width="24.95" height="20.8" viewBox="0 0 24.95 20.8"><g fill-rule="evenodd"><path fill="#081a15" fill-opacity=".5" d="M12.1 7.3l-.95.85q-.05.6-.5 1v.05l-.15.1-.1.1-.5.25-.1.05h-.65.05l-.5-.15-.1-.05-.35-.25L8 8.8l-.2-.65-.1-.4L6.4 6.3l-.1-.1-2.05-1.55v.25q.05.75-.4 1.15-.4.35-1.2.35h-3.8q-1.5 0-1.5-1.5v-.15L-4.7 6.3v.05l-.3.1-.5.65-.55.55v.15q0 1-.55 1.45v.05l-.45.25H-7l-.55.15h-.05l-.75-.1-.4-.2-.2-.15-.15-.15-.25-.55V8.2l-.95-.85q-.6-.75-.15-1.45l.15-.4.4-.5.35-.2.1-.05.65-.1h.05l.35.05 1.6-1 1.95-1.5Q-6.2.45-6.2-1.45l.3-2-.65-.5L-8.05-5q-.3.2-.65.2-.55.05-1.1-.55l-.2-.3-.15-.4-.05-.05-.1-.25q-.25-.9.4-1.5l.15-.1.2-.15h.05l.25-.2h.05l.15-.55q0-.45.5-.7h.05l.4-.2.25-.15 1.3.2q.75.2.75 1.5v.2l.45.5.05.05.8.85.05.05.6.5Q-1.95-7.8.75-7.8q2.8 0 4.7 1.7l.2-.1.35-.3.1-.1 1.35-1.5.1-.45.2-.5.4-.55q1.1-.75 1.65-.15l.25.1.35.25.25.35v-.05l.25.5v.05l.1.25.4.25.4.4.15.3v.1l.1.6v.4q-.3.8-.75 1.05l-.85.3-.6-.1-.45.3-.1.05L7.5-3.4l.3 1.95q0 1.9-1.3 3.65l1.9 1.5.15.15.55.35.2.05.9.45.2-.05h.1l.6.1h.05l.35.2q.5.25.8 1.1V6.5l-.1.5-.1.3" transform="translate(12.65 11.05)"/><path d="M8.65-10.1l.25.5v.05l.05.25.5.3h.05l.25.25.2.45.1.6v.05l-.05.4v-.05q-.2.9-.8 1.15l-.75.25H8.4L7.85-6l-.55.3-.05.05-1.75 1.2.3 2q0 1.8-1.2 3.5v.2L6.4 2.7l.85.55.9.4h.3l.65.1h.05l.3.15h.05q.55.3.75 1.15l.05.4v.05l-.1.5v.1l-.1.1v.05l-.95.85q-.05.6-.5 1.05v.05l-.3.2-.5.25h-.7l-.5-.15H6.6l-.35-.2v-.05l-.2-.3L6 7.9l-.25-.75-.05-.4-1.35-1.5-.05-.05-2.05-1.55v.25q0 .75-.4 1.15l-1.2.35h-3.8q-.75 0-1.1-.4-.4-.35-.4-1.1v-.15L-6.7 5.3l-.3.15-.55.65-.1.1-.4.5V6.85q0 .95-.55 1.4v.05l-.5.25-.55.15h-.05l-.6-.1-.5-.25h-.05l-.3-.3-.05-.05-.15-.4-.05-.45-.9-.8q-.6-.75-.2-1.45l.05-.1.15-.35.3-.45q.2-.2.5-.25l.65-.1h.05l.4.05 1.6-1 1.95-1.5Q-8.2-.55-8.2-2.45l.3-2-.55-.45-.15-.05L-10.05-6l-.6.15h-.1q-.5.05-1.05-.5l-.15-.2-.25-.5-.1-.2q-.25-.95.4-1.6l.05-.05.3-.2q.1-.1.25-.15l.05-.05.2-.65.45-.6h.05l.45-.25h.05l.15-.1 1.3.2q.8.25.8 1.5v.15l.45.55.05.05.75.8.05.05.05.05.6.5q1.9-1.75 4.6-1.75 2.75 0 4.7 1.7l.1-.05.5-.4.05-.1L5.45-9.1v-.05l.05-.35.05-.05.2-.55.35-.5q1.1-.8 1.7-.2l.3.2.3.2.25.35v-.05" transform="translate(12.65 11.05)"/><path fill="#8cb5e6" d="M9.2 5.8l-.5.35-.4.25-.25.4q.15.4-.1.65l-.5.25-.5-.15-.25-.75q.1-.65-1.65-2.3L1.9 2.1l-.4.15-.25.35v1.3q0 .5-.6.5h-3.8q-.5 0-.5-.5V2.6l-.4-.5-.35.15-2.9 2.25-1 .9q-.9 1-.75 1.4 0 .5-.25.75l-.55.15-.5-.25-.1-.65-.25-.4-.75-.6-.15-.5.25-.55.65-.1q.6.25 2.5-1.15l2.4-1.9.15-.25-.15-.4Q-7.2-.7-7.2-2.45q0-1.05.4-2.05.25-.1-.15-.5l-1-.75q-1.9-1.55-2.5-1.3-.25.4-.65 0l-.25-.5.15-.6.35-.25.4-.15.35-1.15.5-.25.55.15q.25.1.25.6-.15.4.75 1.4l.85.9 1.05.9h.6q1.75-1.8 4.3-1.8 2.65 0 4.4 1.8h.65l.35-.4.65-.5q1.75-1.65 1.65-2.3l.25-.6.5-.15.5.25.25.5v.25l.1.25.9.55.1.6-.35.5q-.25.3-.65 0-.25-.1-1.35.55L4.55-5q-.4.25-.15.5.4 1 .4 2.05Q4.8-.7 3.4.95l-.1.25.1.4 2.4 1.9 1 .65 1.5.5.65.1.35.55-.1.5M1.15-3.5q-.75 0-1.3.65-.6.5-.6 1.3 0 1.9 1.9 1.9h.1L2 .2q.9-.4.9-1.75 0-1.95-1.75-1.95m-4.95 0q-1.75 0-1.75 1.95 0 1.9 1.75 1.9h.15L-2.9.2q.9-.4.9-1.75Q-2-3.5-3.8-3.5m1.65 5.85H-.4l-1-2-.75 2" transform="translate(12.65 11.05)"/></g></svg>
