<?xml version="1.0" encoding="UTF-8" standalone="no"?>
<svg xmlns:xlink="http://www.w3.org/1999/xlink" height="29.2px" width="31.8px" xmlns="http://www.w3.org/2000/svg">
  <g transform="matrix(1.0, 0.0, 0.0, 1.0, 16.4, 15.0)">
    <use height="29.2" transform="matrix(1.0, 0.0, 0.0, 1.0, -16.4, -15.0)" width="31.8" xlink:href="#shape0"/>
  </g>
  <defs>
    <g id="shape0" transform="matrix(1.0, 0.0, 0.0, 1.0, 16.4, 15.0)">
      <path d="M-1.3 -14.75 L0.3 -14.95 Q2.3 -14.55 4.75 -13.35 8.05 -11.75 10.15 -9.4 13.9 -5.2 14.9 0.0 15.4 2.65 15.15 4.45 L14.95 4.8 14.9 4.85 15.05 5.15 15.1 5.2 15.4 6.6 15.2 7.8 15.2 7.75 Q14.9 8.9 14.2 9.45 L12.65 10.0 12.65 10.85 12.65 10.8 12.4 11.75 12.4 11.7 Q11.95 13.1 10.65 13.75 L10.7 13.7 9.6 14.1 8.75 14.2 8.6 14.2 7.0 13.75 5.55 13.2 5.5 13.2 4.5 12.75 3.45 12.25 2.5 11.8 2.45 11.75 2.2 11.6 2.0 11.9 2.0 11.95 Q1.55 12.55 1.15 12.6 L-0.35 12.7 -0.45 12.7 -0.65 12.7 -2.2 12.6 -3.0 11.95 -3.0 11.9 -3.2 11.6 -3.45 11.75 -3.5 11.8 -4.5 12.3 -5.5 12.75 -6.55 13.2 -8.0 13.75 -9.6 14.2 -9.75 14.2 -10.6 14.1 -11.7 13.7 -11.7 13.75 Q-12.95 13.1 -13.4 11.7 L-13.4 11.75 -13.65 10.8 -13.65 10.85 -13.65 10.0 -15.2 9.45 Q-15.9 8.9 -16.25 7.75 L-16.25 7.8 -16.4 6.6 -16.1 5.2 -16.1 5.15 -15.9 4.85 -16.0 4.8 -16.15 4.45 Q-16.45 2.65 -15.95 0.0 -14.9 -5.2 -11.15 -9.4 -9.05 -11.75 -6.45 -13.15 -4.6 -14.15 -2.7 -14.5 L-1.3 -14.75" fill="#525655" fill-rule="evenodd" stroke="none"/>
      <path d="M-2.4 -12.85 L-1.1 -13.1 0.05 -13.3 Q1.85 -12.95 4.05 -11.85 7.05 -10.4 8.9 -8.35 12.3 -4.55 13.25 0.2 L13.55 3.05 Q12.9 2.6 12.15 2.5 L10.2 1.85 9.0 1.45 9.55 -0.75 Q9.8 -1.8 8.9 -4.35 7.9 -7.1 6.55 -8.4 L5.0 -9.7 Q3.9 -10.5 2.55 -11.0 L1.1 -11.45 -0.55 -11.55 -2.15 -11.35 -3.6 -10.95 Q-6.05 -10.1 -7.6 -8.35 -9.75 -6.0 -9.95 -2.1 -10.05 -0.4 -9.75 0.95 L-11.35 2.55 -13.15 2.5 Q-13.9 2.6 -14.55 3.05 L-14.25 0.2 Q-13.35 -4.55 -9.9 -8.35 -8.05 -10.45 -5.7 -11.65 -4.05 -12.55 -2.4 -12.85 M8.55 -0.95 L7.9 1.65 7.9 1.95 7.2 1.65 7.15 1.65 5.95 1.3 5.7 1.45 5.55 1.65 4.45 4.6 4.4 4.8 4.45 5.0 5.3 5.95 5.35 6.0 6.5 6.9 5.85 6.55 3.4 5.55 3.05 5.6 Q2.8 5.6 2.15 7.95 L2.05 8.3 1.5 8.25 0.55 8.2 -0.5 8.3 -0.55 8.3 -1.55 8.2 -2.5 8.25 -3.05 8.3 -3.15 7.95 Q-3.85 5.6 -4.05 5.6 L-4.4 5.55 Q-5.35 5.75 -6.9 6.55 L-7.5 6.9 -6.35 6.0 -6.3 5.95 -5.45 5.0 -5.4 4.8 -5.45 4.6 -6.55 1.65 -6.7 1.45 Q-6.85 1.3 -7.0 1.3 L-8.2 1.65 -9.7 2.35 -8.85 1.5 -8.75 1.25 -8.75 1.0 Q-9.05 -0.3 -8.95 -2.05 -8.75 -5.55 -6.8 -7.7 -5.45 -9.2 -3.3 -10.0 L-2.0 -10.35 -1.95 -10.35 -0.45 -10.5 0.9 -10.45 2.2 -10.05 4.4 -8.9 5.85 -7.7 Q7.05 -6.45 7.95 -4.0 8.7 -1.85 8.55 -0.95 M-9.3 7.0 L-9.3 7.05 -11.0 8.1 -12.5 8.6 -13.9 8.25 Q-14.35 7.9 -14.55 7.15 L-14.55 7.1 -14.7 6.3 -14.5 5.35 -14.45 5.35 -13.95 4.6 -13.2 4.2 -13.15 4.15 -12.85 4.1 -12.85 4.15 -13.0 4.5 -13.15 4.75 -13.5 5.65 -13.45 5.95 -13.25 6.15 -12.95 6.2 -12.65 6.1 -11.4 4.95 -9.45 3.35 -7.85 2.6 -7.35 2.45 -6.5 4.7 -7.05 5.25 -9.3 7.0 M-4.15 8.25 L-3.55 10.4 -3.8 10.35 -4.7 10.8 -4.75 10.8 -5.7 11.25 -6.6 11.65 -6.65 11.65 -8.0 12.15 -9.4 12.55 -10.0 12.5 -10.75 12.2 Q-11.55 11.8 -11.85 10.85 L-12.05 10.15 -12.1 10.0 -11.25 9.9 -10.6 9.6 -10.4 9.6 -10.1 9.55 -9.8 9.35 -6.4 7.45 Q-5.3 6.85 -4.55 6.65 L-4.15 8.25 M-1.6 9.25 L-0.55 9.3 -0.45 9.3 0.6 9.25 1.55 9.1 1.4 9.8 1.2 10.55 1.05 10.8 0.85 11.0 -0.4 11.1 -0.45 11.1 -0.6 11.1 -0.65 11.1 -1.85 11.05 -1.9 11.0 -2.05 10.8 -2.25 10.55 -2.45 9.8 -2.55 9.1 -1.6 9.25 M9.95 8.1 L8.3 7.05 8.3 7.0 6.0 5.25 5.5 4.7 6.3 2.45 6.8 2.6 8.4 3.35 10.35 4.95 11.65 6.1 11.9 6.2 12.2 6.15 12.45 5.95 12.5 5.65 12.15 4.75 11.95 4.5 11.85 4.15 11.8 4.1 12.15 4.15 12.15 4.2 12.9 4.6 13.45 5.35 13.65 6.3 13.55 7.1 13.55 7.15 12.9 8.25 11.5 8.6 Q10.85 8.55 9.95 8.1 M9.85 2.85 L11.0 3.2 10.55 3.4 10.4 3.6 9.0 2.55 9.85 2.85 M3.15 8.25 L3.5 6.65 5.4 7.45 8.85 9.35 9.1 9.55 9.4 9.6 9.6 9.6 10.25 9.9 11.05 10.0 11.05 10.15 10.85 10.85 Q10.55 11.8 9.7 12.2 L9.0 12.5 8.35 12.55 7.0 12.15 5.6 11.65 4.65 11.25 3.75 10.8 3.7 10.8 2.8 10.35 2.55 10.4 3.15 8.25" fill="#000000" fill-rule="evenodd" stroke="none"/>
      <path d="M-1.25 -14.1 L0.3 -14.3 0.25 -14.3 Q2.15 -13.9 4.5 -12.8 7.7 -11.2 9.65 -9.0 13.25 -5.0 14.25 0.0 14.7 2.55 14.45 4.25 L14.25 4.55 14.2 4.6 14.35 4.9 14.4 4.95 14.7 6.3 14.5 7.4 Q14.2 8.5 13.5 9.05 L12.05 9.55 12.05 10.35 12.05 10.3 11.8 11.2 Q11.4 12.5 10.15 13.1 L10.2 13.1 9.15 13.5 8.35 13.55 8.2 13.55 6.65 13.1 5.25 12.6 4.25 12.15 3.25 11.7 3.3 11.7 2.35 11.25 2.3 11.25 2.05 11.1 1.9 11.35 1.9 11.4 Q1.45 11.95 1.1 12.0 L-0.4 12.1 -0.45 12.1 -0.65 12.1 -2.1 12.0 Q-2.5 11.95 -2.9 11.4 L-2.9 11.35 -3.1 11.1 -3.3 11.25 -3.4 11.25 -4.3 11.7 -5.25 12.15 -6.25 12.6 -6.3 12.6 -7.65 13.1 -9.2 13.55 -9.35 13.55 -10.15 13.5 -11.2 13.1 Q-12.4 12.5 -12.85 11.2 L-12.8 11.2 -13.05 10.35 -13.05 9.55 -14.55 9.05 Q-15.2 8.5 -15.55 7.4 L-15.7 6.3 -15.4 4.95 -15.4 4.9 -15.25 4.6 -15.3 4.55 -15.45 4.25 Q-15.75 2.55 -15.25 0.0 -14.3 -5.0 -10.7 -9.0 -8.7 -11.25 -6.2 -12.55 -4.4 -13.5 -2.6 -13.85 L-2.65 -13.85 -1.25 -14.1 M-1.6 9.25 L-2.55 9.1 -2.45 9.8 -2.25 10.55 -2.05 10.8 -1.9 11.0 -1.85 11.05 -0.65 11.1 -0.6 11.1 -0.45 11.1 -0.4 11.1 0.85 11.0 1.05 10.8 1.2 10.55 1.4 9.8 1.55 9.1 0.6 9.25 -0.45 9.3 -0.55 9.3 -1.6 9.25 M-4.15 8.25 L-4.55 6.65 Q-5.3 6.85 -6.4 7.45 L-9.8 9.35 -10.1 9.55 -10.4 9.6 -10.6 9.6 -11.25 9.9 -12.1 10.0 -12.05 10.15 -11.85 10.85 Q-11.55 11.8 -10.75 12.2 L-10.0 12.5 -9.4 12.55 -8.0 12.15 -6.65 11.65 -6.6 11.65 -5.7 11.25 -4.75 10.8 -4.7 10.8 -3.8 10.35 -3.55 10.4 -4.15 8.25 M-9.3 7.0 L-7.05 5.25 -6.5 4.7 -7.35 2.45 -7.85 2.6 -9.45 3.35 -11.4 4.95 -12.65 6.1 -12.95 6.2 -13.25 6.15 -13.45 5.95 -13.5 5.65 -13.15 4.75 -13.0 4.5 -12.85 4.15 -12.85 4.1 -13.15 4.15 -13.2 4.2 -13.95 4.6 -14.45 5.35 -14.5 5.35 -14.7 6.3 -14.55 7.1 -14.55 7.15 Q-14.35 7.9 -13.9 8.25 L-12.5 8.6 -11.0 8.1 -9.3 7.05 -9.3 7.0 M8.55 -0.95 Q8.7 -1.85 7.95 -4.0 7.05 -6.45 5.85 -7.7 L4.4 -8.9 2.2 -10.05 0.9 -10.45 -0.45 -10.5 -1.95 -10.35 -2.0 -10.35 -3.3 -10.0 Q-5.45 -9.2 -6.8 -7.7 -8.75 -5.55 -8.95 -2.05 -9.05 -0.3 -8.75 1.0 L-8.75 1.25 -8.85 1.5 -9.7 2.35 -8.2 1.65 -7.0 1.3 Q-6.85 1.3 -6.7 1.45 L-6.55 1.65 -5.45 4.6 -5.4 4.8 -5.45 5.0 -6.3 5.95 -6.35 6.0 -7.5 6.9 -6.9 6.55 Q-5.35 5.75 -4.4 5.55 L-4.05 5.6 Q-3.85 5.6 -3.15 7.95 L-3.05 8.3 -2.5 8.25 -1.55 8.2 -0.55 8.3 -0.5 8.3 0.55 8.2 1.5 8.25 2.05 8.3 2.15 7.95 Q2.8 5.6 3.05 5.6 L3.4 5.55 5.85 6.55 6.5 6.9 5.35 6.0 5.3 5.95 4.45 5.0 4.4 4.8 4.45 4.6 5.55 1.65 5.7 1.45 5.95 1.3 7.15 1.65 7.2 1.65 7.9 1.95 7.9 1.65 8.55 -0.95 M-2.4 -12.85 Q-4.05 -12.55 -5.7 -11.65 -8.05 -10.45 -9.9 -8.35 -13.35 -4.55 -14.25 0.2 L-14.55 3.05 Q-13.9 2.6 -13.15 2.5 L-11.35 2.55 -9.75 0.95 Q-10.05 -0.4 -9.95 -2.1 -9.75 -6.0 -7.6 -8.35 -6.05 -10.1 -3.6 -10.95 L-2.15 -11.35 -0.55 -11.55 1.1 -11.45 2.55 -11.0 Q3.9 -10.5 5.0 -9.7 L6.55 -8.4 Q7.9 -7.1 8.9 -4.35 9.8 -1.8 9.55 -0.75 L9.0 1.45 10.2 1.85 12.15 2.5 Q12.9 2.6 13.55 3.05 L13.25 0.2 Q12.3 -4.55 8.9 -8.35 7.05 -10.4 4.05 -11.85 1.85 -12.95 0.05 -13.3 L-1.1 -13.1 -2.4 -12.85 M-11.4 3.6 L-11.35 3.55 -11.4 3.55 -11.4 3.6 M3.15 8.25 L2.55 10.4 2.8 10.35 3.7 10.8 3.75 10.8 4.65 11.25 5.6 11.65 7.0 12.15 8.35 12.55 9.0 12.5 9.7 12.2 Q10.55 11.8 10.85 10.85 L11.05 10.15 11.05 10.0 10.25 9.9 9.6 9.6 9.4 9.6 9.1 9.55 8.85 9.35 5.4 7.45 3.5 6.65 3.15 8.25 M9.85 2.85 L9.0 2.55 10.4 3.6 10.55 3.4 11.0 3.2 9.85 2.85 M9.95 8.1 Q10.85 8.55 11.5 8.6 L12.9 8.25 13.55 7.15 13.55 7.1 13.65 6.3 13.45 5.35 12.9 4.6 12.15 4.2 12.15 4.15 11.8 4.1 11.85 4.15 11.95 4.5 12.15 4.75 12.5 5.65 12.45 5.95 12.2 6.15 11.9 6.2 11.65 6.1 10.35 4.95 8.4 3.35 6.8 2.6 6.3 2.45 5.5 4.7 6.0 5.25 8.3 7.0 8.3 7.05 9.95 8.1" fill="#000000" fill-rule="evenodd" stroke="none"/>
      <path d="M-2.5 -13.35 L-1.15 -13.6 0.15 -13.8 Q2.0 -13.45 4.3 -12.35 7.35 -10.8 9.25 -8.7 12.8 -4.75 13.7 0.1 14.2 2.5 13.95 4.15 L13.5 3.65 Q12.85 3.1 12.05 3.0 L10.05 2.35 8.35 1.75 9.05 -0.85 Q9.25 -1.8 8.4 -4.15 7.45 -6.8 6.2 -8.05 L4.7 -9.3 2.35 -10.55 1.0 -10.95 -0.5 -11.0 -2.05 -10.85 -3.45 -10.5 Q-5.75 -9.65 -7.2 -8.05 -9.25 -5.75 -9.45 -2.1 -9.55 -0.25 -9.2 1.1 L-11.15 3.05 -13.1 3.0 Q-13.85 3.1 -14.5 3.65 L-14.95 4.15 Q-15.2 2.5 -14.75 0.1 -13.8 -4.75 -10.3 -8.7 -8.35 -10.85 -5.95 -12.1 -4.25 -13.0 -2.5 -13.35 M-7.85 -5.55 L-7.35 -6.35 -5.5 -8.35 Q-4.15 -9.5 -2.3 -10.05 L-0.5 -10.2 1.3 -10.05 Q3.1 -9.5 4.45 -8.35 L6.3 -6.35 6.85 -5.55 7.2 -4.4 7.6 -2.25 7.25 1.45 4.05 0.35 Q4.2 0.1 3.6 -0.6 L1.35 -2.25 -0.5 -2.4 -2.4 -2.25 Q-3.55 -1.8 -4.65 -0.6 -5.2 0.1 -5.05 0.35 L-8.25 1.45 -8.6 -2.25 -8.25 -4.4 -7.85 -5.55 M5.95 -4.1 L5.85 -4.25 5.35 -4.4 4.65 -4.5 3.8 -4.25 3.45 -4.15 2.3 -3.8 2.05 -3.25 2.05 -3.05 Q3.2 -2.3 3.45 -2.3 L4.8 -3.15 5.65 -3.75 5.8 -3.85 5.95 -4.1 M-4.5 0.25 L-3.8 -0.5 -2.35 -1.7 -0.5 -1.9 1.35 -1.7 2.75 -0.5 3.45 0.25 1.45 8.5 -0.4 8.55 -0.65 8.55 -2.45 8.5 -4.5 0.25 M-7.0 -4.05 L-6.85 -3.9 -6.6 -3.75 -5.75 -3.1 -4.45 -2.25 -3.0 -3.1 -2.95 -3.15 Q-2.95 -3.65 -3.3 -3.85 L-4.5 -4.15 -4.7 -4.2 -5.7 -4.45 -6.35 -4.35 -6.7 -4.2 -6.9 -4.15 -7.0 -4.05 M-3.65 0.4 L-3.65 1.45 -2.5 0.8 -2.65 -0.15 -3.65 0.4 M-3.4 1.7 L-3.2 2.9 -2.1 2.3 -2.25 1.2 -3.4 1.7 M-5.7 1.95 L-4.65 1.65 -4.45 1.9 -4.05 3.0 -4.05 4.05 -4.2 4.35 -5.05 4.45 -5.5 2.25 -5.7 1.95 M-1.1 3.2 L-2.4 3.65 -3.05 3.95 -1.9 7.95 -0.5 8.0 0.85 7.95 2.0 3.95 1.35 3.65 0.1 3.2 -0.5 3.1 -1.1 3.2 M-6.55 2.35 L-5.8 2.25 -5.35 4.3 -5.7 4.45 -6.55 2.35 M-9.0 7.4 L-10.75 8.55 Q-11.8 9.1 -12.5 9.1 L-14.25 8.65 Q-14.8 8.2 -15.05 7.25 L-15.2 6.3 -14.95 5.15 -14.3 4.25 Q-13.85 3.8 -13.3 3.7 -12.8 3.5 -12.2 3.7 L-11.85 3.85 -12.5 4.5 -12.7 4.95 -13.0 5.7 -11.75 4.55 -9.7 2.9 Q-9.05 2.5 -8.0 2.1 L-7.05 1.8 -5.9 4.75 -6.65 5.6 -9.0 7.4 M-4.3 6.05 L-3.65 8.1 -3.05 10.25 -3.6 10.8 -4.5 11.25 -5.5 11.7 -6.45 12.1 -7.85 12.65 -9.35 13.05 -10.1 12.95 -10.95 12.65 Q-12.0 12.15 -12.35 11.0 L-12.6 10.25 -12.5 9.5 -12.5 9.45 -11.4 9.4 -10.6 8.95 -10.4 9.1 -10.1 8.9 -6.65 7.0 Q-5.2 6.25 -4.3 6.05 M-0.4 9.0 L-0.55 9.0 -0.65 9.0 -1.2 9.05 Q-2.2 9.1 -2.3 9.3 -2.5 9.65 -2.3 10.65 L-2.05 11.0 -1.6 11.25 -0.4 11.35 0.55 11.25 1.05 11.0 1.3 10.65 1.3 9.3 0.2 9.05 -0.4 9.0 M-3.0 8.85 L-1.6 8.75 -0.5 8.8 0.55 8.75 2.0 8.85 1.9 9.9 1.7 10.75 1.45 11.1 0.95 11.5 -0.4 11.6 -0.45 11.6 -0.65 11.6 -2.0 11.5 -2.5 11.1 -2.7 10.75 -2.9 9.9 -3.0 8.85 M3.3 6.05 Q4.15 6.25 5.6 7.0 L9.05 8.9 9.35 9.1 9.6 8.95 10.4 9.4 11.45 9.45 11.5 9.5 11.55 10.25 11.35 11.0 Q10.95 12.15 9.95 12.65 L9.05 12.95 8.3 13.05 6.8 12.65 5.45 12.1 4.45 11.7 3.5 11.25 2.55 10.8 2.05 10.25 2.65 8.1 Q3.2 6.1 3.3 6.05 M8.0 7.4 L5.65 5.6 4.9 4.75 6.0 1.8 7.0 2.1 8.7 2.9 10.7 4.55 11.95 5.7 11.7 4.95 11.45 4.5 10.8 3.85 11.2 3.7 Q11.75 3.5 12.3 3.7 12.85 3.8 13.25 4.25 L13.9 5.15 14.2 6.3 14.05 7.25 13.2 8.65 11.5 9.1 Q10.75 9.1 9.75 8.55 L8.0 7.4 M2.6 0.4 L1.65 -0.15 1.45 0.8 2.6 1.45 2.6 0.4 M4.65 1.95 L4.45 2.25 4.0 4.45 3.15 4.35 3.05 4.05 3.05 3.0 Q3.15 2.35 3.4 1.9 L3.6 1.65 4.65 1.95 M2.35 1.7 L1.25 1.2 1.1 2.3 2.2 2.9 2.35 1.7 M5.5 2.35 L4.7 4.45 4.35 4.3 4.8 2.25 5.5 2.35" fill="#8cb5e6" fill-rule="evenodd" stroke="none"/>
    </g>
  </defs>
</svg>
