<svg height="29.2" width="31.8" xmlns="http://www.w3.org/2000/svg"><g fill-rule="evenodd"><path d="M15.1.25l1.6-.2q2 .4 4.45 1.6 3.3 1.6 5.4 3.95Q30.3 9.8 31.3 15q.5 2.65.25 4.45l-.2.35-.05.05.15.3.05.05.3 1.4-.2 1.2v-.05q-.3 1.15-1 1.7l-1.55.55v.85-.05l-.25.95v-.05q-.45 1.4-1.75 2.05l.05-.05-1.1.4-.85.1H25l-1.6-.45-1.45-.55h-.05l-1-.45-1.05-.5-.95-.45-.05-.05-.25-.15-.2.3v.05q-.45.6-.85.65l-1.5.1h-.3l-1.55-.1-.8-.65v-.05l-.2-.3-.25.15-.05.05-1 .5-1 .45-1.05.45-1.45.55-1.6.45h-.15l-.85-.1-1.1-.4v.05Q3.45 28.1 3 26.7v.05l-.25-.95v.05V25l-1.55-.55q-.7-.55-1.05-1.7v.05L0 21.6l.3-1.4v-.05l.2-.3-.1-.05-.15-.35q-.3-1.8.2-4.45 1.05-5.2 4.8-9.4 2.1-2.35 4.7-3.75Q11.8.85 13.7.5l1.4-.25" fill="#525655"/><path d="M14 2.15l1.3-.25 1.15-.2q1.8.35 4 1.45 3 1.45 4.85 3.5 3.4 3.8 4.35 8.55l.3 2.85q-.65-.45-1.4-.55l-1.95-.65-1.2-.4.55-2.2q.25-1.05-.65-3.6-1-2.75-2.35-4.05L21.4 5.3q-1.1-.8-2.45-1.3l-1.45-.45-1.65-.1-1.6.2-1.45.4q-2.45.85-4 2.6Q6.65 9 6.45 12.9q-.1 1.7.2 3.05l-1.6 1.6-1.8-.05q-.75.1-1.4.55l.3-2.85q.9-4.75 4.35-8.55 1.85-2.1 4.2-3.3 1.65-.9 3.3-1.2m10.95 11.9l-.65 2.6v.3l-.7-.3h-.05l-1.2-.35-.25.15-.15.2-1.1 2.95-.05.2.05.2.85.95.05.05 1.15.9-.65-.35-2.45-1-.35.05q-.25 0-.9 2.35l-.1.35-.55-.05-.95-.05-1.05.1h-.05l-1-.1-.95.05-.55.05-.1-.35q-.7-2.35-.9-2.35l-.35-.05q-.95.2-2.5 1l-.6.35 1.15-.9.05-.05.85-.95.05-.2-.05-.2-1.1-2.95-.15-.2q-.15-.15-.3-.15l-1.2.35-1.5.7.85-.85.1-.25V16q-.3-1.3-.2-3.05.2-3.5 2.15-5.65 1.35-1.5 3.5-2.3l1.3-.35h.05l1.5-.15 1.35.05 1.3.4 2.2 1.15 1.45 1.2q1.2 1.25 2.1 3.7.75 2.15.6 3.05M7.1 22v.05L5.4 23.1l-1.5.5-1.4-.35q-.45-.35-.65-1.1v-.05l-.15-.8.2-.95h.05l.5-.75.75-.4.05-.05.3-.05v.05l-.15.35-.15.25-.35.9.05.3.2.2.3.05.3-.1L5 19.95l1.95-1.6 1.6-.75.5-.15.85 2.25-.55.55L7.1 22m5.15 1.25l.6 2.15-.25-.05-.9.45h-.05l-.95.45-.9.4h-.05l-1.35.5-1.4.4-.6-.05-.75-.3q-.8-.4-1.1-1.35l-.2-.7L4.3 25l.85-.1.65-.3H6l.3-.05.3-.2 3.4-1.9q1.1-.6 1.85-.8l.4 1.6m2.55 1l1.05.05h.1l1.05-.05.95-.15-.15.7-.2.75-.15.25-.2.2-1.25.1h-.25l-1.2-.05-.05-.05-.15-.2-.2-.25-.2-.75-.1-.7.95.15m11.55-1.15l-1.65-1.05V22l-2.3-1.75-.5-.55.8-2.25.5.15 1.6.75 1.95 1.6 1.3 1.15.25.1.3-.05.25-.2.05-.3-.35-.9-.2-.25-.1-.35-.05-.05.35.05v.05l.75.4.55.75.2.95-.1.8v.05l-.65 1.1-1.4.35q-.65-.05-1.55-.5m-.1-5.25l1.15.35-.45.2-.15.2-1.4-1.05.85.3m-6.7 5.4l.35-1.6 1.9.8 3.45 1.9.25.2.3.05h.2l.65.3.8.1v.15l-.2.7q-.3.95-1.15 1.35l-.7.3-.65.05-1.35-.4-1.4-.5-.95-.4-.9-.45h-.05l-.9-.45-.25.05.6-2.15"/><path d="M15.15.9L16.7.7h-.05q1.9.4 4.25 1.5 3.2 1.6 5.15 3.8 3.6 4 4.6 9 .45 2.55.2 4.25l-.2.3-.05.05.15.3.05.05.3 1.35-.2 1.1q-.3 1.1-1 1.65l-1.45.5v.8-.05l-.25.9q-.4 1.3-1.65 1.9h.05l-1.05.4-.8.05h-.15l-1.55-.45-1.4-.5-1-.45-1-.45h.05l-.95-.45h-.05l-.25-.15-.15.25v.05q-.45.55-.8.6l-1.5.1h-.25L14.3 27q-.4-.05-.8-.6v-.05l-.2-.25-.2.15H13l-.9.45-.95.45-1 .45h-.05l-1.35.5-1.55.45h-.15l-.8-.05-1.05-.4q-1.2-.6-1.65-1.9h.05l-.25-.85v-.8l-1.5-.5q-.65-.55-1-1.65L.7 21.3l.3-1.35v-.05l.15-.3-.05-.05-.15-.3q-.3-1.7.2-4.25.95-5 4.55-9 2-2.25 4.5-3.55 1.8-.95 3.6-1.3h-.05l1.4-.25m-.35 23.35l-.95-.15.1.7.2.75.2.25.15.2.05.05 1.2.05H16l1.25-.1.2-.2.15-.25.2-.75.15-.7-.95.15-1.05.05h-.1l-1.05-.05m-2.55-1l-.4-1.6q-.75.2-1.85.8l-3.4 1.9-.3.2-.3.05h-.2l-.65.3-.85.1.05.15.2.7q.3.95 1.1 1.35l.75.3.6.05 1.4-.4 1.35-.5h.05l.9-.4.95-.45h.05l.9-.45.25.05-.6-2.15M7.1 22l2.25-1.75.55-.55-.85-2.25-.5.15-1.6.75L5 19.95 3.75 21.1l-.3.1-.3-.05-.2-.2-.05-.3.35-.9.15-.25.15-.35v-.05l-.3.05-.05.05-.75.4-.5.75H1.9l-.2.95.15.8v.05q.2.75.65 1.1l1.4.35 1.5-.5 1.7-1.05V22m17.85-7.95q.15-.9-.6-3.05-.9-2.45-2.1-3.7L20.8 6.1l-2.2-1.15-1.3-.4-1.35-.05-1.5.15h-.05L13.1 5q-2.15.8-3.5 2.3-1.95 2.15-2.15 5.65-.1 1.75.2 3.05v.25l-.1.25-.85.85 1.5-.7 1.2-.35q.15 0 .3.15l.15.2 1.1 2.95.05.2-.05.2-.85.95-.05.05-1.15.9.6-.35q1.55-.8 2.5-1l.35.05q.2 0 .9 2.35l.1.35.55-.05.95-.05 1 .1h.05l1.05-.1.95.05.55.05.1-.35q.65-2.35.9-2.35l.35-.05 2.45 1 .65.35-1.15-.9-.05-.05-.85-.95-.05-.2.05-.2 1.1-2.95.15-.2.25-.15 1.2.35h.05l.7.3v-.3l.65-2.6M14 2.15q-1.65.3-3.3 1.2-2.35 1.2-4.2 3.3-3.45 3.8-4.35 8.55l-.3 2.85q.65-.45 1.4-.55l1.8.05 1.6-1.6q-.3-1.35-.2-3.05.2-3.9 2.35-6.25 1.55-1.75 4-2.6l1.45-.4 1.6-.2 1.65.1 1.45.45q1.35.5 2.45 1.3l1.55 1.3q1.35 1.3 2.35 4.05.9 2.55.65 3.6l-.55 2.2 1.2.4 1.95.65q.75.1 1.4.55l-.3-2.85q-.95-4.75-4.35-8.55-1.85-2.05-4.85-3.5-2.2-1.1-4-1.45l-1.15.2-1.3.25M5 18.6l.05-.05H5v.05m14.55 4.65l-.6 2.15.25-.05.9.45h.05l.9.45.95.4 1.4.5 1.35.4.65-.05.7-.3q.85-.4 1.15-1.35l.2-.7V25l-.8-.1-.65-.3h-.2l-.3-.05-.25-.2-3.45-1.9-1.9-.8-.35 1.6m6.7-5.4l-.85-.3 1.4 1.05.15-.2.45-.2-1.15-.35m.1 5.25q.9.45 1.55.5l1.4-.35.65-1.1v-.05l.1-.8-.2-.95-.55-.75-.75-.4v-.05l-.35-.05.05.05.1.35.2.25.35.9-.05.3-.25.2-.3.05-.25-.1-1.3-1.15-1.95-1.6-1.6-.75-.5-.15-.8 2.25.5.55L24.7 22v.05l1.65 1.05"/><path d="M13.9 1.65l1.35-.25 1.3-.2q1.85.35 4.15 1.45 3.05 1.55 4.95 3.65 3.55 3.95 4.45 8.8.5 2.4.25 4.05l-.45-.5q-.65-.55-1.45-.65l-2-.65-1.7-.6.7-2.6q.2-.95-.65-3.3-.95-2.65-2.2-3.9L21.1 5.7l-2.35-1.25-1.35-.4L15.9 4l-1.55.15-1.4.35q-2.3.85-3.75 2.45-2.05 2.3-2.25 5.95-.1 1.85.25 3.2l-1.95 1.95L3.3 18q-.75.1-1.4.65l-.45.5q-.25-1.65.2-4.05.95-4.85 4.45-8.8 1.95-2.15 4.35-3.4 1.7-.9 3.45-1.25m-5.35 7.8l.5-.8 1.85-2q1.35-1.15 3.2-1.7l1.8-.15 1.8.15q1.8.55 3.15 1.7l1.85 2 .55.8.35 1.15.4 2.15-.35 3.7-3.2-1.1q.15-.25-.45-.95l-2.25-1.65-1.85-.15-1.9.15q-1.15.45-2.25 1.65-.55.7-.4.95l-3.2 1.1-.35-3.7.35-2.15.4-1.15m13.8 1.45l-.1-.15-.5-.15-.7-.1-.85.25-.35.1-1.15.35-.25.55v.2q1.15.75 1.4.75l1.35-.85.85-.6.15-.1.15-.25M11.9 15.25l.7-.75 1.45-1.2 1.85-.2 1.85.2 1.4 1.2.7.75-2 8.25-1.85.05h-.25l-1.8-.05-2.05-8.25m-2.5-4.3l.15.15.25.15.85.65 1.3.85 1.45-.85.05-.05q0-.5-.35-.7l-1.2-.3-.2-.05-1-.25-.65.1-.35.15-.2.05-.1.1m3.35 4.45v1.05l1.15-.65-.15-.95-1 .55m.25 1.3l.2 1.2 1.1-.6-.15-1.1-1.15.5m-2.3.25l1.05-.3.2.25.4 1.1v1.05l-.15.3-.85.1-.45-2.2-.2-.3m4.6 1.25l-1.3.45-.65.3 1.15 4 1.4.05 1.35-.05 1.15-4-.65-.3-1.25-.45-.6-.1-.6.1m-5.45-.85l.75-.1.45 2.05-.35.15-.85-2.1M7.4 22.4l-1.75 1.15q-1.05.55-1.75.55l-1.75-.45q-.55-.45-.8-1.4l-.15-.95.25-1.15.65-.9q.45-.45 1-.55.5-.2 1.1 0l.35.15-.65.65-.2.45-.3.75 1.25-1.15L6.7 17.9q.65-.4 1.7-.8l.95-.3 1.15 2.95-.75.85-2.35 1.8m4.7-1.35l.65 2.05.6 2.15-.55.55-.9.45-1 .45-.95.4-1.4.55-1.5.4-.75-.1-.85-.3q-1.05-.5-1.4-1.65l-.25-.75.1-.75v-.05L5 24.4l.8-.45.2.15.3-.2L9.75 22q1.45-.75 2.35-.95M16 24h-.25l-.55.05q-1 .05-1.1.25-.2.35 0 1.35l.25.35.45.25 1.2.1.95-.1.5-.25.25-.35V24.3l-1.1-.25L16 24m-2.6-.15l1.4-.1 1.1.05 1.05-.05 1.45.1-.1 1.05-.2.85-.25.35-.5.4-1.35.1h-.25l-1.35-.1-.5-.4-.2-.35-.2-.85-.1-1.05m6.3-2.8q.85.2 2.3.95l3.45 1.9.3.2.25-.15.8.45 1.05.05.05.05.05.75-.2.75q-.4 1.15-1.4 1.65l-.9.3-.75.1-1.5-.4-1.35-.55-1-.4-.95-.45-.95-.45-.5-.55.6-2.15q.55-2 .65-2.05m4.7 1.35l-2.35-1.8-.75-.85 1.1-2.95 1 .3 1.7.8 2 1.65 1.25 1.15-.25-.75-.25-.45-.65-.65.4-.15q.55-.2 1.1 0 .55.1.95.55l.65.9.3 1.15-.15.95-.85 1.4-1.7.45q-.75 0-1.75-.55L24.4 22.4m-5.4-7l-.95-.55-.2.95 1.15.65V15.4m2.05 1.55l-.2.3-.45 2.2-.85-.1-.1-.3V18q.1-.65.35-1.1l.2-.25 1.05.3m-2.3-.25l-1.1-.5-.15 1.1 1.1.6.15-1.2m3.15.65l-.8 2.1-.35-.15.45-2.05.7.1" fill="#8cb5e6"/></g></svg>