<svg height="23.9" width="24.95" xmlns="http://www.w3.org/2000/svg"><path d="M16.65 10.2v-.05Q15.5 9 13.8 9q-1.6 0-2.75 1.15v.05q-1.15 1-1.15 2.6 0 1.75 1.15 2.85 1.15 1.15 2.75 1.15 1.7 0 2.85-1.15 1.15-1.1 1.15-2.85 0-1.6-1.15-2.6m-2.8-8.5q4.7 0 7.85 3.3 3.25 3.25 3.25 7.75 0 4.65-3.25 7.95-3.15 3.2-7.85 3.2-4.2 0-7.2-2.65l-.15-.1-.45-.45Q2.7 17.4 2.7 12.75l.1-1.1v-.1Q3.4 7.4 6.55 4.6H6.5q3.05-2.9 7.35-2.9" fill="#081a15" fill-opacity=".2" fill-rule="evenodd"/><path d="M15.8 10.9q0 1.75-1.25 3t-3 1.25q-1.75 0-3-1.25t-1.25-3q0-1.75 1.25-3t3-1.25q1.75 0 3 1.25t1.25 3" fill-rule="evenodd"/><path d="M10.85 1.3q-3.7 0-6.3 2.45-2.7 2.4-3.2 5.95l2.55-.25 2.45.25v1l-2.45-.25-2.55.25v-.9l-.05.95q0 4 2.85 6.8 2.7 2.75 6.7 2.75t6.7-2.75q2.8-2.8 2.8-6.8 0-3.85-2.8-6.65-2.7-2.8-6.7-2.8m.7 5.2h-.95l.2-2.45-.25-2.45h1l.2 2.45-.2 2.45m6.2 3.8l2.55-.2v1l-2.55.2-2.4-.2v-1l2.4.2M13.7 8.05q1.2 1.1 1.2 2.75 0 1.75-1.2 2.9-1.2 1.2-2.9 1.2-1.65 0-2.85-1.2-1.2-1.15-1.2-2.9 0-1.65 1.2-2.75 1.2-1.2 2.85-1.2 1.7 0 2.9 1.2m-3.75 9.7l.2-2.4h1l-.2 2.4.2 2.5h-1l-.2-2.5" fill="none" stroke="#000" stroke-linecap="square" stroke-linejoin="round" stroke-width="2"/><path d="M9.95 17.75l.2 2.5h1l-.2-2.5.2-2.4h-1l-.2 2.4m1.6-11.25l.2-2.45-.2-2.45h-1l.25 2.45-.2 2.45h.95m2.15 1.55q-1.2-1.2-2.9-1.2-1.65 0-2.85 1.2-1.2 1.1-1.2 2.75 0 1.75 1.2 2.9 1.2 1.2 2.85 1.2 1.7 0 2.9-1.2 1.2-1.15 1.2-2.9 0-1.65-1.2-2.75m4.05 2.25l-2.4-.2v1l2.4.2 2.55-.2v-1l-2.55.2m-6.9-9q4 0 6.7 2.8 2.8 2.8 2.8 6.65 0 4-2.8 6.8-2.7 2.75-6.7 2.75t-6.7-2.75q-2.85-2.8-2.85-6.8l.05-.95v.9l2.55-.25 2.45.25v-1L3.9 9.45l-2.55.25q.5-3.55 3.2-5.95 2.6-2.45 6.3-2.45" fill="#8cb5e6" fill-rule="evenodd"/></svg>