<svg height="19.9" width="21.35" xmlns="http://www.w3.org/2000/svg"><g fill-rule="evenodd"><path d="M6.1 19.9v-2.85h1.75l.6-8.9H8v-2.9h1.2V3.6H7.75v1.9l-6.25.8V2.8l5.6.7L11.5 0l4.35 3.5 5.5-.7v3.5l-6.2-.8V3.6H13.9v1.65h1.2v2.9h-.65l.7 8.9h1.8v2.85H6.1" fill="#081a15" fill-opacity=".498"/><path d="M4.6 19.9v-2.85h1.75l.6-8.9H6.5v-2.9h1.2V3.6H6.25v1.9L0 6.3V2.8l5.6.7L10 0l4.35 3.5 5.5-.7v3.5l-6.2-.8V3.6H12.4v1.65h1.2v2.9h-.65l.7 8.9h1.8v2.85H4.6"/><path d="M11.45 3.5v2.05H8.6V3.5h2.85M7.4 7.2V6.15h5.25V7.2H7.4m11.5-2l-4.35-.6v-.2l4.35-.55V5.2M8.15 2.65L10 1.15l1.8 1.5H8.15M.9 5.2V3.85l4.4.55v.2l-4.4.6m4.6 13.75V18h8.95v.95H5.5M8.9 14v3.35H7.25l.7-9.5H12l.75 9.5h-1.6V14q0-.5-.35-.85l-.8-.3q-.5 0-.75.3-.35.35-.35.85" fill="#8cb5e6"/></g></svg>