<svg height="18.15" width="22.85" xmlns="http://www.w3.org/2000/svg"><g fill-rule="evenodd"><path d="M20.6 1.5v6.15h1.25l.7.3.3.7V10l-.3.7-.55.3v6.15l-.3.7-.7.3H3.8l-.7-.3-.3-.7V11l-.5-.3L2 10V8.65l.3-.7.7-.3h14.45V1.5l.15-.35.35-.15h2.15l.35.15.15.35" fill="#081a15" fill-opacity=".498"/><path d="M15.95 0h2.15l.35.15.15.35v6.15h1.25l.7.3.3.7V9l-.3.7-.55.3v6.15l-.3.7-.7.3H1.8l-.7-.3-.3-.7V10l-.5-.3L0 9V7.65l.3-.7.7-.3h14.45V.5l.15-.35q.15-.15.35-.15"/><path d="M11.35 12.6V9.8h-8.5v2.8h8.5m6.55 0V9.8h-4.25v2.8h4.25m-.3-10.15v5.2h2.25V9H19v7.15h-6.55v-1.7h-4.3v1.7H1.8V9H1V7.65h15.5v-3.1h.8V3.4h-.8v-.55h.8V1.7h-.8V.95h1.1v1.5" fill="#8cb5e6"/></g></svg>