<svg height="22" width="23" xmlns="http://www.w3.org/2000/svg"><g fill-rule="evenodd"><path d="M21.8 7.5l.35.15.15.35v3.9l.65 1.05.05.25v3.15l-.15.35-.35.15h-.2v4.65l-.15.35-.35.15H3.15l-.35-.15-.15-.35v-4.65H2.5l-.35-.15-.15-.35V13.2l.05-.25.6-1V8l.15-.35.35-.15h1.9l.2.05 1.85-3.1.15-.15.25-.1h2.9l1.7-2.95.25-.2h.35l.25.2 1.7 2.95h2.85l.25.1.2.15 1.8 3.1.15-.05h1.9" fill="#081a15"/><path d="M17.4 6.5h1.9v4l.7 1.2v3.15h-.7V20H.65v-5.15H0V11.7l.65-1.1V6.5h1.9v.9L5 3.2h3.15L10 0l1.85 3.2H15l2.4 4.1v-.8"/><path d="M8.95 12H11V8.55l-.3-.7-.7-.3-.75.3q-.3.3-.3.7V12m3.95 0V8.45h-1.05V12h1.05m1.7-8.1l4.7 8v2.25h-4.65v-3.5h1.5l-3.9-6.75h2.35m3.1 9.5v-.6l-.3-.75q-.3-.3-.75-.3-.4 0-.7.3-.3.3-.3.75v.6h2.05m.9 1.45v4.45h-3.95v-4.45h3.95M8.1 12V8.45H7.05V12H8.1m9.6 6.05V15.6h-2.05v2.45h2.05M8.1 15.1v4.2H6V9.95H5l5-8.55 4.95 8.55h-1v9.35h-2.1v-4.2q0-.7-.5-1.2-.45-.5-1.15-.5h-.4q-.7 0-1.2.5t-.5 1.2m-7.4-.95V11.9l4.7-8h2.35L3.8 10.65h1.5v3.5H.7m3.6 3.9V15.6h-2v2.45h2m0-4.65v-.6q0-.45-.3-.75t-.7-.3q-.4 0-.7.3l-.3.75v.6h2m-2.95 5.9v-4.45H5.3v4.45H1.35" fill="#8cb5e6"/></g></svg>