<svg xmlns="http://www.w3.org/2000/svg" width="22" height="15.55" viewBox="0 0 22 15.55"><g fill-rule="evenodd"><path fill="#081a15" fill-opacity=".5" d="M4.6-5.35l.35-.2H4.9l.3-.1h3.15l.45.15.3.45.1.35v.4l-.2.35L7.9-3l3.85 9.55v.05l-.05.5-.35.4-.05.05L7.75 8.9H7.7l-.55-.05-.35-.4L4.6 3 2.15 6.65v.05l-.3.2-.1.05H1.3l-.1-.05-.25-.2-.05-.05-2.5-3.7-2.15 5.5-.05.05-.4.35-.5.05h-.05l-3.5-1.35h.05l-.35-.25v-.05L-8.7 7l-.05-.1.1-.35L-4.9-3l-1.05-.95L-6-4l-.15-.4.05-.35h-.05l.1-.35.25-.4.45-.15h3.1l.35.1.25.2 3.15 4.3 3.1-4.3" transform="translate(10.25 6.65)"/><path d="M6.85-6.65l.45.15.3.45v-.05l.1.35v.4L7.5-5 6.4-4l3.8 9.55v.55l-.4.4-3.55 1.35H5.65l-.4-.4-2.15-5.5-2.45 3.7V5.6l-.4.3H-.2l-.4-.3v.05l-2.5-3.7-2.2 5.5-.4.4h-.55l-3.5-1.35-.3-.2-.2-.35.05-.4L-6.4-4l-1.05-1-.2-.35v-.4l.1-.35.25-.4.45-.15h3.1l.35.1.25.2L0-2.05l3.1-4.3.25-.2h.05l.3-.1h3.15" transform="translate(10.25 6.65)"/><path fill="#8cb5e6" d="M6.85-5.9l.1.35-1.45 1.3 4 10.05-3.55 1.35-2.7-6.8L0 5.2-3.3.35-6 7.15-9.5 5.8l4-10v-.05l-1.45-1.3.1-.35h3.1L0-.8l3.7-5.1h3.15" transform="translate(10.25 6.65)"/></g></svg>
