<svg xmlns="http://www.w3.org/2000/svg" width="23" height="16.25" viewBox="0 0 23 16.25"><g fill-rule="evenodd"><path fill="#081a15" fill-opacity=".5" d="M9.05-4.45L10.8-2.9q1.5 1.7 1.5 3.95 0 1.55-.75 3h-.05l-.55.8v.05l-1.7 1.5H9.2l-.1.15h-.05l-1.6.9-.1.1-1.6.55-2.3.45H3.4l-1.85.1q-4.4 0-7.5-2.1l-.85-.65q-2.4-2.15-2.4-4.85-.05-3.2 3.2-5.5l.15-.05q3.05-2.1 7.4-2.1 4.35 0 7.5 2.15" transform="translate(10.7 7.6)"/><path d="M7.55-5.45l1.75 1.5q1.5 1.75 1.5 4 0 1.55-.8 3l-.55.8-1.7 1.55H7.7l-.2.15h.05L5.9 6.5h-.05l-1.6.6H4.2l-2.3.45-1.85.1q-4.4 0-7.5-2.1l-.9-.65Q-10.7 2.8-10.7.05q-.05-3.2 3.2-5.45l.05-.05Q-4.35-7.6.05-7.6q4.35 0 7.5 2.15m1.15 8.6l.45-.6q.65-1.2.65-2.5 0-1.25-.55-2.3l.35.95.15 1.35L9.6 1.4q-.25.9-.9 1.75M2.05-5.9v-.05l-2-.15-1.75.15v.05l1.85-.15 1.9.15M-7.3-3.65l-.35.35.35-.35M-9.55-1.1l.2-.6v.05l-.2.55m5.9-4.45v-.05l-.35.1.05.05v-.05.05l.3-.1m-.45 11.1v.05l.45.15v-.1l-.45-.1" transform="translate(10.7 7.6)"/><path fill="#8cb5e6" d="M-4.75 1.45l-.9 1.65-.7-1.6v2.8l.75.45.85.4v-3.7M-2.9 5.8l.75.15 1.4.1v-10.2h-1.7V-5.8l-.45.05V5.8m-5.75-7.25l-.3 1.5q0 1.45.95 2.65v-5.35l-.65 1.2m3-.15l1-3.55-2 1.15 1 2.4m11.2 6.45l.95-.6V1.2H4.8v3.95l.75-.3m3.15-8.3q1.35 1.55 1.35 3.5 0 1.35-.7 2.6l-.5.7-1.6 1.45-.15.1-1.55.9L4 6.35l-2.2.45-1.75.1q-4.15 0-7.1-2l-.8-.6q-2.1-1.85-2.1-4.25 0-2.85 2.9-4.9 2.95-2 7.1-2 4.1 0 7.05 2l1.6 1.4m.15 4.65L9 .05 8.85-1.1 8.1-2.65V2.7l.75-1.5M1.8 6l1.45-.3V-5.65l-.5-.1v1.6h-1.7v10.2L1.8 6M6.5-.3v-2.35L4.8-3.8v3.5h1.7" transform="translate(10.7 7.6)"/></g></svg>
