<svg height="21.6" width="23.1" xmlns="http://www.w3.org/2000/svg"><g fill-rule="evenodd"><path d="M10.55.4L12.4.25l1.95.15q3.2.55 5.6 2.95Q23.1 6.5 23.1 10.9q0 4.45-3.15 7.55-3.1 3.15-7.55 3.15-4.4 0-7.55-3.15-3.1-3.1-3.1-7.55 0-4.4 3.1-7.55Q7.25.95 10.55.4" fill="#081a15" fill-opacity=".498"/><path d="M10.4 0l1.9.15q3.15.55 5.5 2.9 3.05 3.05 3.05 7.35 0 4.35-3.05 7.4-3.05 3.05-7.4 3.05-4.3 0-7.35-3.05T0 10.4q0-4.3 3.05-7.35Q5.4.7 8.55.15L10.4 0"/><path d="M6.45 11.7l-3.3-2.35-.1 1q0 1.6.65 3 .55 1.25 1.5 2.15l1.25-3.8M7.9 7l1.3-3.9q-1.7.3-3.15 1.3-1.4 1.05-2.2 2.6H7.9m2.5 7.65l-3.2 2.3.3.15q1.4.6 2.9.6 1.7 0 3.2-.75l-3.2-2.3m6.7-1.3q.65-1.4.65-3l-.05-.7-.05-.3-3.25 2.35 1.25 3.8 1.45-2.15M15.95 5.5l-1.2-1.1h.05q-1.45-1-3-1.25h-.05l-.1-.05L12.9 7h4.05l-1-1.5m.4-3.25l1.6 1.4v.05q1.25 1.4 1.9 3.25v.3l-.05.05.2.15.1.15.05.15.1.4v.1l.05.1v.15l.05.3v.05l.1 1.5q0 2.35-1.05 4.5-.9 1.75-2.35 3.15l-.05.05-.25.15-.15.15-.25.05h-.05l-.05.05-.1.05-.1.15-.2.2h-.05q-2.5 1.55-5.4 1.55-2.4 0-4.5-1.05l-.4-.2-.1-.05-.3-.2-.2-.15-.25-.25-.1-.05-.05-.05-.3-.1-.45-.35q-1.5-1.35-2.35-3.1Q.35 12.7.35 10.35q0-1.4.4-2.7l.15-.3.1-.05v-.35q1-2.85 3.45-4.7Q6.5.75 9 .4l1.05-.1.25.05.05.05.05.05.05-.05.1-.05.25-.05 1 .1q2.5.35 4.55 1.85"/><path d="M11.3 2.55l-.55-1.7V.8q2.95.15 5.3 1.85L17.55 4q1.2 1.35 1.8 3.1h-1.8L16.3 5.15 15.05 4q-1.5-1.05-3.2-1.35l-.4-.05-.15-.05m6.8 6.3l1.5-1.1.05.1.1.4.05.25.05.4.1 1.45q0 2.25-1 4.25-.85 1.7-2.25 3l-.3.25-.1.05-.6-1.8.1-.05q1.1-1.05 1.75-2.5.7-1.5.7-3.2l-.05-.75-.1-.75M10.4.95l2.15 6.55h6.8l-5.55 4 2.15 6.55L10.4 14l-5.55 4.05L7 11.5l-5.55-4h6.8L10.4.95m-3.1 16.6l3.1.65q2 0 3.8-1l1.5 1.1-.15.1q-2.35 1.5-5.15 1.5-2.3 0-4.3-1l-.35-.2-.1-.05-.3-.2-.25-.15 1.5-1.1.7.35M3.25 7.1h-1.8q.95-2.7 3.3-4.45Q7.1.95 10.05.8v.05l-.55 1.7Q7.45 2.8 5.75 4 4.1 5.25 3.25 7.1m.8 10.45q-1.4-1.25-2.2-2.95-1-2-1-4.25 0-1.35.35-2.6l1.5 1.1v.2l-.15 1.3q0 1.7.7 3.2.65 1.5 1.85 2.55l-.6 1.8-.45-.35" fill="#8cb5e6"/></g></svg>