<svg xmlns="http://www.w3.org/2000/svg" width="21.65" height="20.9" viewBox="0 0 21.65 20.9"><g fill-rule="evenodd"><path fill="#081a15" fill-opacity=".5" d="M6.2-6.3l-.05-.1-.95-1.1h-.05l-.7-.85-.05-.2.05-.2.15-.15h.2q3.15.9 5.05 3.35 1.95 2.6 2 5.9 0 4.1-2.85 7.35-3 3.25-7 3.25T-4.95 7.7Q-7.85 4.45-7.8.35q-.05-3.1 1.85-5.7v-.05q1.8-2.45 4.75-3.5h.2l.15.1.1.2-.05.2-1.3 2.15-.4.95-.05.1-.05.1-.1.3v.25l-.05.5V-4q0 1.9 1.45 3.35Q-.4.2.8.5l.9-2.85.1-.15.2-.05.2.05.1.15L3.25.5Q4.45.2 5.4-.65 6.8-2.1 6.8-4l-.05-.65-.05-.1v-.1L6.2-6.3" transform="translate(9.8 9.95)"/><path d="M4.2-7.3l-.05-.1-.95-1.1h-.05l-.7-.85-.05-.2.05-.2.15-.15h.2q3.15.9 5.05 3.35 1.95 2.6 2 5.9 0 4.1-2.85 7.35-3 3.25-7 3.25T-6.95 6.7Q-9.85 3.45-9.8-.65q-.05-3.1 1.85-5.7v-.05q1.8-2.45 4.75-3.5h.2l.15.1.1.2-.05.2-1.3 2.15-.4.95-.05.1-.05.1-.1.3v.25l-.05.5V-5q0 1.9 1.45 3.35.9.85 2.1 1.15l.9-2.85.1-.15.2-.05.2.05.1.15.95 2.85q1.2-.3 2.15-1.15Q4.8-3.1 4.8-5l-.05-.65-.05-.1v-.1L4.2-7.3" transform="translate(9.8 9.95)"/><path fill="#8cb5e6" d="M4.5-7.4l1.15 1-.55-1.4q1.7 1.2 2.7 3.15 1 1.9 1 4Q8.8 3 6.25 5.6 5 6.8 3.55 7.45L3 5.6Q4.25 5 5.35 3.95q2.2-2.2 2.2-5.3 0-3.8-3.1-6.1l.05.05M5.8-5q1.05 1.65 1.05 3.65Q6.85 0 6.4 1.2h-2Q6.05-.5 6.05-2.9q0-1.3-.55-2.45l.3.75V-5m-.45 2.25Q5.3-.6 3.7.9l-.3.3H1.5L1.3.6l1.9-.85q1.4-.95 2.15-2.5m-.5 6.2q-.95.95-2.1 1.45L2.4 3.8l4.2-2.3-.45.25-1.3 1.7M0-.05L.75 2.2h2.4L1.2 3.3l.7 2.3L.05 4.3l-1.9 1.3.7-2.25-2-1.15h2.4L0-.05m0 8.2l-3-.5L-.25 5.8l-.5.35H0l.9-.05 2.25 1.55-3.15.5m-2.65-3.2l-1 3.1.2-.6q-1.5-.6-2.75-1.85Q-8.8 3-8.8-.65q0-2.1 1-4 1-1.95 2.7-3.15l-.55 1.5-1.05 1.5q-.85 1.6-.85 3.45 0 3.1 2.2 5.3L-2.9 5.6l.25-.65q-1.2-.55-2.2-1.5l-1.25-1.7 3.75 2.1-.3 1.1m-4.2-6.3Q-6.85-3.2-5.8-5l.05.45L-6-2.9q0 2.4 1.65 4.1h-2q-.5-1.2-.5-2.55M-3.65.9Q-5.25-.6-5.3-2.75q.7 1.55 2.1 2.5.9.6 1.95.85l-.2.6H-3.3l-.35-.3" transform="translate(9.8 9.95)"/></g></svg>
