<svg height="21.5" width="21.5" xmlns="http://www.w3.org/2000/svg"><g fill-rule="evenodd"><path d="M21.5 11.5q0 4.15-2.9 7.1-2.95 2.9-7.1 2.9-4.15 0-7.05-2.9-2.95-2.95-2.95-7.1 0-4.1 2.95-7.05T11.5 1.5q4.15 0 7.1 2.95 2.9 2.9 2.9 7.05" fill="#081a15" fill-opacity=".498"/><path d="M10.4 4.5h-.8V2h.8v2.5M6.75 6.4q0-.85.85-.85h4.8q.95 0 .85.85v1.7q0 .55-.4.75l-.4.1H7.6q-.85 0-.85-.85V6.4m6.3 8.8l.35-.15q.9-.45.9-1.45V6.1q0-.65-.45-1.1-.45-.45-1.1-.5h-1.3V2.1q2.45.45 4.25 2.25Q18.05 6.7 18.05 10q0 3.35-2.35 5.7T10 18.05q-3.3 0-5.65-2.35-2.4-2.35-2.4-5.7 0-3.3 2.4-5.65 1.8-1.8 4.2-2.2V4.5H7.3q-1.5.1-1.6 1.55v7.5l.3.95q.4.65 1.15.7h5.9M20 10q0 4.15-2.9 7.1Q14.15 20 10 20q-4.15 0-7.05-2.9Q0 14.15 0 10q0-4.1 2.95-7.05T10 0q4.15 0 7.1 2.95Q20 5.85 20 10M10 .75q-3.85 0-6.55 2.7Q.7 6.2.7 10q0 3.85 2.75 6.6 2.7 2.7 6.55 2.7 3.85 0 6.6-2.7 2.7-2.75 2.7-6.6 0-3.85-2.7-6.55Q13.85.75 10 .75m2.45 9.45q.1.3-.2.3H7.9l-.35-.25.35-.25h4.25q.3 0 .3.2m-4.8 3.65q-.85-.1-.75-.85l.25-.55q.25-.25.6-.2.75 0 .75.8-.1.9-.85.8m.25-2.55l-.35-.25.35-.25h4.35l.25.25-.25.25H7.9m4.25 2.55q-.8 0-.8-.8t.8-.8q.8 0 .8.8l-.25.55q-.2.25-.55.25"/><path d="M12.15 13.85q.35 0 .55-.25l.25-.55q0-.8-.8-.8t-.8.8q0 .8.8.8M7.9 11.3h4.35l.25-.25-.25-.25H7.9l-.35.25.35.25m-.25 2.55q.75.1.85-.8 0-.8-.75-.8-.35-.05-.6.2L6.9 13q-.1.75.75.85m4.8-3.65q0-.2-.3-.2H7.9l-.35.25.35.25h4.35q.3 0 .2-.3M10 .75q3.85 0 6.6 2.7 2.7 2.7 2.7 6.55 0 3.85-2.7 6.6-2.75 2.7-6.6 2.7-3.85 0-6.55-2.7Q.7 13.85.7 10q0-3.8 2.75-6.55Q6.15.75 10 .75m3.05 14.45h-5.9q-.75-.05-1.15-.7l-.3-.95v-7.5Q5.8 4.6 7.3 4.5h1.25V2.15q-2.4.4-4.2 2.2Q1.95 6.7 1.95 10q0 3.35 2.4 5.7Q6.7 18.05 10 18.05q3.35 0 5.7-2.35t2.35-5.7q0-3.3-2.35-5.65-1.8-1.8-4.25-2.25v2.4h1.3q.65.05 1.1.5.45.45.45 1.1v7.5q0 1-.9 1.45l-.35.15m-6.3-8.8v1.7q0 .85.85.85h4.85l.4-.1q.4-.2.4-.75V6.4q.1-.85-.85-.85H7.6q-.85 0-.85.85m3.65-1.9V2h-.8v2.5h.8" fill="#8cb5e6"/></g></svg>