<svg height="20.4" width="21.4" xmlns="http://www.w3.org/2000/svg"><g fill-rule="evenodd"><path d="M11.35 1.1q.25-.2.6 0l9 3.6.35.25.05.05.05.35V6l-.2.55-.45.2-.15.3-.55.2h-.9v9.25h.55l.55.25.2.5v.25l.15.1.2.5v.1l.4.2.2.5v.75l-.2.55-.55.2H2.75l-.5-.2-.25-.55v-.75l.25-.5.25-.2v-.1l.25-.5.15-.15v-.2l.25-.5.5-.25h.6V7.25h-1l-.5-.2-.2-.3-.3-.2L2 6v-.65l.15-.4.4-.3 8.8-3.55" fill="#081a15" fill-opacity=".498"/><path d="M19.4 5l-.2.55q-.2.15-.45.2l-.15.3-.55.2h-.9v9.25h.55l.55.25.2.5v.25l.15.1.2.5v.1l.4.2.2.5v.75l-.2.55-.55.2H.75l-.5-.2-.25-.55v-.75l.25-.5.25-.2v-.1l.25-.5.15-.15v-.2l.25-.5.5-.25h.6V6.25h-1l-.5-.2-.2-.3-.3-.2L0 5v-.65l.15-.4.35-.3L9.4.05h.55l9 3.6.35.3.1.4V5"/><path d="M3 5.5H1.25V5h-.5v-.65l8.9-3.6 9 3.6V5h-.6v.5H16.4v10.75h1.3v.85h.35v.8h.6v.75H.75v-.75h.5v-.8h.4v-.85H3V5.5m11.7 10.75V5.5h-2.05v10.75h2.05m-3.85 0V5.5H8.6v10.75h2.25m-4.1 0V5.5h-2.1v10.75h2.1" fill="#8cb5e6"/></g></svg>