<svg xmlns="http://www.w3.org/2000/svg" width="29.85" height="21.4" viewBox="0 0 29.85 21.4"><g fill-rule="evenodd"><path fill="#081a15" d="M-.55 6.55q.3 1.05.15 2.1L-.55 10l.8-.05V9.9l.3-3.85L.4 5.8l-.25-.3V2.55q0-.25.15-.35l.1-.25-.45-4.55q-.1-.7.2-.8h.6l.45-.35h1.1l-2.4-.2-.2-.2-.3-.25-1.4-.15h-1.15q-.45 0-.55-.55l-.2-.9v-.15L-4-6.6v-.05q-.1-.45.2-.8.3-.35.75-.3H-3l.5-.1.05-.1V-8q.15-.6.9-.55h.05L9.25-7.4q.9 0 .9.95v.7l-.05.3v.05l-.3.75q-.4.8-.85.75l-3.5-.35L5.2-4l-.35.3-.55.05q.5.2.5.8l.05 3.6.1.35v.05l.15.55-.2 5.4.15.3.15.75-.2 1.5 1.15-.1L5.8 6.4 6 4.5l-.05-1.95L6.2 0l-.1-2.7q-.1-.5.45-.7l1.55-.3 1.7-.35 1.1-.5.7-.05.9.1.3.15.45.65.15.8-.1 13.15-.15.8 3.2.8H-11.5L-8 11l-.05-.65-.05-2.45.55-2.7L-7.6.25l-.6-3.1.15-.75.45-.65.3-.15 1.7.05 1.35.8.4-.15 1-.1 1.55.5q.45.15.45.7l-.05.65L-1 .1v3.25l.45 3.15v.05" transform="translate(13.5 9.55)"/><path d="M-.35 8.85L2.3 8.7l.25-1.65-.05-.3q-.3-.45-.25-.65l.2-5.35V.7l-.1-.3-.15-.65-.05-3.6-.4-.25H-.7l.05.35v.05l.5 4.55-.25.5-.05.05h.05v3.05h-.05q.4.1.4.5V5l-.3 3.85m-7.4-13.1l-.6 3.15.4.8.25 4.65-.6 2.4.15 2.5 2.3-.65 2 .3q.6 0 .6-.4V6.3l-.25-.7v-.05q-.45-1.55-.45-3.4l.15-2.9-.05-1.7.25-1q0-.4-.35-.5l-.75.1-.65-.05-.65.2-.35 1.15-1.4-1.7M7.5-6.75v-.7l-.3-.3L-3.55-8.9l-.25.1-.05.15.1.4-1.2.15h-.1l-.25.05-.05.3.1.45v.05l.2.2h1.2l1.5.15.4.4.05.05h.05l2.3.25 2.45.05.1-.15q.2-.55.55-.45h.05l3.5.35.3-.1.1-.25M-2.55 5.55q.3 1.05.15 2.1L-2.55 9l.8-.05V8.9l.3-3.85-.15-.25-.25-.3V1.55l.15-.35.1-.25-.45-4.55q-.1-.7.2-.8h.6l.45-.35H.3l-2.4-.2-.2-.2-.3-.25-1.4-.15h-1.15q-.45 0-.55-.55l-.2-.9v-.15L-6-7.6v-.05q-.1-.45.2-.8.3-.35.75-.3H-5l.5-.1.05-.1V-9q.15-.6.9-.55h.05L7.25-8.4q.9 0 .9.95v.7l-.05.3v.05l-.3.75q-.4.8-.85.75l-3.5-.35L3.2-5l-.35.3-.55.05q.5.2.5.8l.05 3.6.1.35v.05L3.1.7l-.2 5.4.15.3.15.75-.2 1.5 1.15-.1L3.8 5.4 4 3.5l-.05-1.95L4.2-1l-.1-2.7q-.1-.5.45-.7l1.55-.3 1.7-.35 1.1-.5.7-.05.9.1.3.15.45.65.15.8-.1 13.15-.15.8 3.2.8H-13.5L-10 10l-.05-.65-.05-2.45.55-2.7-.05-4.95-.6-3.1.15-.75.45-.65.3-.15 1.7.05 1.35.8.4-.15 1-.1 1.55.5q.45.15.45.7l-.05.65L-3-.9v3.25l.45 3.15v.05M5-3.75l-.05 2.7 1.9.45-2 1.3-.1 1.65V4q.35.05.35 1.8L4.95 8l.2.6 1 .25 1.9-.25 1.25.35q.5-.9.45-1.65l-.6-5.05.15-1.7.05-3.65-.75-1-3.6.35" transform="translate(13.5 9.55)"/><path fill="#8cb5e6" d="M7.5-6.75l-.1.25-.3.1-3.5-.35h-.05q-.35-.1-.55.45l-.1.15L.45-6.2l-2.3-.25h-.05l-.05-.05-.4-.4-1.5-.15h-1.2l-.2-.2v-.05l-.1-.45.05-.3.25-.05h.1l1.2-.15-.1-.4.05-.15.25-.1L7.2-7.75l.3.3v.7M-.35 8.85L-.05 5v-.05q0-.4-.4-.5h.05V1.4h-.05l.05-.05.25-.5-.5-4.55v-.05L-.7-4.1h2.45l.4.25.05 3.6.15.65.1.3v.05l-.2 5.35q-.05.2.25.65l.05.3L2.3 8.7l-2.65.15M5-3.75l3.6-.35.75 1L9.3.55l-.15 1.7.6 5.05q.05.75-.45 1.65L8.05 8.6l-1.9.25-1-.25-.2-.6.15-2.2q0-1.75-.35-1.8V2.35L4.85.7l2-1.3-1.9-.45.05-2.7m-12.75-.5l1.4 1.7L-6-3.7l.65-.2.65.05.75-.1q.35.1.35.5l-.25 1 .05 1.7-.15 2.9q0 1.85.45 3.4v.05l.25.7v2.2q0 .4-.6.4l-2-.3-2.3.65-.15-2.5.6-2.4-.25-4.65-.4-.8.6-3.15" transform="translate(13.5 9.55)"/></g></svg>
