<svg height="24.55" width="14.25" xmlns="http://www.w3.org/2000/svg"><g fill-rule="evenodd"><path d="M4.65 22.85q-1.25 0-2.05-.85l-.1-.1v-.15q-.1-4.7 1.5-5.6L3.95 14q.05-1.9 1.5-4.8l.6-1.3q.55-1.3.65-3.1l-.4-.4-.05-.05v-1L6.15 3q0-1 2.35-1 2.3 0 2.3 1l-.1.35v1l-.05.1-.4.35q.1 1.8.65 3.1l.6 1.3q1.45 2.9 1.5 4.8l.05 2.3q1.35 1.05 1.2 5.45v.15l-.1.1q-.8.85-2.05.85h-.4l-1.2.7v.4l.05.25-.25.1-1.85.25-1.75-.2-.25-.1V24l.05-.45q-.9-.25-1.25-.7h-.6" fill="#081a15"/><path d="M2.15 20.85Q.9 20.85.1 20l-.1-.1v-.15q-.1-4.7 1.5-5.6L1.45 12q.05-1.9 1.5-4.8l.6-1.3q.55-1.3.65-3.1l-.4-.4-.05-.05v-1L3.65 1q0-1 2.35-1 2.3 0 2.3 1l-.1.35v1l-.05.1-.4.35q.1 1.8.65 3.1L9 7.2q1.45 2.9 1.5 4.8l.05 2.3q1.35 1.05 1.2 5.45v.15l-.1.1q-.8.85-2.05.85h-.4q-.35.45-1.2.7v.4l.05.25-.25.1-1.85.25-1.75-.2-.25-.1V22l.05-.45q-.9-.25-1.25-.7h-.6m2.3-18.8q.5.5 1.5.5.9 0 1.55-.5V1.8L6 1.95 4.45 1.8v.25M4.2 6.2l-.65 1.3Q2.2 10.2 2.15 12q-.15 4 1.1 8.25l.85.6.65-2.35.8-2.05.3-.6.35.6.9 1.9.8 2.5.8-.6 1.05-4.9L9.8 12q-.05-1.9-1.45-4.5l-.6-1.3q-.5-1.15-.65-3.1l-1.15.15-1.1-.15q-.1 1.8-.65 3.1M4.4 1l1.6.25L7.55 1 6 .7 4.4 1m4.2 10.75v.15l-1 .2q-.5 0-.95-.35-.5-.6-1.45-.6-1.1 0-1.95.5.05-1.05.8-1.8.75-.8 1.85-.8 1.15 0 1.9.8.8.8.8 1.9m-.8 1.85q-.8.8-1.9.8-1.1 0-1.85-.8-.55-.5-.7-1.15.85-.6 1.85-.6.6 0 1 .4.55.55 1.35.55h.05l.85-.05-.65.85m3.25 6q.05-3.05-.6-4.2l-1 4.75q.9.1 1.6-.55m-6.4 2.15l2.65-.05q-.1-1.55-1.4-4.3-1.15 2.85-1.25 4.35M.7 19.6q.75.7 1.75.55-.7-2.6-.9-5.05-.9 1.05-.85 4.5"/><path d="M4.65 21.75q.1-1.5 1.25-4.35 1.3 2.75 1.4 4.3l-2.65.05m6.4-2.15q-.7.65-1.6.55l1-4.75q.65 1.15.6 4.2M.7 19.6q-.05-3.45.85-4.5.2 2.45.9 5.05-1 .15-1.75-.55m7.1-6l.65-.85-.85.05h-.05q-.8 0-1.35-.55-.4-.4-1-.4-1 0-1.85.6.15.65.7 1.15.75.8 1.85.8t1.9-.8m.8-1.85q0-1.1-.8-1.9-.75-.8-1.9-.8-1.1 0-1.85.8-.75.75-.8 1.8.85-.5 1.95-.5.95 0 1.45.6.45.35.95.35l1-.2v-.15m-4.15-9.7V1.8L6 1.95l1.5-.15v.25q-.65.5-1.55.5-1 0-1.5-.5M4.2 6.2q.55-1.3.65-3.1l1.1.15L7.1 3.1q.15 1.95.65 3.1l.6 1.3q1.4 2.6 1.45 4.5l-.05 3.35-1.05 4.9-.8.6-.8-2.5-.9-1.9-.35-.6-.3.6-.8 2.05-.65 2.35-.85-.6Q2 16 2.15 12q.05-1.8 1.4-4.5l.65-1.3M4.4 1L6 .7l1.55.3L6 1.25 4.4 1" fill="#8cb5e6"/></g></svg>