<svg height="22.8" width="20.55" xmlns="http://www.w3.org/2000/svg"><g fill-rule="evenodd"><path d="M18.65 4.2q1.9 2.5 1.9 5.55V21.8l-.3.7-.7.3H3.5l-.7-.3-.3-.7V9.75q0-3.05 1.85-5.55h.05q1.85-2.3 4.65-3.1l.4-.1h4.15l.4.1q2.5.7 4.25 2.65l.05.05.35.4" fill="#081a15" fill-opacity=".498"/><path d="M15.75 2.75l.05.05.35.4q1.9 2.45 1.9 5.55V20.8l-.3.7-.7.3H1l-.7-.3-.3-.7V8.75Q0 5.7 1.8 3.3l.05-.1Q3.75.8 6.7.05L7.15 0h3.75l.5.05.05.05V.05q2.55.7 4.3 2.7"/><path d="M14.95 20.8h-1.7v-5.75h1.7v5.75m2.1 0H15.8v-5.75h1.25v5.75m-14.8 0H1v-5.75h1.25v5.75m.8 0v-5.75h9.35v5.75H7.2v-4.15H5.05v4.15h-2m4.8-12.35l-.1-.05H7.7l-.75-1v4h4.15v-4q-.6 1.35-2.05 1.35l-1.2-.3M1 13.15v-4.4Q1 6 2.65 3.8q1.7-2.1 4.3-2.8v4.55l.75-.95.05-.05 1.3-.35q.65 0 1.25.35l.65.7.15.3V1q2.35.65 3.95 2.45l.3.35q1.7 2.2 1.7 4.95v4.4H1" fill="#8cb5e6"/></g></svg>