<svg height="22.6" width="23.05" xmlns="http://www.w3.org/2000/svg"><g fill-rule="evenodd"><path d="M2.6 4.9l9.05-3.45h.05q.4-.3 1 0l9.5 3.45h.1l.45.4.05.05.25.7v15.3l-.35.9q-.4.35-.9.35H3q-.5 0-.85-.35-.4-.4-.4-.9V6.05l.3-.7.05-.05.35-.3.15-.1" fill="#081a15" fill-opacity=".498"/><path d="M20.6 4l.2.55v15.3l-.3.7-.7.3H1l-.7-.3-.3-.7V4.55L.2 4l.45-.35V3.6L9.8.1h.7l9.65 3.5.05.05.45.4L20.6 4m-1.8 1.25l-.85-.3v13.9h.85V5.25m-8.65-3.1L3.6 4.65h13.55l-7-2.5m-7.8 3l-.35.1v13.6h.35V5.15"/><path d="M16.3 12.15v-5.2h-2.6v5.2h2.6m-3.35 6.55v-5.15h-5.2v5.15h5.2m6.85 1.15H1V4.55l9.15-3.5 9.65 3.5v15.3m-8.1-7.7v-5.2H9.1v5.2h2.6m-4.7 0v-5.2H4.45v5.2H7" fill="#8cb5e6"/></g></svg>