<svg height="15.45" width="23.9" xmlns="http://www.w3.org/2000/svg"><g fill-rule="evenodd"><path d="M11.25 11.9l.1.1-.15-.05.05-.05-.1-.05v.05l.15.2v.3h.05l-1.1 1.65q-1.4 1.35-3.4 1.4-1.95-.05-3.3-1.4-1.35-1.4-1.35-3.35-.05-1.5.85-2.7v.05l3.45-5.8.4-.35.85-1Q8.65.25 9.6.2h.15l.5.05q1 .2 1.6 1.35l.15.25.05.05v.05l.1.2v.05l.2.55v.05l.8.2.6-.1q.1-.7.5-1.3h-.05Q14.8.45 15.9.25l.5-.05q.95-.05 1.9.7l.55.5.4.55.35.3 3.35 5.5.45.65.25.5.05.05v.15l.05.15.05.05v.2l.05.05v.3l.05.05v.65q-.05 2-1.35 3.4-1.4 1.35-3.35 1.4-1.95-.05-3.25-1.4l-.15-.15-.05-.05-.15-.15h-.05v-.05l-.8-1.4v.05l-.05.05q-.7.7-1.65.7-.85 0-1.55-.55h-.15l.15-.55-.1-.1-.15.15m.05.2V12l.05.2-.05-.1" fill="#081a15" fill-opacity=".498"/><path d="M20.15 7.4l.45.65.25.5.05.2.05.15V9l.05.15v.2l.05.15v.55q0 1.85-1.25 3.15-1.3 1.3-3.1 1.3t-3.05-1.3l-.15-.15-.05-.05-.15-.15q-.65-.8-.85-1.75l-.3.15-.2.25q-.6.6-1.4.6-.8 0-1.4-.55H9.1v-.05l-.25-.35-.15-.05q-.25 1.25-1.2 2.2-1.3 1.3-3.15 1.3-1.8 0-3.1-1.3Q0 12 0 10.2q0-1.4.8-2.5l3.45-5.8.35-.25.85-1Q6.25.05 7.1 0h.15l.4.05q.9.2 1.4 1.2l.15.25v.05l.05.05.1.2.15.5.05.25 1.1.25.9-.2q.05-.7.45-1.35.5-1 1.45-1.2L13.9 0q.85 0 1.7.65l.5.45.4.6.3.2 3.35 5.5"/><path d="M13.9.75l1.25.5H15l-1.15.15-1.35.45q.4-.9 1.15-1.05l.25-.05m.85 1.3l1.45.35 2.3 3.7-1.8-.35q-1.8 0-3.05 1.25-1.05 1-1.25 2.4l-.45-.7q-.6-.6-1.4-.6-.8 0-1.4.6H9.1l-.4.7q-.25-1.3-1.2-2.3-1.35-1.25-3.15-1.25l-1.85.4L4.85 2.4l1.45-.35q.8 0 1.85.7 1.6.8 2.5.8 1.05 0 2.35-.85 1.15-.65 1.75-.65m1.95.05l-2.35-.05L15 2l1.7.1m-1.55 8.65l.45.3q-.55-1 .25-1.8t1.8-.3l-.25-.4q-.5-.45-1.1-.45-.65 0-1.15.45-.4.45-.4 1.1 0 .7.4 1.1m5-3.35l.45.65-.65-.9.2.25m-3.45-.1q1.15 0 1.95.85.8.8.8 1.9 0 1.2-.8 2-.8.85-1.95.85t-1.95-.85q-.8-.8-.8-2 0-1.1.8-1.9.8-.85 1.95-.85m-5.25 2.75l-.25.7-.2.2-.3.1h-.15l-.7-.3-.25-.7.25-.55v-.05q.35-.3.7-.3t.65.3l.25.6M7.2.75l.3.05q.65.15 1.05 1.05L7.2 1.4l-1.15-.15h-.1L7.2.75M9.5 2.3l.05.25v.35l-.05-.6m-5.15-.2l1.7-.1h.25l-1.95.1m0 5.3q1.15 0 1.95.8.85.8.85 2 0 1.15-.85 1.95-.8.85-1.95.85t-1.95-.85q-.8-.8-.8-1.95 0-1.2.8-2t1.95-.8M2.7 10.75l.4.3q-.45-1 .3-1.8.8-.8 1.8-.3l-.25-.4q-.5-.45-1.15-.45-.65 0-1.1.45l-.45 1.1.45 1.1" fill="#8cb5e6"/></g></svg>