<svg height="23.35" width="27.7" xmlns="http://www.w3.org/2000/svg"><g fill-rule="evenodd"><path d="M14.2 1h1.85v1.85q1.1.25 1.9 1.1Q19 5 19.15 6.45v2l4.95 3.05h-2.4l.3.9v1.05l5.7 3.05h-3.25l.2.8v6.05H5.6V17.3l.25-.8H2.5l5.7-3.05V12.4l.3-.9H6.15l4.9-3.05v-2h.05q.1-1.45 1.15-2.5.85-.85 1.95-1.1V1" fill="#081a15"/><path d="M9.3 5.45h6.65q-.15-1.25-1.1-2.1-.95-.9-2.25-.9-1.25 0-2.25.9-.95.85-1.05 2.1M12.85.7h-.45v1.05h.45V.7M11.7 0h1.85v1.85q1.1.25 1.9 1.1 1.05 1.05 1.2 2.5v2l4.95 3.05h-2.4l.3.9v1.05l5.7 3.05h-3.25l.2.8v6.05H3.1V16.3l.25-.8H0l5.7-3.05V11.4l.3-.9H3.65l4.9-3.05v-2h.05Q8.7 4 9.75 2.95q.85-.85 1.95-1.1V0m4.25 6.15h-6.7V7.3h6.7V6.15m2.85 5.25q0-.8-.8-.8h-1.35v1.9h-1.9v-1.9h-1.2v1.9h-1.9v-1.9h-1.2v1.9h-1.9v-1.9H7.2q-.8 0-.8.8v1.95h12.4V11.4M6.1 9.8h13.05L16.2 8H9L6.1 9.8m1.65 5h.65v-.7h-.65v.7m1.5 0h.65v-.7h-.65v.7m1.5 0h.65v-.7h-.65v.7m10.7 1.5q0-.8-.75-.8H4.55l-.5.25-.25.55v3.85H8l.8-4.05.8 4.05h1.05v-2.1h3.9v2.1h1.1l.75-4.05.85 4.05h4.2V16.3M6.4 14.8h.5v-.7h-.5v.7m-3.65 0H5.7v-1.6l-2.95 1.6m1.05 6.85h.5v-.7h-.5v.7m3 0h.75v-.7H6.8v.7m-1.6 0h.75v-.7H5.2v.7m5.45 0v-.7h-.6v.7h.6m3.9-4.2h-3.9q0-.55.6-.95l1.35-.4 1.4.4q.55.4.55.95m4.25-2.65v-.7h-.5v.7h.5m-2 0h.65v-.7h-.65v.7m2.7 0h2.95l-2.95-1.6v1.6m-5.7 0h.65v-.7h-.65v.7m-1.5 0h.65v-.7h-.65v.7m3 0h.65v-.7h-.65v.7m-.75 6.85h.65v-.7h-.65v.7m5.5-.7h-.75v.7h.75v-.7m-2.4.7h.75v-.7h-.75v.7m3.8 0v-.7h-.55v.7h.55"/><path d="M10.65 21.65h-.6v-.7h.6v.7m-3.85 0v-.7h.75v.7H6.8m-1.6 0v-.7h.75v.7H5.2m-1.4 0v-.7h.5v.7h-.5M2.75 14.8l2.95-1.6v1.6H2.75m3.65 0v-.7h.5v.7h-.5m4.35 0v-.7h.65v.7h-.65m-1.5 0v-.7h.65v.7h-.65m-1.5 0v-.7h.65v.7h-.65m13.7 6.85h-.55v-.7h.55v.7m-3.8 0v-.7h.75v.7h-.75m2.4-.7v.7h-.75v-.7h.75m-5.5.7v-.7h.65v.7h-.65m.75-6.85v-.7h.65v.7h-.65m-.75 2.65q0-.55-.55-.95l-1.4-.4-1.35.4q-.6.4-.6.95h3.9M12.3 14.8v-.7h.65v.7h-.65m1.5 0v-.7h.65v.7h-.65m3 0v-.7h.65v.7h-.65m2 0h-.5v-.7h.5v.7m.7 0v-1.6l2.95 1.6H19.5m1.95 1.5v3.85h-4.2l-.85-4.05-.75 4.05h-1.1v-2.1h-3.9v2.1H9.6l-.8-4.05-.8 4.05H3.8V16.3l.25-.55.5-.25H20.7q.75 0 .75.8M6.1 9.8L9 8h7.2l2.95 1.8H6.1m9.85-3.65V7.3h-6.7V6.15h6.7m2.85 5.25v1.95H6.4V11.4q0-.8.8-.8h1.35v1.9h1.9v-1.9h1.2v1.9h1.9v-1.9h1.2v1.9h1.9v-1.9H18q.8 0 .8.8M9.3 5.45q.1-1.25 1.05-2.1 1-.9 2.25-.9 1.3 0 2.25.9.95.85 1.1 2.1H9.3M12.85.7v1.05h-.45V.7h.45" fill="#8cb5e6"/></g></svg>