<svg height="20.8" width="24.8" xmlns="http://www.w3.org/2000/svg"><path d="M23.5 9.9h-1.35v10.85H18.7V14.8l-5.45-4.65-5.05 4.3v6.35H4.7l.05-10.9H3.3V8.6H2V5.5h2.75V1.05h3.4L8.2 5.5h10.5V1h3.45v4.5h2.65v3.1h-1.3v1.3" fill="#081a15"/><path d="M19.45.7H17.4v2.4h2.05V.7m2.05 8.2h-1.35v10.85H16.7V13.8l-5.45-4.65-5.05 4.3v6.35H2.7l.05-10.9H1.3V7.6H0V4.5h2.75V.05h3.4L6.2 4.5h10.5V0h3.45v4.5h2.65v3.1h-1.3v1.3m-8.35 0H12.1l4.6 4V12l-3.55-3.1m6.3-5.1H17.9L19.45 5V3.8m-2.05.5v2.05l1.75-.7L17.4 4.3m0 3.3v1.95l1.65-.65-1.65-1.3m-11.2.6h10.5v-.6H6.2v.6m14.6 0v-.6h-.65v.6h.65m-1.35.1V6.25l-1.7.7 1.7 1.35M6.2 5.2v1.7h10.5V5.2H6.2m15.9 1.7V5.2h-1.95v1.7h1.95m-4.7 12.15h2.05v-9.6l-2.05.85v8.75M.7 6.9h2.05V5.2H.7v1.7M5.45.75h-2v2.4h2V.75m0 3.55L3.7 5.7l1.8.7-.05-2.1m-2-.45V5L4.9 3.85H3.45M2 8.2h.75v-.6H2v.6m3.5-.6L3.75 8.95l1.75.65v-2m-2.05.7L5.15 7l-1.7-.65V8.3m6 .6L6.2 11.65v.95l4.3-3.7H9.45M3.4 19.1h2.1v-8.75l-2.05-.8-.05 9.55"/><path d="M3.4 19.1l.05-9.55 2.05.8v8.75H3.4M9.45 8.9h1.05l-4.3 3.7v-.95L9.45 8.9m-6-.6V6.35l1.7.65-1.7 1.3m2.05-.7v2l-1.75-.65L5.5 7.6M2 8.2v-.6h.75v.6H2m1.45-4.35H4.9L3.45 5V3.85m2 .45l.05 2.1-1.8-.7 1.75-1.4m0-3.55v2.4h-2V.75h2M.7 6.9V5.2h2.05v1.7H.7m16.7 12.15V10.3l2.05-.85v9.6H17.4M6.2 5.2h10.5v1.7H6.2V5.2m13.25 3.1l-1.7-1.35 1.7-.7V8.3m2.65-1.4h-1.95V5.2h1.95v1.7m-1.3 1.3h-.65v-.6h.65v.6m-3.4-.6l1.65 1.3-1.65.65V7.6m-11.2.6v-.6h10.5v.6H6.2m11.2-3.9l1.75 1.35-1.75.7V4.3m2.05-.5V5L17.9 3.8h1.55m-6.3 5.1L16.7 12v.9l-4.6-4h1.05m6.3-8.2v2.4H17.4V.7h2.05" fill="#8cb5e6"/></svg>