<svg xmlns="http://www.w3.org/2000/svg" width="23.75" height="23.55" viewBox="0 0 23.75 23.55"><g fill-rule="evenodd"><path fill="#081a15" fill-opacity=".5" d="M5.7-7.15q1.55 0 2.3-1.2l.8-1.4.2-.2h.35l.25.15 3.3 4.05.1.35-.15.35-.75.7.05-.1-1 1.25q-.85 1.4-.85 2.9 0 1.4.6 2.4v.05l.35.55.15.05.6.45.2.25v.25l-.15.75V4.4l-.85 1.95v.05q-1.25 2-3.65 3.4h.05q-2.45 1.55-5.1 2.45h-.1l-.1.05H2q-.55 0-2.3-.75L-3.6 9.8q-2.25-1.4-3.5-3.35l-.05-.1-.7-1.65-.15-.25-.15-.75.05-.3.2-.2.6-.4.45-.7q.55-1 .55-2.4 0-1.5-.8-2.9-.7-.95-.6-1.05l-.3-.1-.8-.7-.2-.35.15-.35L-5.5-9.8l.25-.2.35.05.2.25.7 1.4v.05l.5.55.05.05q.7.5 1.75.5 1.35 0 2.75-1h.05l.65-.4.25-.1.3.1.6.4-.1-.05 1.1.65 1.8.4M2-5.4l-.35.55L2.4-5 2-5.4" transform="translate(10.75 11.25)"/><path d="M6.2-9.7l.8-1.4.1-.1.15-.05.15.1 3.3 4.05.05.2-.05.15-.75.7L9-4.85Q8.05-3.4 8.05-1.8q0 1.5.65 2.55l.5.7h.05l.6.45.1.1v.15l-.15.75v-.05L9 4.75v.05Q7.8 6.75 5.45 8.1v-.05q-2.4 1.6-5 2.45H.3l-.05.05H0l-2.2-.7-3.25-1.75q-2.2-1.35-3.45-3.3v-.05l-.75-1.7-.1-.15-.15-.75.05-.15.05-.1.6-.4.6-.75q.55-1.05.55-2.55 0-1.6-.85-3.05L-9.7-6l-.15-.05-.8-.7-.1-.15.05-.2 3.35-4.05.15-.1.15.05.15.1.7 1.45-.05-.05.65.75-.05-.05q.8.6 1.95.6 1.45 0 2.9-1.05h.05l.65-.4.1-.05.15.05.6.4 1 .6H1.7l2 .45q1.7 0 2.5-1.3m1.45 3.95l1.05-1.3L7.35-8.6l-.65.75-.05.05q-1.25 1-2.95 1-1.15 0-2.65-.6L0-8l-1.05.6q-1.4.6-2.65.6-1.8 0-3-1l-.05-.05-.6-.75-1.25 1.55 1 1.3v.05q1.15 1.8 1.2 3.8v-4.55l.1-.15.15-.1H6.2l.2.1.05.15v3.85q.2-1.65 1.2-3.15m-.25 7.5Q6.6.6 6.45-.9v6.25l1.15-1.4.55-1.25-.75-.95m-2.75 5l.85-.6h-11l.85.6 3.2 1.65 1.4.55q2.4-.8 4.7-2.2M-7.55 4l1.15 1.4v-6.95q-.05 1.9-.85 3.3h-.05l-.8.95.6 1.3h-.05" transform="translate(10.75 11.25)"/><path fill="#8cb5e6" d="M-.05-6.55L-1.4-2.5l-4.25.1 3.4 2.5-1.3 4.15 3.5-2.5 3.5 2.5L2.2.1l3.4-2.5-4.25-.1-1.4-4.05m8.85 9.2h.05v.05L8.1 4.15Q7 5.9 4.95 7.15q-2.5 1.5-5 2.35l-1.55-.6-3.35-1.75L-6.4 6.1-8 4.15l-.7-1.5q.5-.3.9-1.1.8-1.45.8-3.5T-8.05-5.9l-1.2-1.55L-7.6-9.5l.65.9.1.15.45.3q1.1.7 2.55.7 1.25 0 2.65-.65.7-.3 1.15-.65l1.2.65q1.45.65 2.7.65 1.7 0 2.95-1l.9-1.05 1.6 2.05L8.15-5.9Q6.95-4 6.95-1.95q0 2.05.9 3.5l.95 1.1" transform="translate(10.75 11.25)"/></g></svg>
