<svg height="23.7" width="22.9" xmlns="http://www.w3.org/2000/svg"><g fill-rule="evenodd"><path d="M10 11.75l-.25-.5.25.55v-.05m-1.95-3.9v.05l.05-.35-.05.3m12.1 13.45l-.55-.5.25.3.25.2h.05m-1.3-1.2l-.45-.2q.4.15.8.55l-.35-.35m-4.25 0l.65.65.1.1.1.1.4.35-.55-.55-.7-.65m-3 1.2h.05l-.15-.1.1.1m.5-3.45l.8-.75v-.05l-.8.8m.7-12.15v.15l.05-.15.15-.15-.2.15m5.75-4q.65.35.65 1.05 0 .7-.55 1.5l-.1.15v.7q-.05 1-.8 2.8l-1.45 2.75-1 .95-1.25 4.05.7.3q1.15-3.2 1.85-4.7.85-1.9 1.6-2.4l.75-.25h.6l1.5.15q.7.3.8 1l.9 4.65v.35q0 .85-.75 1.15l-.45.05-.9-.35-.95-1.25-.55 1.9q.35.15 1.25 1l.15.15h1.15q.55 0 .85.35.35.35.35.85v3.9q0 .5-.35.8-.3.4-.85.4h-1.65q-1.1 0-2.1-1-.9 1-2.15 1-1.05 0-2.05-1-.9 1-2.15 1-1.05 0-2.1-1-.85 1-2.2 1H3.2q-.5 0-.85-.4Q2 23 2 22.5v-3.9q0-.45.35-.85.35-.35.85-.35h.25q-.5-6.75.95-8.75.35-.5.95-.5l.45.1.45.35.5-1.8.45-1.25q.35-.7 1.1-.7l.35.05q.45.15.7.5l.15.85-.25 1.7v.4l.4-.7.95-1.3q.4-.45.9-.6l.1-.25.05-.05q.4-1.1 1.35-1.1h.35q.65.15.95.7.8-1.45 1.85-1.9l.55-1q.35-.65 1.1-.65l.75.2" fill="#081a15" fill-opacity=".498"/><path d="M7.5 18.3q.4 0 .85.3l.7.65.25.25.3.3.35-.4.1-.15.2-.25q-.6-.1-1.45-.95l-.65-.5-.45.35-.05.15-.15.25m1-7.9h-.2l-.6 2.55-.5 2.7.25-.05h.05q.45-2.4 1.25-4.6l-.25-.6m6 8.6q-.6-.05-1.45-.95l-.6-.5q-.3 0-.5.35l-.05.15-.2.25q.45 0 .9.3l.65.65.1.1.1.1.4.35.35-.4.1-.15.2-.25m-1.95-9.85l-.25.05-2.2 7.15.8-.75 1.9-5.95-.2-.3-.05-.2m2.8-5.65l.45-.15.35-.75.4-.7v.05l.2.05-.25.75-.45.7.05.8q-.05.85-.7 2.4L14.1 9.2q-.25.4-.65.6l-.4.15-1.65 5.4.3-.05q.65.05 1.35 1l.25.15 1.55-4.15q1.35-3.45 2.1-4.05l1.7.15.15.7.6.05.9 4.75v.1l-.8-1 .05.15v.1l-1.1-1.5-.4-.55-1.45 4.6.95.75.55.55h1.6v.75h.75V19H18.8q-.6 0-1.55-.95l-.6-.5-.3.2-.15.15-.1.15-.15.25q.7 0 1.6.95l.3.35.25.2h1.6v.75h.75v1.15H18.8q-.65 0-1.55-.95l-.6-.5-.3.2-.15.2-.1.1q-.45.95-1.55.95-.65 0-1.5-.95l-.6-.5q-.15 0-.35.15l-.15.25-.05.1q-.6.95-1.55.95-.7 0-1.55-.95l-.65-.5-.45.4-.05.1q-.55.95-1.6.95h-4.1v-.75H1.2V19.8h4.1l.45-.4.1-.15.2-.25H5.9v.05H1.95v-.75H1.2v-1.2h1.55l-.2-3.9q-.1-4.15.8-5.35v3.45q.2-1.95.75-2.7-.2 2.2.25 5.95l.35 2.55h.1L5 10l.9-4.4.4-1.05-.25 1.8-.1 3.15.7-3.15.4-1.05-.25 1.8q-.25 4.05.05 7.3L8 10.25q-.8-1.05.65-3.45l.8-1.1q.45-.45.9-.45l.3-.7.2-.35.25-.15.1.25-.2.35-.4.65.1.8.4-.1.3-.7.2-.35.25-.15.1.25-.2.35-.4.65q.3 1.45-.65 3.45-.35.85-.6 1.1-.4.45-1.05.55l-.6 2.55-.4 2.05.3.15.7.65.05.1.4.15 2.55-7.9-.2-.3v-.75q1.5-5 3.2-5.25l.35-.75.4-.7v.05l.2.05-.25.75-.45.7.05.8" fill="#8cb5e6"/><path d="M10.95 16.55h1.2v.6h-1.2v-.6m4.35-.05h1.05v.65H15.3v-.65m-7.55.7h.3v.3h-.3v-.3H6.9v-.85h.85v.85" fill="#8cb5e6"/><path d="M15.4 20l.05-.1.15-.2.35-.2.6.5q.85.95 1.5.95h1.7V19.8h-1.6l-.6-.55-.7-.65-.9-.3q-1.05 0-1.65.95l-.05.15-.4.4-.55-.55-.7-.65q-.45-.3-.9-.3-1 0-1.6.95l-.1.15-.35.4-.6-.55q-.9-.95-1.55-.95-1.05 0-1.65.95l-.1.15-.4.4H1.2v1.15h4.15q1.1 0 1.55-.95l.05-.1.15-.25.35-.15.6.5q.85.95 1.55.95 1.05 0 1.55-.95l.05-.1.5-.4.6.5q.9.95 1.55.95 1 0 1.55-.95m.45-18.75h-.05V1.2l-.4.65-.35.75q-1.7.3-3.2 5.3-.15.55.2 1L9.5 16.8l-.4-.15-.05-.1-.7-.65q-.45-.3-.9-.3l-.25.05.5-2.7.6-2.55q.65-.05 1.05-.55l.6-1.1q1-1.95.65-3.45l.4-.65.2-.35-.1-.25H11l-.2.15-.15.35-.3.7q-.55.05-.9.45l-.8 1.1Q7.2 9.2 8 10.3l-1.3 4.9-.05.6-.25.15q-.7-4.05-.35-9.55l.25-1.85-.4 1.1L5 10l-.2 7.1h-.7l-.5-3.3q-.45-3.75-.25-5.95-.9 1.2-.8 5.35l.2 3.9H1.2v1.2h3.9l1.1-.9 1.65-.25q.8.15 1.65.9l1.1-.75 1.55-.15q.8.15 1.6.9 1.45-1.4 2.6-.9.95.2 1.85 1.1h1.5V17.1h-1.6l-.55-.55q-.9-.95-1.6-.95l-.3.05 1.75-5.45 1.05 1.55 1.1 1.5v-.1l-.9-4.75-1.1-.1h-.6q-.75.55-2.1 4l-1.6 4.25q-.8-1.2-1.55-1.25h-.1q-.75 0-1.5 1.05l2.2-7.15.4-.15.65-.6 1.3-2.55q.65-1.55.7-2.4l-.05-.8.45-.7.25-.7-.15-.05m.7-1.05q.65.35.65 1.05 0 .7-.55 1.5l-.1.15v.7q-.05 1-.8 2.8L14.3 9.15l-1 .95-1.25 4.05.7.3q1.15-3.2 1.85-4.7.85-1.9 1.6-2.4l.75-.25h.6l1.5.15q.7.3.8 1l.9 4.65v.35q0 .85-.75 1.15l-.45.05q-.5 0-.9-.35l-.95-1.25-.55 1.9q.35.15 1.25 1l.15.15h1.15q.55 0 .85.35.35.35.35.85V21l-.35.8q-.3.4-.85.4h-1.65q-1.1 0-2.1-1-.9 1-2.15 1-1.05 0-2.05-1-.9 1-2.15 1-1.05 0-2.1-1-.85 1-2.2 1H1.2q-.5 0-.85-.4L0 21v-3.9l.35-.85q.35-.35.85-.35h.25q-.5-6.75.95-8.75.35-.5.95-.5l.45.1.45.35.5-1.8.45-1.25q.35-.7 1.1-.7l.35.05q.45.15.7.5l.15.85-.25 1.7v.4l.4-.7.95-1.3.9-.6.1-.25.05-.05q.4-1.1 1.35-1.1h.35q.65.15.95.7.8-1.45 1.85-1.9l.55-1Q15.05 0 15.8 0l.75.2"/></g></svg>