<svg height="25.95" width="19.1" xmlns="http://www.w3.org/2000/svg"><g fill-rule="evenodd"><path d="M8.65 8.8l-.5.95h1.95V8l.05-.2h-.4q-.55.05-1.1 1m2.6 0v-.05l-.5 1h1.95v-1.7l.05-.25h-.35q-.55.05-1.15 1m2.95-3.2q.85-.2 1.6-2.05L16.45 2v3.25l-.05.35h.45q.8-.15 1.6-2.05l.65-1.45v3.15l-.1.7V6h-.05q-.55 1.8-2.15 1.8h-1.85q-.55.05-1.1 1l-.5.95h2.85v.3q0 2.6.5 5.7.45 3.15 2.1 7.55l.05.05.1 2.6H2.5l.2-2.55v-.1q1.65-4.4 2.15-7.55.45-3.1.5-5.7v-.3H7.5v-1.7l.1-.65v-.05q.55-1.8 2.15-1.75h1.85q.85-.15 1.65-2.05l.65-1.45v3.15l-.05.35h.35" fill="#081a15" fill-opacity=".498"/><path d="M6.15 6.8l-.5.95H7.6V6l.05-.2h-.4q-.55.05-1.1 1m2.6 0v-.05l-.5 1h1.95v-1.7l.05-.25H9.9q-.55.05-1.15 1m2.95-3.2q.85-.2 1.6-2.05L13.95 0v3.25l-.05.35h.45q.8-.15 1.6-2.05L16.6.1v3.15l-.1.7V4h-.05q-.55 1.8-2.15 1.8h-1.85q-.55.05-1.1 1l-.5.95h2.85v.3q0 2.6.5 5.7.45 3.15 2.1 7.55l.05.05.1 2.6H0l.2-2.55v-.1q1.65-4.4 2.15-7.55.45-3.1.5-5.7v-.3H5v-1.7l.1-.65v-.05q.55-1.8 2.15-1.75H9.1q.85-.15 1.65-2.05L11.4.1v3.15l-.05.35h.35"/><path d="M7.55 16.05q0 .8.75.8t.75-.8q0-.75-.75-.75-.35 0-.55.3l-.2.45m-3.3.2v.25l.1.55q.35 1.5 1.65 2.4l.15.05h.2l.05-.1 1.25-1.9v-.2l-.1-.1-.55-.8-.05-.35-.15-.1-2.45.15-.1.15m2.2-3.85l-.1.05v.15l1.05 2.15.3.05.4-.15.8.1.15.05.15-.05 1.05-2.2-.05-.15-.1-.05-1.2-.4q-1.25-.15-2.3.4l-.15.05m6.15-3.55q0 2.3.45 5.1.5 3.35 2.15 7.6l.05 1.25H1.15l.15-1.25.95-2.95q.9-2.8 1.15-4.65l.5-5.1h8.7m-.25 7.35l-.15-.1-2.35-.15q-.2 0-.2.15l-.05.45-.55.65-.1.15v.1l.05.1 1.25 1.95.2.1.1-.1.95-.85q.75-.9.85-2.2v-.25" fill="#8cb5e6"/></g></svg>