<svg height="20.2" width="22.5" xmlns="http://www.w3.org/2000/svg"><g fill-rule="evenodd"><path d="M14.45 3.5l-.3-.15h-.05q-.4 0-.7.6V4l-.15.5.25-.05h1.1l-.15-.95M3.6 16.25q-1.4-2.1-1-4.8v-.05Q2.9 8.7 4.65 7q1.1-1.15 2.45-1.4Q8.4 4.5 10 4.45q.05-.75.55-1.2v.05q2.75-2.65 4-2.25 1.3.25 2.35 2.85l.15.35-1.5.4 1.55.85q1.7.05 3.25 1.45V7q1.7 1.7 2.1 4.4v.05q.3 2.7-1.05 4.8-1.4 2.1-3.65 2.4H16.7q-1.85 1.55-4.25 1.55t-4.2-1.55H7.2q-2.25-.3-3.6-2.4" fill="#081a15" fill-opacity=".498"/><path d="M11.95 2.5l-.3-.15h-.05q-.4 0-.7.6V3l-.15.5.25-.05h1.1l-.15-.95M1.1 15.25q-1.4-2.1-1-4.8v-.05Q.4 7.7 2.15 6q1.1-1.15 2.45-1.4 1.3-1.1 2.9-1.15.05-.75.55-1.2v.05q2.75-2.65 4-2.25 1.3.25 2.35 2.85l.15.35-1.5.4 1.55.85q1.7.05 3.25 1.45V6q1.7 1.7 2.1 4.4v.05q.3 2.7-1.05 4.8-1.4 2.1-3.65 2.4H14.2q-1.85 1.55-4.25 1.55t-4.2-1.55H4.7q-2.25-.3-3.6-2.4"/><path d="M11.9 5.15l-.7-.65 2.1.4q-.6.1-1.1.4l-.2-.05-.1-.1m6.1 9.1q-1.1 1.5-2.8 1.85 1.35-1.85 1.35-4.2 0-2.95-1.95-4.95-.8-.85-1.7-1.3l.65-.15q2.05-.15 3.6 1.2 1.6 1.4 1.8 3.6.25 2.2-.95 3.95m-2.15-2.6q0 2.4-1.7 4.1-1.75 1.7-4.2 1.7t-4.2-1.7q-1.7-1.7-1.7-4.1 0-2.4 1.7-4.1 1.75-1.7 4.2-1.7t4.2 1.7q1.7 1.7 1.7 4.1m-1.6-.05l-1.9-1.9-1.1 2.35 3-.45m-.45 1.7q-1.65.85-4.8.65l.2.65H7.3l.2-.95-1.5-.6.05.55.5 1 .9 1.2q1.25 1.05 3.1.8l-.35-1.05h1.55l-.05.7 1.6-1.35q.5-.8.5-1.6m-2.65-.4l-1.2-1.7-1.05 1.7h2.25m-9.2 1.35q-1.2-1.75-1-3.95.25-2.2 1.9-3.6Q4.4 5.35 6.4 5.5l.65.15-1.7 1.3q-2 2-2 4.95 0 2.35 1.4 4.2-1.75-.35-2.8-1.85m5.5-4.75l-1.75 2 2.85.4-1.1-2.4M6.2 4.8l1.65-.35.2.75-.3.1q-.7-.4-1.55-.5" fill="#8cb5e6"/></g></svg>