<svg height="21.25" width="23.3" xmlns="http://www.w3.org/2000/svg"><g fill-rule="evenodd"><path d="M2.9 10.25q1.05-2.3 2.45-4.1l-.3-.3-.25-.45v-.3l.2-.35 1.3-1.3.5-.25.55.25.15.15 2.75-1.85.4-.1.1.05.35.2 1.4 1.35.2.4-.1.5v.05l-.2.2-.1.05q-.95.45-2.25 1.65l3.25 3.25 3.6-3.6-.55-.55q-.25-.25-.25-.55l.25-.5 2.4-2.4.5-.25h.05l.5.25 3.3 3.3.2.5-.2.55-2.45 2.4-.55.2q-.3 0-.5-.2l-.55-.55-3.6 3.6 3.8 3.8.4-.15.55.25 2.25 2.25.2.5-.2.55-2.1 2.15-.3.2h-.4l-.35-.2-2.25-2.25-.25-.55q0-.25.15-.4l-3.85-3.85-1.45 1.45 1.65 1.65.2.15.2.5-.2.55-1.35 1.35q-1.7 1.35-3.05 1.55l-4 .15H5l-.5.05-.65-.15-.25-.55v-.6l.15-4.15q.15-1.4 1.65-3.1h.05l1.25-1.35.5-.25q.3 0 .55.25l.1.15 1.65 1.6 1.45-1.4-3.2-3.2-2.9 3.4-.1.1-1.1 1.4v.05l-.4.25H3.2l-.55-.1-.3-.25L2.1 13l-.05-.5.85-2.25" fill="#081a15" fill-opacity=".498"/><path d="M17.25 0l.55.25 3.3 3.3.2.5-.2.55L18.65 7l-.55.2q-.3 0-.5-.2l-.55-.55-3.6 3.6 3.8 3.8.4-.15.55.25 2.25 2.25.2.5-.2.55-2.1 2.15-.35.2h-.4.05l-.35-.2-2.25-2.25-.25-.55.15-.4-3.85-3.85-1.45 1.45 1.65 1.65.2.15.2.5-.2.55L10.15 18q-1.7 1.35-3.05 1.55l-4 .15H3l-.5.05h-.05l-.6-.15-.25-.5v-.65l.15-4.2q.15-1.3 1.65-3.05l1.3-1.35.5-.25q.3 0 .55.25l.1.15 1.65 1.6 1.45-1.4L5.75 7l-2.9 3.4-.05.05-1.15 1.45-.45.3-.55-.1-.3-.25-.3-.35V11L.9 8.75q1-2.3 2.45-4.15L3 4.3v.05L2.8 4v-.4l.2-.35 1.3-1.3.5-.25.55.25.15.15L8.25.25H8.2l.5-.1.4.25 1.4 1.35.2.4-.05.45-.35.35q-.95.45-2.25 1.65l3.25 3.25 3.6-3.6-.55-.55q-.25-.25-.25-.55l.25-.5 2.4-2.4.5-.25"/><path d="M4.3 4.55l-.05-.05h.05l-.8-.75 1.3-1.3.7.7Q7.05 1.65 8.55.9l1.4 1.35L7 4.6l4.3 4.3 4.65-4.65-1.1-1.1 2.4-2.4 3.3 3.3-2.45 2.4-1.05-1.05-4.65 4.65 4.85 4.8.4-.4 2.25 2.25-2.1 2.15-2.25-2.25.4-.45-4.85-4.85-2.5 2.5 2.3 2.3h.05l-1.3 1.3q-1.5 1.25-2.7 1.4l-3.85.15h-.75v-.5l.15-4.1q.15-1.15 1.45-2.7l1.25-1.3v.05l2.3 2.25L10 10.2 5.7 5.9l-3.45 4-1.2 1.55-.3-.25.8-2.15Q2.7 6.5 4.3 4.55m13.8.55l1.05-1.05-1.9-1.9-1 1L18.1 5.1" fill="#8cb5e6"/></g></svg>