<svg height="23.4" width="16.45" xmlns="http://www.w3.org/2000/svg"><g fill-rule="evenodd"><path d="M9.9 6.3l-.1.1v1.25l.1.1.15.2L15.5 22.7v.35l-.2.25-.35.1H12.7l-3.75-1-.2.05h-.1l-.1.05-3.1.9H3l-.3-.1-.2-.25v-.35L7.95 7.95l.1-.2.15-.1V6.4l-.15-.1L8 6.25l-.05.05-.05.1-1.05 1.15.05.05.15.35v.1q0 .25-.15.4L5.65 9.7l.3.2.15.4-.15.3-.1.1-3.1 3.2q-.25.3-.55.25l-.5-.2-.2-.45.2-.5 1.6-2.1h-.1l-.3-.15-.05-.05-.15-.35v-.2l.15-.35L4.1 8.6l-.2-.25q-.2-.35.25-.75l.05-.05.5-.35h-2q-.65 0-.65-.65 0-.8.6-.65l1.05-.2-.05-.15v-.4l.25-.25.15-.05.2-.05h.7q-.05-.5.65-.5h.1l.65.1-.4-.35-.45.1-.55-.2V4l-1.9-1.8-.1-.15q-.2-.45 0-.65Q3 .95 3.5 1l.4.2.95.55.05-.1.1-.1.4-.15h.1l.35.15.5.5.3-.1.5.2.05.05 1.25 1.6.05.05.15.3L9 4.1l.25.05.25-.35 1.2-1.6.05-.05.55-.2.3.1.45-.5.4-.15h.15l.35.15.05.05.15.15.9-.6q.3-.45.85.1.4.25.1.8l-.1.15L12.95 4l-.1.05-.1.05-.3.05L12.1 4l-.05-.05-.35.35-.15.1.75-.1h.1q.65 0 .65.5h.65l.3.05.1.05.2.25.05.4-.05.15 1.05.2q.6-.15.6.65 0 .65-.65.65h-2l.45.35.1.05q.5.5.15.85l-.1.15 1.2 1.2.2.35v.2l-.2.35-.05.05-.25.15h-.05l1.5 2.1.2.5-.2.45q-.3.3-.6.2L15.4 14l-3.3-3.3-.1-.1q-.1-.2-.05-.3l.05-.4.3-.2-1.2-1.25-.2-.4v-.1l.2-.35.05-.05L10.1 6.4l-.1-.1v-.05l-.1.05m1-1.85l-.1-.05-.1.1h.3l-.1-.05m-3.75 0l-.1.05h.2l-.1-.1v.05" fill="#081a15" fill-opacity=".498"/><path d="M11.75 6.1l.05.05-.15-.05h.1l-.1-.05h-.35v.05l.3.2h.3v-.05l.05.05.3.5-.15.55 1 .95.2.5v.15l-.2.55-.2.05-.05.05h.05l.15-.05-.1.05 1.2 1.65q.3.25.25.65l-.25.6q-.45.4-.85.25h.05l-.35-.2L9.95 9.5l-.1-.1-.05-.1q-.2-.3-.1-.45l.1-.35v-.1l.1-.1-.9-.9q-.25-.25-.25-.55v-.1q0-.2.15-.4l-.7-.7v.7l.05.05.2.25v.05l5.05 13.7v.45l-.3.35-.45.15H10.6l-3.45-.9h-.2l-.05.05-2.9.85H1.65l-.45-.15-.25-.4.05-.5L6 6.75l.2-.35v-.75l-.65.7.1.4v.1l-.2.55-.95.9.1.1.15.5-.1.4-.05.1-.1.1-2.9 2.95q-.3.35-.65.3L.3 12.5l-.3-.6q-.05-.4.3-.65h.05l1.15-1.6-.1-.1-.05-.05-.25-.55V8.8l.25-.5.95-.95-.05-.15q-.25-.4.25-.9l.05-.05-.05.05h.35l.3-.2-.05-.05h-.3l-.1.05-.2.2H1.35Q.5 6.3.5 5.45l.2-.7.65-.15.65-.15.05-.45.35-.3-.05.05.1-.05.05-.05.3-.1h.45l.15-.25-.1-.05L1.55 1.6l-.05-.1-.05-.05-.05-.1q-.3-.55 0-.8.05-.55.7-.5h.05l.5.2.65.45.05-.05.5-.25h.1q.3 0 .55.25l.3.3.25-.05q.3 0 .55.2l.2.2 1.1 1.45.05.05.1.15.15-.05h.1l.25-.2 1-1.4.2-.15.6-.25.25.05.25-.3h.05l.5-.25h.15l.55.25.65-.4V.2l.55-.2.55.3q.55.35.2 1.05l-.05.1-.05.05-.05.1-1.8 1.65h-.05l.2.3h.35l.25.05.1.05.15.05.25.3.15.45.6.15.6.15.2.7q0 .85-.85.85h-1.1l-.2-.2M5.5 3.55V3.5l-.1.05h.2l-.05-.05-.05.05M2.7 6.1h.05l-.15.05.1-.05"/><path d="M5.05 19.65h-2.1l-.2.1-.15.45 2.45-.55m1.3-.45l-.6-.65-.25-.2-.85-.9-.75-.75-.95 2.45.1.05h3.3m.2-6.65l-.35-2-.75 2h1.1m-.8.5l1.4 2.75 1.6-2.75h-3m.65 2.8l-1.3-2.4-.9 2.4h2.2m-.75-11.1l.15.05v.15L4.25 6.6l.6.1.05.05v.1l-1.8 1.8.75.1.1.1v.1l-3 3H.8v-.15l1.95-2.65L1.9 9l-.05-.05V8.8l1.8-1.75-.55-.1L3 6.9l.05-.15 2.6-2M5 4.7v.1l-.1.1H3.55l.3.4v.1l-.05.1-2.45.05-.1-.1.05-.1 1.75-.4-.3-.45-.05-.15.1-.05h1.35l-.2-.3v-.1l.1-.05 1.9.25.1.1-.1.1-1.2.05.25.35m1.35-1.45v.15H6.2l-.9-.8-.15.5-.1-.05-.95-.95-.1.5-.05.1-.15-.05L2.05 1V.85h.15l1.5.95.05-.55.1-.1h.1l.95.95.05-.35.1-.1.1.05 1.2 1.55m-1.8 13.1l1.1 1.15.15.1 1.4 1.45 2.75-2.7h-5.4m6.15.8v-.05l-.15-.35L8.1 19.2h3.25l.1-.05-.75-2m1.1 3.05l-.15-.45-.2-.1h-2.2l2.55.55m-2.35-6.4l-.1-.3L8 15.85h2.2l-.7-2-.05-.05m-.5-1.25l-.65-1.9-.4 1.9h1.05m-2-2.8l-.15.05.45 2.2.4-2.2-.1-.05h-.6m.8-.5L7.2 7.8l-.55 1.45h1.1m3.65-2.3h-.1l-.55.1 1.8 1.75v.15L12.5 9l-.85.15 1.95 2.65v.15l-.1.05-3.05-3.05v-.1l.1-.1.75-.1-1.8-1.8v-.1l.05-.05.6-.1L8.6 4.95V4.8l.15-.05 2.6 2 .05.15v.05M7.7 6.9l5.05 13.7h-2l-3.6-.95-.3.05-.2.05-2.9.85h-2.1L6.7 6.9l.25-.15v-2.3l.25-.3.25.3v2.3l.25.15m2.65-3.05l.1.05V4l-.2.3h1.35l.1.05-.05.15-.3.45 1.75.4.05.1-.1.1-2.45-.05-.05-.1v-.1l.3-.4H9.5l-.1-.05V4.7l.25-.35-1.2-.05-.1-.1.1-.1 1.9-.25m.2-1.2l-.1.05-.1-.1-.05-.55-.95.95-.15.05-.05-.1-.05-.4-.9.85h-.15Q7.9 3.3 8 3.25L9.2 1.7l.15-.05.05.1.05.35.95-.95h.15l.05.05.1.6 1.5-1 .15.05V1l-1.8 1.65" fill="#8cb5e6"/></g></svg>