<svg height="23.75" width="24.2" xmlns="http://www.w3.org/2000/svg"><g fill-rule="evenodd"><path d="M13 1.35q4.65 0 7.9 3.25 3.3 3.35 3.3 7.95t-3.3 7.85q-3.25 3.35-7.9 3.35-4.6 0-7.9-3.35-3.25-3.25-3.25-7.85T5.1 4.6Q8.4 1.35 13 1.35" fill="#081a15" fill-opacity=".2"/><path d="M22 11.05q0 4.55-3.25 7.75-3.2 3.3-7.8 3.3-4.55 0-7.8-3.3Q0 15.6 0 11.05T3.15 3.2Q6.4 0 10.95 0q4.6 0 7.8 3.2Q22 6.5 22 11.05"/><path d="M9.85 9.3q-1.05.65-1.05 1.9v.05H3.9V11q0-1.9 1-3.5.9-1.6 2.45-2.55l2.5 4.35m1.9 4.05l.35-.15 2.3 4q-1.6.9-3.4.9l-2.45-.45-.95-.45 2.3-4.05 1.1.3.75-.1M5.3 17.5q2.4 2.15 5.7 2.15 3.55 0 6.1-2.5 2.5-2.55 2.5-6.1 0-3.3-2.15-5.65L17.1 5Q14.55 2.45 11 2.45T4.9 5q-2.5 2.5-2.5 6.05t2.5 6.1l.4.35m7-6.75l.1.5-.45.95q-.4.4-.95.4l-.55-.1-.4-.3-.45-.8v-.15q0-.6.45-1l.5-.3.45-.1q.55 0 .95.4l.35.5m.7-.65l-.1-.05h.05l-.8-.75 2.5-4.35 1.7 1.45.8 1.1q.95 1.6.95 3.5v.25h-4.85v-.05L13 10.1m5.4-5.55q2.5 2.7 2.5 6.5 0 4.1-2.9 7-2.9 2.9-7 2.9-3.85 0-6.6-2.5l-.4-.4q-2.9-2.9-2.9-7T4 4.1q2.9-2.9 7-2.9t7 2.9l.4.45" fill="#8cb5e6"/></g></svg>