<svg height="22.5" width="23" xmlns="http://www.w3.org/2000/svg"><g fill-rule="evenodd"><path d="M19.9 19.4q-3.05 3.1-7.4 3.1-4.35 0-7.45-3.1Q2 16.35 2 12q0-4.35 3.05-7.45Q8.15 1.5 12.5 1.5t7.4 3.05Q23 7.65 23 12t-3.1 7.4" fill="#081a15" fill-opacity=".498"/><path d="M17.9 17.9Q14.85 21 10.5 21q-4.35 0-7.45-3.1Q0 14.85 0 10.5q0-4.35 3.05-7.45Q6.15 0 10.5 0t7.4 3.05Q21 6.15 21 10.5t-3.1 7.4"/><path d="M3.05 16.35Q1 13.8 1 10.5q0-3.35 2.05-5.85l5.8 5.85-5.8 5.85m-.9-3.7H3.5v-2.1l1.2 2.1h1.35l-1-1.9-.1-.2.45-.2q.45-.35.45-.95l-.05-.35q-.3-1-2.3-1H2.15v4.6M3.8 8.8q.85 0 .85.6v.15q-.1.3-.4.45l-.5.05H3.5V8.8h.3m1.55 9.6l-.85-.65 5.8-5.85 6.05 6.05Q13.8 20 10.55 20q-2.95 0-5.2-1.6m4.95-9.35L4.5 3.2Q7.1.95 10.55.95q3.25 0 5.8 2.05L10.3 9.05m8.15-3.8Q20 7.55 20 10.5q0 1.5-.4 2.85v.05q-.55 1.75-1.8 3.2l-6.05-6.1 6.05-6.1.65.85m-3.5 7.4h1.35v-2.1l1.2 2.1h1.4l-1.1-1.95-.1-.15.4-.15q.55-.4.55-1l-.05-.35q-.3-1-2.3-1h-1.35v4.6M16.6 8.8q.75 0 .75.6v.15l-.3.4-.5.1h-.25V8.8h.3" fill="#8cb5e6"/></g></svg>