<svg xmlns="http://www.w3.org/2000/svg" width="18.3" height="22.55" viewBox="0 0 18.3 22.55"><g fill-rule="evenodd"><path fill="#081a15" fill-opacity=".5" d="M2.05-9h.05q1.1-.05 2 1.25l.1.1.5 1.2h1.55l.7.3.3.7v.75l-.3.7-.1.15.25.15.35.3.75.8q.55.75.7 1.85l1.25 7.35q.25 1.75-.8 2.95l-.2.1-.75.55v.85l-.3.7-.7.3H-3.4l-.7-.3-.3-.7V10.2l-.1-.05-.65-.6q-1.05-1.3-.9-2.95L-4.9-.75q.3-1.6 1.45-2.55l.1-.1.6-.45L-2.9-4l-.3-.7v-.75l.3-.7.7-.3h1.7l.55-1.2.05-.2Q1-9.1 2.05-9" transform="translate(8.1 10.5)"/><path d="M.05-10.5H.1q1.1-.05 1.95 1.2l.1.15.55 1.2h1.55l.7.3.3.7v.75l-.3.7-.1.15.2.15.1.05-.05-.05.4.35.65.7.75 1.85 1.25 7.35v.1Q8.35 6.9 7.3 8l-.05.05-.85.65v.85l-.3.7q-.3.3-.7.3H-5.4q-.4 0-.7-.3l-.3-.7V8.7l-.15-.1-.6-.55L-7.2 8q-1.05-1.2-.85-2.85v-.1L-6.9-2.3q.25-1.6 1.5-2.55l.05-.05.6-.5-.15-.1-.3-.7v-.75l.3-.7.7-.3h1.65l.6-1.35.05-.05.05-.05q.85-1.15 1.9-1.1M.5-8.05l-.1-.1-.05-.05-.3-.25-.3.25-.5 1.4q-.05.35-.35.6l-.65.25h-.9v1.15l-.2.6q-.2.25-.5.35l-.5.25h1.1l.6.2H2.3l.6-.2h1.05-.05l-.5-.25-.45-.4v.05l-.2-.55v-1.2h-.9L1.2-6.2l-.35-.6L.5-8.05M4.4 8.6v-.05h-8.8v.05h8.8" transform="translate(8.1 10.5)"/><path fill="#8cb5e6" d="M-2.75-1.75v-.85h-1.2l-.3.7-1.25 7.3q-.05.55.3.9l.5.35h1.6V5.1H-1V5l.3-.75q.3-.3.7-.3.5 0 .8.3l.35.5v.35H3.2v1.55h1.25l.85-.35q.3-.35.2-.9L4.3-1.85v-.05l-.25-.7H2.9v.85h-5.65m7-5.2v.75h-.5v1.4l.75.4.3.25.55.6q.45.6.55 1.4L7.15 5.2q.15 1.3-.6 2.15-.45.45-1.15.75v1.45H-5.4V8.1l-.5-.25-.55-.5q-.75-.9-.6-2.15l1.15-7.35q.2-1.25 1.15-2l1.1-.65v-1.4h-.55v-.75h2.45q.15-1 .65-1.8.55-.75 1.15-.75.65 0 1.15.75l.1.1.55 1.7h2.4" transform="translate(8.1 10.5)"/></g></svg>
