<svg height="22.25" width="17.85" xmlns="http://www.w3.org/2000/svg"><g fill-rule="evenodd"><path d="M6.15 10.8l-.5-.5-.05-.05-.45-.85L5 9.3l-.4-.35-.15-.4-.15-.8v-.1l.2-.55.45-.4.25-.1.15-.55.7-.95.05-.05q.3-.45.6-.55l.4-.2V4q-.15-.5.45-.85l.05-.05v-.15l.4-.8.15-.2.35-.35q.6-.5 1.25-.35 1.25 0 1.7.85v.05l.05.05.3.5.05.2v.4l.05.45v.35l.8-1 .05-.05.3-.3.15-.1.05-.05.35-.1q.6-.15 1.15.6l.05.05.15.55-.15.6h-.05L13.3 6.25l.05.95-.05.65v.05l.1.3v.45l-.05.25v.95q.45.25.9 1.35l.05.05.05.5v.15l-.4.55-.6.15v.05l-.3 2.7-.25 2.55v.1l-.05.45.45.1h.15q3.4.75 4.3 2.1l.05.05.15.6-.3.7-.05.1-.65.15H2.75l-.6-.15-.1-.1-.3-.7.2-.6v-.05Q2.9 19.3 6.1 18.7l.15-.25.25-.45-.05-1.8H6.4l-.45.05q-1.05 0-1.35-.5l-.05-.05q-.55-.5-.2-1.45l.15-.35 1.2-1.85.35-1 .1-.25.05.05.1.25.25.15h.2l-.2-.1v-.1h.05l.25-.7-.4.1-.05.05-.2.2.1.3-.1-.15-.05-.1v.05m6.2 7.65l.2-.05-.3-.05h-.05l.1.1h.05M6.4 10.5h.05l-.15.1.1-.1m.15.65l-.05.05-.1-.1.15.05" fill="#081a15"/><path d="M4.45 3.65l-.1.05h.05l.05-.05m5.2-1.25v.05l-.1.45.3.1 1.1-1.35v.05l.25-.25.15-.1.3-.1q.45-.1.9.5l.15.45-.15.45-1.5 2.05.05 1-.05.65v.05l.1.4v.35l-.05.15v1.2h.05l.9 1.3v.05l.05.4v.1l-.3.35-.45.15h-.15l-.1.3-.3 2.7-.25 2.5v.1l-.1.7v.05l.05-.05h.1l.6.15h.1q3.3.75 4.15 2l.15.5-.2.55h-.05l-.5.15H.75l-.5-.15L0 19.8l.15-.5Q1.1 18 4.3 17.45v-.1l.15-.2.3-.6-.1-2.55v.05l-.2.35-.1.05-.4.05q-.9 0-1.2-.45l.05.05q-.55-.45-.2-1.3l.1-.25h.05l1.2-1.95.35-1 .15-.25V9.3l-.05-.05-.6-.65-.45-.9-.25-.15-.2-.15-.05-.05L2.7 7l-.15-.8v-.05l.15-.45.4-.3.3-.1.2-.7.65-.85.5-.5.7-.3-.1-.45q-.1-.4.4-.7l.1-.2.3-.75.2-.3L6.6.3 7.7 0q1.15 0 1.6.8l.3.5v.5l.05.5v.1"/><path d="M5.9 8.2l.3-.75-.7-1.5-.35.25-.05.4.15-.1.05.25-.3.5.15.2.35.5.2.75.2-.5m2.7 9.6l-.15-1.5v-1.85l.25-.5-.4-2.7-1.15 2.5L7 15.1l-.5 1.35-.05 1.05-.15.4 2.3-.1m.55-14.2l.25.05.5.4 1.6-1.95.15-.1q.15 0 .3.2L10.3 4.45l.05 1.25-.05.5v.3l.05.5v1.6l.1.25.3.25.6 1H11l-.4.2-.25.85-.3 2.6-.25 2.55-.1 1.3.75.3.7.15q2.9.65 3.7 1.7H.75q.95-1.2 4.25-1.7v-.45l.5-.85-.1-2.85.3-.4v-2.75l-.45.1-1.3 2.9q-.95 0-.65-.75l1.3-2.15L5 9.8l.55-.25v-.3l-.4-.3-.8-.85-.3-.65v-.2l-.6-.35-.15-.8.75-.3.3-1.05.4-.5.4-.4 1.15-.3.6-.2V3.3l.1-.15h-.1l-.3-.25-.4-.25q-.25-.15 0-.3l.3-.5.2-.45.3-.5.65-.15q.7 0 .95.4l.25.4v.25l.05.55-.15.45h-.3l-.15.1q-.2.25.15.4.05.1.7.3" fill="#8cb5e6"/></g></svg>