<svg height="22.5" width="20.3" xmlns="http://www.w3.org/2000/svg"><g fill-rule="evenodd"><path d="M18 2.1l.5 1.1.05.05q.9 2.45.6 5.15v.15q-.3 2.35-1.5 4.4h.55l.7.3.3.55v.05l1.1 7.55v.05l-.05.4-.3.45-.2.15-.45.05h-6.05l-.45-.1h-.05l-.4-.55-.1-.4v-.05l.6-3.95q-1.95.9-4.1 1.1-2.55.25-4.95-.5L3.75 18l-1.1-.45-.5-.4q-.25-.4-.1-.75l.25-.5 5.45-5.45-1.6-3.55v-.05l-.1-.4.05-.1.25-.55.45-.25.15-.05.45.1h.05L11 7.2l5.4-5.4.5-.25.75.1.05.05.3.35v.05" fill="#081a15" fill-opacity=".498"/><path d="M16 .55l.5 1.15q1 2.5.65 5.2V7q-.3 2.4-1.5 4.45h.55q.35 0 .65.25l.35.6 1.1 7.55v.05l-.05.5-.05.05-.3.4h-.05l-.55.15h-6.05l-.5-.15h-.05l-.35-.4v-.05l-.1-.5v-.05l.55-3.9q-1.9.9-4.05 1.1l-4.85-.5-.15-.05L.6 16l.05.05-.5-.4-.05-.05-.1-.65.3-.55 5.45-5.45-1.6-3.55v.05l-.1-.6.3-.5V4.3l.5-.25L4.9 4l.6.1h-.05L9 5.7 14.4.3q.2-.25.55-.3l.6.1.45.45M9.2 6.9L6.25 5.55l-.3-.05-.25.15-.15.25.05.3 1.35 2.95-5.4 5.45-.15.25.05.35.25.2.4.15q2.2.75 4.55.5 3-.3 5.45-2.05l-.75 5.45.05.25.15.25.3.05h4.9l.25-.05.2-.25.05-.25-.95-6.55-.2-.3-.3-.15h-2.1q2.05-2.45 2.45-5.6.3-2.5-.6-4.8l-.15-.4-.25-.2-.3-.05-.25.15L9.2 6.9h.05l-.05.05V6.9m5.4-4.5l-.05-.15-.05-.15.8.15-.55.55-.15-.4m1.2 11.05h-.45l-.05-.4.5.4m-2.1-1v.05-.05M11.85 19h.55l-.05.5v.1l-.1-.1-.35-.4-.05-.1m4.4.6v-.1l-.1-.5h.6l-.1.1-.35.4-.05.1M6.5 5.8L7.05 7l-1.2-.55.65-.65m-4.4 9.75l-.25-.2-.1-.35.2-.3.15-.1-.05-.15.25.1.15.05.1.05.25.1-.1.05v.05l.1.3-.05.1-.15.2-.3.15h-.05l.05-.4-.05.1-.05-.2-.1.45"/><path d="M15.55 2.05q.9 2.3.6 4.8-.4 3.15-2.45 5.6h2.5L17.3 20h-6.05l.85-6q-2.45 1.75-5.45 2.05-2.35.25-4.55-.5L1 15.1l5.95-5.95L5.05 5 9.2 6.9 15.1 1l.45 1.05" fill="#8cb5e6"/></g></svg>