<svg xmlns="http://www.w3.org/2000/svg" width="20.8" height="23.2" viewBox="0 0 20.8 23.2"><g fill-rule="evenodd"><path fill="#081a15" d="M4.55-8.85L5.6-6.7l.1.15q.05.25.6.4.75.2.9.95.15.7-.45 1.2h-.1v3.45l.3.35.3.8v.55l3.9 3.05q.4.3.45.75.1.45-.15.8l-.2.4-.65.5v4.25q0 .5-.35.85t-.85.35H-4.4q-.5 0-.85-.35t-.35-.85V6.65l-.65-.5-.2-.4-.15-.8q.05-.45.45-.75l3.9-3.05V.6l.3-.8.3-.35V-4h-.05q-.65-.5-.45-1.2.15-.75.85-.95l.4-.15.25-.25.05-.15L.45-8.85q.85-1.25 2-1.25h.1q1.15 0 2 1.25" transform="translate(9.15 11.1)"/><path d="M2.05-9.85L3.1-7.7l.1.15q.05.25.6.4.75.2.9.95.15.7-.45 1.2h-.1v3.45l.3.35.3.8v.55l3.9 3.05q.4.3.45.75l-.15.8-.2.4-.65.5V9.9q0 .5-.35.85t-.85.35H-6.9q-.5 0-.85-.35t-.35-.85V5.65l-.65-.5-.2-.4-.15-.8q.05-.45.45-.75l3.9-3.05V-.4l.3-.8.3-.35V-5h-.05q-.65-.5-.45-1.2.15-.75.85-.95l.4-.15.25-.25.05-.15 1.05-2.15q.85-1.25 2-1.25h.1q1.15 0 2 1.25" transform="translate(9.15 11.1)"/><path fill="#8cb5e6" d="M-.05-3.4l-.05-.1v-.45H-1v-.2l.2-.25v-.05l.1-.15.1-.35.2-.25.05-.05v-.35h.15v-.15h.1v-.05l-.1-.1v-.05h.05V-6h-1.3v5.2h2.9V-6H.1l.1.05-.1.15-.05.05H.2v.15h.15v.3l.05.1h.05l.1.05L.6-5v.05l.2.55.05.05v.05l.15.15.05.2h-1v.45l-.1.1v.15H-.1l.05-.15M2.9-6.2l.6.25-.55.4V-1l.6.65v1.1l4.4 3.4-.05.15-.15.25h-.8V9.9H-6.9V4.55h-.8l-.2-.4 4.35-3.4v-1.1l.6-.65v-4.55l-.55-.4q1.15-.3 1.45-1.15l.75-1.7q.6-1.1 1.25-1.1h.1q.55 0 1.1.85l.9 1.95q.2.6.85.9m0 10.55q-.15-.55-1-.85L0 3.25l-1.9.25q-.95.35-1.05 1.1v4.45h5.9V4.6l-.05-.25" transform="translate(9.15 11.1)"/></g></svg>
