<svg xmlns="http://www.w3.org/2000/svg" width="23.5" height="17.2" viewBox="0 0 23.5 17.2"><g fill-rule="evenodd"><path fill="#081a15" fill-opacity=".5" d="M12.9 7.95l.1.65-.35.55-.65.2H-7l-.6-.2-.35-.55.05-.65 6.4-13.7.4-.45.5-.15h6.3l.55.15.35.45 6.3 13.7" transform="translate(10.5 7.85)"/><path d="M10.4 6.45l.1.65-.35.55-.65.2h-19l-.6-.2-.35-.55.05-.65L-4-7.25l.4-.45.5-.15h6.3l.55.15.35.45 6.3 13.7" transform="translate(10.5 7.85)"/><path fill="#8cb5e6" d="M9.5 6.85H2.45v-2.7l-.2-.2h-4.4l-.2.2v2.7H-9.5l6.4-13.7h6.3l6.3 13.7M-.05-3.4h.1q.4 0 .65-.4l.3-.95-.1-.6-.2-.35q-.25-.4-.6-.4H.05q-.4 0-.65.4l-.3.95.3.95q.2.35.55.4" transform="translate(10.5 7.85)"/></g></svg>
