<svg height="22.1" width="22.95" xmlns="http://www.w3.org/2000/svg"><g fill-rule="evenodd"><path d="M16.05 5.1l.75-.25.75.3 2.15 1.6 2.4.95q.85.3.85 1.15l-.05 4.5-.35.85-.85.35h-3.05v6.35l-.35.9-.85.3H3.7q-.5 0-.85-.3l-.35-.9v-6.25q0-.8.85-1.1 1.8-.6 3.15-1.4l2.2-1.4 1.2-.9.7-.2V8.8l.05-.2h-6q-.5 0-.85-.35t-.35-.85V4.15q0-.8.85-1.1.9-.3 1.5-.7l1.7-1.1.75-.25.75.3 1.5 1.05 1.6.7.65.45.2.65V7.1l.7-.4 1.55-1 .85-.6"/><path d="M13.55 4.1l.75-.25.75.3q1.45 1.2 2.15 1.6l2.4.95q.85.3.85 1.15l-.05 4.5-.35.85q-.35.35-.85.35h-3.05v6.35l-.35.9-.85.3H1.2l-.85-.3-.35-.9v-6.25q0-.8.85-1.1 1.8-.6 3.15-1.4l2.2-1.4 1.2-.9.7-.2V7.8l.05-.2h-6q-.5 0-.85-.35T.95 6.4V3.15q0-.8.85-1.1.9-.3 1.5-.7L5 .25 5.75 0l.75.3L8 1.35l1.6.7.65.45.2.65V6.1l.7-.4 1.55-1 .85-.6"/><path d="M6.7 19.9H1.2v-6.25q1.95-.6 3.4-1.5l2.3-1.45 1.2-.85 1.2.95v-3q1.4-.45 2.45-1.05l2.55-1.7.75.65 1.6 1.05q1 .6 2.6 1.05l-.05 4.5h-3.95V9.15h-2v3.15H11.6l1.65.75 1.7.6v6.25H9.5v-4.35H6.7v4.35M5 6.4H2.15V3.15q1.05-.3 1.8-.75l1.8-1.2.55.45 1.1.75 1.85.75V6.4H6.4V4.15H5V6.4" fill="#8cb5e6"/></g></svg>