<svg height="22.7" width="24.2" xmlns="http://www.w3.org/2000/svg"><g fill-rule="evenodd"><path d="M13.35 1Q17.8 1 21 4.2t3.2 7.65q0 4.5-3.2 7.7-3.2 3.15-7.65 3.15-4.5 0-7.7-3.15-3.15-3.2-3.15-7.7 0-4.45 3.15-7.65Q8.85 1 13.35 1m6.15 18.3l-.05.1.35-.35-.3.25" fill="#081a15"/><path d="M10.85 0q4.45 0 7.65 3.2t3.2 7.65q0 4.5-3.2 7.7-3.2 3.15-7.65 3.15-4.5 0-7.7-3.15Q0 15.35 0 10.85 0 6.4 3.15 3.2 6.35 0 10.85 0M17 18.3l-.05.1.35-.35-.3.25"/><path d="M17.65 4.05l.4.4q2.45 2.65 2.45 6.4 0 4-2.85 6.85-2.8 2.8-6.8 2.8-3.75 0-6.45-2.4l-.4-.4q-2.8-2.85-2.8-6.85 0-4 2.8-6.8Q6.85 1.2 10.85 1.2q4 0 6.8 2.85m-6.8-.75q-2.2 0-4.1 1.2Q4.95 5.65 4 7.6q.55.2.55.8v4.95q0 .55-.55.8.7 1.4 1.9 2.45l.85.65q1.9 1.2 4.1 1.2 3.1 0 5.35-2.25 2.2-2.25 2.2-5.35 0-2.85-1.85-4.95l-.35-.4q-2.25-2.2-5.35-2.2m1.6 5.1l1.2 2.6q.7 1.4.7 2.6 0 1.4-1 2.45-1 1-2.45 1-1.15 0-1.95-.6l-.45-.4Q7.45 15 7.45 13.6q0-1.15.65-2.5l1.15-2.55 1-3.25.45-1.2.2-.25.2.25.3.85.1.3q.6 2.25.95 3.15" fill="#8cb5e6"/></g></svg>