<svg xmlns="http://www.w3.org/2000/svg" width="24.75" height="21.5" viewBox="0 0 24.75 21.5"><g fill-rule="evenodd"><path fill="#081a15" fill-opacity=".5" d="M4.1-6.1q.55 0 .9.4l2.45 2.6h4.95q.8 0 1.1.7.35.7-.15 1.3l-2.8 3.25L11.7 3.2l.35.35h.25q.5 0 .85.4.35.35.35.8v5.55q0 .55-.35.9l-.85.3h-.7q-.95 0-1.8-.5L8.55 9.85Q7.4 11.5 5.5 11.5q-1.45 0-3.05-1.65l-.9 1q-.95.65-2.15.65-.9 0-1.75-.5L-3.6 9.85q-1.15 1.65-3.05 1.65h-.75l-.85-.3q-.35-.35-.35-.9V4.75q0-.45.35-.8.35-.4.85-.4h.3l.2-.25.55-.7-.35-.6-.9-3.55q-.1-.65.25-1.05.3-.45.9-.45h1.15l-.4-.8-.05-.3q-.05-.55.25-.9l.55-.6q.3-.4.9-.4h.35l-.25-1q-.15-.55.25-1 .3-.45.9-.45h2.55q.7 0 1.05.6l.35.6h.05v.1l.65 1.1H4.1" transform="translate(11.1 10)"/><path d="M9.05 3.25h.05-.05M1.6-7.6q.55 0 .9.4l2.45 2.6H9.9q.8 0 1.1.7.35.7-.15 1.3L8.05.65 9.2 1.7l.35.35h.25q.5 0 .85.4.35.35.35.8V8.8l-.35.9-.85.3h-.7q-.95 0-1.8-.5L6.05 8.35Q4.9 10 3 10 1.55 10-.05 8.35l-.9 1Q-1.9 10-3.1 10q-.9 0-1.75-.5L-6.1 8.35Q-7.25 10-9.15 10h-.75l-.85-.3-.35-.9V3.25q0-.45.35-.8.35-.4.85-.4h.3l.2-.25.55-.7-.35-.6-.9-3.55q-.1-.65.25-1.05.3-.45.9-.45h1.15l-.4-.8-.05-.3q-.05-.55.25-.9l.55-.6q.3-.4.9-.4h.35l-.25-1q-.15-.55.25-1 .3-.45.9-.45h2.55q.7 0 1.05.6l.35.6h.05v.1l.65 1.1H1.6" transform="translate(11.1 10)"/><path fill="#8cb5e6" d="M9.8 8.8h-.7q-.75 0-1.75-.85l-.45-.4-.05-.05L6 6.7l-.5.3-.2.3-.05.15Q4.35 8.8 3 8.8q-.6 0-1.2-.4l-.5-.45-.4-.35-.1-.1-.85-.8q-.45.05-.7.6l-.1.15Q-1.6 8.8-3.1 8.8q-.75 0-1.8-.9l-.05-.05-.25-.25-.1-.1-.85-.8q-.4.05-.7.6l-.1.15Q-7.7 8.8-9.15 8.8h-.75V7.15h.7q.4 0 .6-.5l.15-.25.7-.8.85-.45.8-.1q.6 0 1.25.4l1 .95.8.75q.4-.1.55-.5l.15-.25.7-.8.85-.45.75-.1 1.3.4 1 .95.15.2.45.4.2.15.5-.5.15-.25.7-.75.85-.5.8-.1 1.25.4 1 .95.5.45.35.3h.65V8.8m0-3.85h-.7q-.65 0-1.25-.45l-.55-.45-.15-.15-.3-.3L6 2.85q-.25 0-.5.25l-.2.3-.05.15q-.9 1.4-2.25 1.4-.6 0-1.2-.45l-.55-.45-.15-.15-.3-.3-.85-.75q-.35 0-.7.55l-.1.15q-.8 1.4-2.25 1.4-.6 0-1.2-.45l-.55-.45-.2-.2-.25-.25q-.65-.7-.85-.75-.35 0-.7.55l-.1.15q-.8 1.4-2.2 1.4h-.75v-1.7h.7l.6-.5.15-.25q.85-1.35 2.35-1.35.6 0 1.25.4l1 .95.8.75q.35-.05.55-.5l.15-.25q.9-1.35 2.3-1.35l1.3.4 1 .95.05.1.65.6.1.05.5-.5.15-.25q.85-1.35 2.35-1.35l1.25.4 1 .95.45.45.4.3h.65v1.7M-.4-2.15l-.25-.5q-.3-.3-.7-.3l-.7.3-.3.65.3.7.5.3h.2q.4 0 .7-.3L-.4-2v-.15M-4.4-1h.15q.4 0 .7-.3.3-.3.3-.7v-.15l-.3-.5-.7-.3q-.4 0-.65.3l-.3.65.3.7.5.3M9.9-3.4L7 .05 5.75-.4H5.7l-.75.15Q4.05 0 3.4.95l-.1.25-.55.5-.8-.75-1-.9-1.05-.4-.25-.05-.65.1Q-2.05-.1-2.65.95l-.15.25-.5.5-.4-.35-.2-.15-.25-.25-1-.9L-6.4-.4l-1.15.3-.5.3-.9-3.55h2.45l-.05-2-.4-.15-.05.05-.05-.35.5-.55 1.85-.05-.6-2.4h2.55l1.4 2.4H1.6l2.85 3H9.9M5.35-2.15l-.25-.5-.7-.3q-.4 0-.7.3L3.45-2q0 .45.25.7l.55.3h.15q.45 0 .7-.3l.25-.7v-.15M1.35-1h.2q.4 0 .65-.3l.3-.7v-.15l-.3-.5q-.25-.3-.65-.3t-.7.3q-.3.3-.3.65 0 .45.3.7.2.2.5.3m.75-3.1l-1-1.45-4.95.05-.15.15.15.5.3.45.3.3H2.1" transform="translate(11.1 10)"/></g></svg>
