<svg height="21.05" width="18.65" xmlns="http://www.w3.org/2000/svg"><g fill-rule="evenodd"><path d="M13.1 3.5l-.3 1.2q.95.35 1.8 1.1 1.8 1.45 2.7 3.8l.25.25.05.05q.95.8.95 1.7v.05l.1 1.95q0 1.4-.4 1.85.25.6.05 1.5l-1.05 1.75-.05.05v.05l-.1.05-.85.3-1.65 1.35q-1 .55-1.85.55h-.25q-.75-.15-1.4-.95l-.05-.05-.5-1-.05-.05-.05.05-.55 1.05-1.45.95H8.2q-.85 0-1.85-.55L4.7 19.05l-.8-.35q-.9-.65-1.1-1.75-.25-.85 0-1.45v-.1q-.35-.45-.3-1.8l.1-1.95v-.05q-.05-1.05 1.15-1.9.9-2.45 2.65-3.9l1.85-1.1q-.3-.55-.25-1.2 0-1.05.75-1.75Q9.45 1 10.5 1q1.1 0 1.85.75.7.7.75 1.75" fill="#081a15" fill-opacity=".498"/><path d="M10.6 2.5l-.3 1.2q.95.35 1.8 1.1 1.8 1.45 2.7 3.8l.25.25.05.05q.95.8.95 1.7v.05l.1 1.95q0 1.4-.4 1.85.25.6.05 1.5l-1.05 1.75-.05.05v.05l-.1.05-.85.3-1.65 1.35q-1 .55-1.85.55H10q-.75-.15-1.4-.95l-.05-.05-.5-1L8 18l-.05.05-.55 1.05q-.65.8-1.45.95H5.7q-.85 0-1.85-.55L2.2 18.05l.05.05-.05-.05-.8-.35q-.9-.65-1.1-1.75-.25-.85 0-1.45v-.1q-.35-.45-.3-1.8l.1-1.95v-.05Q.05 9.55 1.25 8.7q.9-2.45 2.65-3.9.9-.75 1.85-1.1-.3-.55-.25-1.2 0-1.05.75-1.75Q6.95 0 8 0q1.1 0 1.85.75.7.7.75 1.75"/><path d="M8 4.25q1.85 0 3.45 1.35 1.35 1.1 2.1 2.75l-.25-.1-5.25-.7q-3.5 0-5.3.7-.15.05-.25.15.75-1.7 2.1-2.8Q6.15 4.25 8 4.25m0-3.3l1.1.45q.5.5.5 1.1l-.15.6L8 2.95l-1.4.15-.15-.6.45-1.1Q7.4.95 8 .95m.05 7.3l5.05.6q1.95.8 1.95 1.75l.1 2.2-1.55-1.25q-1.8-.7-5.55-.7-3.8 0-5.55.7L.95 12.8l.1-2.2q0-.95 1.95-1.75l5.05-.6m6.2 7.7q.35-.7.15-1.4l-.05-.15h.35l.15.25v1.05L14 17.05V17l-.05.05.2-.8.1-.3m-1.95-1l.3-.65-1.85-1.6-.35.6 1.9 1.65m-1.3.45l.35-.55L9.5 13.2l-.4.6 1.9 1.6m1.6 1.5q-1.25 1.65-2.4 1.5-.55-.05-1.15-1-.35-.65-1-.75l-.15-.05v.05q-.65.1-.95.75-.55.95-1.2 1-.5.1-1.2-.35l-1.2-1.15q-.7-.9-.7-2.55L3 13.4l.85-.8L8 12.2l4.1.4q.45.2.85.8l.35.95q0 1.65-.7 2.55m-11-2.15l.05.9.1.3.1.15.2.9-.05-.05q-.65-.5-.8-1.25l-.05-.5.05-.55h-.05l.2-.25h.35l-.1.3v.05" fill="#8cb5e6"/></g></svg>