<svg xmlns="http://www.w3.org/2000/svg" width="28.7" height="23.9" viewBox="0 0 28.7 23.9"><g fill-rule="evenodd"><path fill="#515a57" d="M2.5-7.55l.8-2.2.75-.75.85-.25q2.1 0 2.05 1.85l-.1 1.65q.05.15 2.8 1.05 1.25-.1 3.8 3v.05l2.1 2.75.9-.25 1.4.25.7.5.2.4.1.5q-.15.55-1.3 1.95-.7.75-.7 1.9-.05 2.25-.7 4.05-1 2.55-2.65 2.15l-.9 1.25-.5.2q-.15 0-.45-.2l-.35-.4-.25-.85.1-.65q-.9.85-1.9 1.2L8 12l-1.15.2H4l-1.2-.15-.95-.35-.7-.4-.6-.4L-.6 9.85v.1q-.15 1.1-.85 1.1l-1.1-.8-.9-.8-.75-.8-.75-1.95-1.7-.05q-1.05-.05-1.4-.55l-.2-.85.25-1q.4-.75 1.25-.75l1.3.1-.1-.95.3-1.7Q-4.05-3.65.15-6q1.8 0 2.35-1.55" transform="translate(9.85 11.4)"/><path fill="#181c1d" d="M.85-8.25l.85-2.2.75-.75q.25-.2.85-.2 2.1 0 2.05 1.85l-.1 1.6 2.8 1.1q1.25-.15 3.8 3L13.9-1.1l.9-.25 1.45.25.65.5.25.45.05.5-1.25 1.95q-.7.75-.7 1.85-.05 2.3-.75 4.05-.95 2.55-2.6 2.2l-.9 1.2-.55.25-.45-.25-.3-.4-.25-.8.05-.7q-.85.85-1.85 1.25l-1.3.35-1.15.25-2.8-.05-1.25-.15-.9-.35-.7-.35-.6-.4L-2.2 9.2l-.05.05q-.15 1.15-.8 1.15l-1.1-.85-.95-.8-.7-.8L-6.55 6l-1.7-.05q-1.05 0-1.45-.5l-.15-.85.25-1.05q.35-.75 1.25-.75l1.3.15-.1-.95.25-1.75q1.2-4.6 5.45-6.95 1.8 0 2.3-1.55" transform="translate(9.85 11.4)"/><path fill="#8cb5e6" d="M3.3-1.85q2.65 0 3.6 2.25.5 1.25.5 3.75 0 1.2-.4 1.65l-.9.3-.9.1q-.4.2-.4 1.05l.15 1.35.1-.1h.15l-.4.2q.25.55-.05.95l-.4-.4-.15-.3-.35.25H3.7l-.05-1.5q0-1.35.4-1.95.3-.4.95-.6l.9-.3q.4-.3.4-1.2V3.4l-.2-.1-.8.25q-.35.1-1.1-.65l-.15.1q.1-.5 1-1.25t.9-1.1l-.1-.3-.1-.15.05-.1.25.55V.4l-.75-1-1.55-.45q-1.5 0-2.45 1.2Q.75.75.6 1.4l1.7 1.85-.2.45-.6.3-.5-.1-.5-.1-.2.2v.4q0 .35.45.55l1.05.4q1.45.75 1.45 3.25l-.15.65-.45.4q-.7.2-.75-.85V7.25l-.4-.65-.4-.45-.5.05H.2l.2-.15L.3 6H.05l.15.15-.35-.2-.25-.25-.1.1-.2.05.05-.05.3-.35L-.2 5l-.1-.65-.15-.6.15-.1-.15-1-.1-.95.2.3.2-.9L0 .55V.8L.2.4.3.25Q.35-.3.75-.8 1.6-1.85 3.3-1.85m5.3.05v-.15L8.55-2l-.4-.7-.1.15L8-2.7l-.05-.1.05-.15-.1.1L7.75-3v-.3l-.05-.05-.15-.15L7-3.75l-.1.05-.15.1-.05-.05.15-.2.2-.1-1.1-.75-.75-.25-.3.05-.15.2-.4-.15h-.6l-.15.1-1.1.15-1.4.4-1.35.6q-1.9 1.4-2.9 3.75l-.5 1.6-.15.85.15.45.3.15.35.15.2.35-.25.1-.1.05.2.15.2.1.2.05.05.25-.2.25-.5.2-.5.15-.2.35.05.55.35 1.3.2.5.3.5-.05.2.05.4v.7l-.15.05h-.05l-.15-.05-.05.05h-.1l-.4-.35-.45-.85-.6-.9-.55-.75.1-.05v-.1h-.05l-.15-.3-.15-.25-.05-.35v-.2L-6 5.3l-.55-.1h-.8l-.85-.05q-.85-.1-.85-.55l.25-.3.25-.05-.1-.2-.15-.2.15-.15.3-.05.65.05.65.05.7-.15.1-.3-.05-.75-.1-.55q0-1.45 1.1-3.45l2.25-3.1L-1.1-6l1.4-.55L1.35-7l.3-.3-.05-.25.1-.4.1-.1.1-.1v-.55l.2-.35V-9l-.05.1.05.1.1.05.2-.25.15-.95v-.25H2.5q.3-.4.8-.4l1 .3.2.6-.05.8-.1.8q0 .45.15.75l.3.3.55.2.75.1.5.1.4.05.4.25.3.2.35.1h.05l.8.6 1.2.95.35.25.3.2 1 1 1.65 2.4.25.55.2.15.35-.3.6-.25.75.15.15.15q.1.1.3.1l.25-.05.15-.1v.15l.05.2-.35.7-.7.6-.7.6q-.35.45-.35.9l.05.9.05.9q0 .9-.4 2l-.3.95-.35.95-.85.85-.65.1v-.1h.15l-.25-.15-.15-.05-.3.25-.25.45-.25.55-.4.5-.2-.85.05-.7.1-.55v-.15l-.1-.25-.15.15-.15.1-.05-.25.2-.6.25-.6.05-.2.25-.3.3-1.9v-.2l-.05-.3-.3.15-.4.3q-.55.4-.9.4l-.2-.05-.05-.15q0-.35.75-1l.55-.5.3-.35-.15-.15.05-.1.1-.05-.15.05-.05.05-.15-.1.1-.6-.3-1.15-.5-1.2L9-1.2l-.4-.6M3.1 3.35l.55.5.3.75-.2.4-.4.35-.4-.4-.25-.15.15-.55.1-.25.15-.3v-.35M1.65 8.2l-.1.9-.25.4q-.2 0-.3-.4-.15-.35-.15-.9 0-.5.15-.85.1-.35.3-.35l.25.35.1.85M5.7 9.65L5.3 6.8h.8l-.4 2.85" transform="translate(9.85 11.4)"/></g></svg>
