<svg xmlns="http://www.w3.org/2000/svg" width="17" height="22.5" viewBox="0 0 17 22.5"><g fill-rule="evenodd"><path fill="#081a15" fill-opacity=".5" d="M9.7-8.45l.1.45v19l-.3.7q-.3.3-.7.3H-3.65l-.7-.3-.3-.7V4.35l.3-.7q.3-.3.7-.3h2.5V-.4h-.9q-.4 0-.7-.3l-.3-.7v-1l.3-.7.7-.3h.4q-.4 0-.7-.3l-.3-.7v-1l.3-.7q.3-.3.7-.3h2.6l.25-.45.7-.3h2.75v-.2q0-.45.3-.65l.45-.3.05-.05L8.6-9h.1l.45.1.55.4v.05" transform="translate(7.2 10.5)"/><path d="M7.1-10.05l.15.55v19l-.3.7-.7.3H-6.2l-.7-.3-.3-.7V2.85l.3-.7q.3-.3.7-.3h2.5V-1.9h-.9q-.4 0-.7-.3l-.3-.7v-1l.3-.7q.3-.3.7-.3h.4q-.4 0-.7-.3l-.3-.7v-1l.3-.7.7-.3h2.6l.25-.45.7-.3H2.1v-.2l.25-.6v-.05q.2-.3.55-.35l3.15-.65h.05l.55.1h.05l.4.35" transform="translate(7.2 10.5)"/><path fill="#8cb5e6" d="M3.35 2.75v-2H-1.2v2h4.55m0-3.55v-2.1H-1.2v2.1h4.55M3.1-8.85l3.15-.65v19H-6.2V2.85h3.5V-2.9h-1.9v-1h3.95v-2H-4.2v-1h3.55v-.75H3.1v-1.2" transform="translate(7.2 10.5)"/></g></svg>
