<svg xmlns="http://www.w3.org/2000/svg" width="26.5" height="19.9" viewBox="0 0 26.5 19.9"><g fill-rule="evenodd"><path fill="#081a15" d="M-3.7 6.75l1.05 1.3q2.1-1 4-1.55L.7 6.05l-4.45.65.05.05m10-1.05l3.05.5.45-1.45-4.5.65-.25.3H6.3M3.75-2.15l.3-.9-.4-.05-.35-.05.75-3.1.3.05q3.75.55 6.25 3.3 2.5 2.7 2.5 6.4-.05 2.2-1 4.2l.95.75v.05q1.4 1.3 2.05 2.65l.25.5h-24.5l.95-.6 2.6-1.55q-2.15-2.55-2.15-6-.05-2.85 1.6-5.25Q-4.6-4.1-2-5.35l.25-.1L.15-2.8l-.35.15-.85.4 2.4 2.8 1.3-.3.45.05.1-.5 2.4.85-.3 1 .55 1.15 3.95-.55Q9.45.5 8.15-.9L6.4-2.25l-.25.9-2.4-.8M-.55 3.5l.15-1.05L-3-.65l-.35.45h-.05q-1.25 1.65-1.2 3.7l.05.75 4-.55v-.2" transform="translate(11.15 8.25)"/><path d="M-4.95 6.9l-1.6.8-.6.3-1.75 1h21.15L10.6 6.95l-.85-.7-.5-.35-1.6-.9L7 4.8l-2.7-.45-2.45.2-1 .2q-2.25.55-4.95 1.8l-.7.3-.15.05m5.6-7.95L-.2-.9l-.6.35-.3.25-.45.65-.25.8-.05.35v.1l.15.7.6 1 .05.05.85.55.85.15H.9l.55-.1.7-.35.3-.3.45-.5.3-1.2v-.1L3.15.9l-.1-.35-.5-.75-.1-.1-.9-.6-.65-.15H.65m7.45-3.4Q5.9-6.95 2.55-7.5L2.1-5.7h.1l.7.15 1.05.35.65.3 2 1.55Q8.05-1.8 8.45.15l.1.7.05.65-.05.45-.05.7-.55 1.8 1.6.85q.9-1.8.9-3.8-.05-3.4-2.35-5.95m-4.4.2l.1-.3-1.1-.35-.1.3 1.1.35m-1.95.1l.3-.9-.4-.05-.35-.05.75-3.1.3.05q3.75.55 6.25 3.3 2.5 2.7 2.5 6.4-.05 2.2-1 4.2l.95.75v.05q1.4 1.3 2.05 2.65l.25.5h-24.5l.95-.6 2.6-1.55q-2.15-2.55-2.15-6-.05-2.85 1.6-5.25Q-6.6-6.1-4-7.35l.25-.1 1.9 2.65-.35.15-.85.4 2.4 2.8 1.3-.3.45.05.1-.5 2.4.85-.3 1L3.85.8 7.8.25Q7.45-1.5 6.15-2.9L4.4-4.25l-.25.9-2.4-.8M3.9 1.5l-.2 1.15 4.2-.6.05-.55L7.9.95l-4 .55m.4 2.2l3.05.5.45-1.45-4.5.65-.25.3H4.3M.65.25q.55 0 .9.35.35.4.35.9l-.35.85-.9.35q-.5 0-.85-.35l-.35-.85q0-.5.35-.9Q.15.25.65.25M-5.9-2.6l.45-.6.5-.5.9-.7.6-.35.6-.3-1.1-1.55Q-6.2-5.5-7.6-3.4q-1.5 2.25-1.5 4.9-.05 3.3 2.05 5.7l1.75-.85-.95-1.25-.2-.3-.3-.65-.35-1.1-.1-.7-.05-.85q0-2.25 1.35-4.1m3.35 4.1L-2.4.45-5-2.65l-.35.45h-.05Q-6.65-.55-6.6 1.5l.05.75 4-.55v-.2m.95-2.3l.35-.25L-3.6-3.9l-.9.7 2.45 2.95.45-.55m-.3 4.25l-.55-1.05-4 .55.4 1.1 4.15-.6m-3.8 1.3l1.05 1.3q2.1-1 4-1.55l-.65-.45-4.45.65.05.05" transform="translate(11.15 8.25)"/><path fill="#8cb5e6" d="M3.7-4.25L2.6-4.6l.1-.3 1.1.35-.1.3m4.4-.2q2.3 2.55 2.35 5.95 0 2-.9 3.8l-1.6-.85.55-1.8.05-.7.05-.45-.05-.65-.1-.7q-.4-1.95-1.85-3.5l-2-1.55-.65-.3-1.05-.35-.7-.15h-.1l.45-1.8q3.35.55 5.55 3.05M.65-1.05H.9l.65.15.9.6.1.1.5.75.1.35.05.6v.1l-.3 1.2-.45.5-.3.3-.7.35-.55.1H.65L-.2 3.9l-.85-.55-.05-.05-.6-1-.15-.7v-.1l.05-.35.25-.8.45-.65.3-.25.6-.35.85-.15m-5.6 7.95l.15-.05.7-.3Q-1.4 5.3.85 4.75l1-.2 2.45-.2L7 4.8l.65.2 1.6.9.5.35.85.7L12.25 9H-8.9l1.75-1 .6-.3 1.6-.8M.65.25Q.15.25-.2.6q-.35.4-.35.9l.35.85q.35.35.85.35l.9-.35.35-.85q0-.5-.35-.9Q1.2.25.65.25M3.9 1.5l4-.55.05.55-.05.55-4.2.6.2-1.15m-9.8-4.1Q-7.25-.75-7.25 1.5l.05.85.1.7.35 1.1.3.65.2.3.95 1.25-1.75.85q-2.1-2.4-2.05-5.7 0-2.65 1.5-4.9 1.4-2.1 3.65-3.2l1.1 1.55-.6.3-.6.35-.9.7-.5.5-.45.6m4.3 1.8l-.45.55L-4.5-3.2l.9-.7 2.35 2.85-.35.25m-.3 4.25l-4.15.6-.4-1.1 4-.55.55 1.05" transform="translate(11.15 8.25)"/></g></svg>
