<svg xmlns="http://www.w3.org/2000/svg" width="24.7" height="22.65" viewBox="0 0 24.7 22.65"><g fill-rule="evenodd"><path fill="#081a15" d="M3.1 9.85h-.05l.35.3-.3-.3m.1-13.1l.45.55.5.4.35.5.45.45.25.5.45.45.25.5.4.4.2.45.4.3.1.2 5.2-.8h.2q.6 0 .95.45.45.55.15 1.2l-1 2.15q-1.1 2.05-2.15 3.1l-.1.1.3.3h.15q.55 0 .85.35.35.4.35.85v1.5q0 .5-.35.85l-.85.35h-.6q-1.3 0-2.7-1.4-1.15 1.4-2.75 1.4-1.3 0-2.7-1.4-1.05 1.4-2.75 1.4-1.3 0-2.65-1.4-1.1 1.4-2.8 1.4h-.65l-.85-.35q-.35-.35-.35-.85v-1.5q0-.45.35-.85.4-.35.85-.35h.2l.15-.15.4-.55-.05-.05q-1.95-1.6-2.35-3.85-.2-1.55.5-3 .75-1.5 2.35-2.6 3.9-2.7 4.1-3.6L-1.7-6l-.15-.05q-.5 0-1.3.7Q-4.6-3.4-5.6-3.4l-.45-.05q-.55-.25-.8-.85-.2-.65.4-1.6l.05-.05q-.5-.95.25-2.25l.15-.25q.65-.65 1.6-1l1.95-.35q1.9 0 3.2 1.25 1.35 1.3 1.2 2.95-.1 1.3-1.1 2.5l1.55-.45.8.3" transform="translate(11.1 10.8)"/><path d="M.6 8.85H.55l.35.3-.3-.3M2.9.75l.05-.1-.05.1m7 .1l-.4.9h.05l.35-.9M.6-2.65H.55.6m.1-1.6l.45.55.5.4.35.5.45.45.25.5.45.45.25.5.4.4.2.45.4.3.1.2 5.2-.8h.2q.6 0 .95.45.45.55.15 1.2l-1 2.15Q8.9 5.5 7.85 6.55l-.1.1.3.3h.15q.55 0 .85.35l.35.85v1.5l-.35.85-.85.35h-.6q-1.3 0-2.7-1.4-1.15 1.4-2.75 1.4-1.3 0-2.7-1.4-1.05 1.4-2.75 1.4-1.3 0-2.65-1.4-1.1 1.4-2.8 1.4h-.65q-.45 0-.85-.35-.35-.35-.35-.85v-1.5q0-.45.35-.85.4-.35.85-.35h.2l.15-.15.4-.55-.05-.05q-1.95-1.6-2.35-3.85-.2-1.55.5-3 .75-1.5 2.35-2.6 3.9-2.7 4.1-3.6L-4.2-7l-.15-.05q-.5 0-1.3.7Q-7.1-4.4-8.1-4.4l-.45-.05q-.55-.25-.8-.85-.2-.65.4-1.6l.05-.05q-.5-.95.25-2.25l.15-.25q.65-.65 1.6-1l1.95-.35q1.9 0 3.2 1.25Q-.4-8.25-.55-6.6q-.1 1.3-1.1 2.5l1.55-.45.8.3" transform="translate(11.1 10.8)"/><path fill="#8cb5e6" d="M-4.75 8.95l-.4-.4-.15-.1-.75-.7q-.35 0-.6.55l-.05.1q-.75 1.2-1.95 1.25h-.75v-1.5h.65l.55-.45.1-.25q.8-1.2 2.05-1.2.6 0 1.15.4l.9.8.75.7.45-.45.15-.25q.75-1.2 2.1-1.2.55 0 1.1.4l.9.8.75.7.45-.45.1-.25q.8-1.2 2.1-1.2.9 0 2.05 1.2l.35.35.25.25.15.1h.55v1.5h-.65q-.55 0-1.05-.4l-.9-.8-.75-.7L4.4 8l-.2.3-.05.1q-.7 1.25-2 1.25-.55 0-1.1-.4l-.85-.8-.8-.7q-.35 0-.65.55l-.05.1q-.75 1.25-2 1.25-.55 0-1.1-.4l-.35-.3m10.4-6.6l-.45-.4-.5-.35L9.9.8l-.85 1.9Q8 4.75 7.05 5.65q-1.15-1.1-2.2-1.1-1.1 0-1.9.65l-.3.35-.35.4-.15.25-.75-.75-.15-.1.95-.9Q2.85 3.7 4 3.2l1-.4.8-.15V2.6l-.15-.25m-4.1-3.4l-.1.1v.05q.45-.2.7.2l.15.45-.1.1-.1.1.05.05.35-.05.3.25.15.45-.05.1-.15.15v.05l.75.1.2.35-.05.25-.1.1v.05l.6.2.25.1.3.3-.35.05q-1.05.2-2 .9L.5 4.8l-1.1-.25q-1.55 0-2.55 1.4l-.15.25-.3-.3-1.05-.9q-.7-.45-1.4-.45-1.05 0-1.9.7l-.1-.1q-1.5-1.25-1.8-2.95-.4-2.55 2.3-4.5Q-5.4-3.75-4.4-4.7q1.45-1.25 1.5-2.1l-.1-.55-.4-.5-2.05-.1-1.1.8-.4.6q-.9 1.05-1.2.95l.3-.8q.45-.7.15-.9-.3-.2-.15-.75l.2-.55q.85-.85 2.3-1 1.65-.2 2.75.9l.4.45q.55.7.45 1.55-.1 1.2-1.55 2.6l-3.55 2.8q-1.3.85-1.7 1.95-.3 1.25.75 1.75l.2.05q1.35.4 1.6-.7.5-2.1 3.2-3.85Q-.4-3.7-.05-3.35q.4.3.1.75l.55-.05.15.15.2.25-.05.35-.1.1.35-.05.3.2q.3.35.1.6" transform="translate(11.1 10.8)"/></g></svg>
