<svg height="20.55" width="25.8" xmlns="http://www.w3.org/2000/svg"><g fill-rule="evenodd"><path d="M8.8 9.75l.05-.35q0-1.4.95-2.4l1.3-.85v-.2q0-.75.45-1.3l1.15-.45h1.2q-.25-.35-.25-.85 0-.65.45-1.05.5-.5 1.15-.5.6 0 1.1.5.4.4.4 1.05l-.2.85h1.25l1.1.45q.45.55.45 1.3v.2q.45.15.85.5l.75-.1q1.65-.05 3 1.2 1.35 1.2 1.75 3.2.3 2-.55 3.65-.75 1.7-2.45 2l-.3.05-.75 1.15-.3.35-.2.1-.15.1.3.7v.45l-.35.75-.8.3h-9.9q-.45 0-.75-.3l-.35-.75v-.45l.3-.7-.65-.5-.05-.05q-.95-1-.95-2.4l.15-.95q-1.85-.25-2.5-1-.65-.8-.75-2L4.6 9.2q-.1-1.6-.9-1.95h3.85q.15 3.1.85 2.9l.4-.4m14.05 3.7q.4-.85.25-2.05-.2-1.1-.9-1.7l-.65-.35v.05l.8 4.55.5-.5" fill="#081a15"/><path d="M20.3 9.95q-.2-.95-.8-1.5l.6 3.35q.3-.8.2-1.85M6.05 7.9q0-1.55 1.05-2.6h-.05q.55-.6 1.25-.85 0-.85.5-1.5h.05q.5-.55 1.35-.55h.7l-.05-.55q-.05-.8.55-1.3V.6q.55-.65 1.35-.6.7-.05 1.35.6.45.45.5 1.25l-.05.55h.75q.7-.05 1.35.5v.05q.5.65.55 1.5l.6.35.65-.05Q20.2 4.65 21.7 6q1.4 1.25 1.85 3.4.3 2.1-.6 3.85-.85 1.85-2.7 2.2h-.1l-.75 1.1-.3.35-.1.05.15.6V18l-.45 1q-.4.35-1.05.4h-9.9L6.8 19q-.5-.5-.45-1v-.45l.15-.6-.4-.35-.05-.05Q5 15.45 5 13.9l.1-.65q-1.75-.3-2.4-1.05v-.05Q2 11.3 1.9 10v.05L1.8 7.7q-.1-1.35-.7-1.65L0 5.45h5.35l.05.3.25 2.2.15.4.2-.25.05-.2"/><path d="M12.75 1.05q.8 0 .8.8l-.25.6-.55.2q-.85 0-.85-.8t.85-.8m2.55 2.4l.55.25.3.75h-6.8q0-1 .85-1h5.1m.55 1.8q1 0 1.7.8.75.8.75 1.85V8l1.05 5.95q0 1.05-.7 1.8t-1.7.75H8.5q-1.05 0-1.7-.75-.7-.75-.75-1.8l.3-1.65-.8-.1q-1.6-.15-2-.75-.7-.85-.7-2.95v-.8l-.2-1.2h1.7Q4.6 9.4 5.9 9.4q.55 0 1-.7l.1-.1.05-.15L7.1 8v-.1q0-1.05.75-1.85.7-.8 1.7-.8h6.3m2.6.5q1.35 0 2.5 1.05 1.2 1.05 1.5 2.75.3 1.75-.4 3.25-.7 1.3-1.95 1.6l-.1.35.1-.85-.1-.7.95-.95q.6-1.1.35-2.45t-1.15-2.1l-1.2-.65-.6-1.25.1-.05m-.8 11.5q.4 0 .4.3V18q0 .3-.4.3h-9.9L7.4 18v-.45q0-.3.35-.3h9.9m1-.5l-.15.1-.35.2.5-.3" fill="#8cb5e6"/></g></svg>