<?xml version="1.0" encoding="UTF-8" standalone="no"?>
<svg xmlns:xlink="http://www.w3.org/1999/xlink" height="28.25px" width="25.4px" xmlns="http://www.w3.org/2000/svg">
  <g transform="matrix(1.0, 0.0, 0.0, 1.0, 10.6, 15.6)">
    <use height="28.25" transform="matrix(1.0, 0.0, 0.0, 1.0, -10.6, -15.6)" width="25.4" xlink:href="#shape0"/>
  </g>
  <defs>
    <g id="shape0" transform="matrix(1.0, 0.0, 0.0, 1.0, 10.6, 15.6)">
      <path d="M7.95 12.65 L-0.75 12.65 0.7 9.75 -6.45 8.7 -7.25 8.2 -7.6 7.25 -7.6 6.95 Q-7.6 6.3 -7.15 5.9 -6.75 5.45 -6.15 5.45 L-4.75 5.45 Q-4.35 3.35 -2.35 1.75 -0.4 0.2 2.25 -0.1 L2.25 -1.6 2.2 -1.6 1.25 -3.7 0.5 -3.7 0.5 -6.1 2.65 -6.1 3.6 -14.6 4.6 -6.1 6.7 -6.1 6.7 -3.7 6.0 -3.7 4.95 -1.6 4.95 -0.1 Q7.6 0.2 9.55 1.75 11.55 3.35 11.95 5.45 L13.35 5.45 Q13.95 5.45 14.4 5.9 14.8 6.3 14.8 6.95 L14.8 7.25 Q14.8 8.45 13.65 8.7 L6.5 9.75 7.95 12.65" fill="#081a15" fill-rule="evenodd" stroke="none"/>
      <path d="M0.6 -9.5 L0.35 -7.1 0.9 -7.1 0.6 -9.5 M4.95 11.65 L-3.75 11.65 -2.3 8.75 -9.45 7.7 Q-9.95 7.6 -10.25 7.2 L-10.6 6.25 -10.6 5.95 Q-10.6 5.3 -10.15 4.9 -9.75 4.45 -9.15 4.45 L-7.75 4.45 Q-7.35 2.35 -5.35 0.75 -3.4 -0.8 -0.75 -1.1 L-0.75 -2.6 -0.8 -2.6 -1.75 -4.7 -2.5 -4.7 -2.5 -7.1 -0.35 -7.1 0.6 -15.6 1.6 -7.1 3.7 -7.1 3.7 -4.7 3.0 -4.7 1.95 -2.6 1.95 -1.1 Q4.6 -0.8 6.55 0.75 8.55 2.35 8.95 4.45 L10.35 4.45 Q10.95 4.45 11.4 4.9 11.8 5.3 11.8 5.95 L11.8 6.25 Q11.8 7.45 10.65 7.7 L3.5 8.75 4.95 11.65 M-0.35 -3.3 L1.55 -3.3 2.2 -4.7 -1.0 -4.7 -0.35 -3.3 M-1.8 -5.4 L3.0 -5.4 3.0 -6.4 -1.8 -6.4 -1.8 -5.4 M-9.15 5.15 Q-9.9 5.15 -9.9 5.95 L-9.9 6.25 Q-9.9 6.9 -9.3 7.0 L0.6 8.2 Q4.15 8.2 10.5 7.0 11.1 6.9 11.1 6.25 L11.1 5.95 10.9 5.4 Q10.65 5.15 10.35 5.15 L-9.15 5.15 M5.95 1.15 Q4.2 -0.15 1.95 -0.4 L1.95 4.45 8.25 4.45 Q7.8 2.55 5.95 1.15 M-2.6 10.95 L3.8 10.95 2.75 8.85 0.6 8.9 -1.5 8.85 -2.6 10.95 M1.25 4.45 L1.25 -2.6 -0.05 -2.6 -0.05 4.45 1.25 4.45 M-4.75 1.15 Q-6.65 2.55 -7.05 4.45 L-0.75 4.45 -0.75 -0.4 Q-3.0 -0.15 -4.75 1.15" fill="#000000" fill-rule="evenodd" stroke="none"/>
      <path d="M5.5 1.95 L6.0 2.5 6.85 3.65 2.75 3.65 5.5 1.95 M-4.4 1.95 L-1.7 3.65 -5.8 3.65 -4.9 2.5 -4.4 1.95 M4.5 1.4 L2.75 2.65 2.75 0.5 Q3.5 0.75 4.5 1.4 M-3.45 1.4 L-1.7 0.5 -1.7 2.65 -3.45 1.4" fill="#000000" fill-rule="evenodd" stroke="none"/>
      <path d="M5.95 1.15 Q7.8 2.55 8.25 4.45 L1.95 4.45 1.95 -0.4 Q4.2 -0.15 5.95 1.15 M5.5 1.95 L2.75 3.65 6.85 3.65 6.0 2.5 5.5 1.95 M-9.15 5.15 L10.35 5.15 Q10.65 5.15 10.9 5.4 L11.1 5.95 11.1 6.25 Q11.1 6.9 10.5 7.0 4.15 8.2 0.6 8.2 L-9.3 7.0 Q-9.9 6.9 -9.9 6.25 L-9.9 5.95 Q-9.9 5.15 -9.15 5.15 M0.6 -9.5 L0.9 -7.1 0.35 -7.1 0.6 -9.5 M-0.35 -3.3 L-1.0 -4.7 2.2 -4.7 1.55 -3.3 -0.35 -3.3 M-1.8 -5.4 L-1.8 -6.4 3.0 -6.4 3.0 -5.4 -1.8 -5.4 M4.5 1.4 Q3.5 0.75 2.75 0.5 L2.75 2.65 4.5 1.4 M1.25 4.45 L-0.05 4.45 -0.05 -2.6 1.25 -2.6 1.25 4.45 M-2.6 10.95 L-1.5 8.85 0.6 8.9 2.75 8.85 3.8 10.95 -2.6 10.95 M-4.4 1.95 L-4.9 2.5 -5.8 3.65 -1.7 3.65 -4.4 1.95 M-4.75 1.15 Q-3.0 -0.15 -0.75 -0.4 L-0.75 4.45 -7.05 4.45 Q-6.65 2.55 -4.75 1.15 M-3.45 1.4 L-1.7 2.65 -1.7 0.5 -3.45 1.4" fill="#8cb5e6" fill-rule="evenodd" stroke="none"/>
    </g>
  </defs>
</svg>
