<svg height="28.25" width="25.4" xmlns="http://www.w3.org/2000/svg"><g fill-rule="evenodd"><path d="M18.55 28.25h-8.7l1.45-2.9-7.15-1.05-.8-.5-.35-.95v-.3q0-.65.45-1.05.4-.45 1-.45h1.4q.4-2.1 2.4-3.7 1.95-1.55 4.6-1.85V14h-.05l-.95-2.1h-.75V9.5h2.15L14.2 1l1 8.5h2.1v2.4h-.7L15.55 14v1.5q2.65.3 4.6 1.85 2 1.6 2.4 3.7h1.4q.6 0 1.05.45.4.4.4 1.05v.3q0 1.2-1.15 1.45l-7.15 1.05 1.45 2.9" fill="#081a15"/><path d="M11.2 6.1l-.25 2.4h.55l-.3-2.4m4.35 21.15h-8.7l1.45-2.9-7.15-1.05q-.5-.1-.8-.5L0 21.85v-.3q0-.65.45-1.05.4-.45 1-.45h1.4q.4-2.1 2.4-3.7 1.95-1.55 4.6-1.85V13H9.8l-.95-2.1H8.1V8.5h2.15L11.2 0l1 8.5h2.1v2.4h-.7L12.55 13v1.5q2.65.3 4.6 1.85 2 1.6 2.4 3.7h1.4q.6 0 1.05.45.4.4.4 1.05v.3q0 1.2-1.15 1.45l-7.15 1.05 1.45 2.9m-5.3-14.95h1.9l.65-1.4H9.6l.65 1.4M8.8 10.2h4.8v-1H8.8v1M1.45 20.75q-.75 0-.75.8v.3q0 .65.6.75l9.9 1.2q3.55 0 9.9-1.2.6-.1.6-.75v-.3l-.2-.55q-.25-.25-.55-.25H1.45m15.1-4q-1.75-1.3-4-1.55v4.85h6.3q-.45-1.9-2.3-3.3M8 26.55h6.4l-1.05-2.1-2.15.05-2.1-.05-1.1 2.1m3.85-6.5V13h-1.3v7.05h1.3m-6-3.3q-1.9 1.4-2.3 3.3h6.3V15.2q-2.25.25-4 1.55"/><path d="M16.1 17.55l.5.55.85 1.15h-4.1l2.75-1.7m-9.9 0l2.7 1.7H4.8l.9-1.15.5-.55m8.9-.55l-1.75 1.25V16.1q.75.25 1.75.9m-7.95 0l1.75-.9v2.15L7.15 17"/><path d="M16.55 16.75q1.85 1.4 2.3 3.3h-6.3V15.2q2.25.25 4 1.55m-.45.8l-2.75 1.7h4.1l-.85-1.15-.5-.55m-14.65 3.2h19.5q.3 0 .55.25l.2.55v.3q0 .65-.6.75-6.35 1.2-9.9 1.2l-9.9-1.2q-.6-.1-.6-.75v-.3q0-.8.75-.8M11.2 6.1l.3 2.4h-.55l.25-2.4m-.95 6.2l-.65-1.4h3.2l-.65 1.4h-1.9M8.8 10.2v-1h4.8v1H8.8m6.3 6.8q-1-.65-1.75-.9v2.15L15.1 17m-3.25 3.05h-1.3V13h1.3v7.05M8 26.55l1.1-2.1 2.1.05 2.15-.05 1.05 2.1H8m-1.8-9l-.5.55-.9 1.15h4.1l-2.7-1.7m-.35-.8q1.75-1.3 4-1.55v4.85h-6.3q.4-1.9 2.3-3.3m1.3.25l1.75 1.25V16.1l-1.75.9" fill="#8cb5e6"/></g></svg>