<svg height="22.55" width="24.1" xmlns="http://www.w3.org/2000/svg"><g fill-rule="evenodd"><path d="M7.1 5.6l.5-.15h-.5v.15m9.65 1.05l.7.45V5.6l-.7 1.05m-.2 1.75l.35 1.25h1.15V9.3L18 9.1h-.55V7.3l-.9 1.1m-3-.15l-.15-.85h-1.7V5.55l-.05.05v6.25h1.3v-2.2h1.85l-1.25-1.4m.7-2.65l-.3-.4v.7l.3-.3m6.55-2.65l1 .75.45.8q.1.5-.25.9l-.9 1.15 1.2.8.5.75-.15.9-.7 1.05-.6.45 1.2 1.1q.5.5.3 1.15l-.5 2.35v.05h.55q.5 0 .85.35t.35.85v5q0 .55-.35.85-.35.35-.85.35H4.8q-.55 0-.9-.35l-.3-.85v-3.6q-.75-.1-1-.8-.3-.75.3-1.3l1.8-1.6q.35-.3.75-.3.5 0 .8.3l.55.4-.25-1.25q-.15-.7.35-1.15l1.2-1-.7-.6q-.3-.7.1-1.25L9.15 7l-.1-.7-1.6.45-.35.05-.65-.2-.55-.9-.05-1q-.1-.9.8-1.2l3.9-1.4.4-.1.65.25.55.75q.3-.4.8-.4.6 0 1 .55l1.25 1.7.25.85q0 .45-.35.75l-.55.5.15.75.65.8.25-.8.2-.25V7.4q-.55-.65-.05-1.4l.65-1.05q.4-.55 1.05-.55l.6.15 1.05-1.4q.3-.4.85-.45h.15l.7.25M9 9.15h.55v-.7l-.55.7-.55.75H9v-.75m-5.3 7.4h.95v-.85l-.95.85" fill="#081a15"/><path d="M16.9 3.45V2.8l-.65.8h.2v1.1H17l.95-1.25H16.9M1.2 14.55h.95v-.85l-.95.85m5.3-7.4h.55v-.7l-.55.7-.55.75h.55v-.75M4.6 3.6l.5-.15h-.5v.15m7.15 0l-.3-.4v.7l.3-.3m-.7 2.65l-.15-.85H9.2V3.55l-.05.05v6.25h1.3v-2.2h1.85l-1.25-1.4m3.2-1.6l.7.45V3.6l-.7 1.05m-.2 1.75l.35 1.25h1.15V7.3l-.05-.2h-.55V5.3l-.9 1.1M18.3.95l1 .75.45.8q.1.5-.25.9l-.9 1.15 1.2.8.5.75-.15.9-.7 1.05-.6.45 1.2 1.1q.5.5.3 1.15l-.5 2.35v.05h.55q.5 0 .85.35t.35.85v5l-.35.85q-.35.35-.85.35H2.3q-.55 0-.9-.35l-.3-.85v-3.6q-.75-.1-1-.8-.3-.75.3-1.3l1.8-1.6q.35-.3.75-.3.5 0 .8.3l.55.4-.25-1.25q-.15-.7.35-1.15l1.2-1q-.5-.2-.7-.6-.3-.7.1-1.25L6.65 5l-.1-.7-1.6.45-.35.05-.65-.2q-.45-.35-.55-.9l-.05-1q-.1-.9.8-1.2L8.05.1l.4-.1.65.25q.45.25.55.75.3-.4.8-.4.6 0 1 .55l1.25 1.7.25.85q0 .45-.35.75l-.55.5.15.75.65.8.25-.8.2-.25V5.4q-.55-.65-.05-1.4l.65-1.05q.4-.55 1.05-.55l.6.15 1.05-1.4q.3-.4.85-.45h.15l.7.25"/><path d="M13.85 11.35l1.2-1.1-1-3.75.95-1.3-.75-.5.65-1.05.9.55 1.75-2.25.95.75-1.65 2.2 2.25 1.5-.65 1.05-2.4-1.55-.65.85.7 2.55.85-.8 2.25 2.05v.05l-.55 2.3H17.4v2.55h1.25V14.4h1.75v5.05h-1.6V17h-1.3v2.45h-6.4V15.9H9.8v3.55H6.1V16.2H4v3.25H2.25V14.6H1.2L2.95 13l1.25 1.1 1.4-.75-.4-2.3L7 9.45v-1.5H5.95l1.9-2.55-.2-2.6-3.05.85-.1-.95 3.95-1.4.2 3 1.8-2.4 1.3 1.75-1.05 1L11 6.3l2.05 2.25.8.25v2.55m-1.7 2.35V9.3h-1.3v4.4h1.3m2.75 1.75h1.3V12.9h-1.3v2.55M9.7 13.7V9.3H8.4v4.4h1.3" fill="#8cb5e6"/></g></svg>