<svg height="22.15" width="25" xmlns="http://www.w3.org/2000/svg"><g fill-rule="evenodd"><path d="M14.1 3.3l4.35 5.85.15.35q.35-.3.8-.3l.85.3 4.35 4.05q.6.55.3 1.3-.25.65-.95.75v5.35l-.35.85q-.35.35-.85.35H5.25q-.5 0-.85-.35l-.35-.85v-3.5q-.7-.05-1-.75-.25-.75.35-1.3L8.35 11l-.65-.6q-.3-.65.15-1.25l1.6-2.1V2.7l.35-.85q.35-.35.85-.35h.75l.85.35.35.85v.25l.55-.1q.55 0 .95.45" fill="#081a15"/><path d="M11.1 1.8l4.35 5.85.15.35.8-.3q.55 0 .85.3l4.35 4.05q.6.55.3 1.3-.25.65-.95.75v5.35l-.35.85q-.35.35-.85.35H2.25q-.5 0-.85-.35l-.35-.85v-3.5q-.7-.05-1-.75-.25-.75.35-1.3l4.95-4.4-.65-.6q-.3-.65.15-1.25l1.6-2.1V1.2L6.8.35Q7.15 0 7.65 0h.75q.5 0 .85.35.35.4.35.85v.25l.55-.1q.55 0 .95.45"/><path d="M9.45 13.95v-4.3h-1.3v4.3h1.3m8.6 1.7v-2.5H16.8v2.5h1.25m-2.35 0v-2.5h-1.25v2.5h1.25m-3.95-1.7v-4.3h-1.2v4.3h1.2m4.65-5.1l4.35 4.05H19.7v6.55h-1.5V17.1h-1.25v2.35H10.8v-3.4H9.55v3.4h-3.6v-3.1h-2v3.1h-1.7V14.8H1.2l5.6-5V8.4h-1l1.85-2.5V1.2h.75v3.65l1.75-2.3 4.3 5.85h-1v3.25l2.95-2.8" fill="#7fa4cf"/></g></svg>