<svg height="19.65" width="25.8" xmlns="http://www.w3.org/2000/svg"><g fill-rule="evenodd"><path d="M11.4 0h1.95l-.4 2.05H15L14.5 0h2l.85 2.05h1.3L20.3 5.6h-1.55l.1.25h1.6l2.25 4.5h-2.05l.4.85h2.1l.1.15 2.55 5.2h-2.6l1.25 3.1h-5.3l-.7-3.1H9.5l-.8 3.1H3.45l1.25-3.1H2l2.65-5.35h2.2l.35-.85H5.1l2.25-4.5h1.7l.1-.25H7.5l1.75-3.55h1.3L11.4 0" fill="#081a15"/><path d="M9.4 0h1.95l-.4 2.05H13L12.5 0h2l.85 2.05h1.3L18.3 5.6h-1.55l.1.25h1.6l2.25 4.5h-2.05l.4.85h2.1l.1.15 2.55 5.2h-2.6l1.25 3.1h-5.3l-.7-3.1H7.5l-.8 3.1H1.45l1.25-3.1H0l2.65-5.35h2.2l.35-.85H3.1l2.25-4.5h1.7l.1-.25H5.5l1.75-3.55h1.3L9.4 0"/><path d="M16 3.05l.7 1.5h-.75l-.6-1.5H16m-6.6 3.8h5.05l.6 2.45h-6.2l.55-2.45m8.4 0l1.25 2.45H17.9l-1-2.45h.9m-7.5-3.8h3.25l.35 1.5H9.95l.35-1.5m3.5-2l7.1 17.55h-2.95L13.8 1.05M8.15 12.2h7.6l.75 3.3H7.35l.8-3.3m12.35 0l1.65 3.3H20.4l-1.35-3.3h1.45M7.1 4.55l.75-1.5h.65l-.6 1.5h-.8M4.75 9.3l1.2-2.45h1l-1 2.45h-1.2m5.3-8.25L5.9 18.6H2.95l7.1-17.55M1.65 15.5l1.65-3.3h1.5l-1.55 3.85.2-.55h-1.8" fill="#8cb5e6"/></g></svg>