<svg height="18.75" width="22.1" xmlns="http://www.w3.org/2000/svg"><g fill-rule="evenodd"><path d="M7.6 18.55l-.1-.05-.35-.2-.15.15-.7.3H3.1l-.7-.3-.3-.7v-.9l.15-.45 1.65-3.15-.2-.2-.3-.3-.1-.1q-.6-.8-.6-1.9 0-1.3.9-2.2V8.5q.75-.75 1.7-.9l-.45-5 .1-.55.4-.4.5-.15H9.5l.55.15.35.4.1.55-.45 4.95h2.2V6.3h-.4q-.4 0-.65-.25-.3-.25-.35-.6-.05-.4.2-.7l.85-1.3.35-.3.45-.15h7.8q.65 0 1.1.5.55.45.5 1.05v.15q0 .65-.5 1.15-.4.45-1.1.45v1.35l.3.2.3.7v6.05l-.3.7-.7.3q-.1 1.25-.95 2.15h-.05q-.95 1-2.35 1l-1.2-.2h.05q-.7-.2-1.2-.8l-.05-.05q-.85-.9-.95-2.1h-1.2q-.1 1.25-1 2.15-1 1-2.4 1l-1.2-.2" fill="#081a15"/><path d="M5.5 17.05L5.4 17l-.35-.2-.15.15-.7.3H1l-.7-.3-.3-.7v-.9l.15-.45 1.65-3.15-.2-.2-.3-.3-.1-.1q-.6-.8-.6-1.9 0-1.3.9-2.2V7q.75-.75 1.7-.9l-.45-5 .1-.55.4-.4.5-.15H7.4l.55.15.35.4.1.55-.45 4.95h2.2V4.8h-.4l-.65-.25-.35-.6.2-.7.85-1.3.35-.3.45-.15h7.8q.65 0 1.1.5.55.45.5 1.05v.15q0 .65-.5 1.15-.4.45-1.1.45v1.35l.3.2.3.7v6.05l-.3.7-.7.3q-.1 1.25-.95 2.15H17q-.95 1-2.35 1l-1.2-.2h.05q-.7-.2-1.2-.8l-.05-.05q-.85-.9-.95-2.1h-1.2q-.1 1.25-1 2.15-1 1-2.4 1l-1.2-.2"/><path d="M3.1 11.4l-.1-.1-1-.75q-.4-.55-.4-1.3 0-.9.6-1.55.65-.65 1.55-.65h.55L3.75 1H7.4l-.55 6.05h4.3V3.8h-1.4l.85-1.3h7.8l.4.2.2.35v.15l-.2.45-.4.15h-1v3.25h.6v6.05h-1.15l.15.75q0 1-.7 1.7-.65.7-1.65.7l-.85-.15-.8-.55q-.7-.7-.7-1.7v-.2l.1-.55H8.95l.15.75q0 1-.7 1.7t-1.7.7l-.85-.15-.35-.2-.15-.1-.7-.8-.45 1.25H1v-.9l2.1-3.95" fill="#8cb5e6"/></g></svg>