<svg height="23.3" width="24.65" xmlns="http://www.w3.org/2000/svg"><g fill-rule="evenodd"><path d="M13.55 13.45q.55 0 .9-.35t.35-.9q0-.45-.35-.85-.35-.35-.9-.35-.5 0-.85.35-.4.4-.4.85 0 .55.4.9.35.35.85.35m2.9-12.3l.25 2.75.6.2 2.1-1.7 4 3.95-1.7 2.15.2.6 2.75.3v5.65l-2.75.2-.2.7 1.7 2.1-4 4.05-2.1-1.75-.6.25-.25 2.7H10.7l-.25-2.7-.65-.25-2.05 1.75-4.05-4.05 1.75-2.1-.2-.7-2.8-.2V9.4l2.8-.3.2-.6L3.7 6.35 7.75 2.4 9.8 4.1l.65-.2.25-2.75h5.75" fill="#081a15"/><path d="M13.95.45l.25 2.25.8.35 1.75-1.45.35-.1.3.15 3.25 3.25.15.35-.1.35-1.45 1.7.35.8 2.25.2.35.2.1.3v4.65l-.1.35-.35.15-2.3.2-.3.8 1.45 1.75.1.35-.15.3-3.25 3.3-.3.15-.35-.1L15 19.2l-.8.35-.25 2.25-.15.35-.35.1h-4.6l-.3-.1-.2-.35-.2-2.25-.8-.35-1.75 1.5-.35.1-.35-.15-3.25-3.3-.15-.3.15-.35 1.45-1.75-.35-.8-2.3-.2-.3-.15-.15-.35V8.8l.15-.3.3-.2 2.3-.2.35-.8-1.45-1.7-.15-.35.15-.35L4.9 1.65l.35-.15.3.1 1.8 1.45.8-.35.2-2.25.2-.3.3-.15h4.6l.35.15.15.3m1 4.3L12.9 3.9l-.2-.15-.1-.25-.15-1.85h-2.6L9.7 3.5l-.1.25-.2.15-2.05.85-.25.05-.25-.1-1.5-1.2-1.8 1.8 1.2 1.5.1.25v.25l-.8 2.05-.2.2q-.1.1-.25.1l-1.95.2v2.55l1.95.2q.15 0 .25.1l.2.25.8 2.05v.25l-.1.25-1.2 1.45 1.8 1.8 1.5-1.25.25-.1.25.05 2.05.85.2.15.1.25.15 1.9h2.6l.15-1.9.1-.25.2-.15 2.05-.85.3-.05.25.1 1.5 1.25 1.8-1.8-1.25-1.45-.15-.25.05-.3.85-2.05.15-.2.25-.1 1.95-.2V9.85l-1.95-.2-.25-.1-.15-.2-.85-2.05-.05-.25.15-.25 1.25-1.5L17 3.5l-1.55 1.2-.2.1-.3-.05m-3.8 3.35q1.25 0 2.15.85.9.9.9 2.15t-.9 2.15q-.9.9-2.15.9t-2.1-.85v-.05q-.95-.9-.95-2.15t.95-2.15q.85-.85 2.1-.85m1 2q-.4-.4-1-.4t-1 .4h.05l-.45 1q0 .6.4 1t1 .4q.6 0 1-.4t.4-1q0-.55-.4-1" fill="#081a15"/><path d="M21.15 12.85l-2.4.25-.85 2.05 1.55 1.8L17 19.4l-1.85-1.5-2.05.85-.2 2.35H9.4l-.2-2.35-2.05-.85-1.85 1.5-2.45-2.45 1.5-1.8-.8-2.05-2.4-.25V9.4l2.4-.25.8-2.05-1.5-1.85 2.45-2.4L7.15 4.3l2.05-.85.2-2.3h3.5l.2 2.3 2.05.85L17 2.85l2.45 2.4L17.9 7.1l.85 2.05 2.4.25v3.45m-10-4.25q-1.05 0-1.75.7-.8.75-.8 1.8t.8 1.8q.7.75 1.75.75t1.8-.75q.75-.75.75-1.8t-.75-1.8q-.75-.7-1.8-.7" fill="#8cb5e6"/></g></svg>