<svg height="22.35" width="23.25" xmlns="http://www.w3.org/2000/svg"><radialGradient cx="0" cy="0" gradientTransform="scale(.0118)" gradientUnits="userSpaceOnUse" id="a" r="819.2" spreadMethod="pad"><stop offset="0" stop-color="#f8df89"/><stop offset="1" stop-color="#f5cb5b"/></radialGradient><radialGradient cx="0" cy="0" gradientTransform="matrix(.002 0 0 .002 2.35 -.45)" gradientUnits="userSpaceOnUse" id="b" r="819.2" spreadMethod="pad"><stop offset="0" stop-color="#f8df89"/><stop offset="1" stop-color="#f5cb5b"/></radialGradient><radialGradient cx="0" cy="0" gradientTransform="translate(-3 -1.4) scale(.0026)" gradientUnits="userSpaceOnUse" id="c" r="819.2" spreadMethod="pad"><stop offset="0" stop-color="#f8df89"/><stop offset="1" stop-color="#f5cb5b"/></radialGradient><g fill-rule="evenodd"><path d="M14.25 2q1-.05 1.25 1.05l.1.55 1.45.55.4-.3q.5-.35.8-.3.45-.05.95.45l1.9 1.85V5.8q.8.75.2 1.65V7.4l-.3.5.6 1.45.65.2h-.05q.95.1 1 1.15l.05 2.7q0 1-1 1.25l-.6.15-.55 1.45.25.45v-.05q.65.95-.2 1.75l-1.75 1.8q-.4.4-.95.4l-.65-.2-.55-.3-1.5.65-.2.6h-.05q-.25.7-.85.9l.15-.05-.3.15h-3.25l-.2-.1q-.65-.2-.85-.95l-.15-.55-1.6-.65-.5.25-.7.25-.6-.15-.05-.05-.3-.2-.1-.05v-.05h-.1l.1-.05-1.6-1.65q-.8-.8-.2-1.7l.3-.45-.65-1.45-.55-.15q-1.05-.25-1-1.25l.05-2.7q-.05-1 .9-1.15l.3-.1h.05l.35-.05.6-1.5-.3-.45q-.55-.9.2-1.6L6.55 4q.45-.5.9-.45.5 0 .85.3l.4.3 1.45-.55.1-.6v.05q.2-1.1 1.2-1.05h2.8"/><path d="M11.75 0q1-.05 1.25 1.05l.1.55 1.45.55.4-.3q.5-.35.8-.3.45-.05.95.45l1.9 1.85V3.8q.8.75.2 1.65V5.4l-.3.5.6 1.45.35.1.3.1h-.05q.95.1 1 1.15l.05 2.7q0 1-1 1.25l-.6.15-.55 1.45.25.45v-.05q.65.95-.2 1.75l-1.75 1.8q-.4.4-.95.4l-.65-.2-.55-.3-1.5.65-.2.6H13q-.25.7-.85.9l.15-.05-.3.15H8.75l-.1-.05-.1-.05q-.65-.2-.85-.95l-.15-.55-1.6-.65-.5.25-.7.25-.6-.15-.05-.05-.3-.2-.1-.05v-.05h-.1l.1-.05-1.6-1.65q-.8-.8-.2-1.7l.3-.45-.65-1.45-.55-.15q-1.05-.25-1-1.25l.05-2.7Q0 7.65 1 7.55H.95l.3-.1h.05l.35-.05.6-1.5-.3-.45q-.55-.9.2-1.6L4.05 2q.45-.5.9-.45l.85.3.4.3 1.45-.55.1-.6v.05q.2-1.1 1.2-1.05h2.8"/><path d="M5.45-7.55l.15.1L7.5-5.6l.05.35-.5.8-.05.4.85 1.9q.1.25.35.3l.95.2.15.2.05 2.7-.2.25-1 .2-.25.25q-.25 1.2-.8 2v.35l.5.75q.15.3-.05.5L5.8 7.3l-.15.1h-.1l-.1-.05-.85-.45-.15-.05-.05-.05-.05.05-.15.05-1.95.8-.3.3-.25.9-.2.25h-3l-.2-.25-.25-.9-.3-.3-1.95-.8-.1-.05-.1-.05-.05.05-.15.05-.8.45-.15.05h-.05l-.2-.1-1.75-1.75q-.2-.2-.05-.5l.5-.75v-.35q-.6-1-.8-2l-.25-.25-1-.2-.2-.25.05-2.7.15-.2.95-.2q.25-.05.35-.3l.85-1.9-.05-.4-.5-.8.05-.35 1.9-1.85.15-.1h.2l.1.05.8.55v.05l.15.05h.05l.05-.05 2-.8.3-.3.2-.95.2-.2h2.8l.2.2.2.95.3.3 2 .8.1.05h.05l.1-.1.8-.55.15-.05h.15M-3.3 3l-.7-.05-.6-.25-.15 1.25.7.3.75.05q1.15 0 1.95-.85.75-.85.75-2.4v-2.1q0-1.65-.7-2.5-.65-.9-1.75-.9-1.05 0-1.7.85-.65.9-.65 2.2 0 1.4.55 2.15.5.8 1.5.8l.6-.2.5-.45v.25q0 .9-.3 1.35-.3.5-.75.5m7.9-2v-5.35H2.95L.2 1.3l.1 1.05h2.65V4.2H4.6V2.35h.7V1h-.7" fill="url(#a)" transform="translate(10.4 10.15)"/><path d="M1.7 1l1.15-2.8.1-.15V1H1.7" fill="url(#b)" transform="translate(10.4 10.15)"/><path d="M-3.05.25l-.55-.4-.2-1.25.2-1.2.55-.5.6.45.2 1.4v1l-.35.4-.45.1" fill="url(#c)" transform="translate(10.4 10.15)"/></g></svg>