<svg height="22.35" width="23.25" xmlns="http://www.w3.org/2000/svg"><radialGradient cx="0" cy="0" gradientTransform="scale(.0119)" gradientUnits="userSpaceOnUse" id="a" r="819.2" spreadMethod="pad"><stop offset="0" stop-color="#f8df89"/><stop offset="1" stop-color="#f5cb5b"/></radialGradient><radialGradient cx="0" cy="0" gradientTransform="translate(2.85 1.4) scale(.0026)" gradientUnits="userSpaceOnUse" id="b" r="819.2" spreadMethod="pad"><stop offset="0" stop-color="#f8df89"/><stop offset="1" stop-color="#f5cb5b"/></radialGradient><g fill-rule="evenodd"><path d="M14.25 2q1-.05 1.25 1.05l.1.55 1.45.55.4-.3q.5-.35.8-.3.45-.05.95.45l1.9 1.85V5.8q.8.75.2 1.65V7.4l-.3.5.6 1.45.65.2h-.05q.95.1 1 1.15l.05 2.7q0 1-1 1.25l-.6.15-.55 1.45.25.45v-.05q.65.95-.2 1.75l-1.75 1.8q-.4.4-.95.4l-.65-.2-.55-.3-1.5.65-.2.6h-.05q-.25.7-.85.9l.15-.05-.3.15h-3.25l-.2-.1q-.65-.2-.85-.95l-.15-.55-1.6-.65-.5.25-.7.25-.6-.15-.05-.05-.3-.2-.1-.05v-.05h-.1l.1-.05-1.6-1.65q-.8-.8-.2-1.7l.3-.45-.65-1.45-.55-.15q-1.05-.25-1-1.25l.05-2.7q-.05-1 .9-1.15l.3-.1h.05l.35-.05.6-1.5-.3-.45q-.55-.9.2-1.6L6.55 4q.45-.5.9-.45.5 0 .85.3l.4.3 1.45-.55.1-.6v.05q.2-1.1 1.2-1.05h2.8"/><path d="M11.75 0q1-.05 1.25 1.05l.1.55 1.45.55.4-.3q.5-.35.8-.3.45-.05.95.45l1.9 1.85V3.8q.8.75.2 1.65V5.4l-.3.5.6 1.45.35.1.3.1h-.05q.95.1 1 1.15l.05 2.7q0 1-1 1.25l-.6.15-.55 1.45.25.45v-.05q.65.95-.2 1.75l-1.75 1.8q-.4.4-.95.4l-.65-.2-.55-.3-1.5.65-.2.6H13q-.25.7-.85.9l.15-.05-.3.15H8.75l-.1-.05-.1-.05q-.65-.2-.85-.95l-.15-.55-1.6-.65-.5.25-.7.25-.6-.15-.05-.05-.3-.2-.1-.05v-.05h-.1l.1-.05-1.6-1.65q-.8-.8-.2-1.7l.3-.45-.65-1.45-.55-.15q-1.05-.25-1-1.25l.05-2.7Q0 7.65 1 7.55H.95l.3-.1h.05l.35-.05.6-1.5-.3-.45q-.55-.9.2-1.6L4.05 2q.45-.5.9-.45l.85.3.4.3 1.45-.55.1-.6v.05q.2-1.1 1.2-1.05h2.8"/><path d="M3.25-4.45q-1.3 0-2.1.95T.35-.85V.9q0 1.65.7 2.55.7.85 1.85.85 1.05 0 1.75-.8.65-.8.65-2.1T4.8-.7q-.55-.8-1.45-.8l-.75.1-.6.45q0-1.05.35-1.6.3-.55.9-.55l.6.05.5.2.3-1.25L4-4.35l-.75-.1m2-3.05l.2-.05.15.1L7.5-5.6l.05.35-.55.8q-.15.2 0 .4l.8 1.9q.1.25.35.3l1 .2.1.2.05 2.7-.2.25-.95.2-.25.25-.85 2q-.05.25.05.35l.5.75q.15.25-.05.5L5.75 7.3l-.25.1-.1-.05-.85-.45-.15-.05-.05-.05-.05.05-.1.05-2 .8-.3.3-.25.9-.15.25h-3.05l-.15-.25-.25-.9-.3-.3q-1-.2-2-.8l-.15-.05-.05-.05-.05.05-.1.05-.85.45-.2.05h-.05l-.1-.1-1.8-1.75q-.2-.2-.05-.5l.5-.75q.15-.15 0-.35l-.8-2q-.05-.2-.25-.25l-1-.2-.15-.25v-2.7l.15-.2 1-.2.3-.3.85-1.9q.15-.2 0-.4l-.55-.8.05-.35 1.95-1.85.35-.05h.05l.8.55.1.05.05.05.1-.05 2.05-.8.25-.3.2-.95.25-.2h2.75l.25.2.2.95.25.3 2 .8.15.05.15-.1.8-.55h.1M-.55-3v-1.35H-5.5V-3h3.35q-.9 1.3-1.35 2.85-.5 1.6-.65 3.55l-.05.8h1.6l.1-.8q.15-2.3.5-3.6.3-1.3 1.45-2.8" fill="url(#a)" transform="translate(10.4 10.15)"/><path d="M2.9-.2l.55.4.2 1.2-.2 1.15L2.9 3q-.45 0-.65-.55Q2 1.95 2 .9V.25q.1-.25.35-.35l.55-.1" fill="url(#b)" transform="translate(10.4 10.15)"/></g></svg>