<svg height="22.35" width="23.25" xmlns="http://www.w3.org/2000/svg"><radialGradient cx="0" cy="0" gradientTransform="translate(-.05) scale(.0118)" gradientUnits="userSpaceOnUse" id="a" r="819.2" spreadMethod="pad"><stop offset="0" stop-color="#f8df89"/><stop offset="1" stop-color="#f5cb5b"/></radialGradient><radialGradient cx="0" cy="0" gradientTransform="translate(-2.85 1.45) scale(.0026)" gradientUnits="userSpaceOnUse" id="b" r="819.2" spreadMethod="pad"><stop offset="0" stop-color="#f8df89"/><stop offset="1" stop-color="#f5cb5b"/></radialGradient><g fill-rule="evenodd"><path d="M14.25 2q1-.05 1.25 1.05l.1.55 1.45.55.4-.3q.5-.35.8-.3.45-.05.95.45l1.9 1.85V5.8q.8.75.2 1.65V7.4l-.3.5.6 1.45.65.2h-.05q.95.1 1 1.15l.05 2.7q0 1-1 1.25l-.6.15-.55 1.45.25.45v-.05q.65.95-.2 1.75l-1.75 1.8q-.4.4-.95.4l-.65-.2-.55-.3-1.5.65-.2.6h-.05q-.25.7-.85.9l.15-.05-.3.15h-3.25l-.2-.1q-.65-.2-.85-.95l-.15-.55-1.6-.65-.5.25-.7.25-.6-.15-.05-.05-.3-.2-.1-.05v-.05h-.1l.1-.05-1.6-1.65q-.8-.8-.2-1.7l.3-.45-.65-1.45-.55-.15q-1.05-.25-1-1.25l.05-2.7q-.05-1 .9-1.15l.3-.1h.05l.35-.05.6-1.5-.3-.45q-.55-.9.2-1.6L6.55 4q.45-.5.9-.45.5 0 .85.3l.4.3 1.45-.55.1-.6v.05q.2-1.1 1.2-1.05h2.8"/><path d="M11.75 0q1-.05 1.25 1.05l.1.55 1.45.55.4-.3q.5-.35.8-.3.45-.05.95.45l1.9 1.85V3.8q.8.75.2 1.65V5.4l-.3.5.6 1.45.35.1.3.1h-.05q.95.1 1 1.15l.05 2.7q0 1-1 1.25l-.6.15-.55 1.45.25.45v-.05q.65.95-.2 1.75l-1.75 1.8q-.4.4-.95.4l-.65-.2-.55-.3-1.5.65-.2.6H13q-.25.7-.85.9l.15-.05-.3.15H8.75l-.1-.05-.1-.05q-.65-.2-.85-.95l-.15-.55-1.6-.65-.5.25-.7.25-.6-.15-.05-.05-.3-.2-.1-.05v-.05h-.1l.1-.05-1.6-1.65q-.8-.8-.2-1.7l.3-.45-.65-1.45-.55-.15q-1.05-.25-1-1.25l.05-2.7Q0 7.65 1 7.55H.95l.3-.1h.05l.35-.05.6-1.5-.3-.45q-.55-.9.2-1.6L4.05 2q.45-.5.9-.45l.85.3.4.3 1.45-.55.1-.6v.05q.2-1.1 1.2-1.05h2.8"/><path d="M-2.45-4.4q-1.3 0-2.1.95t-.8 2.65V.95q0 1.65.7 2.55.7.85 1.85.85 1.05 0 1.75-.8.65-.8.65-2.1t-.5-2.1q-.55-.8-1.45-.8l-.75.1-.6.45q0-1.05.35-1.6.3-.55.9-.55l.6.05.5.2.3-1.25-.65-.25-.75-.1m4.3 3.65v1.3h.8q.5 0 .7.3l.2 1-.2.85q-.25.35-.65.35-.35 0-.6-.3l-.2-.85H.25q0 1.25.7 1.85.7.6 1.7.6 1.15 0 1.85-.65.7-.65.7-1.85L4.9.65 4-.15l.8-.75.3-1.05q0-1.2-.65-1.85-.65-.6-1.8-.6-1 0-1.65.65-.65.6-.65 1.7h1.6l.25-.75.5-.25q.4 0 .55.3l.2.8q0 .6-.2.9-.15.3-.6.3h-.8m3.4-6.8h.15l.15.1 1.9 1.85.05.35-.5.8-.05.4.85 1.9q.1.25.35.3l.95.2.15.2.05 2.7-.2.25-1 .2-.25.25q-.25 1.2-.8 2-.05.25.05.35l.45.75q.15.3-.05.5L5.75 7.3l-.15.1h-.05l-.15-.05-.85-.45-.15-.05-.05-.05-.05.05-.15.05q-1.05.6-1.95.8l-.3.3-.25.9-.2.25h-3l-.2-.25L-2 8l-.3-.3-1.95-.8-.1-.05-.1-.05-.05.05-.15.05-.8.45-.2.05-.2-.1-1.75-1.75q-.2-.2-.05-.5l.5-.75v-.35q-.6-1-.8-2l-.25-.25-1-.2-.2-.25.05-2.7.15-.2 1-.2.3-.3.85-1.9v-.4l-.55-.8.05-.35 1.9-1.85.1-.05.2-.05.15.05.8.55v.05l.15.05h.05l.05-.05q.95-.5 2.05-.8l.25-.3.2-.95.2-.2h2.8l.2.2.2.95.3.3q1.1.3 2 .8l.1.05h.05l.15-.1.75-.55.15-.05" fill="url(#a)" transform="translate(10.4 10.15)"/><path d="M-2.8-.15q.35 0 .55.4l.2 1.2-.2 1.15-.55.45q-.45 0-.65-.55L-3.7.95V.3l.35-.35.55-.1" fill="url(#b)" transform="translate(10.4 10.15)"/></g></svg>