<svg xmlns="http://www.w3.org/2000/svg" width="23.25" height="22.35" viewBox="0 0 23.25 22.35"><g fill-rule="evenodd"><path d="M3.85-8.15q1-.05 1.25 1.05l.1.55L6.65-6l.4-.3q.5-.35.8-.3.45-.05.95.45l1.9 1.85v-.05q.8.75.2 1.65v-.05l-.3.5.6 1.45.65.2h-.05q.95.1 1 1.15l.05 2.7q0 1-1 1.25l-.6.15-.55 1.45.25.45V6.5q.65.95-.2 1.75L9 10.05q-.4.4-.95.4l-.65-.2-.55-.3-1.5.65-.2.6H5.1q-.25.7-.85.9l.15-.05-.3.15H.85l-.2-.1q-.65-.2-.85-.95l-.15-.55-1.6-.65-.5.25-.7.25-.6-.15-.05-.05-.3-.2-.1-.05v-.05h-.1l.1-.05-1.6-1.65q-.8-.8-.2-1.7l.3-.45-.65-1.45-.55-.15q-1.05-.25-1-1.25l.05-2.7q-.05-1 .9-1.15l.3-.1h.05l.35-.05.6-1.5-.3-.45q-.55-.9.2-1.6l1.9-1.85q.45-.5.9-.45.5 0 .85.3l.4.3 1.45-.55.1-.6v.05q.2-1.1 1.2-1.05h2.8" transform="translate(10.4 10.15)"/><path d="M1.35-10.15q1-.05 1.25 1.05l.1.55L4.15-8l.4-.3q.5-.35.8-.3.45-.05.95.45L8.2-6.3v-.05q.8.75.2 1.65v-.05l-.3.5.6 1.45.35.1.3.1H9.3q.95.1 1 1.15l.05 2.7q0 1-1 1.25l-.6.15L8.2 4.1l.25.45V4.5q.65.95-.2 1.75L6.5 8.05q-.4.4-.95.4l-.65-.2-.55-.3-1.5.65-.2.6H2.6q-.25.7-.85.9l.15-.05-.3.15h-3.25l-.1-.05-.1-.05q-.65-.2-.85-.95l-.15-.55-1.6-.65-.5.25-.7.25-.6-.15-.05-.05-.3-.2-.1-.05v-.05h-.1l.1-.05-1.6-1.65q-.8-.8-.2-1.7l.3-.45-.65-1.45-.55-.15q-1.05-.25-1-1.25l.05-2.7q-.05-1.05.95-1.15h-.05l.3-.1h.05l.35-.05.6-1.5-.3-.45q-.55-.9.2-1.6l1.9-1.85q.45-.5.9-.45l.85.3.4.3 1.45-.55.1-.6v.05q.2-1.1 1.2-1.05h2.8" transform="translate(10.4 10.15)"/><path fill="url(#gradient0)" d="M-4.8 1.05l1.45.1.2-.55.5-.15q.4 0 .6.4l.2 1.25q0 .65-.15 1.1-.2.4-.6.4-.35 0-.55-.3l-.2-.9-1.65.05q0 1.2.7 1.85.7.6 1.7.6 1.2 0 1.8-.8.6-.8.6-2.05 0-1.4-.55-2.1-.5-.75-1.55-.75l-.55.15-.4.3V-.4l.15-1.95h2.65v-1.4H-4.4l-.4 4.8M4.15 4.8v-8.55L1.2-3v1.1l1.3-.05V4.8h1.65m1.1-12.35h.15l.15.1 1.9 1.85.05.35-.5.8-.05.4.85 1.9q.1.25.35.3l.95.2.15.2.05 2.7-.2.25-1 .2-.25.25q-.25 1.2-.8 2-.05.25.05.35l.45.75q.15.3-.05.5L5.75 7.3l-.15.1h-.05l-.15-.05-.85-.45-.15-.05-.05-.05-.05.05-.15.05q-1.05.6-1.95.8l-.3.3-.25.9-.2.25h-3l-.2-.25L-2 8l-.3-.3-1.95-.8-.1-.05-.1-.05-.05.05-.15.05-.8.45-.2.05-.2-.1-1.75-1.75q-.2-.2-.05-.5l.5-.75v-.35q-.6-1-.8-2l-.25-.25-1-.2-.2-.25.05-2.7.15-.2 1-.2.3-.3.85-1.9v-.4l-.55-.8.05-.35 1.9-1.85.1-.05.2-.05.15.05.8.55v.05l.15.05h.05l.05-.05q.95-.5 2.05-.8l.25-.3.2-.95.2-.2h2.8l.2.2.2.95.3.3q1.1.3 2 .8l.1.05h.05l.15-.1.75-.55.15-.05" transform="translate(10.4 10.15)"/></g><radialGradient id="gradient0" cx="0" cy="0" r="819.2" gradientTransform="translate(-.05) scale(.0118)" gradientUnits="userSpaceOnUse" spreadMethod="pad"><stop offset="0" stop-color="#f8df89"/><stop offset="1" stop-color="#f5cb5b"/></radialGradient></svg>
