<svg xmlns="http://www.w3.org/2000/svg" xmlns:xlink="http://www.w3.org/1999/xlink" width="35.9" height="33.55"><g transform="translate(17.95 33.4)"><use width="35.9" height="35.9" transform="matrix(1 0 0 .0724 -17.95 -2.438)" xlink:href="#sprite0"/><use width="20" height="33.4" transform="translate(-10 -33.4)" xlink:href="#shape1"/></g><defs><path id="shape0" fill="#f0f" fill-opacity="0" fill-rule="evenodd" d="M1.55 1.55h35.9v35.9H1.55V1.55" transform="translate(-1.55 -1.55)"/><use id="sprite0" width="35.9" height="35.9" xlink:href="#shape0"/><g id="shape1" fill-rule="evenodd"><path d="M7.3-23.85q0-3.6-2.35-6.1L3.1-31.4q-1.8-1.05-4-1.05-3.35 0-5.85 2.5-2.4 2.6-2.4 6.1l.1.9.1.85q.55 2.85 2.85 8.05l.6 1.3.45.9 4.15 8.1q8.2-15.3 8.2-20.1M-.45-2.5l-.45.8-.8-1.55q-8.3-15.6-8.3-20.6 0-3.9 2.7-6.8 1.4-1.45 3.15-2.15 1.5-.6 3.25-.6 1.8 0 3.3.6 1.75.7 3.2 2.15l.65.8q2.05 2.55 2.05 6 0 5-8.35 20.6l-.4.75" transform="translate(10 33.4)"/><path fill="#f8c95d" d="M7.3-23.85q0 4.8-8.2 20.1l-4.15-8.1-.45-.9-.6-1.3q-2.3-5.2-2.85-8.05l-.1-.85-.1-.9q0-3.5 2.4-6.1 2.5-2.5 5.85-2.5 2.2 0 4 1.05l1.85 1.45q2.35 2.5 2.35 6.1m-2.45 0q0-2.35-1.75-4.2-1.6-1.7-4-1.7t-4.05 1.7q-1.6 1.75-1.6 4.2 0 2.5 1.6 4.3Q-3.3-17.8-.9-17.8t4-1.75q1.75-1.8 1.75-4.3" transform="translate(10 33.4)"/><path d="M-.45-2.5l.4-.75q8.35-15.6 8.35-20.6 0-3.45-2.05-6l1.05.95q2.7 2.85 2.7 6.8 0 4.95-8.35 20.55L.9 0 .05-1.55l-.5-.95" transform="translate(10 33.4)"/><path d="M4.85-23.85q0 2.5-1.75 4.3-1.6 1.75-4 1.75t-4.05-1.75q-1.6-1.8-1.6-4.3 0-2.45 1.6-4.2 1.65-1.7 4.05-1.7t4 1.7q1.75 1.85 1.75 4.2m-1.15 0q0-2-1.35-3.35Q1-28.6-.9-28.6q-1.95 0-3.15 1.4-1.35 1.35-1.35 3.35 0 2.05 1.35 3.45 1.2 1.35 3.15 1.35 1.9 0 3.25-1.35 1.35-1.4 1.35-3.45" transform="translate(10 33.4)"/><path fill="#ffffc9" d="M3.7-23.85q0 2.05-1.35 3.45Q1-19.05-.9-19.05q-1.95 0-3.15-1.35-1.35-1.4-1.35-3.45 0-2 1.35-3.35 1.2-1.4 3.15-1.4 1.9 0 3.25 1.4 1.35 1.35 1.35 3.35" transform="translate(10 33.4)"/></g></defs></svg>
