<svg height="23.25" width="29.6" xmlns="http://www.w3.org/2000/svg"><g fill-rule="evenodd"><path d="M29.6 6.6v16.65H2.5V6.6H9l7.05-4.1 7.1 4.1h6.45" fill="#081a15"/><path d="M12.95 5.9v7.45h1.15V5.9h-1.15m7.75 8.15H6.4v6h1.45v-3.3h.05q0-.6.45-1 .4-.45 1-.45t1.05.45q.4.4.4 1h.05v3.3h1.2v-3.3h.05q0-.6.45-1 .4-.45 1-.45t1.05.45q.4.4.4 1h.05v3.3h1.2v-3.3q.05-.6.45-1 .45-.45 1.05-.45.6 0 1.05.45.4.4.4 1v3.3h1.5v-6m2.35 5.1V17q0-.4.3-.7.3-.3.7-.3.4 0 .7.3l.3.7v2.15h-2m3.35-4h-5V20h5v-4.85M23.05 12v-2l2-.05v2l-2 .05m4.05-7.9v16.65H0V4.1h6.5L13.55 0l7.1 4.1h6.45m-4.05 4.45v-2h2v2h-2M19.8 12v-2h2v2h-2m0-3.45v-2h2v2h-2M18.65 5.2V4.15H8.45V5.2h10.2m7.75-.4h-7.05v1.1h-.7v7.45h2.75v1.1h5V4.8m-8.45 1.1H16.8v7.45h1.15V5.9m-3.15 0v7.45h1.3V5.9h-1.3M13.55.8L9.1 3.4l-.1.05h9.1l-.05-.05-4.5-2.6M4.1 8.55h-2v-2h2v2m3.25 3.4h-2v-2h2v2m0-3.4h-2v-2h2v2m2.8-2.65h-1v7.45h1V5.9m.7 0v7.45h1.4V5.9h-1.4M.7 4.8v9.65h5v-1.1h2.75V5.9h-.7V4.8H.7m3.4 7.15h-2v-2h2v2m0 7.2h-2V17l.3-.7q.3-.3.7-.3.4 0 .7.3.3.3.3.7v2.15M.7 20h5v-4.85h-5V20"/><path d="M13.55.8l4.5 2.6.05.05H9l.1-.05L13.55.8m1.25 5.1h1.3v7.45h-1.3V5.9m3.15 0v7.45H16.8V5.9h1.15m.7-.7H8.45V4.15h10.2V5.2m7.75-.4v9.65h-5v-1.1h-2.75V5.9h.7V4.8h7.05M19.8 12h2v-2h-2v2m3.25-3.45h2v-2h-2v2m-3.25 0h2v-2h-2v2M23.05 12l2-.05v-2l-2 .05v2m3.35 3.15V20h-5v-4.85h5m-3.35 4h2V17l-.3-.7q-.3-.3-.7-.3-.4 0-.7.3-.3.3-.3.7v2.15m-2.35-5.1v6h-1.5v-3.3q0-.6-.4-1-.45-.45-1.05-.45-.6 0-1.05.45-.4.4-.45 1v3.3h-1.2v-3.3H15q0-.6-.4-1-.45-.45-1.05-.45-.6 0-1 .45-.45.4-.45 1h-.05v3.3h-1.2v-3.3h-.05q0-.6-.4-1-.45-.45-1.05-.45-.6 0-1 .45-.45.4-.45 1h-.05v3.3H6.4v-6h14.3M12.95 5.9h1.15v7.45h-1.15V5.9m-5.6 2.65v-2h-2v2h2m0 3.4v-2h-2v2h2M4.1 8.55v-2h-2v2h2M.7 4.8h7.05v1.1h.7v7.45H5.7v1.1h-5V4.8m10.15 1.1h1.4v7.45h-1.4V5.9m-.7 0v7.45h-1V5.9h1M4.1 19.15V17q0-.4-.3-.7-.3-.3-.7-.3-.4 0-.7.3l-.3.7v2.15h2m0-7.2v-2h-2v2h2M.7 20v-4.85h5V20h-5" fill="#8cb5e6"/></g></svg>