<?xml version="1.0" encoding="UTF-8" standalone="no"?>
<svg xmlns:xlink="http://www.w3.org/1999/xlink" height="23.25px" width="29.6px" xmlns="http://www.w3.org/2000/svg">
  <g transform="matrix(1.0, 0.0, 0.0, 1.0, 13.05, 10.15)">
    <use height="23.25" transform="matrix(1.0, 0.0, 0.0, 1.0, -13.05, -10.15)" width="29.6" xlink:href="#shape0"/>
  </g>
  <defs>
    <g id="shape0" transform="matrix(1.0, 0.0, 0.0, 1.0, 13.05, 10.15)">
      <path d="M16.55 -3.55 L16.55 13.1 -10.55 13.1 -10.55 -3.55 -4.05 -3.55 3.0 -7.65 10.1 -3.55 16.55 -3.55" fill="#081a15" fill-rule="evenodd" stroke="none"/>
      <path d="M-0.1 -4.25 L-0.1 3.2 1.05 3.2 1.05 -4.25 -0.1 -4.25 M7.65 3.9 L-6.65 3.9 -6.65 9.9 -5.2 9.9 -5.2 6.6 -5.15 6.6 Q-5.15 6.0 -4.7 5.6 -4.3 5.15 -3.7 5.15 -3.1 5.15 -2.65 5.6 -2.25 6.0 -2.25 6.6 L-2.2 6.6 -2.2 9.9 -1.0 9.9 -1.0 6.6 -0.95 6.6 Q-0.95 6.0 -0.5 5.6 -0.1 5.15 0.5 5.15 1.1 5.15 1.55 5.6 1.95 6.0 1.95 6.6 L2.0 6.6 2.0 9.9 3.2 9.9 3.2 6.6 Q3.25 6.0 3.65 5.6 4.1 5.15 4.7 5.15 5.3 5.15 5.75 5.6 6.15 6.0 6.15 6.6 L6.15 9.9 7.65 9.9 7.65 3.9 M10.0 9.0 L10.0 6.85 Q10.0 6.45 10.3 6.15 10.6 5.85 11.0 5.85 11.4 5.85 11.7 6.15 L12.0 6.85 12.0 9.0 10.0 9.0 M13.35 5.0 L8.35 5.0 8.35 9.85 13.35 9.85 13.35 5.0 M10.0 1.85 L10.0 -0.15 12.0 -0.2 12.0 1.8 10.0 1.85 M14.05 -6.05 L14.05 10.6 -13.05 10.6 -13.05 -6.05 -6.55 -6.05 0.5 -10.15 7.6 -6.05 14.05 -6.05 M10.0 -1.6 L10.0 -3.6 12.0 -3.6 12.0 -1.6 10.0 -1.6 M6.75 1.85 L6.75 -0.15 8.75 -0.15 8.75 1.85 6.75 1.85 M6.75 -1.6 L6.75 -3.6 8.75 -3.6 8.75 -1.6 6.75 -1.6 M5.6 -4.95 L5.6 -6.0 -4.6 -6.0 -4.6 -4.95 5.6 -4.95 M13.35 -5.35 L6.3 -5.35 6.3 -4.25 5.6 -4.25 5.6 3.2 8.35 3.2 8.35 4.3 13.35 4.3 13.35 -5.35 M4.9 -4.25 L3.75 -4.25 3.75 3.2 4.9 3.2 4.9 -4.25 M1.75 -4.25 L1.75 3.2 3.05 3.2 3.05 -4.25 1.75 -4.25 M0.5 -9.35 L-3.95 -6.75 -4.05 -6.7 5.05 -6.7 5.0 -6.75 0.5 -9.35 M-8.95 -1.6 L-10.95 -1.6 -10.95 -3.6 -8.95 -3.6 -8.95 -1.6 M-5.7 1.8 L-7.7 1.8 -7.7 -0.2 -5.7 -0.2 -5.7 1.8 M-5.7 -1.6 L-7.7 -1.6 -7.7 -3.6 -5.7 -3.6 -5.7 -1.6 M-2.9 -4.25 L-3.9 -4.25 -3.9 3.2 -2.9 3.2 -2.9 -4.25 M-2.2 -4.25 L-2.2 3.2 -0.8 3.2 -0.8 -4.25 -2.2 -4.25 M-12.35 -5.35 L-12.35 4.3 -7.35 4.3 -7.35 3.2 -4.6 3.2 -4.6 -4.25 -5.3 -4.25 -5.3 -5.35 -12.35 -5.35 M-8.95 1.8 L-10.95 1.8 -10.95 -0.2 -8.95 -0.2 -8.95 1.8 M-8.95 9.0 L-10.95 9.0 -10.95 6.85 -10.65 6.15 Q-10.35 5.85 -9.95 5.85 -9.55 5.85 -9.25 6.15 -8.95 6.45 -8.95 6.85 L-8.95 9.0 M-12.35 9.85 L-7.35 9.85 -7.35 5.0 -12.35 5.0 -12.35 9.85" fill="#000000" fill-rule="evenodd" stroke="none"/>
      <path d="M0.5 -9.35 L5.0 -6.75 5.05 -6.7 -4.05 -6.7 -3.95 -6.75 0.5 -9.35 M1.75 -4.25 L3.05 -4.25 3.05 3.2 1.75 3.2 1.75 -4.25 M4.9 -4.25 L4.9 3.2 3.75 3.2 3.75 -4.25 4.9 -4.25 M5.6 -4.95 L-4.6 -4.95 -4.6 -6.0 5.6 -6.0 5.6 -4.95 M13.35 -5.35 L13.35 4.3 8.35 4.3 8.35 3.2 5.6 3.2 5.6 -4.25 6.3 -4.25 6.3 -5.35 13.35 -5.35 M6.75 1.85 L8.75 1.85 8.75 -0.15 6.75 -0.15 6.75 1.85 M10.0 -1.6 L12.0 -1.6 12.0 -3.6 10.0 -3.6 10.0 -1.6 M6.75 -1.6 L8.75 -1.6 8.75 -3.6 6.75 -3.6 6.75 -1.6 M10.0 1.85 L12.0 1.8 12.0 -0.2 10.0 -0.15 10.0 1.85 M13.35 5.0 L13.35 9.85 8.35 9.85 8.35 5.0 13.35 5.0 M10.0 9.0 L12.0 9.0 12.0 6.85 11.7 6.15 Q11.4 5.85 11.0 5.85 10.6 5.85 10.3 6.15 10.0 6.45 10.0 6.85 L10.0 9.0 M7.65 3.9 L7.65 9.9 6.15 9.9 6.15 6.6 Q6.15 6.0 5.75 5.6 5.3 5.15 4.7 5.15 4.1 5.15 3.65 5.6 3.25 6.0 3.2 6.6 L3.2 9.9 2.0 9.9 2.0 6.6 1.95 6.6 Q1.95 6.0 1.55 5.6 1.1 5.15 0.5 5.15 -0.1 5.15 -0.5 5.6 -0.95 6.0 -0.95 6.6 L-1.0 6.6 -1.0 9.9 -2.2 9.9 -2.2 6.6 -2.25 6.6 Q-2.25 6.0 -2.65 5.6 -3.1 5.15 -3.7 5.15 -4.3 5.15 -4.7 5.6 -5.15 6.0 -5.15 6.6 L-5.2 6.6 -5.2 9.9 -6.65 9.9 -6.65 3.9 7.65 3.9 M-0.1 -4.25 L1.05 -4.25 1.05 3.2 -0.1 3.2 -0.1 -4.25 M-5.7 -1.6 L-5.7 -3.6 -7.7 -3.6 -7.7 -1.6 -5.7 -1.6 M-5.7 1.8 L-5.7 -0.2 -7.7 -0.2 -7.7 1.8 -5.7 1.8 M-8.95 -1.6 L-8.95 -3.6 -10.95 -3.6 -10.95 -1.6 -8.95 -1.6 M-12.35 -5.35 L-5.3 -5.35 -5.3 -4.25 -4.6 -4.25 -4.6 3.2 -7.35 3.2 -7.35 4.3 -12.35 4.3 -12.35 -5.35 M-2.2 -4.25 L-0.8 -4.25 -0.8 3.2 -2.2 3.2 -2.2 -4.25 M-2.9 -4.25 L-2.9 3.2 -3.9 3.2 -3.9 -4.25 -2.9 -4.25 M-8.95 9.0 L-8.95 6.85 Q-8.95 6.45 -9.25 6.15 -9.55 5.85 -9.95 5.85 -10.35 5.85 -10.65 6.15 L-10.95 6.85 -10.95 9.0 -8.95 9.0 M-8.95 1.8 L-8.95 -0.2 -10.95 -0.2 -10.95 1.8 -8.95 1.8 M-12.35 9.85 L-12.35 5.0 -7.35 5.0 -7.35 9.85 -12.35 9.85" fill="#8cb5e6" fill-rule="evenodd" stroke="none"/>
    </g>
  </defs>
</svg>
