<svg height="20.65" width="22.45" xmlns="http://www.w3.org/2000/svg"><g fill-rule="evenodd"><path d="M9.15 3.05V4.3l1.1-1.05-.05-.05L12.4 1l2.15 2.1v.05l7.9 7.85-1.95 1.9v7.75h-3.75v-1.7h-8.6v1.7H4.4v-7.8L2.5 10.9l2.9-2.85v-5h3.75" fill="#081a15"/><path d="M6.65 2.05V3.3l1.1-1.05-.05-.05L9.9 0l2.15 2.1v.05l7.9 7.85L18 11.9v7.75h-3.75v-1.7h-8.6v1.7H1.9v-7.8L0 9.9l2.9-2.85v-5h3.75"/><path d="M14.55 16.95h-1.8V6.8l1.8 1.8v8.35M12.05 6.1v5.3h-1.8V4.3l1.8 1.8M17 18.65h-1.8V9.3l1.8 1.8v7.55M9.9 1.35L18.5 10l-.85.85-8.6-8.65.85-.85M5.65 3v1.7l-1.8 1.8V3h1.8M2.2 10.75l-.85-.85L8.6 2.65l.85.85-7.25 7.25M9.55 4.3v7.1h-1.8V6.1l1.8-1.8M7.1 16.95H5.3v-8.4L7.1 6.8v10.15m-2.45 1.7h-1.8v-7.6l1.8-1.8v9.4" fill="#8cb5e6"/></g></svg>