<svg xmlns:xlink="http://www.w3.org/1999/xlink" height="32" width="32" xmlns="http://www.w3.org/2000/svg"><g transform="translate(16.05 16.05)"><use height="19.95" transform="translate(-9.95 -9.95)" width="19.95" xlink:href="#sprite0"/><use height="26.8" transform="translate(-13.3 -13.35)" width="26.8" xlink:href="#shape2"/><use height="32.1" transform="translate(-10.695 -10.645) scale(.6663)" width="32.1" xlink:href="#sprite2"/><use height="13.1" transform="translate(-8.65 -6.3)" width="16.5" xlink:href="#shape4"/></g><defs><path d="M13.5.05q0 5.55-3.95 9.45-3.9 3.95-9.45 3.95-5.55 0-9.5-3.95-3.9-3.9-3.9-9.45 0-5.55 3.9-9.5 3.95-3.9 9.5-3.9t9.45 3.9Q13.5-5.5 13.5.05" fill="#fff" fill-opacity=".098" fill-rule="evenodd" transform="translate(13.3 13.35)" id="shape2"/><path d="M-4.7 4.45q1.25-.8 2.85-2.55l1.6 1.6-2.6 2.7q-.5.75-1.3.5-.85-.15-1.05-.95-.15-.85.5-1.3m.75 1.85l.6-.25.25-.55q0-.35-.25-.6t-.6-.25q-.4 0-.55.25l-.25.6.15.55.65.25m9.1-1.65q.4.35.4.8l-.25.6-.9.65q-.5.25-.85-.25L-3.15-.8-2-1.95-.65-.7 4 3.55l1.15 1.1m-9.4-5.75l-.6.1q-.5.15-.6.7l-.3.5-.7.75q-.25.25-.5 0L-8.5-.7q-.25-.15 0-.5l.85-.85.4-.15q.5-.1.6-.55l.15-.75.1-.25 1.3-1.35.35-.15q.3.15.75-.2 1.55-.9 2.75-.85 1.25.1 2 1.1l.1.25v.25l-.45.2-.65-.25q-1.2-.3-1.7.25l-.5 1v.45q.1.25-.2.5l-1.2 1.25-.4.2m12-3.25q.25 1 0 1.85-.25 1-.75 1.45-.5.45-1.65.6H4.3Q3.6-.5 3 .15L2.25.9.6-.6l.9-.9q.6-.55.5-1.35Q1.85-4 2.35-5q.45-1 1.8-1.2h1.1l.75.1-1.85 1.75q-.35.35-.35.8 0 .35.3.75l.55.45q.6.35 1.15-.15l1.95-1.85" fill="#fff" fill-rule="evenodd" transform="translate(8.65 6.3)" id="shape4"/><use height="19.95" width="19.95" xlink:href="#shape0" id="sprite0"/><use height="32.1" width="32.1" xlink:href="#shape3" id="sprite2"/><g id="shape3" fill-rule="evenodd"><path d="M0 15q-6.2 0-10.6-4.4Q-15 6.2-15 0q0-6.2 4.4-10.6Q-6.2-15 0-15q6.25 0 10.6 4.4Q15-6.2 15 0q0 6.2-4.4 10.6Q6.2 15 0 15" transform="translate(16.05 16.05)"/><path d="M0-14.85q-6.1 0-10.5 4.35-4.35 4.4-4.35 10.5t4.35 10.45q4.4 4.4 10.5 4.4t10.5-4.4Q14.85 6.1 14.85 0T10.5-10.5Q6.2-14.85 0-14.85m0 30.9q-6.65 0-11.35-4.7-4.7-4.7-4.7-11.35 0-6.65 4.7-11.35 4.7-4.7 11.35-4.7 6.65 0 11.35 4.7 4.7 4.7 4.7 11.35 0 6.65-4.7 11.35-4.7 4.7-11.35 4.7" fill="#fff" transform="translate(16.05 16.05)"/></g></defs></svg>