<svg xmlns="http://www.w3.org/2000/svg" xmlns:xlink="http://www.w3.org/1999/xlink" viewBox="0 0 35.9 33.5"><defs/><g transform="translate(18 33.4)"><use width="35.9" height="35.9" transform="matrix(1 0 0 .0724 -18 -2.4)" xlink:href="#sprite0"/><use width="20" height="33.4" transform="translate(-10 -33.4)" xlink:href="#shape1"/></g><defs><path id="shape0" fill="#f0f" fill-opacity="0" fill-rule="evenodd" d="M1.6 1.6h35.9v35.9h-36v-36" transform="translate(-1.6 -1.6)"/><use id="sprite0" width="35.9" height="35.9" xlink:href="#shape0"/><g id="shape1" fill-rule="evenodd"><path d="M7.3-23.9q0-3.6-2.3-6L3-31.4q-1.8-1-4-1-3.4 0-5.8 2.4-2.5 2.6-2.5 6.1l.1 1 .2.8q.5 2.9 2.8 8l.6 1.3.5 1 4.1 8q8.2-15.3 8.2-20M-.5-2.6l-.4.8-.8-1.6Q-10-18.9-10-23.9q0-3.9 2.7-6.8 1.4-1.4 3.1-2.1 1.6-.6 3.3-.6 1.8 0 3.3.6 1.8.7 3.2 2.1l.7.8q2 2.6 2 6 0 5-8.4 20.6l-.3.8" transform="translate(10 33.4)"/><path fill="#f8c95d" d="M7.3-23.9Q7.3-19-.9-3.8l-4.1-8-.5-1-.6-1.3q-2.3-5.2-2.8-8l-.2-.8v-1q0-3.5 2.3-6 2.5-2.6 5.9-2.6 2.2 0 4 1.1L5-30q2.3 2.6 2.3 6.1m-2.5 0q0-2.3-1.7-4.2-1.6-1.6-4-1.6t-4 1.6q-1.6 1.8-1.6 4.3 0 2.4 1.5 4.3 1.7 1.7 4.1 1.7 2.4 0 4-1.8 1.7-1.8 1.7-4.3" transform="translate(10 33.4)"/><path d="M-.5-2.5l.5-.8q8.3-15.6 8.3-20.6 0-3.4-2-6l1 1q2.7 2.8 2.7 6.8 0 5-8.3 20.6L.9 0 .1-1.6l-.5-.9" transform="translate(10 33.4)"/><path d="M4.8-23.9q0 2.5-1.7 4.3-1.6 1.8-4 1.8t-4-1.8q-1.6-1.8-1.6-4.3 0-2.4 1.5-4.2 1.7-1.6 4.1-1.6 2.4 0 4 1.6 1.7 1.9 1.7 4.3m-1.1 0q0-2-1.4-3.4Q1-28.6-.9-28.6q-2 0-3.1 1.4-1.4 1.3-1.4 3.3 0 2.1 1.4 3.5Q-3-19.1-1-19.1q1.9 0 3.3-1.3 1.3-1.4 1.3-3.5" transform="translate(10 33.4)"/><path fill="#ffffc9" d="M3.7-23.9q0 2.1-1.4 3.5Q1-19.1-.9-19.1q-2 0-3.1-1.3-1.4-1.4-1.4-3.5 0-2 1.4-3.3Q-3-28.6-1-28.6q1.9 0 3.3 1.4 1.3 1.3 1.3 3.3" transform="translate(10 33.4)"/></g></defs></svg>